<?xml version="1.0" encoding="utf-8"?>
<!-- Generator: Adobe Illustrator 19.2.1, SVG Export Plug-In . SVG Version: 6.00 Build 0)  -->
<svg version="1.1" xmlns="http://www.w3.org/2000/svg" xmlns:xlink="http://www.w3.org/1999/xlink" x="0px" y="0px"
	 viewBox="0 0 620 300" style="enable-background:new 0 0 620 300;" xml:space="preserve">
<style type="text/css">
	.st0{fill:#F2F0D3;}
	.st1{fill:#3D5191;stroke:#0B0F1C;stroke-width:3;stroke-linecap:round;stroke-linejoin:round;stroke-miterlimit:10;}
	.st2{fill:#DADCE0;stroke:#0B0F1C;stroke-width:3;stroke-linecap:round;stroke-linejoin:round;stroke-miterlimit:10;}
	.st3{fill:#38631E;stroke:#0B0F1C;stroke-width:3;stroke-linecap:round;stroke-linejoin:round;stroke-miterlimit:10;}
	.st4{fill:#0B0F1C;}
	.st5{fill:#0B0F1C;stroke:#0B0F1C;stroke-width:2;stroke-linecap:round;stroke-linejoin:round;stroke-miterlimit:10;}
	.st6{fill:#0B0F1C;stroke:#0B0F1C;stroke-width:4;stroke-linecap:round;stroke-linejoin:round;stroke-miterlimit:10;}
	.st7{fill:#F5F6F7;}
	.st8{fill:#D14F29;}
	.st9{clip-path:url(#SVGID_2_);fill:#CBF7F7;}
	.st10{clip-path:url(#SVGID_2_);}
	.st11{fill:#D36033;}
	.st12{fill:#BF5230;}
	.st13{fill:#6CB8DD;}
	.st14{fill:#5CA7C4;}
	.st15{clip-path:url(#SVGID_2_);fill:#396B2B;}
	.st16{clip-path:url(#SVGID_2_);fill:#458436;}
	.st17{fill:#D3E024;}
	.st18{fill:#F5F7F7;stroke:#CEA629;stroke-width:2;stroke-miterlimit:10;}
	.st19{clip-path:url(#SVGID_2_);fill:none;stroke:#AAAAAA;stroke-width:2;stroke-miterlimit:10;}
	.st20{clip-path:url(#SVGID_2_);fill:none;stroke:#AAAAAA;stroke-miterlimit:10;}
	.st21{clip-path:url(#SVGID_2_);fill:#53AEB7;}
	.st22{clip-path:url(#SVGID_2_);fill:#D14F29;}
	.st23{clip-path:url(#SVGID_2_);fill:#B74329;}
	.st24{clip-path:url(#SVGID_2_);fill:#3D3735;}
	.st25{clip-path:url(#SVGID_2_);fill:none;stroke:#D14F29;stroke-width:4;stroke-miterlimit:10;}
	.st26{clip-path:url(#SVGID_2_);fill:#70CCE5;}
	.st27{clip-path:url(#SVGID_2_);fill:#3DA0B7;}
	.st28{clip-path:url(#SVGID_2_);fill:#F5F7F7;}
	.st29{clip-path:url(#SVGID_2_);fill:#F5F7F7;stroke:#D14F29;stroke-width:2;stroke-miterlimit:10;}
	.st30{fill:#396B2B;}
	.st31{fill:#458436;}
	.st32{clip-path:url(#SVGID_2_);fill:#DDCD36;}
	.st33{fill:none;stroke:#3DA0B7;stroke-width:3;stroke-linecap:round;stroke-linejoin:round;stroke-miterlimit:10;}
</style>
<g id="Layer_1">
	<rect class="st0" width="620" height="300"/>
</g>
<g id="Layer_2">
	<g>
		
			<rect x="85.2" y="100.3" transform="matrix(4.490701e-11 1 -1 4.490701e-11 273.674 32.4815)" class="st1" width="70.8" height="105.6"/>
		
			<rect x="80.8" y="113.1" transform="matrix(5.107540e-11 1 -1 5.107540e-11 213.7414 30.2395)" class="st2" width="22" height="17.8"/>
		<g>
			
				<rect x="91.7" y="150.1" transform="matrix(4.492566e-11 1 -1 4.492566e-11 265.3984 58.4256)" class="st3" width="23.6" height="23.6"/>
			
				<rect x="97.6" y="156" transform="matrix(4.492566e-11 1 -1 4.492566e-11 265.3984 58.4256)" class="st4" width="11.8" height="11.8"/>
		</g>
		<rect x="60.2" y="165.6" class="st5" width="15.3" height="9"/>
		<polygon class="st6" points="164.7,127 117.9,127 117.9,127 164.7,127 		"/>
		<polygon class="st6" points="164.7,172 126.5,172 126.5,172 164.7,172 		"/>
		<g>
			<path class="st7" d="M150.1,140.1l-1.9-4.1c-0.1-0.2-0.3-0.3-0.5-0.3c-0.2,0-0.4,0.1-0.5,0.3l-2,3.5l-1.7-3.5
				c-0.1-0.2-0.3-0.3-0.5-0.3c-0.2,0-0.4,0.1-0.5,0.3l-2,3.5l-1.7-3.5c-0.1-0.2-0.3-0.3-0.5-0.3c-0.2,0-0.4,0.1-0.5,0.3l-2,3.5
				l-1.7-3.5c-0.1-0.2-0.3-0.3-0.5-0.3c-0.2,0-0.4,0.1-0.5,0.3l-2,3.5l-1.7-3.5c-0.1-0.2-0.3-0.3-0.5-0.3c-0.2,0-0.4,0.1-0.5,0.3
				l-2.2,4.1c-0.2,0.3-0.1,0.6,0.2,0.8c0.3,0.2,0.6,0.1,0.8-0.2l1.7-3.1l1.4,3c0.1,0.2,0.3,0.3,0.5,0.3c0.1,0,0.2,0,0.2-0.1
				c0,0,0,0,0,0c0.3,0.1,0.6,0,0.7-0.2l1.7-3.1l1.4,3c0.1,0.2,0.3,0.3,0.5,0.3c0.1,0,0.2,0,0.2-0.1c0,0,0,0,0,0
				c0.3,0.1,0.6,0,0.7-0.2l1.7-3.1l1.4,3c0.1,0.2,0.3,0.3,0.5,0.3c0.1,0,0.2,0,0.2-0.1c0,0,0,0,0,0c0.3,0.1,0.6,0,0.7-0.2l1.7-3.1
				l1.4,3c0.1,0.2,0.3,0.3,0.5,0.3c0.1,0,0.2,0,0.2-0.1c0,0,0,0,0,0c0.3,0.1,0.6,0,0.7-0.2l1.7-3.1l1.4,3c0.1,0.2,0.3,0.3,0.5,0.3
				c0.1,0,0.2,0,0.2-0.1C150.1,140.7,150.2,140.4,150.1,140.1z"/>
		</g>
	</g>
</g>
<g id="Layer_5">
	<g>
		<path class="st8" d="M229,153.3h-28.4c-1.7,0-3.2-1.4-3.2-3.2l0,0c0-1.7,1.4-3.2,3.2-3.2H229c1.7,0,3.2,1.4,3.2,3.2l0,0
			C232.2,151.9,230.7,153.3,229,153.3z"/>
		<path class="st8" d="M211.6,164.3v-28.4c0-1.7,1.4-3.2,3.2-3.2l0,0c1.7,0,3.2,1.4,3.2,3.2v28.4c0,1.7-1.4,3.2-3.2,3.2l0,0
			C213,167.5,211.6,166.1,211.6,164.3z"/>
	</g>
	<g>
		<path class="st8" d="M282.7,153.3h-28.4c-1.7,0-3.2-1.4-3.2-3.2l0,0c0-1.7,1.4-3.2,3.2-3.2h28.4c1.7,0,3.2,1.4,3.2,3.2l0,0
			C285.8,151.9,284.4,153.3,282.7,153.3z"/>
		<path class="st8" d="M265.3,164.3v-28.4c0-1.7,1.4-3.2,3.2-3.2l0,0c1.7,0,3.2,1.4,3.2,3.2v28.4c0,1.7-1.4,3.2-3.2,3.2l0,0
			C266.7,167.5,265.3,166.1,265.3,164.3z"/>
	</g>
</g>
<g id="Layer_4">
	<g>
		<defs>
			<circle id="SVGID_1_" cx="480.8" cy="152.1" r="96.5"/>
		</defs>
		<clipPath id="SVGID_2_">
			<use xlink:href="#SVGID_1_"  style="overflow:visible;"/>
		</clipPath>
		<rect x="384.3" y="55.7" class="st9" width="197.7" height="130.7"/>
		<g class="st10">
			<rect x="417.5" y="148.3" class="st11" width="25" height="12.3"/>
			<rect x="420" y="148.3" class="st12" width="2.5" height="12.3"/>
			<rect x="425" y="148.3" class="st12" width="2.5" height="12.3"/>
			<rect x="430" y="148.3" class="st12" width="2.5" height="12.3"/>
			<rect x="435" y="148.3" class="st12" width="2.5" height="12.3"/>
			<rect x="440" y="148.3" class="st12" width="2.5" height="12.3"/>
		</g>
		<g class="st10">
			<rect x="388.4" y="148.3" class="st13" width="25" height="12.3"/>
			<rect x="390.9" y="148.3" class="st14" width="2.5" height="12.3"/>
			<rect x="395.9" y="148.3" class="st14" width="2.5" height="12.3"/>
			<rect x="400.9" y="148.3" class="st14" width="2.5" height="12.3"/>
			<rect x="405.9" y="148.3" class="st14" width="2.5" height="12.3"/>
			<rect x="410.9" y="148.3" class="st14" width="2.5" height="12.3"/>
		</g>
		<rect x="402.2" y="136" class="st15" width="25" height="12.3"/>
		<rect x="404.7" y="136" class="st16" width="2.5" height="12.3"/>
		<rect x="409.7" y="136" class="st16" width="2.5" height="12.3"/>
		<rect x="414.7" y="136" class="st16" width="2.5" height="12.3"/>
		<rect x="419.7" y="136" class="st16" width="2.5" height="12.3"/>
		<rect x="424.7" y="136" class="st16" width="2.5" height="12.3"/>
		<g class="st10">
			<polygon class="st17" points="449.6,159 383,159 383,180 435,180 			"/>
			<circle class="st18" cx="425.5" cy="169.5" r="2.9"/>
			<circle class="st18" cx="413.4" cy="169.5" r="2.9"/>
		</g>
		<line class="st19" x1="483" y1="124" x2="483" y2="136"/>
		<polyline class="st20" points="562.8,123.8 524.3,94.5 461.5,123.8 		"/>
		<rect x="514.2" y="110.7" class="st21" width="20" height="8"/>
		<path class="st22" d="M536.1,114.2h-23.5c-1.9,0-3.4,1.5-3.4,3.4v2.2c0,1.9,1.5,3.4,3.4,3.4h23.5c1.9,0,3.4-1.5,3.4-3.4v-2.2
			C539.5,115.8,538,114.2,536.1,114.2z"/>
		<rect x="509.1" y="117.6" class="st23" width="30.4" height="5.7"/>
		<path class="st24" d="M560.3,133h-3.5c-1.4,0-2.5-1.1-2.5-2.5v-3.5c0-1.4,1.1-2.5,2.5-2.5h3.5c1.4,0,2.5,1.1,2.5,2.5v3.5
			C562.8,131.9,561.6,133,560.3,133z"/>
		<rect x="516" y="161" class="st25" width="17" height="17"/>
		<rect x="384.3" y="185.8" class="st26" width="197.7" height="72.8"/>
		<rect x="384.3" y="230.1" class="st27" width="197.7" height="28.5"/>
		<rect x="384.3" y="180" class="st28" width="197.7" height="6.6"/>
		<line class="st25" x1="533" y1="161" x2="516" y2="178"/>
		<rect x="516" y="144" class="st25" width="17" height="17"/>
		<line class="st25" x1="516" y1="144" x2="533" y2="161"/>
		<rect x="516" y="127" class="st25" width="17" height="17"/>
		<line class="st25" x1="533" y1="127" x2="516" y2="144"/>
		<path class="st25" d="M533,178"/>
		<path class="st22" d="M562.4,121H461.2c-1.6,0-2.8,1.3-2.8,2.8l0,0c0,1.6,1.3,2.8,2.8,2.8h101.2c1.6,0,2.8-1.3,2.8-2.8l0,0
			C565.2,122.2,564,121,562.4,121z"/>
		<path class="st22" d="M537.6,106.8H511c-1.1,0-1.9,0.9-1.9,1.9l0,0c0,1.1,0.9,1.9,1.9,1.9h26.6c1.1,0,1.9-0.9,1.9-1.9l0,0
			C539.5,107.7,538.6,106.8,537.6,106.8z"/>
		<path class="st22" d="M524.5,108.7L524.5,108.7c-1.2,0-2.2-1-2.2-2.2V95c0-1.2,1-2.2,2.2-2.2l0,0c1.2,0,2.2,1,2.2,2.2v11.4
			C526.8,107.7,525.7,108.7,524.5,108.7z"/>
		<rect x="516" y="160" class="st25" width="17" height="17"/>
		<line class="st25" x1="533" y1="160" x2="516" y2="177"/>
		<rect x="516" y="160" class="st25" width="17" height="17"/>
		<line class="st25" x1="533" y1="160" x2="516" y2="177"/>
		<circle class="st29" cx="483.2" cy="123.8" r="4.2"/>
		<g class="st10">
			<rect x="470.5" y="136" class="st30" width="25" height="12.3"/>
			<rect x="473" y="136" class="st31" width="2.5" height="12.3"/>
			<rect x="478" y="136" class="st31" width="2.5" height="12.3"/>
			<rect x="483" y="136" class="st31" width="2.5" height="12.3"/>
			<rect x="488" y="136" class="st31" width="2.5" height="12.3"/>
			<rect x="493" y="136" class="st31" width="2.5" height="12.3"/>
		</g>
		<circle class="st32" cx="442.5" cy="70.2" r="26.7"/>
	</g>
	<line class="st33" x1="493" y1="204.5" x2="536" y2="204.5"/>
	<line class="st33" x1="425" y1="204.5" x2="452" y2="204.5"/>
	<line class="st33" x1="477" y1="212.5" x2="520" y2="212.5"/>
</g>
</svg>
