<svg xmlns="http://www.w3.org/2000/svg" viewBox="0 0 620 300"><style>.st0{fill:#f9623e}.st1,.st2,.st3{fill:#3d5191;stroke:#0b0f1c;stroke-width:3;stroke-linecap:round;stroke-linejoin:round;stroke-miterlimit:10}.st2,.st3{fill:#dadce0}.st3{fill:#38631e}.st4,.st5,.st6{fill:#0b0f1c}.st5,.st6{stroke:#0b0f1c;stroke-width:2;stroke-linecap:round;stroke-linejoin:round;stroke-miterlimit:10}.st6{stroke-width:4}.st7{fill:#f5f6f7}.st8,.st9{fill:#f2f7f9;stroke:#0b0f1c;stroke-width:3;stroke-linecap:round;stroke-linejoin:round;stroke-miterlimit:10}.st9{fill:#ebedf2}.st10{fill:#cc3925}.st11{fill:#65b24f}.st12{fill:#ddbe22}.st13{fill:#a5a39a}.st14{fill:#8cd7ed}.st15{fill:#d8a3d8}.st16{fill:#88b578}.st17,.st18{fill:none;stroke:#0b0f1c;stroke-width:3;stroke-linecap:round;stroke-linejoin:round;stroke-miterlimit:10}.st18{fill:#3eade5}.st19{fill:#dbb92a}.st20{fill:#d85830}.st21{fill:#fff}</style><path class="st0" d="M0 0h620v300H0z" id="Layer_1"/><g id="Layer_2"><path transform="rotate(90 481.596 157.078)" class="st1" d="M446.2 104.3H517v105.6h-70.8z"/><path transform="rotate(90 452.75 125.99)" class="st2" d="M441.8 117.1h22v17.8h-22z"/><path transform="rotate(90 464.486 165.912)" class="st3" d="M452.7 154.1h23.6v23.6h-23.6z"/><path transform="rotate(90 464.486 165.912)" class="st4" d="M458.6 160h11.8v11.8h-11.8z"/><path class="st5" d="M421.2 169.6h15.3v9h-15.3z"/><path class="st6" d="M525.7 131h-46.8 46.8zM525.7 176h-38.2 38.2z"/><g><path class="st7" d="M511.1 144.1l-1.9-4.1c-.1-.2-.3-.3-.5-.3s-.4.1-.5.3l-2 3.5-1.7-3.5c-.1-.2-.3-.3-.5-.3s-.4.1-.5.3l-2 3.5-1.7-3.5c-.1-.2-.3-.3-.5-.3s-.4.1-.5.3l-2 3.5-1.7-3.5c-.1-.2-.3-.3-.5-.3s-.4.1-.5.3l-2 3.5-1.7-3.5c-.1-.2-.3-.3-.5-.3s-.4.1-.5.3l-2.2 4.1c-.2.3-.1.6.2.8.3.2.6.1.8-.2l1.7-3.1 1.4 3c.1.2.3.3.5.3.1 0 .2 0 .2-.1.3.1.6 0 .7-.2l1.7-3.1 1.4 3c.1.2.3.3.5.3.1 0 .2 0 .2-.1.3.1.6 0 .7-.2l1.7-3.1 1.4 3c.1.2.3.3.5.3.1 0 .2 0 .2-.1.3.1.6 0 .7-.2l1.7-3.1 1.4 3c.1.2.3.3.5.3.1 0 .2 0 .2-.1.3.1.6 0 .7-.2l1.7-3.1 1.4 3c.1.2.3.3.5.3.1 0 .2 0 .2-.1 1.1.3 1.2 0 1.1-.3z"/></g></g><g id="Layer_3"><path class="st8" d="M343.5 161.4h-6.8c-1.8 0-3.2-1.4-3.2-3.2v-3.4c0-1.8 1.4-3.2 3.2-3.2h6.8c1.8 0 3.2 1.4 3.2 3.2v3.4c0 1.8-1.4 3.2-3.2 3.2z"/><path class="st9" d="M53.2 92.6h191v122.9h-191zM54 109.5h190"/><circle class="st10" cx="64.8" cy="100.8" r="3.5"/><circle class="st11" cx="77" cy="100.8" r="3.5"/><circle class="st12" cx="89.2" cy="100.8" r="3.5"/><path class="st13" d="M64.8 121.3h60.6v44.2H64.8z"/><path class="st14" d="M64.8 170h60.6v7H64.8z"/><path class="st15" d="M64.8 182.6h48v7h-48z"/><path class="st16" d="M64.8 195.2h60.6v7H64.8z"/><path class="st9" d="M123 101.5h107"/><path class="st17" d="M188.5 300V166.5 177zM188.5 166.5s-.4-9.6 8.6-9.6 8.2 9.6 8.2 9.6v66.8M222.3 166.1s-.1-9.6 8.9-9.6H318M222.4 166.9v66.8s.8 9.6-8.2 9.6-8.6-9.6-8.6-9.6"/><path class="st18" d="M334.5 163.9h-13.3c-1.8 0-3.2-1.4-3.2-3.2v-8.3c0-1.8 1.4-3.2 3.2-3.2h13.3c1.8 0 3.2 1.4 3.2 3.2v8.3c0 1.7-1.4 3.2-3.2 3.2z"/><circle class="st19" cx="150.3" cy="130.9" r="9.6"/><path class="st20" d="M141 165h19l-9.7-16z"/><path class="st21" d="M471.8 216.6l-3.7-3-12.8 15.4 12.8 15.4 3.7-3-10.3-12.4z"/><path class="st21" d="M469.9 226.7h4.7v4.7h-4.7zM488.9 226.7h4.7v4.7h-4.7zM479.4 226.7h4.7v4.7h-4.7z"/><path class="st21" d="M495.4 213.6l-3.6 3 10.3 12.4-10.3 12.4 3.6 3 12.8-15.4z"/></g></svg>