<?xml version="1.0" encoding="utf-8"?>
<!-- Generator: Adobe Illustrator 23.0.6, SVG Export Plug-In . SVG Version: 6.00 Build 0)  -->
<svg version="1.1" id="Layer_1" xmlns="http://www.w3.org/2000/svg" xmlns:xlink="http://www.w3.org/1999/xlink" x="0px" y="0px"
	 viewBox="0 0 620 300" style="enable-background:new 0 0 620 300;" xml:space="preserve">
<style type="text/css">
	.st0{fill:#FFF9FA;}
	.st1{opacity:0.3;fill:url(#SVGID_1_);enable-background:new    ;}
	.st2{opacity:0.2;fill:url(#SVGID_2_);stroke:#FC8BA4;stroke-width:6;stroke-miterlimit:10;enable-background:new    ;}
	.st3{opacity:0.6;}
	.st4{opacity:0.2;fill:none;stroke:#F5989F;stroke-width:6;stroke-linecap:round;stroke-miterlimit:10;enable-background:new    ;}
	.st5{opacity:0.3;fill:#FC8BA4;enable-background:new    ;}
	
		.st6{opacity:0.3;fill:none;stroke:#FABEC3;stroke-width:3;stroke-linecap:round;stroke-miterlimit:10;stroke-dasharray:10;enable-background:new    ;}
	.st7{opacity:0.2;}
	.st8{fill:#EF97A1;}
	.st9{opacity:0.2;fill:#EF97A1;enable-background:new    ;}
	.st10{opacity:0.1;}
	.st11{opacity:0.3;fill:url(#SVGID_3_);enable-background:new    ;}
	.st12{opacity:0.3;}
	.st13{fill:#FC8BA4;}
</style>
<g>
	<g id="background">
		<rect class="st0" width="620" height="300"/>
	</g>
</g>
<g id="circle">
	
		<linearGradient id="SVGID_1_" gradientUnits="userSpaceOnUse" x1="236.677" y1="149.3919" x2="425.7127" y2="149.3919" gradientTransform="matrix(0.866 -0.5 -0.5 -0.866 112.1812 459.2708)">
		<stop  offset="0" style="stop-color:#FFF9FA"/>
		<stop  offset="0.2757" style="stop-color:#FFF5F7"/>
		<stop  offset="0.5257" style="stop-color:#FEEAEC"/>
		<stop  offset="0.765" style="stop-color:#FCD8DB"/>
		<stop  offset="0.9978" style="stop-color:#FABEC3"/>
		<stop  offset="1" style="stop-color:#FABEC3"/>
	</linearGradient>
	<circle class="st1" cx="324.3" cy="164.3" r="94.5"/>
</g>
<linearGradient id="SVGID_2_" gradientUnits="userSpaceOnUse" x1="185.6527" y1="116.9519" x2="354.2203" y2="178.5157" gradientTransform="matrix(1 0 0 -1 0 300)">
	<stop  offset="0" style="stop-color:#FFF9FA"/>
	<stop  offset="2.142745e-02" style="stop-color:#FFF8F9"/>
	<stop  offset="1" style="stop-color:#FABEC3"/>
</linearGradient>
<path class="st2" d="M318.6,194.1h-85.2c-6.3,0-11.3-5.1-11.3-11.3v-65.5c0-6.3,5.1-11.3,11.3-11.3h85.2c6.3,0,11.3,5.1,11.3,11.3
	v65.5C329.9,189,324.9,194.1,318.6,194.1z"/>
<g class="st3">
	<line class="st4" x1="234.9" y1="122" x2="314.8" y2="122"/>
	<line class="st4" x1="234.9" y1="136.4" x2="289.1" y2="136.4"/>
	<line class="st4" x1="234.9" y1="165.3" x2="289.1" y2="165.3"/>
	<line class="st4" x1="234.9" y1="150.8" x2="272.7" y2="150.8"/>
</g>
<g>
	<path class="st5" d="M135,219l-0.6,0.2l0.6,0.2l4.9,1.8v2.1l-7.5-3.2v-1.7l7.5-3.2v2.1L135,219z"/>
	<path class="st5" d="M149.2,222.1c0-0.2,0-0.3-0.1-0.4c-0.1-0.1-0.2-0.2-0.3-0.4c-0.2-0.1-0.4-0.2-0.7-0.3s-0.7-0.2-1.1-0.3
		c-0.6-0.1-1.1-0.3-1.5-0.4s-0.8-0.4-1.2-0.6c-0.3-0.2-0.6-0.5-0.7-0.8c-0.2-0.3-0.3-0.6-0.3-1s0.1-0.7,0.3-1.1
		c0.2-0.3,0.4-0.6,0.8-0.9c0.3-0.3,0.7-0.5,1.2-0.6c0.5-0.2,1-0.2,1.6-0.2s1.2,0.1,1.7,0.2c0.5,0.2,0.9,0.4,1.3,0.6
		c0.3,0.3,0.6,0.6,0.8,1s0.3,0.8,0.3,1.2h-2.1c0-0.2,0-0.4-0.1-0.5s-0.2-0.3-0.4-0.5c-0.2-0.1-0.4-0.2-0.6-0.3
		c-0.2-0.1-0.5-0.1-0.8-0.1s-0.6,0-0.8,0.1s-0.4,0.2-0.6,0.3c-0.2,0.1-0.3,0.2-0.3,0.4c-0.1,0.1-0.1,0.3-0.1,0.5s0,0.3,0.1,0.4
		c0.1,0.1,0.2,0.2,0.3,0.3c0.2,0.1,0.4,0.2,0.6,0.3s0.6,0.2,1,0.2c0.6,0.1,1.1,0.2,1.6,0.4s0.9,0.3,1.2,0.6c0.3,0.2,0.6,0.5,0.8,0.8
		s0.3,0.7,0.3,1.1c0,0.4-0.1,0.8-0.3,1.1s-0.5,0.6-0.8,0.9c-0.4,0.3-0.8,0.4-1.3,0.6c-0.5,0.1-1.1,0.2-1.7,0.2
		c-0.7,0-1.3-0.1-1.8-0.3s-1-0.4-1.3-0.7c-0.4-0.3-0.6-0.6-0.8-1s-0.3-0.8-0.3-1.1h2c0,0.3,0.1,0.5,0.2,0.7s0.3,0.4,0.5,0.5
		s0.4,0.2,0.7,0.3s0.5,0.1,0.8,0.1c0.6,0,1.1-0.1,1.5-0.3S149.2,222.5,149.2,222.1z"/>
	<path class="st5" d="M154.2,215.3h5v7.7h2.8v1.7h-7.8V223h2.9v-6h-2.9V215.3z M156.9,212.8c0-0.3,0.1-0.6,0.3-0.8s0.5-0.3,0.9-0.3
		s0.7,0.1,0.9,0.3s0.3,0.5,0.3,0.8s-0.1,0.6-0.3,0.8s-0.5,0.3-0.9,0.3s-0.7-0.1-0.9-0.3C157,213.4,156.9,213.1,156.9,212.8z"/>
	<path class="st5" d="M166.3,215.3l0.1,1.3c0.3-0.5,0.8-0.8,1.2-1.1c0.5-0.3,1-0.4,1.6-0.4c0.5,0,0.9,0.1,1.3,0.2
		c0.4,0.1,0.7,0.4,1,0.7s0.5,0.7,0.7,1.1c0.2,0.5,0.2,1,0.2,1.7v5.9h-2.1v-5.8c0-0.4,0-0.7-0.1-1s-0.2-0.5-0.4-0.6s-0.4-0.3-0.6-0.3
		c-0.2-0.1-0.5-0.1-0.8-0.1c-0.5,0-0.9,0.1-1.2,0.3s-0.6,0.5-0.8,0.8v6.7h-2.1v-9.4L166.3,215.3L166.3,215.3z"/>
	<path class="st5" d="M174.8,219.9c0-0.7,0.1-1.4,0.3-2s0.4-1.1,0.8-1.5c0.3-0.4,0.7-0.8,1.2-1s1-0.3,1.6-0.3s1,0.1,1.5,0.3
		c0.4,0.2,0.8,0.5,1.1,0.8l0.1-0.9h1.9v9.2c0,0.6-0.1,1.2-0.3,1.7s-0.5,0.9-0.9,1.2s-0.8,0.6-1.3,0.8s-1.1,0.3-1.7,0.3
		c-0.3,0-0.5,0-0.9-0.1c-0.3-0.1-0.6-0.1-1-0.3c-0.3-0.1-0.6-0.3-0.9-0.5c-0.3-0.2-0.5-0.4-0.8-0.7l1-1.2c0.4,0.4,0.7,0.7,1.1,0.9
		c0.4,0.2,0.8,0.3,1.3,0.3c0.3,0,0.7,0,0.9-0.1s0.5-0.2,0.7-0.4s0.3-0.4,0.5-0.7s0.2-0.6,0.2-1v-0.6c-0.3,0.3-0.6,0.6-1,0.7
		c-0.4,0.2-0.9,0.3-1.4,0.3c-0.6,0-1.1-0.1-1.6-0.4c-0.5-0.2-0.9-0.6-1.2-1s-0.6-0.9-0.8-1.5s-0.3-1.2-0.3-1.9v-0.4H174.8z
		 M176.9,220.1c0,0.4,0,0.8,0.1,1.2s0.2,0.7,0.4,1s0.4,0.5,0.7,0.7s0.6,0.2,1,0.2c0.5,0,0.9-0.1,1.2-0.3s0.5-0.5,0.7-0.8v-4.2
		c-0.2-0.3-0.4-0.6-0.7-0.8s-0.7-0.3-1.1-0.3c-0.4,0-0.7,0.1-1,0.2c-0.3,0.2-0.5,0.4-0.7,0.7s-0.3,0.6-0.4,1
		c-0.1,0.4-0.1,0.8-0.1,1.2L176.9,220.1L176.9,220.1z"/>
	<path class="st5" d="M186.2,211.3h5.1v11.6h2.9v1.7h-8v-1.7h3V213h-3V211.3z"/>
	<path class="st5" d="M200.9,224.8c-0.7,0-1.3-0.1-1.9-0.3c-0.6-0.2-1.1-0.6-1.5-1s-0.7-0.9-1-1.4c-0.2-0.6-0.3-1.2-0.3-1.8v-0.4
		c0-0.7,0.1-1.4,0.4-2c0.2-0.6,0.6-1.1,1-1.5s0.9-0.7,1.4-1c0.5-0.2,1.1-0.3,1.7-0.3c0.7,0,1.3,0.1,1.8,0.3s1,0.6,1.3,1
		c0.4,0.4,0.6,0.9,0.8,1.5s0.3,1.2,0.3,1.9v0.9h-6.5c0,0.4,0.1,0.7,0.3,1c0.1,0.3,0.3,0.6,0.6,0.8c0.2,0.2,0.5,0.4,0.8,0.5
		s0.7,0.2,1,0.2c0.5,0,1-0.1,1.5-0.3c0.4-0.2,0.8-0.5,1.1-0.9l1.1,1.1c-0.2,0.2-0.3,0.4-0.6,0.7c-0.2,0.2-0.5,0.4-0.8,0.6
		c-0.3,0.2-0.7,0.3-1.1,0.4S201.3,224.8,200.9,224.8z M200.6,216.8c-0.3,0-0.6,0.1-0.8,0.2s-0.5,0.3-0.7,0.5s-0.4,0.4-0.5,0.7
		s-0.2,0.6-0.3,1h4.4V219c0-0.3-0.1-0.5-0.2-0.8s-0.2-0.5-0.4-0.7s-0.4-0.4-0.7-0.5S201,216.8,200.6,216.8z"/>
	<path class="st5" d="M211.3,213v2.3h3.6v1.5h-3.6v4.5c0,0.4,0,0.6,0.1,0.9c0.1,0.2,0.2,0.4,0.4,0.6c0.2,0.1,0.3,0.2,0.5,0.3
		s0.4,0.1,0.7,0.1c0.2,0,0.4,0,0.6,0c0.2,0,0.4,0,0.6-0.1c0.2,0,0.4-0.1,0.5-0.1c0.2,0,0.3-0.1,0.4-0.1l0.2,1.4
		c-0.2,0.1-0.3,0.2-0.5,0.2c-0.2,0.1-0.4,0.1-0.7,0.2c-0.2,0-0.5,0.1-0.8,0.1s-0.5,0-0.8,0c-0.5,0-0.9-0.1-1.3-0.2
		c-0.4-0.1-0.7-0.3-1-0.6s-0.5-0.6-0.7-1.1c-0.2-0.4-0.2-0.9-0.2-1.6v-4.6H207v-1.5h2.3V213H211.3z"/>
	<path class="st5" d="M217.5,219.9c0-0.7,0.1-1.3,0.3-1.9c0.2-0.6,0.5-1.1,0.9-1.5s0.8-0.8,1.4-1c0.5-0.2,1.2-0.4,1.8-0.4
		c0.7,0,1.3,0.1,1.8,0.4c0.5,0.2,1,0.6,1.4,1s0.7,0.9,0.9,1.5s0.3,1.2,0.3,1.9v0.2c0,0.7-0.1,1.3-0.3,1.9c-0.2,0.6-0.5,1.1-0.9,1.5
		s-0.8,0.8-1.4,1s-1.2,0.4-1.8,0.4c-0.7,0-1.3-0.1-1.8-0.4s-1-0.6-1.4-1s-0.7-0.9-0.9-1.5s-0.3-1.2-0.3-1.9V219.9z M219.6,220.1
		c0,0.4,0,0.8,0.1,1.2s0.2,0.7,0.4,1s0.4,0.5,0.7,0.7s0.6,0.2,1,0.2s0.7-0.1,1-0.2s0.5-0.4,0.7-0.7s0.3-0.6,0.4-1s0.1-0.8,0.1-1.2
		v-0.2c0-0.4,0-0.8-0.1-1.2s-0.2-0.7-0.4-1s-0.4-0.5-0.7-0.7s-0.6-0.3-1-0.3s-0.7,0.1-1,0.3s-0.5,0.4-0.7,0.7s-0.3,0.6-0.4,1
		s-0.1,0.8-0.1,1.2V220.1z"/>
	<path class="st5" d="M230.4,215.3l0.1,1.3c0.3-0.5,0.8-0.8,1.2-1.1c0.5-0.3,1-0.4,1.6-0.4c0.5,0,0.9,0.1,1.3,0.2
		c0.4,0.1,0.7,0.4,1,0.7s0.5,0.7,0.7,1.1c0.2,0.5,0.2,1,0.2,1.7v5.9h-2.1v-5.8c0-0.4,0-0.7-0.1-1s-0.2-0.5-0.4-0.6s-0.4-0.3-0.6-0.3
		c-0.2-0.1-0.5-0.1-0.8-0.1c-0.5,0-0.9,0.1-1.2,0.3s-0.6,0.5-0.8,0.8v6.7h-2.1v-9.4L230.4,215.3L230.4,215.3z"/>
	<path class="st5" d="M239.4,217.1V215l7.8,3.2v1.7l-7.8,3.2V221l5.2-1.9l0.6-0.2l-0.6-0.2L239.4,217.1z"/>
	<path class="st5" d="M252.6,219l-0.6,0.2l0.6,0.2l4.9,1.8v2.1L250,220v-1.7l7.5-3.2v2.1L252.6,219z"/>
	<path class="st5" d="M263.2,225.7h-1.9l5-13.7h1.9L263.2,225.7z"/>
	<path class="st5" d="M277.4,222.1c0-0.2,0-0.3-0.1-0.4c-0.1-0.1-0.2-0.2-0.3-0.4s-0.4-0.2-0.7-0.3s-0.7-0.2-1.1-0.3
		c-0.6-0.1-1.1-0.3-1.5-0.4s-0.8-0.4-1.2-0.6c-0.3-0.2-0.6-0.5-0.7-0.8c-0.2-0.3-0.3-0.6-0.3-1s0.1-0.7,0.3-1.1
		c0.2-0.3,0.4-0.6,0.8-0.9c0.3-0.3,0.7-0.5,1.2-0.6c0.5-0.2,1-0.2,1.6-0.2s1.2,0.1,1.7,0.2c0.5,0.2,0.9,0.4,1.3,0.6
		c0.3,0.3,0.6,0.6,0.8,1s0.3,0.8,0.3,1.2h-2.1c0-0.2,0-0.4-0.1-0.5s-0.2-0.3-0.4-0.5c-0.2-0.1-0.4-0.2-0.6-0.3s-0.5-0.1-0.8-0.1
		s-0.6,0-0.8,0.1c-0.2,0.1-0.4,0.2-0.6,0.3s-0.3,0.2-0.3,0.4c-0.1,0.1-0.1,0.3-0.1,0.5s0,0.3,0.1,0.4c0.1,0.1,0.2,0.2,0.3,0.3
		c0.2,0.1,0.4,0.2,0.6,0.3s0.6,0.2,1,0.2c0.6,0.1,1.1,0.2,1.6,0.4s0.9,0.3,1.2,0.6c0.3,0.2,0.6,0.5,0.8,0.8c0.2,0.3,0.3,0.7,0.3,1.1
		c0,0.4-0.1,0.8-0.3,1.1c-0.2,0.3-0.5,0.6-0.8,0.9s-0.8,0.4-1.3,0.6c-0.5,0.1-1.1,0.2-1.7,0.2c-0.7,0-1.3-0.1-1.8-0.3
		s-1-0.4-1.3-0.7s-0.6-0.6-0.8-1s-0.3-0.8-0.3-1.1h2c0,0.3,0.1,0.5,0.2,0.7s0.3,0.4,0.5,0.5s0.4,0.2,0.7,0.3
		c0.3,0.1,0.5,0.1,0.8,0.1c0.6,0,1.1-0.1,1.5-0.3S277.4,222.5,277.4,222.1z"/>
	<path class="st5" d="M282.4,215.3h5v7.7h2.8v1.7h-7.8V223h2.9v-6h-2.9V215.3z M285.2,212.8c0-0.3,0.1-0.6,0.3-0.8s0.5-0.3,0.9-0.3
		s0.7,0.1,0.9,0.3c0.2,0.2,0.3,0.5,0.3,0.8s-0.1,0.6-0.3,0.8c-0.2,0.2-0.5,0.3-0.9,0.3s-0.7-0.1-0.9-0.3
		C285.3,213.4,285.2,213.1,285.2,212.8z"/>
	<path class="st5" d="M294.6,215.3l0.1,1.3c0.3-0.5,0.8-0.8,1.2-1.1c0.5-0.3,1-0.4,1.6-0.4c0.5,0,0.9,0.1,1.3,0.2
		c0.4,0.1,0.7,0.4,1,0.7s0.5,0.7,0.7,1.1c0.2,0.5,0.2,1,0.2,1.7v5.9h-2.1v-5.8c0-0.4,0-0.7-0.1-1s-0.2-0.5-0.4-0.6s-0.4-0.3-0.6-0.3
		c-0.2-0.1-0.5-0.1-0.8-0.1c-0.5,0-0.9,0.1-1.2,0.3c-0.3,0.2-0.6,0.5-0.8,0.8v6.7h-2.1v-9.4L294.6,215.3L294.6,215.3z"/>
	<path class="st5" d="M303.1,219.9c0-0.7,0.1-1.4,0.3-2c0.2-0.6,0.4-1.1,0.8-1.5c0.3-0.4,0.7-0.8,1.2-1s1-0.3,1.6-0.3s1,0.1,1.5,0.3
		c0.4,0.2,0.8,0.5,1.1,0.8l0.1-0.9h1.9v9.2c0,0.6-0.1,1.2-0.3,1.7c-0.2,0.5-0.5,0.9-0.9,1.2s-0.8,0.6-1.3,0.8s-1.1,0.3-1.7,0.3
		c-0.3,0-0.5,0-0.9-0.1c-0.3-0.1-0.6-0.1-1-0.3c-0.3-0.1-0.6-0.3-0.9-0.5s-0.5-0.4-0.8-0.7l1-1.2c0.4,0.4,0.7,0.7,1.1,0.9
		s0.8,0.3,1.3,0.3c0.3,0,0.7,0,0.9-0.1s0.5-0.2,0.7-0.4s0.3-0.4,0.5-0.7s0.2-0.6,0.2-1v-0.6c-0.3,0.3-0.6,0.6-1,0.7
		c-0.4,0.2-0.9,0.3-1.4,0.3c-0.6,0-1.1-0.1-1.6-0.4c-0.5-0.2-0.9-0.6-1.2-1c-0.3-0.4-0.6-0.9-0.8-1.5c-0.2-0.6-0.3-1.2-0.3-1.9v-0.4
		H303.1z M305.2,220.1c0,0.4,0,0.8,0.1,1.2s0.2,0.7,0.4,1s0.4,0.5,0.7,0.7s0.6,0.2,1,0.2c0.5,0,0.9-0.1,1.2-0.3
		c0.3-0.2,0.5-0.5,0.7-0.8v-4.2c-0.2-0.3-0.4-0.6-0.7-0.8c-0.3-0.2-0.7-0.3-1.1-0.3s-0.7,0.1-1,0.2c-0.3,0.2-0.5,0.4-0.7,0.7
		s-0.3,0.6-0.4,1s-0.1,0.8-0.1,1.2v0.2H305.2z"/>
	<path class="st5" d="M314.4,211.3h5.1v11.6h2.9v1.7h-8v-1.7h3V213h-3V211.3z"/>
	<path class="st5" d="M329.1,224.8c-0.7,0-1.3-0.1-1.9-0.3s-1.1-0.6-1.5-1s-0.7-0.9-1-1.4c-0.2-0.6-0.3-1.2-0.3-1.8v-0.4
		c0-0.7,0.1-1.4,0.4-2c0.2-0.6,0.6-1.1,1-1.5s0.9-0.7,1.4-1c0.5-0.2,1.1-0.3,1.7-0.3c0.7,0,1.3,0.1,1.8,0.3s1,0.6,1.3,1
		c0.4,0.4,0.6,0.9,0.8,1.5s0.3,1.2,0.3,1.9v0.9h-6.5c0,0.4,0.1,0.7,0.3,1c0.1,0.3,0.3,0.6,0.6,0.8c0.2,0.2,0.5,0.4,0.8,0.5
		s0.7,0.2,1,0.2c0.5,0,1-0.1,1.5-0.3c0.4-0.2,0.8-0.5,1.1-0.9l1.1,1.1c-0.2,0.2-0.3,0.4-0.6,0.7c-0.2,0.2-0.5,0.4-0.8,0.6
		c-0.3,0.2-0.7,0.3-1.1,0.4S329.6,224.8,329.1,224.8z M328.9,216.8c-0.3,0-0.6,0.1-0.8,0.2s-0.5,0.3-0.7,0.5s-0.4,0.4-0.5,0.7
		s-0.2,0.6-0.3,1h4.4V219c0-0.3-0.1-0.5-0.2-0.8s-0.2-0.5-0.4-0.7s-0.4-0.4-0.7-0.5S329.2,216.8,328.9,216.8z"/>
	<path class="st5" d="M339.6,213v2.3h3.6v1.5h-3.6v4.5c0,0.4,0,0.6,0.1,0.9c0.1,0.2,0.2,0.4,0.4,0.6c0.2,0.1,0.3,0.2,0.5,0.3
		s0.4,0.1,0.7,0.1c0.2,0,0.4,0,0.6,0s0.4,0,0.6-0.1c0.2,0,0.4-0.1,0.5-0.1c0.2,0,0.3-0.1,0.4-0.1l0.2,1.4c-0.2,0.1-0.3,0.2-0.5,0.2
		c-0.2,0.1-0.4,0.1-0.7,0.2c-0.2,0-0.5,0.1-0.8,0.1s-0.5,0-0.8,0c-0.5,0-0.9-0.1-1.3-0.2c-0.4-0.1-0.7-0.3-1-0.6s-0.5-0.6-0.7-1.1
		c-0.2-0.4-0.2-0.9-0.2-1.6v-4.6h-2.3v-1.5h2.3V213H339.6z"/>
	<path class="st5" d="M345.7,219.9c0-0.7,0.1-1.3,0.3-1.9c0.2-0.6,0.5-1.1,0.9-1.5s0.8-0.8,1.4-1c0.5-0.2,1.2-0.4,1.8-0.4
		c0.7,0,1.3,0.1,1.8,0.4c0.5,0.2,1,0.6,1.4,1s0.7,0.9,0.9,1.5c0.2,0.6,0.3,1.2,0.3,1.9v0.2c0,0.7-0.1,1.3-0.3,1.9
		c-0.2,0.6-0.5,1.1-0.9,1.5s-0.8,0.8-1.4,1s-1.2,0.4-1.8,0.4c-0.7,0-1.3-0.1-1.8-0.4s-1-0.6-1.4-1s-0.7-0.9-0.9-1.5
		c-0.2-0.6-0.3-1.2-0.3-1.9V219.9z M347.8,220.1c0,0.4,0,0.8,0.1,1.2s0.2,0.7,0.4,1s0.4,0.5,0.7,0.7s0.6,0.2,1,0.2s0.7-0.1,1-0.2
		s0.5-0.4,0.7-0.7s0.3-0.6,0.4-1s0.1-0.8,0.1-1.2v-0.2c0-0.4,0-0.8-0.1-1.2s-0.2-0.7-0.4-1c-0.2-0.3-0.4-0.5-0.7-0.7
		c-0.3-0.2-0.6-0.3-1-0.3s-0.7,0.1-1,0.3s-0.5,0.4-0.7,0.7s-0.3,0.6-0.4,1s-0.1,0.8-0.1,1.2V220.1z"/>
	<path class="st5" d="M358.7,215.3l0.1,1.3c0.3-0.5,0.8-0.8,1.2-1.1c0.5-0.3,1-0.4,1.6-0.4c0.5,0,0.9,0.1,1.3,0.2
		c0.4,0.1,0.7,0.4,1,0.7s0.5,0.7,0.7,1.1c0.2,0.5,0.2,1,0.2,1.7v5.9h-2.1v-5.8c0-0.4,0-0.7-0.1-1s-0.2-0.5-0.4-0.6s-0.4-0.3-0.6-0.3
		c-0.2-0.1-0.5-0.1-0.8-0.1c-0.5,0-0.9,0.1-1.2,0.3c-0.3,0.2-0.6,0.5-0.8,0.8v6.7h-2.1v-9.4L358.7,215.3L358.7,215.3z"/>
	<path class="st5" d="M367.6,217.1V215l7.8,3.2v1.7l-7.8,3.2V221l5.2-1.9l0.6-0.2l-0.6-0.2L367.6,217.1z"/>
</g>
<path class="st6" d="M204.8,150c-29.2-0.2-40.7,16.4-40.4,44.1"/>
<g class="st7">
	<path class="st8" d="M503.6,112.5l6.6,4.7c0.5,0.3,0.7,1.1,0.3,1.7l0,0c-0.3,0.5-1.1,0.7-1.7,0.3l-6.6-4.7
		c-0.5-0.3-0.7-1.1-0.3-1.7l0,0C502.3,112.3,503.1,112.1,503.6,112.5z"/>
	<path class="st8" d="M509.6,113.2l-4.7,6.6c-0.3,0.5-1.1,0.7-1.7,0.3l0,0c-0.5-0.3-0.7-1.1-0.3-1.7l4.7-6.6
		c0.3-0.5,1.1-0.7,1.7-0.3l0,0C509.8,112,509.9,112.7,509.6,113.2z"/>
</g>
<g class="st7">
	<path class="st8" d="M215,82.2l6.6,4.7c0.5,0.3,0.7,1.1,0.3,1.7l0,0c-0.3,0.5-1.1,0.7-1.7,0.3l-6.6-4.7c-0.5-0.3-0.7-1.1-0.3-1.7
		l0,0C213.7,82,214.4,81.8,215,82.2z"/>
	<path class="st8" d="M220.9,82.9l-4.7,6.6c-0.3,0.5-1.1,0.7-1.7,0.3l0,0c-0.5-0.3-0.7-1.1-0.3-1.7l4.7-6.6c0.3-0.5,1.1-0.7,1.7-0.3
		l0,0C221.1,81.7,221.3,82.4,220.9,82.9z"/>
</g>
<ellipse class="st9" cx="186.6" cy="82" rx="3.7" ry="3.7"/>
<g class="st7">
	<g>
		<path class="st8" d="M399,250.2l6.8,4.4c0.5,0.3,0.7,1.1,0.3,1.7l0,0c-0.3,0.5-1.1,0.7-1.7,0.3l-6.8-4.4c-0.5-0.3-0.7-1.1-0.3-1.7
			l0,0C397.8,250,398.5,249.9,399,250.2z"/>
		<path class="st8" d="M405,250.7l-4.4,6.8c-0.3,0.5-1.1,0.7-1.7,0.3l0,0c-0.5-0.3-0.7-1.1-0.3-1.7l4.4-6.8c0.3-0.5,1.1-0.7,1.7-0.3
			l0,0C405.2,249.4,405.3,250.2,405,250.7z"/>
	</g>
	<circle class="st8" cx="379.5" cy="266.4" r="3.7"/>
</g>
<g class="st7">
	<path class="st8" d="M491.9,137.6c0.5-0.7,1.6-0.9,2.4-0.4c0.7,0.5,0.9,1.6,0.4,2.4c-0.5,0.7-1.6,0.9-2.4,0.4
		C491.6,139.4,491.3,138.4,491.9,137.6 M490.3,136.4c-1.2,1.6-0.8,4,0.9,5.2s4,0.8,5.2-0.9c1.2-1.6,0.8-4-0.9-5.2
		C493.8,134.4,491.5,134.8,490.3,136.4L490.3,136.4z"/>
</g>
<g class="st10">
	<path class="st8" d="M344.3,48.7c0.5-0.7,1.6-0.9,2.4-0.4c0.7,0.5,0.9,1.6,0.4,2.4c-0.5,0.7-1.6,0.9-2.4,0.4
		C344,50.5,343.8,49.4,344.3,48.7 M342.7,47.5c-1.2,1.6-0.8,4,0.9,5.2s4,0.8,5.2-0.9c1.2-1.6,0.8-4-0.9-5.2S343.9,45.9,342.7,47.5
		L342.7,47.5z"/>
</g>
<g class="st7">
	<path class="st8" d="M196.5,108.6c0.5-0.7,1.6-0.9,2.4-0.4c0.7,0.5,0.9,1.6,0.4,2.4c-0.5,0.7-1.6,0.9-2.4,0.4
		S195.9,109.4,196.5,108.6 M194.8,107.4c-1.2,1.6-0.8,4,0.9,5.2s4,0.8,5.2-0.9s0.8-4-0.9-5.2C198.4,105.4,196,105.8,194.8,107.4
		L194.8,107.4z"/>
</g>
<linearGradient id="SVGID_3_" gradientUnits="userSpaceOnUse" x1="386.1779" y1="210.6643" x2="480.3988" y2="210.6643" gradientTransform="matrix(0.2287 0.9735 0.9735 -0.2287 120.9253 -287.9273)">
	<stop  offset="0" style="stop-color:#FFF9FA"/>
	<stop  offset="0.2757" style="stop-color:#FFF5F7"/>
	<stop  offset="0.5257" style="stop-color:#FEEAEC"/>
	<stop  offset="0.765" style="stop-color:#FCD8DB"/>
	<stop  offset="0.9978" style="stop-color:#FABEC3"/>
	<stop  offset="1" style="stop-color:#FABEC3"/>
</linearGradient>
<circle class="st11" cx="425.1" cy="85.7" r="47.1"/>
<g class="st12">
	<path class="st13" d="M418,108.2c-1,0-1.9-0.2-2.8-0.5c-0.8-0.3-1.6-0.7-2.2-1.2c-0.7-0.5-1.2-1.1-1.7-1.8
		c-0.5-0.7-0.9-1.5-1.2-2.3c-0.3-0.8-0.5-1.6-0.7-2.4c-0.1-0.8-0.2-1.7-0.2-2.5v-3.7c0-2.1-0.5-3.7-1.5-4.6s-2.5-1.4-4.6-1.4v-4
		c2.1,0,3.6-0.5,4.6-1.4s1.5-2.5,1.5-4.6v-3.7c0-0.8,0.1-1.6,0.2-2.5c0.1-0.8,0.3-1.7,0.6-2.5c0.3-0.8,0.7-1.5,1.1-2.2
		c0.5-0.7,1-1.3,1.7-1.8s1.4-0.9,2.3-1.2s1.8-0.5,2.9-0.5l0.6,3.2c-1,0-1.8,0.2-2.4,0.7s-1,1-1.2,1.8s-0.4,1.5-0.5,2.4
		s-0.1,1.8-0.1,2.7v3.7c0,1.8-0.4,3.4-1.3,4.9c-0.9,1.4-2.2,2.5-4.1,3.2c1.9,0.7,3.2,1.8,4.1,3.2c0.9,1.4,1.3,3,1.3,4.8v3.7
		c0,0.9,0.1,1.8,0.2,2.7c0.1,0.9,0.3,1.7,0.6,2.4c0.3,0.7,0.7,1.3,1.3,1.8s1.2,0.7,2.1,0.7L418,108.2z"/>
	<path class="st13" d="M431.7,105c0.8,0,1.5-0.2,2.1-0.7s1-1,1.3-1.8c0.3-0.7,0.5-1.5,0.6-2.4s0.2-1.8,0.2-2.7v-3.7
		c0-1.8,0.4-3.4,1.3-4.8s2.2-2.5,4-3.2c-1.8-0.8-3.1-1.8-4-3.2c-0.8-1.4-1.3-3-1.3-4.8V74c0-0.9,0-1.8-0.1-2.7
		c-0.1-0.9-0.2-1.7-0.5-2.4c-0.3-0.7-0.7-1.3-1.2-1.8c-0.6-0.5-1.4-0.7-2.4-0.7l0.6-3.2c1.1,0,2,0.2,2.9,0.5s1.6,0.7,2.3,1.2
		c0.7,0.5,1.2,1.1,1.7,1.8c0.5,0.7,0.8,1.4,1.1,2.2c0.3,0.8,0.5,1.6,0.6,2.5c0.1,0.8,0.2,1.7,0.2,2.5v3.7c0,2.1,0.5,3.7,1.5,4.6
		s2.5,1.4,4.6,1.4v4c-2.1,0-3.6,0.5-4.6,1.4s-1.5,2.5-1.5,4.6v3.7c0,0.8-0.1,1.6-0.2,2.5c-0.1,0.8-0.4,1.7-0.7,2.5
		c-0.3,0.8-0.7,1.5-1.2,2.3c-0.5,0.7-1,1.3-1.7,1.8s-1.4,0.9-2.2,1.2c-0.8,0.3-1.7,0.5-2.8,0.5L431.7,105z"/>
</g>
</svg>
