<?xml version="1.0" encoding="utf-8"?>
<!-- Generator: Adobe Illustrator 19.2.1, SVG Export Plug-In . SVG Version: 6.00 Build 0)  -->
<svg version="1.1" xmlns="http://www.w3.org/2000/svg" xmlns:xlink="http://www.w3.org/1999/xlink" x="0px" y="0px"
	 viewBox="0 0 620 300" style="enable-background:new 0 0 620 300;" xml:space="preserve">
<style type="text/css">
	.st0{fill:#3A3F3E;}
	.st1{fill:#C2ECEF;}
	.st2{fill:#589B35;}
	.st3{fill:#548E2E;}
	.st4{fill:#84B763;}
	.st5{fill:#558C31;}
	.st6{fill:#CE411B;}
	.st7{fill:#FFFFFF;}
	.st8{fill:#F4E41E;}
	.st9{fill:#9E7033;}
	.st10{fill:#E8E8AC;}
	.st11{fill:#F7EC1E;}
	.st12{fill:#3678BF;}
	.st13{fill:#4DBCE2;}
	.st14{fill:#9DE4ED;}
	.st15{fill:#76DDC9;}
	.st16{fill:#2990A8;}
	.st17{fill:#D1D3D4;}
</style>
<g id="Layer_2">
	<rect x="0.6" y="-1.4" class="st0" width="618.8" height="302.8"/>
</g>
<g id="Layer_1">
	<g>
		<ellipse class="st1" cx="312.4" cy="146.8" rx="91.8" ry="88.8"/>
		<g>
			<polygon class="st2" points="383.6,168.4 371.4,165.3 363.9,146.5 345.5,137.3 342.4,139.5 311,97.7 291.4,103.8 275.9,86.9 
				262.8,90.6 237.8,109.1 216.8,117 216.8,190.2 403.2,190.2 			"/>
			<polygon class="st3" points="291.4,103.8 267.9,114 272,101.5 			"/>
			<polygon class="st4" points="275.9,86.9 262.8,90.6 272,101.5 291.4,103.8 			"/>
			<polygon class="st5" points="233.1,190.2 247.8,143.2 258,160.5 284.1,136 313.4,169.3 334,163.1 348.6,190.2 			"/>
			<polygon class="st4" points="311,97.7 306.3,112.2 328.7,121.3 			"/>
			<polygon class="st3" points="306.3,112.2 321.5,111.7 328.7,121.3 			"/>
			<polygon class="st3" points="237.8,109.1 222.8,143.1 223.6,114.5 227,113.2 			"/>
			<polygon class="st5" points="363.9,146.5 353.7,159.8 371.4,165.3 			"/>
			<polygon class="st4" points="345.5,137.3 363.9,146.5 353.7,159.8 			"/>
			<polygon class="st5" points="310,131 325.5,140.2 317.5,154.6 			"/>
		</g>
		<circle class="st6" cx="284.4" cy="103.7" r="12.4"/>
		<polygon class="st6" points="267.9,188.6 301.8,188.6 297.1,120.4 272.2,120.4 267.6,188.6 301.4,188.6 		"/>
		<rect x="269.7" y="118.5" class="st7" width="29.4" height="1.9"/>
		<rect x="269.7" y="103.4" class="st6" width="29.4" height="1.9"/>
		<rect x="272.1" y="105.3" class="st7" width="24.7" height="13.7"/>
		<rect x="273.2" y="106.6" class="st8" width="22.4" height="11.9"/>
		<rect x="279.8" y="106.6" class="st7" width="1.1" height="11.9"/>
		<rect x="288.3" y="106.6" class="st7" width="1.1" height="11.9"/>
		<path class="st6" d="M285.7,90.4c0-0.6-0.5-1.1-1.1-1.1l0,0c-0.6,0-1.1,0.5-1.1,1.1v3.1c0,0.6,0.5,1.1,1.1,1.1l0,0
			c0.6,0,1.1-0.5,1.1-1.1V90.4z"/>
		<polygon class="st7" points="299.2,150.3 269.8,155.6 271,138.6 298,133.7 		"/>
		<polygon class="st6" points="298,133.7 271,138.6 272.2,120.4 297.3,120.4 		"/>
		<g>
			<g>
				<polygon class="st7" points="296.8,186.6 267.5,191.9 268.6,174.8 269,174.7 295.7,169.9 				"/>
				<polygon class="st7" points="295.7,169.9 300.4,169 301.8,189.6 284.3,189.5 				"/>
			</g>
			<polygon class="st7" points="267.6,187.7 268.2,188 268.6,174.8 268.5,174.8 			"/>
		</g>
		<g>
			<rect x="281.5" y="181" class="st9" width="6" height="10"/>
			<ellipse class="st9" cx="284.5" cy="180.8" rx="3" ry="2.7"/>
		</g>
		<rect x="222.5" y="187.7" class="st10" width="175.1" height="19.5"/>
		<circle class="st11" cx="356.4" cy="106.5" r="13.7"/>
		<g>
			<path class="st12" d="M387.5,220.9c-52.9-4.7-105.6,4.7-158.5,0c0-7.6,0-11.4,0-19.1c52.9,4.7,105.6-4.7,158.5,0
				C387.5,209.5,387.5,213.3,387.5,220.9z"/>
		</g>
		<g>
			<path class="st13" d="M237.9,211.8c48.5-12.8,95.2,12.8,143.6,0c0,6.6,0,9.9,0,16.5c-48.4,12.8-95.2-12.8-143.6,0
				C237.9,221.7,237.9,218.4,237.9,211.8z"/>
		</g>
		<g>
			<path class="st14" d="M378.1,215.8c-44.3-11.3-87.1,11.3-131.4,0c0,6,0,9,0,14.9c44.3,11.3,87.1-11.3,131.4,0
				C378.1,224.7,378.1,221.8,378.1,215.8z"/>
		</g>
		<path class="st15" d="M235.4,209.9"/>
		<g>
			<path class="st15" d="M255.2,224c37.2-10.6,72,10.6,109.1,0c0,6,0,9,0,14.9c-37.2,10.6-72-10.6-109.1,0
				C255.2,232.9,255.2,229.9,255.2,224z"/>
		</g>
		<g>
			<path class="st16" d="M366.1,228.5c-34.3-8.2-66.8,8.2-101,0c0,4.9,0,7.3,0,12.1c34.2,8.2,66.7-8.2,101,0
				C366.1,235.8,366.1,233.3,366.1,228.5z"/>
		</g>
		<circle class="st17" cx="362.9" cy="226.7" r="0"/>
		<path class="st7" d="M310,40.4c-60.5,0-109.6,49.1-109.6,109.6c0,60.5,49.1,109.6,109.6,109.6S419.6,210.5,419.6,150
			C419.6,89.5,370.5,40.4,310,40.4z M310,240.1c-49.8,0-90.1-40.3-90.1-90.1c0-49.8,40.3-90.1,90.1-90.1c49.8,0,90.1,40.3,90.1,90.1
			C400.1,199.8,359.8,240.1,310,240.1z"/>
		<circle class="st6" cx="222.5" cy="100.1" r="1.5"/>
		<circle class="st6" cx="397.5" cy="100.1" r="1.5"/>
		<g>
			<g>
				<path class="st6" d="M223.2,93.5c-1.4-1-1.5-2.7-0.1-4.6c1.4-1.9,3-2.3,4.4-1.2c1.8,1.4,2.7,2.1,4.5,3.5
					c0.5,0.4,0.8,0.8,0.9,1.3c0.2,0,0.3-0.1,0.6-0.3c0-0.1,0.1-0.1,0.1-0.2c0.5,0.4,0.7,0.6,1.2,0.9c-0.1,0.1-0.1,0.1-0.2,0.2
					c-0.6,0.8-1.2,1.1-1.7,1c-0.2,0.4-0.4,0.9-0.7,1.3c-1.3,1.7-2.7,2.2-4.2,1.2C226,95.4,225.1,94.8,223.2,93.5z M229.3,94.9
					c0.6,0.5,1.1,0.3,1.6-0.3c0.4-0.6,0.4-1.1-0.2-1.6c-1.9-1.4-2.8-2.1-4.7-3.5c-0.6-0.5-1.1-0.3-1.6,0.4c-0.5,0.6-0.5,1.2,0.1,1.6
					C226.4,92.8,227.3,93.5,229.3,94.9z"/>
				<path class="st6" d="M230.6,79.8c2.5,2.3,3.7,3.4,6.2,5.7c0.6,0.5,1.1,0.4,1.5-0.1c0.5-0.5,0.6-1,0-1.5
					c-2.4-2.3-3.6-3.5-6.1-5.8c0.6-0.6,0.9-1,1.5-1.6c2.4,2.4,3.5,3.5,5.9,5.9c1.2,1.2,1.2,2.7-0.2,4.2c-1.4,1.5-2.9,1.7-4.2,0.5
					c-2.5-2.2-3.8-3.3-6.3-5.5C229.7,80.9,230,80.5,230.6,79.8z"/>
				<path class="st6" d="M250.5,76.2c-0.7,0.5-1,0.8-1.6,1.3c-0.6-0.5-0.9-0.8-1.5-1.3c-0.8,0.7-1.2,1-2,1.7c0.4,0.7,0.6,1,1,1.7
					c-0.6,0.5-0.9,0.8-1.4,1.3c-2.3-3.8-3.4-5.7-5.6-9.7c1-0.9,1.5-1.3,2.6-2.2C245.4,71.9,247.2,73.3,250.5,76.2z M244.6,76.6
					c0.6-0.5,0.9-0.8,1.6-1.3c-1.7-1.4-2.6-2.2-4.3-3.6c0,0,0,0,0,0C242.9,73.7,243.5,74.6,244.6,76.6z"/>
				<path class="st6" d="M248,64.5c0.7-0.5,1.1-0.8,1.9-1.3c2.1,3.1,3.1,4.7,5.2,7.8c1.1-0.8,1.7-1.1,2.8-1.9
					c0.3,0.5,0.5,0.8,0.8,1.3c-1.8,1.1-2.7,1.7-4.5,3C251.7,69.8,250.5,68.1,248,64.5z"/>
				<path class="st6" d="M257.3,58.6c0.8-0.4,1.2-0.7,2-1.1c2.1,3.9,3.1,5.8,5.1,9.6c-0.7,0.4-1.1,0.6-1.8,1
					C260.5,64.3,259.4,62.4,257.3,58.6z"/>
				<path class="st6" d="M263.8,55.3c2.5-1.2,3.8-1.7,6.3-2.7c0.2,0.6,0.3,0.9,0.6,1.4c-0.8,0.3-1.3,0.5-2.1,0.9
					c1.5,3.4,2.2,5.2,3.7,8.6c-0.7,0.3-1.1,0.5-1.8,0.8c-1.5-3.4-2.3-5.1-3.8-8.5c-0.8,0.4-1.3,0.6-2.1,1
					C264.2,56.1,264,55.8,263.8,55.3z"/>
				<path class="st6" d="M279,57.1c-1.9-2.5-2.9-3.7-4.9-6.1c0.9-0.3,1.3-0.5,2.2-0.7c1.3,1.7,1.9,2.5,3.1,4.2c0,0,0,0,0,0
					c0-2.1,0-3.1,0.1-5.2c0.8-0.2,1.2-0.4,2-0.6c-0.3,3.1-0.4,4.7-0.6,7.8c0.4,1.4,0.6,2.1,1,3.5c-0.8,0.2-1.1,0.3-1.9,0.6
					C279.6,59.1,279.4,58.5,279,57.1z"/>
				<path class="st6" d="M296,50.7c1.1-0.1,1.6-0.2,2.7-0.3c0.1,0.6,0.1,0.9,0.2,1.6c-1.1,0.1-1.6,0.2-2.6,0.3
					c0.2,1.8,0.4,2.7,0.6,4.5c-0.8,0.1-1.2,0.2-2,0.3c-0.7-4.3-1-6.5-1.7-10.8c2.3-0.4,3.4-0.5,5.8-0.7c0.1,0.6,0.1,0.9,0.2,1.6
					c-1.4,0.1-2.1,0.2-3.5,0.4C295.8,48.8,295.9,49.4,296,50.7z"/>
				<path class="st6" d="M304,47.7c-0.1-1.7,1-2.8,3.2-2.9c2.2-0.1,3.3,1,3.3,2.7c0,2.3,0,3.4,0,5.7c0,1.7-1.1,2.7-3,2.8
					c-1.9,0.1-3-0.9-3.1-2.6C304.2,51.1,304.1,50,304,47.7z M306.3,53.4c0,0.8,0.4,1.1,1.1,1c0.6,0,1-0.3,1-1.1
					c0-2.4-0.1-3.5-0.1-5.9c0-0.8-0.4-1.1-1.1-1.1c-0.7,0-1.1,0.3-1.1,1.1C306.2,49.9,306.2,51,306.3,53.4z"/>
				<path class="st6" d="M315.5,47.7c0.1-1.7,1.3-2.7,3.5-2.5c2.1,0.2,3.2,1.3,3,3.1c-0.3,2.3-0.4,3.4-0.6,5.6
					c-0.2,1.7-1.4,2.6-3.3,2.4c-1.9-0.2-2.9-1.2-2.8-2.9C315.4,51.1,315.4,50,315.5,47.7z M317.2,53.6c-0.1,0.8,0.3,1.1,1,1.2
					c0.6,0.1,1.1-0.2,1.1-1c0.2-2.3,0.3-3.5,0.6-5.9c0.1-0.8-0.3-1.1-1-1.2c-0.7-0.1-1.1,0.2-1.2,1
					C317.5,50.1,317.4,51.2,317.2,53.6z"/>
				<path class="st6" d="M327.7,46.4c1.4,0.2,2.1,0.3,3.4,0.6c2.2,0.4,3,1.6,2.6,3.3c-0.5,2.2-0.7,3.2-1.2,5.4
					c-0.4,1.7-1.6,2.4-3.5,2c-1.2-0.2-1.8-0.4-3.1-0.6C326.6,52.8,326.9,50.7,327.7,46.4z M329.5,48.3c-0.6,3.1-0.9,4.6-1.4,7.7
					c0.4,0.1,0.7,0.1,1.1,0.2c0.6,0.1,1.1-0.1,1.2-0.8c0.5-2.2,0.7-3.3,1.2-5.6c0.2-0.8-0.2-1.1-0.9-1.3
					C330.3,48.4,330,48.4,329.5,48.3z"/>
				<path class="st6" d="M349.6,59.8c-0.2,0.5-0.3,0.8-0.6,1.3c-0.7,1.6-2,2.1-3.8,1.4s-2.4-2-1.9-3.6c0.8-2.1,1.1-3.2,1.9-5.3
					c0.6-1.6,2-2.2,4-1.4c2,0.8,2.7,2.2,2,3.8c-0.2,0.4-0.3,0.6-0.4,1c-0.7-0.3-1.1-0.5-1.9-0.8c0.2-0.4,0.3-0.7,0.4-1.1
					c0.3-0.7,0-1.2-0.7-1.4c-0.6-0.3-1.2-0.1-1.4,0.6c-0.8,2.2-1.3,3.3-2.1,5.5c-0.3,0.7,0,1.1,0.6,1.4c0.6,0.2,1.1,0.1,1.4-0.6
					c0.2-0.6,0.4-0.9,0.6-1.4C348.5,59.3,348.9,59.5,349.6,59.8z"/>
				<path class="st6" d="M357.1,60.8c1,0.5,1.6,0.8,2.6,1.4c-0.3,0.5-0.5,0.8-0.8,1.4c-1-0.6-1.5-0.8-2.6-1.4
					c-0.6,1.1-0.9,1.7-1.5,2.8c1.3,0.6,1.9,1,3.1,1.7c-0.3,0.5-0.5,0.8-0.8,1.4c-1.9-1.1-2.9-1.6-4.9-2.5c1.9-3.9,2.9-5.9,4.8-9.8
					c2.2,1.1,3.3,1.6,5.4,2.8c-0.3,0.5-0.5,0.8-0.8,1.4c-1.3-0.7-2-1.1-3.4-1.8C357.9,59.2,357.7,59.7,357.1,60.8z"/>
				<path class="st6" d="M367.4,65C367.4,65,367.4,65,367.4,65c-1.8,2.6-2.6,3.9-4.4,6.6c-0.6-0.4-0.9-0.6-1.5-1
					c2.3-3.7,3.5-5.5,5.8-9.2c1,0.6,1.4,0.9,2.4,1.5c-0.7,2.7-1.1,4-1.9,6.7c0,0,0,0,0,0c1.5-2.1,2.2-3.2,3.7-5.4
					c0.7,0.5,1,0.7,1.6,1.2c-2.6,3.5-3.9,5.3-6.4,8.8c-0.7-0.5-1-0.7-1.7-1.2C366.1,69.8,366.6,68.2,367.4,65z"/>
				<path class="st6" d="M377.3,68.5c2.2,1.8,3.3,2.7,5.4,4.7c-0.4,0.5-0.6,0.7-1.1,1.2c-0.7-0.6-1.1-1-1.8-1.6
					c-2.5,2.8-3.7,4.2-6.2,7c-0.6-0.5-0.9-0.8-1.6-1.4c2.4-2.9,3.6-4.3,6-7.2c-0.7-0.6-1.1-0.9-1.8-1.5
					C376.8,69.2,377,69,377.3,68.5z"/>
				<path class="st6" d="M381.8,87.7c0.1-0.3,0.2-0.4,0.9-1c0.5-0.5,0.8-0.7,1.3-1.2c0.8-0.7,0.7-1.3,0-2c-0.2-0.2-0.3-0.3-0.5-0.6
					c-1.3,1.2-1.9,1.8-3.2,3.1c-0.6-0.6-0.9-0.9-1.5-1.5c3.1-3.1,4.7-4.6,7.8-7.7c1,1,1.5,1.5,2.4,2.6c1.7,1.8,1.7,3.2,0.4,4.3
					c-0.3,0.2-0.4,0.3-0.6,0.6c-0.8,0.7-1.7,0.8-2.6,0.3c0,0,0,0,0,0c0.5,1.1,0.1,1.9-0.8,2.6c-0.5,0.4-0.8,0.7-1.3,1.1
					c-0.4,0.3-0.7,0.6-0.9,1C382.7,88.7,382.4,88.4,381.8,87.7z M387,79.6c-1,0.9-1.5,1.4-2.4,2.3c0.2,0.3,0.4,0.4,0.6,0.6
					c0.6,0.6,1.1,0.8,1.8,0.2c0.3-0.3,0.5-0.4,0.8-0.7c0.6-0.5,0.6-1,0-1.6C387.5,80.1,387.3,79.9,387,79.6z"/>
				<path class="st6" d="M392.8,91.3c0.8,1,1.1,1.6,1.9,2.6c-0.5,0.4-0.8,0.5-1.3,0.9c-0.7-1-1.1-1.6-1.8-2.6
					c-1,0.8-1.5,1.1-2.6,1.9c0.9,1.2,1.4,1.9,2.2,3.2c-0.5,0.4-0.8,0.5-1.3,0.9c-1.4-2-2.1-3-3.5-4.8c3.5-2.7,5.2-4,8.6-6.7
					c1.6,2.1,2.4,3.2,3.9,5.4c-0.5,0.4-0.8,0.5-1.3,0.9c-0.9-1.4-1.4-2.1-2.4-3.4C394.3,90.2,393.8,90.6,392.8,91.3z"/>
			</g>
		</g>
		<circle class="st6" cx="380.2" cy="221.1" r="1.5"/>
		<circle class="st6" cx="238.7" cy="221.1" r="1.5"/>
		<g>
			<g>
				<path class="st6" d="M248.4,220.2c2,1.9,3.1,2.8,5.2,4.5c-0.4,0.6-0.7,0.8-1.1,1.4c-0.7-0.6-1.1-0.9-1.8-1.5
					c-2.7,3.2-4.1,4.9-6.9,8.1c-0.8-0.7-1.2-1-1.9-1.7c2.8-3.2,4.2-4.8,7.1-7.9c-0.7-0.6-1.1-1-1.8-1.6
					C247.7,220.9,247.9,220.7,248.4,220.2z"/>
				<path class="st6" d="M258.7,228.5c-2.2,3.2-3.3,4.7-5.4,7.9c-0.5,0.7-0.3,1.3,0.4,1.7s1.2,0.4,1.7-0.3c2.1-3.2,3.1-4.8,5.2-8
					c0.7,0.5,1,0.7,1.7,1.1c-2,3.2-3,4.8-5,8c-1,1.7-2.7,2-4.8,0.6c-2-1.4-2.4-3.1-1.2-4.7c2.2-3.1,3.3-4.6,5.6-7.6
					C257.6,227.7,257.9,228,258.7,228.5z"/>
				<path class="st6" d="M264.9,246.4c0-0.3,0-0.6,0.5-1.5c0.3-0.7,0.5-1.1,0.9-1.8c0.5-1,0.3-1.6-0.7-2.1c-0.3-0.1-0.4-0.2-0.7-0.4
					c-0.9,1.8-1.4,2.7-2.3,4.5c-0.9-0.5-1.3-0.7-2.2-1.2c2.4-4.3,3.6-6.5,6-10.9c1.1,0.6,1.7,0.9,2.9,1.5c2,1,2.5,2.2,1.7,4
					c-0.2,0.4-0.2,0.5-0.4,0.9c-0.5,1.2-1.3,1.7-2.4,1.6c0,0,0,0,0,0c0.9,0.9,0.8,1.9,0.3,3c-0.3,0.7-0.5,1-0.8,1.7
					c-0.3,0.5-0.4,1-0.4,1.5C266.2,247.1,265.8,246.9,264.9,246.4z M267.4,235.8c-0.7,1.4-1.1,2-1.8,3.4c0.3,0.2,0.5,0.2,0.8,0.4
					c0.8,0.4,1.4,0.3,1.8-0.6c0.2-0.4,0.3-0.7,0.5-1.1c0.4-0.8,0.3-1.3-0.4-1.6C267.9,236.1,267.8,236,267.4,235.8z"/>
				<path class="st6" d="M276.3,245.9c-0.4,0.3-0.6,0.5-1.1,0.8c-0.5,1.4-0.8,2.1-1.3,3.6c-0.9-0.3-1.4-0.5-2.3-0.9
					c1.8-4.6,2.8-6.9,4.6-11.5c0.8,0.3,1.2,0.5,2,0.8c-0.8,2-1.1,3-1.9,5c0,0,0,0,0,0c1.8-1.6,2.7-2.4,4.5-4.1
					c0.8,0.3,1.2,0.4,2,0.7c-1.8,1.8-2.7,2.6-4.6,4.3c0.3,3,0.5,4.5,0.9,7.6c-1-0.3-1.4-0.4-2.4-0.8
					C276.6,249.2,276.4,248.1,276.3,245.9z"/>
				<path class="st6" d="M289.5,241.9c2,0.5,2.8,1.8,2.5,3.7c0,0.2,0,0.2-0.1,0.4c-0.8-0.2-1.2-0.2-2-0.4c0-0.2,0.1-0.3,0.1-0.5
					c0.2-0.9-0.1-1.3-0.8-1.4c-0.7-0.2-1.1,0.1-1.3,0.9c-0.2,0.9,0,1.6,1.2,3c1.5,1.8,2,2.9,1.7,4.3c-0.4,2-1.8,2.9-4.1,2.3
					c-2.3-0.5-3.2-2-2.7-3.9c0.1-0.3,0.1-0.4,0.2-0.7c0.9,0.2,1.3,0.3,2.1,0.5c-0.1,0.3-0.1,0.5-0.2,0.9c-0.2,0.9,0.2,1.3,0.9,1.5
					c0.7,0.2,1.3,0,1.5-0.9c0.2-0.9-0.1-1.6-1.3-3.1c-1.5-1.8-1.8-3-1.4-4.4C286.2,242.2,287.5,241.4,289.5,241.9z"/>
				<path class="st6" d="M303.9,250C303.9,250,303.9,249.9,303.9,250c-1-0.5-1.5-1.3-1.4-2.7c0-0.1,0-0.1,0-0.2c0.1-2,1.3-3,3.4-2.9
					c1,0,1.4,0,2.4,0.1c0,0.7,0,1.1,0,1.8c-1,0-1.5,0-2.4-0.1c-0.7,0-1.1,0.3-1.2,1.2c0,0.3,0,0.5,0,0.8c0,1,0.4,1.3,1.3,1.4
					c0.4,0,0.6,0,1,0c0-0.6,0-0.8,0-1.4c0.9,0,1.3,0,2.2,0c0,0.6,0,0.8,0,1.4c0.2,0,0.4,0,0.6,0c0,0.7,0,1.1,0,1.8
					c-0.2,0-0.4,0-0.6,0c0,1.6,0,2.4,0,4.1c0,0.6,0,1,0.3,1.5c-1,0-1.5,0-2.4,0c-0.1-0.3-0.2-0.4-0.2-1c0,0,0,0,0,0
					c-0.4,0.7-1.1,1.1-2.2,1c-1.8-0.1-2.6-1.2-2.5-3c0-0.5,0.1-0.8,0.1-1.3C302.2,251.2,302.8,250.3,303.9,250z M305.6,255
					c0.7,0,1.2-0.3,1.3-1c0-1.1,0-1.7,0.1-2.9c-0.3,0-0.5,0-0.9,0c-1,0-1.5,0.4-1.6,1.5c0,0.5,0,0.7-0.1,1.2
					C304.3,254.6,304.8,254.9,305.6,255z"/>
				<path class="st6" d="M327.2,250.3c0.1,0.6,0.2,1,0.3,1.6c0.4,2-0.6,3.3-3,3.7s-3.7-0.6-3.9-2.6c-0.3-2.6-0.5-3.8-0.8-6.4
					c-0.2-2,0.7-3.2,2.7-3.5c2-0.3,3.3,0.6,3.7,2.5c0.1,0.5,0.1,0.7,0.2,1.2c-0.8,0.2-1.2,0.2-2.1,0.4c-0.1-0.5-0.1-0.8-0.2-1.3
					c-0.1-0.9-0.6-1.1-1.3-1c-0.7,0.1-1.1,0.5-0.9,1.4c0.4,2.7,0.6,4,0.9,6.6c0.1,0.9,0.6,1.1,1.4,1c0.7-0.1,1.2-0.5,1-1.4
					c-0.1-0.7-0.2-1-0.3-1.7C326,250.6,326.4,250.5,327.2,250.3z"/>
				<path class="st6" d="M340.5,251.7c-0.9,0.3-1.4,0.4-2.3,0.7c-0.4-0.8-0.6-1.2-1-2c-1.1,0.3-1.7,0.5-2.8,0.8
					c0.1,0.9,0.1,1.4,0.2,2.3c-0.9,0.2-1.3,0.3-2.2,0.5c-0.2-5.1-0.3-7.6-0.7-12.6c1.2-0.3,1.8-0.5,3-0.8
					C336.8,245.1,338,247.3,340.5,251.7z M334.2,249.5c0.9-0.2,1.3-0.3,2.2-0.6c-1.1-2.3-1.7-3.4-2.7-5.8c0,0,0,0,0,0
					C333.8,245.7,334,246.9,334.2,249.5z"/>
				<path class="st6" d="M340.5,238.6c0.8-0.3,1.2-0.5,2-0.8c1.9,4.6,2.8,6.9,4.6,11.5c-0.9,0.4-1.4,0.5-2.3,0.9
					C343.1,245.5,342.3,243.2,340.5,238.6z"/>
				<path class="st6" d="M356.2,239.9c0.3,0.6,0.5,0.9,0.8,1.4c1,1.7,0.4,3.4-1.7,4.5c-2.2,1.1-3.8,0.6-4.6-1.2
					c-1.1-2.3-1.6-3.5-2.7-5.9c-0.8-1.8-0.3-3.3,1.6-4.2c1.9-1,3.4-0.5,4.4,1.2c0.2,0.4,0.4,0.6,0.6,1.1c-0.7,0.4-1.1,0.6-1.9,1
					c-0.2-0.5-0.4-0.7-0.6-1.2c-0.4-0.8-1-0.9-1.6-0.6c-0.6,0.3-0.9,0.8-0.5,1.6c1.2,2.4,1.8,3.6,3,6c0.4,0.8,1,0.9,1.7,0.5
					s1-0.9,0.6-1.6c-0.3-0.6-0.5-0.9-0.8-1.6C355,240.5,355.4,240.3,356.2,239.9z"/>
				<path class="st6" d="M357.7,233.4c-1-1.7-0.6-3.3,1.1-4.5c1.8-1.2,3.4-1,4.6,0.6c1.5,2.1,2.3,3.1,3.8,5.2
					c1.2,1.6,0.8,3.3-1.3,4.7c-2,1.4-3.8,1.1-4.8-0.6C359.7,236.7,359,235.6,357.7,233.4z M363.2,237.7c0.5,0.7,1.1,0.8,1.7,0.3
					s0.9-1,0.4-1.7c-1.5-2.2-2.3-3.3-3.8-5.5c-0.5-0.7-1.1-0.7-1.7-0.4c-0.6,0.4-0.8,0.9-0.3,1.7C361,234.4,361.7,235.5,363.2,237.7
					z"/>
				<path class="st6" d="M367.5,222.3c1.6-1.4,3.2-1.4,4.6,0.1c0.1,0.1,0.2,0.2,0.3,0.3c-0.6,0.6-1,0.9-1.6,1.5
					c-0.1-0.2-0.2-0.2-0.3-0.4c-0.6-0.7-1.1-0.6-1.7-0.2c-0.5,0.5-0.6,1-0.1,1.7c0.6,0.7,1.4,0.9,3.3,0.7c2.4-0.3,3.6,0,4.6,1.1
					c1.4,1.4,1.2,3.2-0.7,4.8c-1.9,1.7-3.6,1.6-4.9,0c-0.2-0.2-0.3-0.4-0.5-0.6c0.7-0.6,1.1-0.9,1.8-1.5c0.2,0.3,0.3,0.4,0.6,0.7
					c0.6,0.7,1.2,0.6,1.8,0.1c0.6-0.5,0.8-1.1,0.2-1.8c-0.6-0.7-1.4-0.8-3.3-0.7c-2.5,0.2-3.6-0.2-4.5-1.3
					C365.7,225.3,365.9,223.7,367.5,222.3z"/>
			</g>
		</g>
	</g>
</g>
</svg>
