<?xml version="1.0" encoding="utf-8"?>
<!-- Generator: Adobe Illustrator 20.1.0, SVG Export Plug-In . SVG Version: 6.00 Build 0)  -->
<svg version="1.1" xmlns="http://www.w3.org/2000/svg" xmlns:xlink="http://www.w3.org/1999/xlink" x="0px" y="0px"
	 viewBox="0 0 620 300" style="enable-background:new 0 0 620 300;" xml:space="preserve">
<style type="text/css">
	.st0{fill:#F9F9FB;}
	.st1{fill:#E6F3FF;}
	.st2{fill:#F9F9FB;stroke:#6CACFE;stroke-width:3;stroke-miterlimit:10;}
	.st3{fill:#6CACFE;fill-opacity:0.5;}
	.st4{fill:#6CACFE;}
	.st5{fill:#E6F3FF;stroke:#6CACFE;stroke-width:3;stroke-miterlimit:10;}
	.st6{fill:#6CACFE;fill-opacity:0.34;}
	.st7{fill:#6CACFE;fill-opacity:0.34;stroke:#6CACFE;stroke-width:3;stroke-miterlimit:10;}
	
		.st8{opacity:0.5;fill:none;stroke:#6CACFE;stroke-width:3;stroke-linecap:round;stroke-miterlimit:10;stroke-dasharray:10;enable-background:new    ;}
	.st9{fill:none;stroke:#6CACFE;stroke-width:3;stroke-miterlimit:10;}
</style>
<g id="Layer_1">
	<rect class="st0" width="620" height="300"/>
</g>
<g id="Layer_3">
	<rect x="0.9" y="-0.4" class="st1" width="618.2" height="298.7"/>
</g>
<g id="Layer_2">
	<path class="st0" d="M127.8,170.9c0.9,0,1.8,0,2.6,0.1c0,0,0-0.1,0-0.1c0-23.3,18.5-42.3,41.4-42.3c8.4,0,16.3,2.6,22.8,7
		c6.8-15.9,22.4-27.1,40.5-27.1c24.4,0,44.1,20.2,44.1,45c0,2.4-0.2,4.7-0.5,7c31.7,5.5,55.5,29.5,55.5,58.5H218.2h-23.6H175h-18.8
		H80.6C80.6,192,101.8,170.9,127.8,170.9z"/>
	<rect x="223.5" y="85.5" class="st2" width="155" height="125.6"/>
	<rect x="231.6" y="93.2" class="st3" width="138.9" height="110.3"/>
	<g>
		<path class="st4" d="M326.9,154.8h-15.6c-4.1,0-7.4-3.3-7.4-7.4v0c0-4.1,3.3-7.4,7.4-7.4h15.6c4.1,0,7.4,3.3,7.4,7.4v0
			C334.2,151.5,330.9,154.8,326.9,154.8z"/>
		<g>
			<g>
				<g>
					<circle class="st2" cx="283.5" cy="148.9" r="35.7"/>
					<line class="st5" x1="299.4" y1="132.2" x2="308.9" y2="122.7"/>
					<line class="st5" x1="299.4" y1="164.6" x2="308.3" y2="173.5"/>
					<line class="st5" x1="267" y1="164.6" x2="258.1" y2="173.5"/>
					<line class="st5" x1="267" y1="132.2" x2="258.1" y2="123.3"/>
					<line class="st5" x1="306.5" y1="148.3" x2="319.4" y2="148.2"/>
					<line class="st5" x1="283.5" y1="171" x2="283.5" y2="184"/>
					<line class="st5" x1="261" y1="148.5" x2="248" y2="148.5"/>
					<line class="st5" x1="283.5" y1="126" x2="283.5" y2="112"/>
				</g>
				
					<ellipse transform="matrix(0.7071 -0.7071 0.7071 0.7071 -22.345 244.0491)" class="st5" cx="283.4" cy="149" rx="25.5" ry="25.5"/>
			</g>
			<g id="XMLID_229_">
				<g>
					<g id="XMLID_34_">
						<g id="XMLID_35_">
							<g>
								<g id="XMLID_36_">
									<g id="XMLID_37_">
										<path class="st4" d="M283.6,163.1v-5.5c5.8,0,10.4-5.8,8.1-12c-0.8-2.2-2.6-4.1-4.9-4.9c-6.1-2.2-12,2.3-12,8.1l0,0h-5.5
											c0-9.3,9-16.6,18.8-13.5c4.3,1.3,7.7,4.7,9,9C300.2,154.1,292.9,163.1,283.6,163.1z"/>
									</g>
									<polygon class="st4" points="283.6,157.6 278.1,157.6 278.1,152.1 278.1,152.1 283.6,152.1 283.6,152.1 									"/>
									<polygon class="st4" points="278.1,161.8 273.9,161.8 273.9,161.8 273.9,157.6 278.1,157.6 									"/>
									<polygon class="st4" points="273.9,157.6 270.4,157.6 270.4,157.6 270.4,154.1 270.4,154.1 273.9,154.1 273.9,154.1 
																			"/>
								</g>
							</g>
						</g>
					</g>
				</g>
			</g>
		</g>
	</g>
	<path class="st6" d="M282.8,211.1c31.8-19.8,63.5-39.5,95.3-59.3c0.3,19.7,0.6,39.4,0.9,59.1C346.9,211,314.9,211.1,282.8,211.1z"
		/>
	<rect x="232.5" y="211.1" class="st2" width="31" height="7.6"/>
	<rect x="334.3" y="211.1" class="st7" width="31" height="7.6"/>
	<polyline class="st8" points="393.4,193.9 470.6,192.7 470.6,153.1 	"/>
	<polygon class="st2" points="453.6,65.5 437.5,81.3 437.5,148.5 504.5,148.5 504.5,65.5 	"/>
	<polyline class="st9" points="438,81.5 454.5,81.5 454.5,66 	"/>
	<circle class="st5" cx="471" cy="120" r="11.9"/>
	<circle class="st5" cx="471" cy="120" r="5.6"/>
	<path class="st3" d="M470.9,92.1c-4.7,0-8.5,3.5-8.5,7.9v4v5.7h3.4V104v-4c0-2.6,2.3-4.7,5.2-4.7c2.8,0,5.2,2.1,5.2,4.7v4h3.4v-4
		C479.5,95.6,475.6,92.1,470.9,92.1z"/>
	<g>
		<path class="st4" d="M219.8,52.3v8.1c0,0.6-0.5,1.2-1.2,1.2h0c-0.6,0-1.2-0.5-1.2-1.2v-8.1c0-0.6,0.5-1.2,1.2-1.2h0
			C219.3,51.1,219.8,51.7,219.8,52.3z"/>
		<path class="st4" d="M222.7,57.5h-8.1c-0.6,0-1.2-0.5-1.2-1.2v0c0-0.6,0.5-1.2,1.2-1.2h8.1c0.6,0,1.2,0.5,1.2,1.2v0
			C223.9,57,223.4,57.5,222.7,57.5z"/>
	</g>
	<g>
		<path class="st4" d="M542.2,50v8.1c0,0.6-0.5,1.2-1.2,1.2l0,0c-0.6,0-1.2-0.5-1.2-1.2V50c0-0.6,0.5-1.2,1.2-1.2l0,0
			C541.7,48.8,542.2,49.3,542.2,50z"/>
		<path class="st4" d="M545.1,55.2H537c-0.6,0-1.2-0.5-1.2-1.2v0c0-0.6,0.5-1.2,1.2-1.2h8.1c0.6,0,1.2,0.5,1.2,1.2v0
			C546.3,54.7,545.8,55.2,545.1,55.2z"/>
	</g>
	<circle class="st4" cx="196.3" cy="100.9" r="3.7"/>
	<circle class="st4" cx="532" cy="85.5" r="3.7"/>
	<g>
		<path class="st4" d="M177.8,64.3c0.9,0,1.7,0.8,1.7,1.7s-0.8,1.7-1.7,1.7S176,66.9,176,66S176.8,64.3,177.8,64.3 M177.8,62.3
			c-2,0-3.7,1.7-3.7,3.7c0,2,1.7,3.7,3.7,3.7c2,0,3.7-1.7,3.7-3.7C181.5,64,179.8,62.3,177.8,62.3L177.8,62.3z"/>
	</g>
	<g>
		<path class="st4" d="M508.2,42.9c0.9,0,1.7,0.8,1.7,1.7s-0.8,1.7-1.7,1.7s-1.7-0.8-1.7-1.7S507.3,42.9,508.2,42.9 M508.2,40.9
			c-2,0-3.7,1.7-3.7,3.7c0,2,1.7,3.7,3.7,3.7c2,0,3.7-1.7,3.7-3.7C511.9,42.6,510.3,40.9,508.2,40.9L508.2,40.9z"/>
	</g>
</g>
</svg>
