<?xml version="1.0" encoding="utf-8"?>
<!-- Generator: Adobe Illustrator 19.2.1, SVG Export Plug-In . SVG Version: 6.00 Build 0)  -->
<svg version="1.1" id="Layer_1" xmlns="http://www.w3.org/2000/svg" xmlns:xlink="http://www.w3.org/1999/xlink" x="0px" y="0px"
	 viewBox="0 0 620 300" style="enable-background:new 0 0 620 300;" xml:space="preserve">
<style type="text/css">
	.st0{fill:#E6F3FF;}
	.st1{opacity:0.5;fill:#6CACFE;enable-background:new    ;}
	.st2{fill:#6CACFE;fill-opacity:0.5;}
	.st3{fill:none;stroke:#6CACFE;stroke-width:3;stroke-miterlimit:10;}
	.st4{fill:#6CACFE;fill-opacity:0.75;}
	.st5{fill:none;stroke:#6CACFE;stroke-width:3;stroke-linejoin:bevel;stroke-miterlimit:10;}
	
		.st6{opacity:0.5;fill:none;stroke:#6CACFE;stroke-width:3;stroke-linecap:round;stroke-miterlimit:10;stroke-dasharray:10;enable-background:new    ;}
</style>
<g id="Layer_2_1_">
	<g id="Layer_1_1_">
		<rect x="-0.9" y="-0.9" class="st0" width="620" height="300"/>
	</g>
</g>
<g id="Layer_2">
	<g>
		<g>
			<g>
				<polygon class="st1" points="392,116.2 392.1,116.2 391.9,116.2 317.6,80.4 243.3,116.2 243.1,116.2 243.2,116.2 243.1,116.2 
					243.3,116.2 317.6,152 391.9,116.2 392.1,116.2 				"/>
			</g>
			<polygon class="st2" points="392,182.1 392.1,182.1 391.9,182.1 317.6,146.3 243.3,182.1 243.1,182.1 243.2,182.1 243.1,182.1 
				243.3,182.1 317.6,217.9 391.9,182.1 392.1,182.1 			"/>
			<polygon class="st2" points="392,165.7 392.1,165.7 391.9,165.7 317.6,129.9 243.3,165.7 243.1,165.7 243.2,165.7 243.1,165.7 
				243.3,165.7 317.6,201.5 391.9,165.7 392.1,165.7 			"/>
			<polygon class="st2" points="392,149.3 392.1,149.3 391.9,149.3 317.6,113.5 243.3,149.3 243.1,149.3 243.2,149.3 243.1,149.3 
				243.3,149.3 317.6,185.2 391.9,149.3 392.1,149.3 			"/>
			<polygon class="st2" points="392,132.9 392.1,132.9 391.9,132.9 317.6,97.1 243.3,132.9 243.1,132.9 243.2,132.9 243.1,132.9 
				243.3,132.9 317.6,168.8 391.9,132.9 392.1,132.9 			"/>
			<polygon class="st3" points="390.9,182.7 390.9,117.1 317.6,80.7 243.9,116.5 243.9,182.7 317.4,217.9 			"/>
		</g>
		<g id="XMLID_229_">
			<g id="XMLID_690_">
				<g id="XMLID_691_">
					<g>
						<g id="XMLID_44_">
							<g id="XMLID_48_">
								<path id="XMLID_49_" class="st0" d="M317.6,168.4V161c7.8,0,13.9-7.8,10.9-16c-1.1-3-3.5-5.5-6.6-6.6c-8.2-3-16,3.1-16,10.9
									l0,0h-7.4c0-12.5,12.1-22.2,25.1-18.1c5.7,1.8,10.3,6.3,12,12C339.8,156.3,330.1,168.4,317.6,168.4z"/>
							</g>
							<polygon id="XMLID_47_" class="st0" points="317.6,161 310.3,161 310.3,153.7 310.3,153.7 317.6,153.7 317.6,153.7 							
								"/>
							<polygon id="XMLID_46_" class="st0" points="310.3,166.7 304.6,166.7 304.6,166.7 304.6,161 310.3,161 							"/>
							<path id="XMLID_45_" class="st0" d="M304.6,161h-4.7l0,0v-4.7l0,0h4.7l0,0V161z"/>
						</g>
					</g>
				</g>
			</g>
		</g>
	</g>
</g>
<g>
	<rect x="502.3" y="130.9" class="st2" width="20.9" height="35.4"/>
	<rect x="481.1" y="130.6" class="st3" width="42.5" height="35.4"/>
	<path class="st4" d="M502.3,103.6v4.9c4.4,0,8,3.3,8,7.3v6.2h5.3v-6.2C515.6,109.1,509.6,103.6,502.3,103.6z"/>
	<path class="st2" d="M502.3,103.6c-7.3,0-13.2,5.5-13.2,12.2v6.2v8.9h5.3V122v-6.2c0-4,3.5-7.3,8-7.3c4.4,0,8,3.3,8,7.3v6.2h5.3
		v-6.2C515.6,109.1,509.6,103.6,502.3,103.6z"/>
	<path class="st2" d="M506.7,143.6c0-2.5-1.9-4.4-4.4-4.4c-2.5,0-4.4,1.9-4.4,4.4c0,1.3,0.5,2.5,1.5,3.3v7.6c0,1.6,1.3,2.9,2.9,2.9
		s2.9-1.3,2.9-2.9v-7.6C506.2,146.2,506.7,145,506.7,143.6z"/>
</g>
<g>
	<rect x="61.2" y="112.5" class="st3" width="90.4" height="73.3"/>
	<rect x="144.9" y="112.5" class="st2" width="6.7" height="73.3"/>
	<rect x="67.9" y="125.3" class="st2" width="30" height="53.9"/>
	<rect x="106.4" y="125.3" class="st2" width="30" height="23.8"/>
	<line class="st5" x1="67.9" y1="119.5" x2="136.1" y2="119.5"/>
	<line class="st3" x1="106.4" y1="154.5" x2="136.4" y2="154.5"/>
	<line class="st3" x1="106.4" y1="160.8" x2="136.4" y2="160.8"/>
	<line class="st3" x1="106.4" y1="167.1" x2="136.4" y2="167.1"/>
</g>
<g id="Layer_3">
	<g>
		<line class="st6" x1="162.2" y1="149.6" x2="235.2" y2="148.7"/>
		<line class="st6" x1="401.6" y1="149.6" x2="474.6" y2="148.7"/>
	</g>
</g>
</svg>
