<svg xmlns="http://www.w3.org/2000/svg" viewBox="0 0 620 300"><style>.st0{fill:#fccd69}.st1{fill:#f4f3f2;stroke:#4c4b48;stroke-width:3;stroke-linecap:round;stroke-linejoin:round;stroke-miterlimit:10}.st2{fill:#4c4b48}.st3{fill:none;stroke:#4c4b48;stroke-width:3;stroke-linecap:round;stroke-linejoin:round;stroke-miterlimit:10}.st4{fill:#e55f30}.st5{fill:#5abbe5}.st6{fill:#c17530}.st7{fill:#88b73d}.st10,.st11,.st8,.st9{fill:none;stroke:#4c4b48;stroke-width:3;stroke-linecap:round;stroke-linejoin:round}.st10,.st11,.st9{stroke-dasharray:9.7778,9.7778}.st10,.st11{stroke-dasharray:10.4815,10.4815}.st11{stroke-dasharray:10.7778,10.7778}</style><path class="st0" d="M0 0h620v300H0z" id="Layer_2"/><path class="st1" d="M415 52.3h40v275.4h-40z" id="Layer_4"/><g id="Layer_1"><path class="st1" d="M193 45.5h254.5v279.2H193zM193 57.5h253"/><circle class="st2" cx="201.2" cy="51.8" r="2.5"/><circle class="st2" cx="209.4" cy="51.8" r="2.5"/><circle class="st2" cx="217.7" cy="51.8" r="2.5"/><path class="st3" d="M207.6 71.9h106.3v70.7H207.6z"/><path class="st4" d="M213.5 78.6h94.6V136h-94.6z"/><path class="st3" d="M333 237.4h98v70.7h-98z"/><path class="st5" d="M338.4 244.1h87.2v57.4h-87.2z"/><path class="st3" d="M207 159.5h107M207 169.5h107M207 179.5h107M269.4 192.9H314v44.6h-44.6z"/><path class="st6" d="M274.8 198.3h33.6v33.6h-33.6z"/><path class="st3" d="M207 192.9h44.6v44.6H207z"/><path class="st7" d="M212.5 198.3h33.6v33.6h-33.6z"/></g><g id="Layer_3"><path class="st3" d="M333 71.5h98M333 79.5h98M333 87.5h98M333 103.5h87M333 95.5h65"/><path class="st8" d="M431 219.7v5h-5"/><path class="st9" d="M416.2 224.7h-73.3"/><path class="st8" d="M338 224.7h-5v-5"/><path class="st10" d="M333 209.2v-78.6"/><path class="st8" d="M333 125.3v-5h5"/><path class="st9" d="M347.8 120.3h73.3"/><path class="st8" d="M426 120.3h5v5"/><path class="st10" d="M431 135.8v78.6"/><g><path class="st8" d="M314 350.7v5h-5"/><path class="st11" d="M298.2 355.7h-80.8"/><path class="st8" d="M212 355.7h-5v-5"/><path class="st10" d="M207 340.2v-78.6"/><path class="st8" d="M207 256.3v-5h5"/><path class="st11" d="M222.8 251.3h80.8"/><path class="st8" d="M309 251.3h5v5"/><path class="st10" d="M314 266.8v78.6"/></g></g></svg>