<?xml version="1.0" encoding="utf-8"?>
<!-- Generator: Adobe Illustrator 20.1.0, SVG Export Plug-In . SVG Version: 6.00 Build 0)  -->
<svg version="1.1" id="Layer_1" xmlns="http://www.w3.org/2000/svg" xmlns:xlink="http://www.w3.org/1999/xlink" x="0px" y="0px"
	 viewBox="0 0 620 300" style="enable-background:new 0 0 620 300;" xml:space="preserve">
<style type="text/css">
	.st0{fill:#EEAA00;}
	.st1{fill:#FFFFFF;}
</style>
<ellipse transform="matrix(0.2588 -0.9659 0.9659 0.2588 100.1393 398.9031)" class="st0" cx="310" cy="134.2" rx="71.8" ry="71.8"/>
<ellipse transform="matrix(0.2588 -0.9659 0.9659 0.2588 100.1393 398.9031)" class="st1" cx="310" cy="134.2" rx="57.4" ry="14.4"/>
<ellipse transform="matrix(0.2588 -0.9659 0.9659 0.2588 116.8595 439.2693)" class="st1" cx="344.7" cy="143.5" rx="28.7" ry="7.2"/>
<ellipse transform="matrix(0.2588 -0.9659 0.9659 0.2588 83.4191 358.537)" class="st1" cx="275.3" cy="124.9" rx="28.7" ry="7.2"/>
<g>
	<path class="st0" d="M243.9,228.7c0-0.5,0.4-0.9,0.9-0.9h3.5c1.1,0,2,0.3,2.6,0.9c0.4,0.4,0.7,1,0.7,1.6v0c0,1.2-0.7,1.8-1.4,2.2
		c1.1,0.4,1.9,1.1,1.9,2.4v0c0,1.8-1.4,2.7-3.6,2.7h-3.7c-0.5,0-0.9-0.4-0.9-0.9V228.7z M248,231.9c1.1,0,1.8-0.4,1.8-1.3v0
		c0-0.8-0.6-1.2-1.7-1.2h-2.5v2.6H248z M248.5,236.1c1.2,0,1.9-0.5,1.9-1.3v0c0-0.8-0.7-1.3-2-1.3h-2.7v2.7H248.5z"/>
	<path class="st0" d="M253.9,231c0-0.5,0.4-0.9,0.8-0.9c0.5,0,0.9,0.4,0.9,0.9v0.8c0.4-0.9,1.1-1.6,1.9-1.6c0.5,0,0.8,0.4,0.8,0.8
		c0,0.4-0.3,0.7-0.7,0.8c-1.2,0.2-2,1.1-2,2.9v2.2c0,0.5-0.4,0.8-0.9,0.8c-0.5,0-0.8-0.4-0.8-0.8V231z"/>
	<path class="st0" d="M259,233.9L259,233.9c0-2.1,1.7-3.9,4-3.9c2.3,0,3.9,1.7,3.9,3.8v0c0,2.1-1.7,3.9-4,3.9
		C260.6,237.8,259,236,259,233.9z M265.2,233.9L265.2,233.9c0-1.3-0.9-2.4-2.3-2.4c-1.4,0-2.2,1.1-2.2,2.4v0c0,1.3,0.9,2.4,2.3,2.4
		C264.3,236.3,265.2,235.2,265.2,233.9z"/>
	<path class="st0" d="M268.9,235.5v-3.9h-0.3c-0.4,0-0.7-0.3-0.7-0.7s0.3-0.7,0.7-0.7h0.3v-1.3c0-0.5,0.4-0.8,0.9-0.8
		c0.5,0,0.8,0.4,0.8,0.8v1.3h1.3c0.4,0,0.7,0.3,0.7,0.7s-0.3,0.7-0.7,0.7h-1.3v3.6c0,0.7,0.3,0.9,0.9,0.9c0.2,0,0.4,0,0.4,0
		c0.4,0,0.7,0.3,0.7,0.7c0,0.3-0.2,0.6-0.4,0.7c-0.4,0.1-0.7,0.2-1.2,0.2C269.8,237.7,268.9,237.2,268.9,235.5z"/>
	<path class="st0" d="M274.4,228.1c0-0.5,0.4-0.8,0.8-0.8c0.5,0,0.9,0.4,0.9,0.8v8.7c0,0.5-0.4,0.8-0.9,0.8c-0.5,0-0.8-0.4-0.8-0.8
		V228.1z"/>
	<path class="st0" d="M278.3,228.2c0-0.5,0.4-0.8,1-0.8s1,0.3,1,0.8v0.1c0,0.5-0.4,0.8-1,0.8S278.3,228.8,278.3,228.2L278.3,228.2z
		 M278.4,231c0-0.5,0.4-0.9,0.8-0.9c0.5,0,0.9,0.4,0.9,0.9v5.9c0,0.5-0.4,0.8-0.9,0.8c-0.5,0-0.8-0.4-0.8-0.8V231z"/>
	<path class="st0" d="M286.3,232.7L286.3,232.7c0-2.8,2.1-5.1,5.1-5.1c1.5,0,2.5,0.4,3.4,1.1c0.2,0.1,0.3,0.4,0.3,0.7
		c0,0.5-0.4,0.8-0.9,0.8c-0.2,0-0.4-0.1-0.5-0.2c-0.7-0.5-1.4-0.9-2.3-0.9c-1.9,0-3.2,1.5-3.2,3.5v0c0,1.9,1.4,3.5,3.2,3.5
		c1,0,1.7-0.3,2.5-0.9c0.1-0.1,0.3-0.2,0.5-0.2c0.4,0,0.8,0.4,0.8,0.8c0,0.3-0.1,0.5-0.3,0.6c-0.9,0.8-2,1.3-3.6,1.3
		C288.4,237.8,286.3,235.5,286.3,232.7z"/>
	<path class="st0" d="M296.3,233.9L296.3,233.9c0-2.1,1.7-3.9,4-3.9c2.3,0,3.9,1.7,3.9,3.8v0c0,2.1-1.7,3.9-4,3.9
		C298,237.8,296.3,236,296.3,233.9z M302.5,233.9L302.5,233.9c0-1.3-0.9-2.4-2.3-2.4c-1.4,0-2.2,1.1-2.2,2.4v0
		c0,1.3,0.9,2.4,2.3,2.4C301.7,236.3,302.5,235.2,302.5,233.9z"/>
	<path class="st0" d="M305.9,231c0-0.5,0.4-0.9,0.8-0.9c0.5,0,0.9,0.4,0.9,0.9v0.4c0.5-0.7,1.1-1.3,2.3-1.3c1.1,0,1.8,0.5,2.2,1.3
		c0.6-0.8,1.4-1.3,2.5-1.3c1.6,0,2.6,1,2.6,2.8v4c0,0.5-0.4,0.8-0.8,0.8c-0.5,0-0.9-0.4-0.9-0.8v-3.4c0-1.2-0.5-1.8-1.5-1.8
		c-0.9,0-1.6,0.6-1.6,1.8v3.4c0,0.5-0.4,0.8-0.8,0.8c-0.5,0-0.9-0.4-0.9-0.8v-3.4c0-1.1-0.6-1.8-1.5-1.8s-1.6,0.7-1.6,1.8v3.4
		c0,0.5-0.4,0.8-0.9,0.8c-0.5,0-0.8-0.4-0.8-0.8V231z"/>
	<path class="st0" d="M319.2,231c0-0.5,0.4-0.9,0.8-0.9c0.5,0,0.9,0.4,0.9,0.9v0.5c0.5-0.8,1.3-1.4,2.5-1.4c1.7,0,3.4,1.4,3.4,3.8v0
		c0,2.5-1.7,3.8-3.4,3.8c-1.2,0-2-0.6-2.5-1.3v2.6c0,0.5-0.4,0.8-0.9,0.8c-0.5,0-0.8-0.4-0.8-0.8V231z M325.2,233.9L325.2,233.9
		c0-1.5-1-2.4-2.1-2.4c-1.1,0-2.2,1-2.2,2.4v0c0,1.4,1,2.4,2.2,2.4C324.2,236.3,325.2,235.4,325.2,233.9z"/>
	<path class="st0" d="M328.6,231c0-0.5,0.4-0.9,0.8-0.9s0.9,0.4,0.9,0.9v0.8c0.4-0.9,1.1-1.6,1.9-1.6c0.5,0,0.8,0.4,0.8,0.8
		c0,0.4-0.3,0.7-0.7,0.8c-1.2,0.2-2,1.1-2,2.9v2.2c0,0.5-0.4,0.8-0.9,0.8c-0.5,0-0.8-0.4-0.8-0.8V231z"/>
	<path class="st0" d="M337.5,237.8c-2.1,0-3.8-1.6-3.8-3.8v0c0-2.1,1.5-3.9,3.6-3.9c2.4,0,3.5,1.9,3.5,3.6c0,0.5-0.4,0.8-0.8,0.8
		h-4.6c0.2,1.2,1,1.9,2.1,1.9c0.7,0,1.3-0.3,1.8-0.6c0.1-0.1,0.2-0.2,0.4-0.2c0.4,0,0.7,0.3,0.7,0.7c0,0.2-0.1,0.4-0.2,0.5
		C339.5,237.4,338.7,237.8,337.5,237.8z M339.2,233.4c-0.1-1.1-0.8-1.9-1.9-1.9c-1,0-1.8,0.8-1.9,1.9H339.2z"/>
	<path class="st0" d="M342.3,236.8c-0.2-0.1-0.3-0.3-0.3-0.6c0-0.4,0.3-0.7,0.7-0.7c0.1,0,0.3,0,0.4,0.1c0.7,0.5,1.5,0.7,2.1,0.7
		c0.7,0,1.1-0.3,1.1-0.8v0c0-0.6-0.8-0.8-1.7-1c-1.1-0.3-2.3-0.8-2.3-2.2v0c0-1.4,1.2-2.3,2.6-2.3c0.8,0,1.6,0.2,2.3,0.6
		c0.2,0.1,0.4,0.4,0.4,0.6c0,0.4-0.3,0.7-0.7,0.7c-0.1,0-0.2,0-0.3-0.1c-0.6-0.3-1.2-0.5-1.7-0.5c-0.7,0-1,0.3-1,0.7v0
		c0,0.5,0.8,0.8,1.7,1.1c1.1,0.3,2.3,0.8,2.3,2.2v0c0,1.6-1.2,2.3-2.7,2.3C344.2,237.7,343.2,237.4,342.3,236.8z"/>
	<path class="st0" d="M349.2,236.8c-0.2-0.1-0.3-0.3-0.3-0.6c0-0.4,0.3-0.7,0.7-0.7c0.1,0,0.3,0,0.4,0.1c0.7,0.5,1.5,0.7,2.1,0.7
		c0.7,0,1.1-0.3,1.1-0.8v0c0-0.6-0.8-0.8-1.7-1c-1.1-0.3-2.3-0.8-2.3-2.2v0c0-1.4,1.2-2.3,2.6-2.3c0.8,0,1.6,0.2,2.3,0.6
		c0.2,0.1,0.4,0.4,0.4,0.6c0,0.4-0.3,0.7-0.7,0.7c-0.1,0-0.2,0-0.3-0.1c-0.6-0.3-1.2-0.5-1.7-0.5c-0.7,0-1,0.3-1,0.7v0
		c0,0.5,0.8,0.8,1.7,1.1c1.1,0.3,2.3,0.8,2.3,2.2v0c0,1.6-1.2,2.3-2.7,2.3C351.1,237.7,350.1,237.4,349.2,236.8z"/>
	<path class="st0" d="M356.5,228.2c0-0.5,0.4-0.8,1-0.8c0.5,0,1,0.3,1,0.8v0.1c0,0.5-0.4,0.8-1,0.8
		C356.9,229.1,356.5,228.8,356.5,228.2L356.5,228.2z M356.6,231c0-0.5,0.4-0.9,0.8-0.9s0.9,0.4,0.9,0.9v5.9c0,0.5-0.4,0.8-0.9,0.8
		c-0.5,0-0.8-0.4-0.8-0.8V231z"/>
	<path class="st0" d="M360.1,233.9L360.1,233.9c0-2.1,1.7-3.9,4-3.9s3.9,1.7,3.9,3.8v0c0,2.1-1.7,3.9-4,3.9
		C361.8,237.8,360.1,236,360.1,233.9z M366.3,233.9L366.3,233.9c0-1.3-0.9-2.4-2.3-2.4c-1.4,0-2.2,1.1-2.2,2.4v0
		c0,1.3,0.9,2.4,2.3,2.4C365.4,236.3,366.3,235.2,366.3,233.9z"/>
	<path class="st0" d="M369.7,231c0-0.5,0.4-0.9,0.8-0.9c0.5,0,0.9,0.4,0.9,0.9v0.4c0.5-0.7,1.2-1.3,2.3-1.3c1.7,0,2.6,1.1,2.6,2.8v4
		c0,0.5-0.4,0.8-0.8,0.8c-0.5,0-0.9-0.4-0.9-0.8v-3.4c0-1.1-0.6-1.8-1.6-1.8c-1,0-1.7,0.7-1.7,1.8v3.4c0,0.5-0.4,0.8-0.9,0.8
		c-0.5,0-0.8-0.4-0.8-0.8V231z"/>
</g>
</svg>
