<?xml version="1.0" encoding="utf-8"?>
<!-- Generator: Adobe Illustrator 20.1.0, SVG Export Plug-In . SVG Version: 6.00 Build 0)  -->
<svg version="1.1" xmlns="http://www.w3.org/2000/svg" xmlns:xlink="http://www.w3.org/1999/xlink" x="0px" y="0px"
	 viewBox="0 0 620 300" style="enable-background:new 0 0 620 300;" xml:space="preserve">
<style type="text/css">
	.st0{fill:#E6F3FF;}
	.st1{fill:#F9F9FB;}
	.st2{fill:#6CACFE;}
</style>
<g id="Layer_1">
	<g id="Layer_3">
		<rect x="0.5" class="st0" width="619.5" height="300"/>
	</g>
</g>
<g id="Layer_4">
	<path class="st1" d="M87.8,115.3c0.5,0,1,0,1.4,0.1v-0.1c0-12.5,9.9-22.6,22.2-22.6c4.5,0,8.7,1.4,12.2,3.7
		c3.6-8.5,12-14.5,21.7-14.5c13.1,0,23.6,10.8,23.6,24.1c0,1.3-0.1,2.5-0.3,3.7c17,2.9,29.7,15.8,29.7,31.3h-62.1h-12.6h-10.5H103
		H62.6C62.6,126.6,73.9,115.3,87.8,115.3z"/>
	<path class="st1" d="M380.2,89.1h-25H349h-6.5h-7.8h-38.3c0-9.6,7.9-17.5,18.3-19.3c-0.1-0.8-0.2-1.5-0.2-2.3
		c0-8.2,6.5-14.9,14.6-14.9c6,0,11.1,3.7,13.4,9c2.1-1.5,4.8-2.3,7.5-2.3c7.6,0,13.7,6.3,13.7,14v0c0.3,0,0.6,0,0.9,0
		C373.2,73.2,380.2,80.2,380.2,89.1z"/>
</g>
<g id="Layer_2">
	<g>
		<path class="st2" d="M145.6,117h-30.2c-1.1,0-2-0.9-2-2v0c0-1.1,0.9-2,2-2h30.2c1.1,0,2,0.9,2,2v0
			C147.6,116.1,146.7,117,145.6,117z"/>
		<path class="st2" d="M142.6,135.4h-20.1c-1.1,0-2-0.9-2-2l0,0c0-1.1,0.9-2,2-2h20.1c1.1,0,2,0.9,2,2l0,0
			C144.6,134.5,143.7,135.4,142.6,135.4z"/>
		<path class="st2" d="M121.2,151h-15.7c-1.1,0-2-0.9-2-2l0,0c0-1.1,0.9-2,2-2h15.7c1.1,0,2,0.9,2,2l0,0
			C123.3,150.1,122.4,151,121.2,151z"/>
		<path class="st2" d="M189.7,188H174c-1.1,0-2-0.9-2-2l0,0c0-1.1,0.9-2,2-2h15.7c1.1,0,2,0.9,2,2l0,0
			C191.7,187.1,190.8,188,189.7,188z"/>
		<path class="st2" d="M191,135.4h-15.7c-1.1,0-2-0.9-2-2l0,0c0-1.1,0.9-2,2-2H191c1.1,0,2,0.9,2,2l0,0
			C193,134.5,192.1,135.4,191,135.4z"/>
		<path class="st2" d="M140.4,175.4h-15.7c-1.1,0-2-0.9-2-2l0,0c0-1.1,0.9-2,2-2h15.7c1.1,0,2,0.9,2,2l0,0
			C142.4,174.5,141.5,175.4,140.4,175.4z"/>
		<path class="st2" d="M114.7,175.4h-5.4c-1.1,0-2-0.9-2-2l0,0c0-1.1,0.9-2,2-2h5.4c1.1,0,2,0.9,2,2l0,0
			C116.8,174.5,115.8,175.4,114.7,175.4z"/>
		<path class="st2" d="M166,175h-9c-1.1,0-2-0.9-2-2l0,0c0-1.1,0.9-2,2-2h9c1.1,0,2,0.9,2,2l0,0C168,174.1,167.1,175,166,175z"/>
		<path class="st2" d="M258.8,162h-7.6c-1.1,0-2-0.9-2-2v0c0-1.1,0.9-2,2-2h7.6c1.1,0,2,0.9,2,2v0C260.9,161.1,260,162,258.8,162z"
			/>
		<path class="st2" d="M301.8,140.8h-12.1c-1.1,0-2-0.9-2-2v0c0-1.1,0.9-2,2-2h12.1c1.1,0,2,0.9,2,2l0,0
			C303.8,139.9,302.9,140.8,301.8,140.8z"/>
		<path class="st2" d="M336.3,117h-12.1c-1.1,0-2-0.9-2-2v0c0-1.1,0.9-2,2-2h12.1c1.1,0,2,0.9,2,2v0
			C338.3,116.1,337.4,117,336.3,117z"/>
		<path class="st2" d="M378.8,170.3h-19.1c-1.1,0-2-0.9-2-2l0,0c0-1.1,0.9-2,2-2h19.1c1.1,0,2,0.9,2,2l0,0
			C380.8,169.4,379.9,170.3,378.8,170.3z"/>
		<path class="st2" d="M430.3,170.3h-19.1c-1.1,0-2-0.9-2-2l0,0c0-1.1,0.9-2,2-2h19.1c1.1,0,2,0.9,2,2l0,0
			C432.3,169.4,431.4,170.3,430.3,170.3z"/>
		<path class="st2" d="M474.2,188h-19.1c-1.1,0-2-0.9-2-2l0,0c0-1.1,0.9-2,2-2h19.1c1.1,0,2,0.9,2,2l0,0
			C476.2,187.1,475.3,188,474.2,188z"/>
		<path class="st2" d="M475.8,188h-19.1c-1.1,0-2-0.9-2-2l0,0c0-1.1,0.9-2,2-2h19.1c1.1,0,2,0.9,2,2l0,0
			C477.8,187.1,476.9,188,475.8,188z"/>
		<path class="st2" d="M470.9,117h-19.1c-1.1,0-2-0.9-2-2v0c0-1.1,0.9-2,2-2h19.1c1.1,0,2,0.9,2,2v0C472.9,116.1,472,117,470.9,117z
			"/>
		<path class="st2" d="M444.9,146.1h-19.1c-1.1,0-2-0.9-2-2v0c0-1.1,0.9-2,2-2h19.1c1.1,0,2,0.9,2,2v0
			C447,145.2,446.1,146.1,444.9,146.1z"/>
		<path class="st2" d="M344.5,181.9h-19.1c-1.1,0-2-0.9-2-2l0,0c0-1.1,0.9-2,2-2h19.1c1.1,0,2,0.9,2,2l0,0
			C346.5,181,345.6,181.9,344.5,181.9z"/>
		<path class="st2" d="M372.6,184h-4.4c-1.1,0-2-0.9-2-2l0,0c0-1.1,0.9-2,2-2h4.4c1.1,0,2,0.9,2,2l0,0
			C374.7,183,373.8,184,372.6,184z"/>
		<path class="st2" d="M415.7,146.1h-4.4c-1.1,0-2-0.9-2-2v0c0-1.1,0.9-2,2-2h4.4c1.1,0,2,0.9,2,2v0
			C417.7,145.2,416.8,146.1,415.7,146.1z"/>
		<path class="st2" d="M478.5,172.1c0,0,0-0.1,0-0.1h-7.9c-1.1,0-2-0.9-2-2s0.9-2,2-2h5.2l-7-10h-16.9c-1.1,0-2-0.9-2-2s0.9-2,2-2
			h14.1l-3.9-5.4l25-35.6h-23.4l-14.3,21.5L435.2,113h-23l7.1,10h15.9c1.1,0,2,0.9,2,2s-0.9,2-2,2H422l15.4,22.6L416.1,180h14.7
			c1.1,0,2,0.9,2,2s-0.9,2-2,2h-17.6l-2.8,4h23.1l15.8-23.5l16.1,23.5h23.7L478.5,172.1z"/>
		<path class="st2" d="M446.4,188H442c-1.1,0-2-0.9-2-2l0,0c0-1.1,0.9-2,2-2h4.4c1.1,0,2,0.9,2,2l0,0
			C448.5,187.1,447.5,188,446.4,188z"/>
		<path class="st2" d="M388.9,117h-12.1c-1.1,0-2-0.9-2-2v0c0-1.1,0.9-2,2-2h12.1c1.1,0,2,0.9,2,2v0C390.9,116.1,390,117,388.9,117z
			"/>
		<path class="st2" d="M366.2,117h-6.5c-1.1,0-2-0.9-2-2v0c0-1.1,0.9-2,2-2h6.5c1.1,0,2,0.9,2,2v0C368.3,116.1,367.4,117,366.2,117z
			"/>
		<path class="st2" d="M384.2,113l0,20h10.6c1.1,0,2,0.9,2,2s-0.9,2-2,2h-10.6l0.1,21.9L349.8,113H332v12h14.2c1.1,0,2,0.9,2,2
			s-0.9,2-2,2H332v29h6.3c1.1,0,2,0.9,2,2s-0.9,2-2,2H332v26h19v-45.4l28.2,37.4h18.6c1.1,0,2,0.9,2,2s-0.9,2-2,2h-15.5l3.1,4H403
			v-75H384.2z"/>
		<path class="st2" d="M305,188h-12.1c-1.1,0-2-0.9-2-2l0,0c0-1.1,0.9-2,2-2H305c1.1,0,2,0.9,2,2l0,0C307,187.1,306.1,188,305,188z"
			/>
		<path class="st2" d="M236.1,119.1h-16c-1.1,0-2-0.9-2-2l0,0c0-1.1,0.9-2,2-2h16c1.1,0,2,0.9,2,2l0,0
			C238.1,118.2,237.2,119.1,236.1,119.1z"/>
		<path class="st2" d="M298,113v4h12.2c1.1,0,2,0.9,2,2s-0.9,2-2,2H298v42h4.7c1.1,0,2,0.9,2,2s-0.9,2-2,2H298v21h20v-75H298z"/>
		<path class="st2" d="M268,158h9.8c1.1,0,2,0.9,2,2c0,1.1-0.9,2-2,2H268v7.3c-5,2.5-9.4,3.7-13.2,3.7c-4,0-7.8-1-11.1-2.9
			c-3.3-1.9-5.9-4.6-7.8-8.1c-1.9-3.4-2.8-7.3-2.8-11.5c0-4.2,0.9-8,2.8-11.4c1.9-3.4,4.4-6.1,7.7-8c3.2-1.9,6.9-2.9,10.9-2.9
			c3.5,0,7,0.8,10.5,2.3s6.7,3.6,9.5,6.2l11.2-13.8c-3.9-3.5-8.6-6.2-14.3-8.3s-11.2-3.1-16.9-3.1c-7.9,0-15,1.6-21.4,4.9
			c-5.9,3.1-10.6,7.6-14.2,12.6h10.5c1.1,0,2,0.9,2,2c0,1.1-0.9,2-2,2h-12.8c-2.6,5.9-3.9,10.9-3.9,17h2c1.1,0,2,0.9,2,2s-0.9,2-2,2
			h-1.9c0.5,6,2.2,11.6,5.1,16.6c1.8,3.1,4,5.4,6.5,8.4h26.9c1.1,0,2,0.9,2,2s-0.9,2-2,2h-21.9c1,1,1.9,1.2,3,1.8
			c6.2,3.4,13.1,5.1,20.7,5.1c5.3,0,10.9-0.9,16.8-2.8c5.9-1.8,10.9-4.3,14.9-7.2V150h-17V158z"/>
		<path class="st2" d="M216,182.9h-6.1c-1.1,0-2-0.9-2-2l0,0c0-1.1,0.9-2,2-2h6.1c1.1,0,2,0.9,2,2l0,0
			C218,182,217.1,182.9,216,182.9z"/>
		<path class="st2" d="M104.6,117.1h-5.9c-1.1,0-2.1-0.9-2.1-2.1v0c0-1.1,0.9-2.1,2.1-2.1h5.9c1.1,0,2.1,0.9,2.1,2.1v0
			C106.7,116.2,105.8,117.1,104.6,117.1z"/>
		<path class="st2" d="M172.8,121.2h-5.9c-1.1,0-2.1-0.9-2.1-2.1l0,0c0-1.1,0.9-2.1,2.1-2.1h5.9c1.1,0,2.1,0.9,2.1,2.1l0,0
			C174.8,120.3,173.9,121.2,172.8,121.2z"/>
		<path class="st2" d="M184.4,113l0,4h12.5c1.1,0,2,0.9,2,2s-0.9,2-2,2h-12.5l0.1,37.6L150,113h-17v4h9.6c1.1,0,2.1,0.9,2.1,2
			s-0.9,2-2.1,2H133v26h3.8c1.1,0,2,0.9,2,2s-0.9,2-2,2H133v37h18v-44.9l21.7,27.9h20.3c1.1,0,2,0.9,2,2s-0.9,2-2,2h-17.2l9.7,13
			H203v-75H184.4z"/>
	</g>
</g>
<g id="Layer_3_1_">
	<path class="st1" d="M434.7,186.3c0.6,0,1.1,0,1.6,0.1v-0.1c0-14.4,11.4-26.1,25.6-26.1c5.2,0,10.1,1.6,14.1,4.3
		c4.2-9.8,13.8-16.7,25-16.7c15.1,0,27.2,12.5,27.2,27.8c0,1.5-0.1,2.9-0.3,4.3c19.6,3.4,34.3,18.2,34.3,36.1h-71.6h-14.6h-12.1
		h-11.6h-46.7C405.5,199.4,418.6,186.3,434.7,186.3z"/>
	<g>
		<path class="st2" d="M226.3,215.4c0.5,0.4,0.7,1,0.7,1.8c0,0.2,0,0.5-0.1,0.8l-0.9,4.4h-1.8l0.8-4.1c0-0.2,0-0.3,0-0.4
			c0-0.4-0.1-0.8-0.4-1c-0.3-0.2-0.6-0.4-1.1-0.4c-0.5,0-1,0.2-1.4,0.5c-0.4,0.4-0.7,0.8-0.8,1.4l-0.8,4h-1.8l0.8-4.1
			c0-0.2,0-0.3,0-0.4c0-0.4-0.1-0.8-0.4-1c-0.3-0.2-0.6-0.4-1.1-0.4c-0.5,0-1,0.2-1.4,0.5c-0.4,0.4-0.7,0.8-0.8,1.4l-0.8,4h-1.8
			l1.5-7.5h1.8l-0.2,1.1c0.6-0.8,1.4-1.2,2.4-1.2c0.7,0,1.2,0.1,1.7,0.4c0.5,0.3,0.8,0.7,0.9,1.2c0.7-1.1,1.6-1.7,2.8-1.7
			C225.2,214.8,225.8,215,226.3,215.4z"/>
		<path class="st2" d="M229.6,222c-0.5-0.3-0.8-0.7-1.1-1.2c-0.3-0.5-0.4-1.1-0.4-1.7c0-0.8,0.2-1.5,0.5-2.2
			c0.4-0.7,0.8-1.2,1.5-1.5c0.6-0.4,1.3-0.6,2.1-0.6c0.6,0,1.2,0.1,1.6,0.4c0.4,0.3,0.7,0.7,0.9,1.2l0.3-1.5h1.8l-1.5,7.5h-1.8
			l0.2-1c-0.3,0.4-0.7,0.6-1.2,0.8s-0.9,0.3-1.4,0.3C230.6,222.4,230.1,222.3,229.6,222z M233.1,220.6c0.4-0.2,0.7-0.5,0.9-0.9
			s0.3-0.8,0.3-1.3c0-0.6-0.2-1.1-0.5-1.4s-0.8-0.5-1.3-0.5c-0.4,0-0.9,0.1-1.2,0.3c-0.4,0.2-0.7,0.6-0.9,1s-0.3,0.8-0.3,1.3
			c0,0.6,0.2,1.1,0.5,1.4c0.3,0.4,0.8,0.5,1.4,0.5C232.3,220.9,232.8,220.8,233.1,220.6z"/>
		<path class="st2" d="M246.5,214.9l-3.5,3l2.1,4.5h-2.2l-1.4-3.2l-1.6,1.3l-0.4,1.8h-1.8l2.1-10.4h1.8l-1.2,6l3.7-3.1H246.5z"/>
		<path class="st2" d="M249.7,214.9l-1.5,7.5h-1.8l1.5-7.5H249.7z M250,211.9c0.2,0.2,0.2,0.4,0.2,0.6c0,0.4-0.1,0.7-0.4,0.9
			s-0.5,0.4-0.9,0.4c-0.3,0-0.5-0.1-0.6-0.3s-0.2-0.4-0.2-0.6c0-0.4,0.1-0.7,0.4-0.9s0.5-0.4,0.9-0.4
			C249.6,211.6,249.9,211.7,250,211.9z"/>
		<path class="st2" d="M258,215.4c0.5,0.4,0.7,1,0.7,1.8c0,0.2,0,0.5-0.1,0.8l-0.9,4.4h-1.8l0.8-4.1c0-0.2,0-0.3,0-0.4
			c0-0.4-0.1-0.8-0.4-1c-0.3-0.2-0.6-0.4-1.1-0.4c-0.5,0-1,0.2-1.4,0.5c-0.4,0.4-0.7,0.8-0.8,1.4l-0.8,4h-1.8l1.5-7.5h1.8l-0.2,1.1
			c0.6-0.8,1.4-1.2,2.4-1.2C256.9,214.8,257.5,215,258,215.4z"/>
		<path class="st2" d="M259.3,224.1l0.8-1.2c0.6,0.5,1.4,0.8,2.3,0.8c0.7,0,1.3-0.1,1.7-0.4c0.4-0.3,0.7-0.7,0.8-1.3l0.2-0.9
			c-0.3,0.3-0.7,0.6-1.1,0.7s-0.8,0.3-1.3,0.3c-0.6,0-1.1-0.1-1.5-0.4c-0.4-0.3-0.8-0.6-1-1.1s-0.4-1-0.4-1.6c0-0.8,0.2-1.4,0.5-2.1
			c0.3-0.6,0.8-1.1,1.4-1.5c0.6-0.4,1.2-0.5,1.9-0.5c0.6,0,1.1,0.1,1.5,0.4c0.4,0.2,0.7,0.6,0.9,1l0.3-1.3h1.8l-1.5,7.2
			c-0.2,1-0.7,1.7-1.4,2.3c-0.7,0.5-1.7,0.8-2.9,0.8C261.3,225.1,260.3,224.8,259.3,224.1z M264.6,220.2c0.3-0.2,0.6-0.5,0.8-0.8
			s0.3-0.7,0.3-1.2c0-0.5-0.2-1-0.5-1.3c-0.3-0.3-0.7-0.5-1.2-0.5c-0.4,0-0.8,0.1-1.1,0.3c-0.3,0.2-0.6,0.5-0.8,0.9
			c-0.2,0.4-0.3,0.8-0.3,1.2c0,0.5,0.2,0.9,0.5,1.3c0.3,0.3,0.7,0.5,1.2,0.5C263.8,220.5,264.2,220.4,264.6,220.2z"/>
		<path class="st2" d="M274.8,220c0,0.1,0,0.3,0,0.4c0,0.2,0,0.3,0.1,0.4c0.1,0.1,0.2,0.1,0.4,0.1c0.3,0,0.7-0.1,1.2-0.3l0.3,1.4
			c-0.6,0.3-1.3,0.5-1.9,0.5c-0.6,0-1-0.2-1.4-0.5c-0.4-0.3-0.5-0.7-0.5-1.3c0-0.2,0-0.4,0.1-0.6l0.7-3.6h-1l0.3-1.3h1l0.4-2.1h1.8
			l-0.4,2.1h2.1l-0.2,1.3h-2.2L274.8,220z"/>
		<path class="st2" d="M285.7,215.4c0.5,0.4,0.7,1,0.7,1.8c0,0.2,0,0.5-0.1,0.8l-0.9,4.4h-1.8l0.8-4.1c0-0.2,0-0.3,0-0.4
			c0-0.4-0.1-0.8-0.4-1c-0.3-0.2-0.6-0.4-1.1-0.4c-0.5,0-1,0.2-1.4,0.5c-0.4,0.4-0.7,0.8-0.8,1.4l-0.8,4h-1.8l2.1-10.4h1.8l-0.8,4
			c0.6-0.8,1.4-1.2,2.4-1.2C284.6,214.8,285.2,215,285.7,215.4z"/>
		<path class="st2" d="M290.8,214.9l-1.5,7.5h-1.8l1.5-7.5H290.8z M291.2,211.9c0.2,0.2,0.2,0.4,0.2,0.6c0,0.4-0.1,0.7-0.4,0.9
			s-0.5,0.4-0.9,0.4c-0.3,0-0.5-0.1-0.6-0.3s-0.2-0.4-0.2-0.6c0-0.4,0.1-0.7,0.4-0.9s0.5-0.4,0.9-0.4
			C290.8,211.6,291,211.7,291.2,211.9z"/>
		<path class="st2" d="M299.2,215.4c0.5,0.4,0.7,1,0.7,1.8c0,0.2,0,0.5-0.1,0.8l-0.9,4.4h-1.8l0.8-4.1c0-0.2,0-0.3,0-0.4
			c0-0.4-0.1-0.8-0.4-1c-0.3-0.2-0.6-0.4-1.1-0.4c-0.5,0-1,0.2-1.4,0.5c-0.4,0.4-0.7,0.8-0.8,1.4l-0.8,4h-1.8l1.5-7.5h1.8l-0.2,1.1
			c0.6-0.8,1.4-1.2,2.4-1.2C298,214.8,298.7,215,299.2,215.4z"/>
		<path class="st2" d="M300.4,224.1l0.8-1.2c0.6,0.5,1.4,0.8,2.3,0.8c0.7,0,1.3-0.1,1.7-0.4c0.4-0.3,0.7-0.7,0.8-1.3l0.2-0.9
			c-0.3,0.3-0.7,0.6-1.1,0.7s-0.8,0.3-1.3,0.3c-0.6,0-1.1-0.1-1.5-0.4c-0.4-0.3-0.8-0.6-1-1.1s-0.4-1-0.4-1.6c0-0.8,0.2-1.4,0.5-2.1
			c0.3-0.6,0.8-1.1,1.4-1.5c0.6-0.4,1.2-0.5,1.9-0.5c0.6,0,1.1,0.1,1.5,0.4c0.4,0.2,0.7,0.6,0.9,1l0.3-1.3h1.8l-1.5,7.2
			c-0.2,1-0.7,1.7-1.4,2.3c-0.7,0.5-1.7,0.8-2.9,0.8C302.5,225.1,301.4,224.8,300.4,224.1z M305.7,220.2c0.3-0.2,0.6-0.5,0.8-0.8
			s0.3-0.7,0.3-1.2c0-0.5-0.2-1-0.5-1.3c-0.3-0.3-0.7-0.5-1.2-0.5c-0.4,0-0.8,0.1-1.1,0.3c-0.3,0.2-0.6,0.5-0.8,0.9
			c-0.2,0.4-0.3,0.8-0.3,1.2c0,0.5,0.2,0.9,0.5,1.3c0.3,0.3,0.7,0.5,1.2,0.5C305,220.5,305.4,220.4,305.7,220.2z"/>
		<path class="st2" d="M310.9,222.1c-0.6-0.3-1.1-0.6-1.5-1l0.8-1.2c0.3,0.3,0.7,0.6,1.2,0.9s0.9,0.3,1.4,0.3c0.3,0,0.6-0.1,0.8-0.2
			s0.3-0.3,0.3-0.6c0-0.2-0.1-0.4-0.3-0.5c-0.2-0.1-0.5-0.3-1-0.5c-0.4-0.2-0.8-0.3-1.1-0.5c-0.3-0.1-0.5-0.4-0.7-0.6
			c-0.2-0.3-0.3-0.6-0.3-1c0-0.5,0.1-0.9,0.4-1.2c0.2-0.3,0.6-0.6,1-0.8c0.4-0.2,0.9-0.3,1.5-0.3c0.6,0,1.1,0.1,1.7,0.3
			c0.6,0.2,1,0.5,1.4,0.8l-0.9,1.2c-0.4-0.3-0.8-0.5-1.2-0.7c-0.4-0.2-0.8-0.2-1.1-0.2c-0.3,0-0.5,0.1-0.7,0.2
			c-0.2,0.1-0.3,0.3-0.3,0.5s0.1,0.4,0.3,0.5s0.5,0.3,1,0.5c0.4,0.2,0.8,0.4,1.1,0.5c0.3,0.2,0.5,0.4,0.7,0.6c0.2,0.3,0.3,0.6,0.3,1
			c0,0.5-0.1,0.9-0.4,1.2c-0.2,0.4-0.6,0.6-1,0.8c-0.4,0.2-0.9,0.3-1.5,0.3C312.2,222.4,311.5,222.3,310.9,222.1z"/>
		<path class="st2" d="M319.8,224.1l0.8-1.2c0.6,0.5,1.4,0.8,2.3,0.8c0.7,0,1.3-0.1,1.7-0.4c0.4-0.3,0.7-0.7,0.8-1.3l0.2-0.9
			c-0.3,0.3-0.7,0.6-1.1,0.7c-0.4,0.2-0.8,0.3-1.3,0.3c-0.6,0-1.1-0.1-1.5-0.4c-0.4-0.3-0.8-0.6-1-1.1c-0.2-0.5-0.4-1-0.4-1.6
			c0-0.8,0.2-1.4,0.5-2.1c0.3-0.6,0.8-1.1,1.4-1.5c0.6-0.4,1.2-0.5,1.9-0.5c0.6,0,1.1,0.1,1.5,0.4c0.4,0.2,0.7,0.6,0.9,1l0.3-1.3
			h1.8l-1.5,7.2c-0.2,1-0.7,1.7-1.4,2.3s-1.7,0.8-2.9,0.8C321.8,225.1,320.8,224.8,319.8,224.1z M325.1,220.2
			c0.3-0.2,0.6-0.5,0.8-0.8c0.2-0.4,0.3-0.7,0.3-1.2c0-0.5-0.2-1-0.5-1.3c-0.3-0.3-0.7-0.5-1.2-0.5c-0.4,0-0.8,0.1-1.1,0.3
			s-0.6,0.5-0.8,0.9c-0.2,0.4-0.3,0.8-0.3,1.2c0,0.5,0.2,0.9,0.5,1.3c0.3,0.3,0.7,0.5,1.2,0.5C324.4,220.5,324.7,220.4,325.1,220.2z
			"/>
		<path class="st2" d="M335.7,215.2c0.5,0.3,1,0.7,1.3,1.2c0.3,0.5,0.4,1.1,0.4,1.8c0,0.8-0.2,1.5-0.6,2.2s-0.9,1.1-1.6,1.5
			s-1.4,0.5-2.2,0.5c-0.7,0-1.4-0.1-1.9-0.4c-0.5-0.3-1-0.7-1.3-1.2c-0.3-0.5-0.4-1.1-0.4-1.8c0-0.8,0.2-1.5,0.6-2.2
			c0.4-0.6,0.9-1.1,1.6-1.5c0.7-0.4,1.4-0.5,2.2-0.5C334.5,214.8,335.1,215,335.7,215.2z M332.4,216.7c-0.4,0.2-0.6,0.5-0.8,0.9
			c-0.2,0.4-0.3,0.8-0.3,1.3c0,0.6,0.2,1.1,0.5,1.5c0.3,0.4,0.8,0.6,1.4,0.6c0.4,0,0.8-0.1,1.2-0.3c0.4-0.2,0.6-0.5,0.8-0.9
			s0.3-0.8,0.3-1.3c0-0.6-0.2-1.1-0.5-1.5c-0.3-0.4-0.8-0.6-1.4-0.6C333.2,216.4,332.8,216.5,332.4,216.7z"/>
		<path class="st2" d="M349,214.9l-0.2,1.2l-5.1,4.8h4.2l-0.3,1.5l-6.5,0l0.2-1.2l5.1-4.8l-3.9,0l0.3-1.5L349,214.9z"/>
		<path class="st2" d="M355.5,215.2c0.5,0.3,1,0.7,1.3,1.2c0.3,0.5,0.4,1.1,0.4,1.8c0,0.8-0.2,1.5-0.6,2.2s-0.9,1.1-1.6,1.5
			s-1.4,0.5-2.2,0.5c-0.7,0-1.4-0.1-1.9-0.4c-0.5-0.3-1-0.7-1.3-1.2c-0.3-0.5-0.4-1.1-0.4-1.8c0-0.8,0.2-1.5,0.6-2.2
			c0.4-0.6,0.9-1.1,1.6-1.5c0.7-0.4,1.4-0.5,2.2-0.5C354.3,214.8,354.9,215,355.5,215.2z M352.2,216.7c-0.4,0.2-0.6,0.5-0.8,0.9
			c-0.2,0.4-0.3,0.8-0.3,1.3c0,0.6,0.2,1.1,0.5,1.5c0.3,0.4,0.8,0.6,1.4,0.6c0.4,0,0.8-0.1,1.2-0.3c0.4-0.2,0.6-0.5,0.8-0.9
			s0.3-0.8,0.3-1.3c0-0.6-0.2-1.1-0.5-1.5c-0.3-0.4-0.8-0.6-1.4-0.6C353,216.4,352.6,216.5,352.2,216.7z"/>
		<path class="st2" d="M364.4,215.2c0.5,0.3,1,0.7,1.3,1.2c0.3,0.5,0.4,1.1,0.4,1.8c0,0.8-0.2,1.5-0.6,2.2s-0.9,1.1-1.6,1.5
			s-1.4,0.5-2.2,0.5c-0.7,0-1.4-0.1-1.9-0.4c-0.5-0.3-1-0.7-1.3-1.2c-0.3-0.5-0.4-1.1-0.4-1.8c0-0.8,0.2-1.5,0.6-2.2
			c0.4-0.6,0.9-1.1,1.6-1.5c0.7-0.4,1.4-0.5,2.2-0.5C363.2,214.8,363.8,215,364.4,215.2z M361.1,216.7c-0.4,0.2-0.6,0.5-0.8,0.9
			c-0.2,0.4-0.3,0.8-0.3,1.3c0,0.6,0.2,1.1,0.5,1.5c0.3,0.4,0.8,0.6,1.4,0.6c0.4,0,0.8-0.1,1.2-0.3c0.4-0.2,0.6-0.5,0.8-0.9
			s0.3-0.8,0.3-1.3c0-0.6-0.2-1.1-0.5-1.5c-0.3-0.4-0.8-0.6-1.4-0.6C361.9,216.4,361.5,216.5,361.1,216.7z"/>
		<path class="st2" d="M379.9,215.4c0.5,0.4,0.7,1,0.7,1.8c0,0.2,0,0.5-0.1,0.8l-0.9,4.4h-1.8l0.8-4.1c0-0.2,0-0.3,0-0.4
			c0-0.4-0.1-0.8-0.4-1c-0.3-0.2-0.6-0.4-1.1-0.4c-0.5,0-1,0.2-1.4,0.5c-0.4,0.4-0.7,0.8-0.8,1.4l-0.8,4h-1.8l0.8-4.1
			c0-0.2,0-0.3,0-0.4c0-0.4-0.1-0.8-0.4-1c-0.3-0.2-0.6-0.4-1.1-0.4c-0.5,0-1,0.2-1.4,0.5c-0.4,0.4-0.7,0.8-0.8,1.4l-0.8,4h-1.8
			l1.5-7.5h1.8l-0.2,1.1c0.6-0.8,1.4-1.2,2.4-1.2c0.7,0,1.2,0.1,1.7,0.4c0.5,0.3,0.8,0.7,0.9,1.2c0.7-1.1,1.6-1.7,2.8-1.7
			C378.8,214.8,379.4,215,379.9,215.4z"/>
	</g>
</g>
</svg>
