<?xml version="1.0" encoding="utf-8"?>
<!-- Generator: Adobe Illustrator 23.0.6, SVG Export Plug-In . SVG Version: 6.00 Build 0)  -->
<svg version="1.1" id="Layer_1" xmlns="http://www.w3.org/2000/svg" xmlns:xlink="http://www.w3.org/1999/xlink" x="0px" y="0px"
	 viewBox="0 0 620 300" style="enable-background:new 0 0 620 300;" xml:space="preserve">
<style type="text/css">
	.st0{fill:#FFF9C4;}
	.st1{fill:#00695C;}
	.st2{fill:#01422D;}
	.st3{fill:none;stroke:#01422D;stroke-width:0.185;}
	.st4{fill:#241F20;}
</style>
<g id="oracle">
</g>
<g id="hp">
</g>
<g id="yahoo">
</g>
<g>
	<path class="st0" d="M524.8,147c0,28.1-42.1,50.9-94,50.9c-51.9,0-94-22.8-94-50.9s42.1-50.9,94-50.9
		C482.7,96.1,524.8,118.9,524.8,147L524.8,147z"/>
	<path class="st1" d="M430.8,103.9c-47.6,0-86.1,19.3-86.1,43.1s38.6,43.1,86.1,43.1s86.1-19.3,86.1-43.1S478.4,103.9,430.8,103.9z"
		/>
	<path class="st0" d="M392.2,137.5c-0.2,0.5-1.5,0.4-1.5,0.4h-5.9c0,0,5.5-15.2,5.9-16.3c0.8-2,1.2-1.9,1.2-1.9h-8.1
		c1,0.5,0.1,2.5,0.1,2.5s-6.5,18.9-7,19.9c-0.5,0.9-0.8,1.1-0.8,1.1h14.1L392.2,137.5z M485.7,127.4h-15.5l-1.9,5.5h10l-11.5,4
		l-0.8,2.2l17.6-5.9L485.7,127.4z M421.9,141.6c0.4-1.1,3.9-11.1,3.9-11.1l1.5,12.5h6l7.9-22.3c0,0,0.3-1,0.8-1l-6.4,0
		c0,0,0.2,0.8,0,1.4c-0.2,0.6-3.9,10.7-3.9,10.7l-1.4-12.1h-6.9c0,0,0.4,0.6,0.1,1.2c-0.2,0.5-7.3,20.8-7.3,20.8s-0.5,1.3-0.9,1.3
		h6.6C422,143,421.6,142.3,421.9,141.6z M387.8,150.9l-17.6,5.9l-1.9,5.9h15.5l1.9-5.5h-10l11.5-4L387.8,150.9z M459.9,165.2
		l1.4-3.8h5c0,0,1.1-0.1,1.3,0.2l2-6c0,0-0.1,0.5-1.5,0.5c-1.4,0-4.8,0-4.8,0l1.4-4.2h6.1c0,0,0.8-0.1,1.1,0.6l2-5.5h-14.7
		c0,0,0.5,0.5-0.2,2.5s-6.7,18.8-6.7,18.8s-1.1,2.2-1.4,2.2c-0.3,0,15.2,0,15.2,0l1.8-5.6c0,0-0.2,0.3-1.7,0.3
		C464.9,165.2,459.9,165.2,459.9,165.2z M457.9,147h-8.7c0,0,0.7,0.5,0.2,1.3c-0.5,0.9-8.3,13-8.3,13l0.1-12.2c0,0,0-2,0.7-2.1
		l-7.7,0c0,0,0.6,0.3,0.6,1.8c0,0.3,0,1,0,2.1c0,5.3,0,18.2,0,18.2s-0.1,1.1-0.5,1.3h6.1c0,0,0-0.5,0.6-1.3
		c0.6-0.8,13.2-18.5,13.2-18.5S457.1,147,457.9,147z M492.9,156.1c2.9-9.5-6.3-9.1-6.3-9.1h-9.3c0.7,0.8,0.2,2.5,0.2,2.5
		s-6.1,17.5-6.5,18.8c-0.5,1.3-1.3,2.2-1.3,2.2l7.7,0c-0.6,0-0.2-1.4-0.2-1.4l2.4-6.7c0,0,3.2,6.8,3.4,7.3c0.2,0.5,0.1,0.9,0.1,0.9
		h8.2c-0.8,0-1.6-1.5-1.6-1.5l-3.9-7.4C491.3,161.6,492.9,156.1,492.9,156.1z M486.4,155.1c-0.8,2.3-3.6,2.1-3.6,2.1h-1.4l1.5-4.7
		h2.1C484.9,152.5,487.4,152.4,486.4,155.1z M453.3,119.7h-7.5c0,0,0.6,0.9-0.2,3.1c-0.7,2.2-6.5,18.5-6.5,18.5s-0.5,1.5-1.1,1.8
		l9.1,0c0,0,11,0.4,14.4-11.6C461.5,131.5,465.8,119.6,453.3,119.7z M454.1,132.5c-1.9,4.9-4.8,5.2-6.3,5.2c-1,0-1,0-1,0l4.4-13h1.7
		C452.8,124.7,457.2,124.4,454.1,132.5z M414.6,143.1c0,0-0.5-0.3-0.6-1.2l-0.9-20.6c0,0,0-1.3,0.6-1.6h-7.2c0,0,0.5,0.6-0.5,2.1
		s-13.3,20.5-13.3,20.5s-0.2,0.5-0.9,0.8h7.3c0,0,0-0.6,0.2-1c0.3-0.7,1.2-2.3,1.2-2.3h7.3l0,2.1c0,0,0,0.7-0.5,1.3L414.6,143.1
		L414.6,143.1z M403.7,134.5l4-6.9l0.1,6.9H403.7z M409.1,155.9c2.7-9.1-6.4-8.9-6.4-8.9h-9.4c0.7,0.8,0.1,2.5,0.1,2.5
		s-5.8,17.4-6.3,18.8c-0.5,1.3-1.3,2.3-1.3,2.3s7.8,0,7.4,0c-0.2,0-0.2-0.8-0.2-0.8l2.7-7.4c0,0,3.3,6.8,3.5,7.3
		c0.2,0.5,0.1,0.9,0.1,0.9h7.9c-0.8,0-1.5-1.5-1.5-1.5l-3.9-7.4C407.4,161.6,409.1,155.9,409.1,155.9z M402.7,155.1
		c-1,2.3-3.8,2.1-3.8,2.1h-1.4l1.5-4.7c0,0,0.8,0,1.6,0C403.9,152.4,402.7,155.1,402.7,155.1z M423.8,147.1c-7.2,0-12,5.5-13.2,12.3
		c-1.1,6.2,2.4,11.2,8.3,11.2c8.2,0,13.1-8,13.1-13.7C432,150.9,429.5,147.1,423.8,147.1z M424.9,159.6c-1.2,4.7-3.4,6.1-5.5,5.8
		c-2.8-0.5-2.3-4.8-1.8-6.8c1-4.3,3.4-6.4,5.2-6.2C423.4,152.4,426.7,152.5,424.9,159.6z"/>
</g>
<g>
	<path class="st2" d="M207.7,190.5c-1.1,4.6-4.5,6.5-10.3,6.5c-3.9,0-7.4-0.8-9.1-2.6c-1.9-1.9-2.2-4.5-2.2-7.3v-13.6h4.4V187
		c0,3,0.2,4.8,1.4,6.2c1.3,1.6,3.7,2,5.6,2c4.1,0,6.9-1.3,7.6-5c0.2-0.8,0.3-1.9,0.3-3.5v-13.1h2.7v12.2
		C208.2,188.1,208,189.4,207.7,190.5"/>
	<path class="st3" d="M207.7,190.5c-1.1,4.6-4.5,6.5-10.3,6.5c-3.9,0-7.4-0.8-9.1-2.6c-1.9-1.9-2.2-4.5-2.2-7.3v-13.6h4.4V187
		c0,3,0.2,4.8,1.4,6.2c1.3,1.6,3.7,2,5.6,2c4.1,0,6.9-1.3,7.6-5c0.2-0.8,0.3-1.9,0.3-3.5v-13.1h2.7v12.2
		C208.2,188.1,208,189.4,207.7,190.5"/>
	<path class="st2" d="M230,177.9l-5.1,10.6h9.9L230,177.9 M238.4,196.5l-2.9-6.4h-11.4l-3.1,6.4h-2.8l11.4-22.9h2.7l11.2,22.9H238.4
		z"/>
	<path class="st3" d="M230,177.9l-5.1,10.6h9.9L230,177.9 M238.4,196.5l-2.9-6.4h-11.4l-3.1,6.4h-2.8l11.4-22.9h2.7l11.2,22.9H238.4
		z"/>
	<path class="st2" d="M125.5,177.9l-5.1,10.6h9.9L125.5,177.9 M134,196.5l-2.9-6.4h-11.4l-3.1,6.4h-2.8l11.4-22.9h2.7l11.2,22.9H134
		z"/>
	<path class="st3" d="M125.5,177.9l-5.1,10.6h9.9L125.5,177.9 M134,196.5l-2.9-6.4h-11.4l-3.1,6.4h-2.8l11.4-22.9h2.7l11.2,22.9H134
		z"/>
	<path class="st2" d="M163.1,197c-7.6,0-14.8-2.6-14.8-11.4c0-2.9,1.3-5.8,3.2-7.9c3-3.3,7.6-4.6,11.9-4.6c2.6,0,5.6,0.6,8,1.8v2.7
		c-2.1-1.6-4.9-2.7-7.7-2.7c-6.2,0-10.5,3.9-10.5,10.3c0,5.8,3.8,9.8,9.6,9.8c1.5,0,3.5-0.3,5-0.8V186h4.4v9.4
		C169.5,196.5,165.9,197,163.1,197"/>
	<path class="st3" d="M163.1,197c-7.6,0-14.8-2.6-14.8-11.4c0-2.9,1.3-5.8,3.2-7.9c3-3.3,7.6-4.6,11.9-4.6c2.6,0,5.6,0.6,8,1.8v2.7
		c-2.1-1.6-4.9-2.7-7.7-2.7c-6.2,0-10.5,3.9-10.5,10.3c0,5.8,3.8,9.8,9.6,9.8c1.5,0,3.5-0.3,5-0.8V186h4.4v9.4
		C169.5,196.5,165.9,197,163.1,197"/>
	<path class="st2" d="M262.4,175.2h-3.2v11h2.8c2.4,0,3.8-0.4,4.9-1.3c1.2-0.9,1.9-2.4,1.9-4.3C268.7,176.6,265.9,175.2,262.4,175.2
		 M269.8,196.5l-6.1-8.8h-4.6v8.8h-4.4v-22.9h8.3c3.4,0,6.7,0.5,8.6,2.6c1,1.1,1.5,2.6,1.5,4.5c0,3.5-2.7,5.7-5.1,6.5l6.7,9.3
		L269.8,196.5L269.8,196.5z"/>
	<path class="st3" d="M262.4,175.2h-3.2v11h2.8c2.4,0,3.8-0.4,4.9-1.3c1.2-0.9,1.9-2.4,1.9-4.3C268.7,176.6,265.9,175.2,262.4,175.2
		 M269.8,196.5l-6.1-8.8h-4.6v8.8h-4.4v-22.9h8.3c3.4,0,6.7,0.5,8.6,2.6c1,1.1,1.5,2.6,1.5,4.5c0,3.5-2.7,5.7-5.1,6.5l6.7,9.3
		L269.8,196.5L269.8,196.5z"/>
	<path class="st2" d="M95.3,201.2c-1.2,0.5-2.4,0.9-3.7,0.9c3-2.2,4.3-4.4,4.7-8c0.3-2,0.3-4.1,0.3-6.1v-14.4h4.4v17.4
		C100.9,195.2,99.3,199.3,95.3,201.2"/>
	<path class="st3" d="M95.3,201.2c-1.2,0.5-2.4,0.9-3.7,0.9c3-2.2,4.3-4.4,4.7-8c0.3-2,0.3-4.1,0.3-6.1v-14.4h4.4v17.4
		C100.9,195.2,99.3,199.3,95.3,201.2"/>
	<path class="st4" d="M122.9,112.3c1.6,0,2.9-0.5,2.9-0.6c0-0.1-1.7-0.3-1.7-0.3c-1.6,0.1-2.3,0.7-2.3,0.7
		C121.8,112.3,122.2,112.3,122.9,112.3"/>
	<path class="st4" d="M112.2,115.1c0,0,0.1-0.3,0.1-0.4c0-0.1,0.3-0.8,1.4-0.9c0,0,0.6,0,1.2,0.1c0,0-0.4,1-1.9,1.1
		C113,115,112.4,115.1,112.2,115.1 M260.2,158c-0.4,0.9-2,2.1-3.9,2.7c-2,0.7-6.2,0.7-8.3,0c0,0-0.4-0.5-1.9-0.9
		c-3.5-1-4.6-1.7-6.4-3.4c-1.3-1.2-2.6-2.6-4-4c-0.6-0.6-2-2.1-4.6-2.5c-2.7-0.5-9.2-1-11.6-1.8c-1.6-0.6-3.5-1.7-5.9-5.2
		c-1.1-1.7-2-2.2-3.7-3.3c0,0,1.3,1,1.9,2.2c1,1.8,1.4,3,1.9,4c0.5,0.9,1.1,1.8,2.1,2.6c1.2,1,1.9,1.2,3.3,1.4
		c1.3,0.3,5.6,0.5,9.4,0.6c3.7,0.1,5.3,1.3,6.4,2.2c1.1,0.9,2.7,3.4,3.9,4.5c1.6,1.4,1.6,1.4,3.5,2.6c0.9,0.6,1.7,1,2.5,1.2
		c1.7,1,1,2.7,1,2.7c-0.5,1.4-2.2,1.9-4.3,1.6c-3.1-0.3-5.7-2.8-8-4.7c-1.2-1-1.7-1.5-4-3.2c-3.6-2.5-12.1-2.3-12.1-2.3l-6.2,0
		c-12.1,0.2-16.5-9.6-17.7-11.6c-0.4-0.7-0.8-1.3-1.2-1.8c-0.6-0.8-3.6-4.7-6.9-6.1c0,0,3.1,2.7,2.8,4.2c-0.7,0-1.4,0-2.3,0.1
		c-12.2,0.4-14.7-0.3-16.6-0.7c-1.9-0.4-5.2-1.3-8.3-2.8c0,0,0.4-3-0.9-5.5c0,0,10.1,3.6,18.1,2.5c0,0-12.9-0.6-21-7.1
		c0,0,2,6.8,0.4,9.6c0,0-2.1,5.2-13,1.7c0,0-5-1.9-8.9-1.9c0,0-2.9,0.1-3.3,1.6c0,0-0.2,0.7,0.6,1.1c0,0,0.8,0.2,0.4,0.9
		c-0.7,1-1.6,1.8-2.5,2.3c-3-0.1-2.8-2.6-2.8-2.6c0.1-0.9,0.3-1.5,0.6-2.1c1.9-4.3,8.6-4.9,8.6-4.9c7.1-0.7,14.6,1,14.6,1
		c-5.3-1.3-7.2-2.2-8.7-3.5c-2.1-1.7-4-7.5-4-7.5c-0.8,2.8,0.2,5.7,0.9,7.1c-1-1.6-2.5-3-3.7-4c-3.3-2.6-8.1-3.5-8.1-3.5
		c-1.4-0.2-1.9-1.7-1.9-1.7c-1.8-3.3-3.8-3.4-3.8-3.4c1,1.4,0.9,3.2,0.9,3.2c0,3.4-4.4,4.5-4.4,4.5c-3.3,3.3-3.8,3.2-4.5,3.2
		c-0.6,0-1.1-0.6-1.1-0.6c-0.2-0.3,0.1-0.6,0.1-0.6c0.6-0.3,1.1-0.8,1.1-0.8c3.2-2.6,3.6-3.9,3.4-5.7c-0.5-3.6-3.4-3.3-3.4-3.3
		c-1.4,0-2,1-2,1c-0.5,0.6-1.7,2.6-1.7,2.6c-1,1.7-1.9,1.4-1.9,1.4c-1.1,0.1-1.9-0.9-1.9-0.9c0,0-0.1-0.1-0.1-0.1
		c-0.8-0.9-0.1-2-0.1-2c1.4-2.4,3.7-2.6,4-2.6c0.3,0,1.4-0.1,1.4-0.1c2.6-0.2,4.4-2.7,4.4-2.7c-1.1-0.5-3.1-0.3-3.1-0.3
		c-1.9,0.1-2.4,2.2-2.4,2.2c-1.7,0.2-1.6-1-1.2-1.4c0.3-0.3,1.3-1.9,7.7-2.9c0,0,3.4-0.7,9.5,0c0.2,0,0.4,0.2,0.2,0.6
		c-0.8,0.9-3.1,2.9-7,1.9c0,0-0.1,1.5,4.1,2.3c0,0,3.8,0.8,9.9,5.7c0,0-3-5.5-8.1-7.2c0,0-0.4-0.2,0-0.6c0,0,2.4-2.2,6.7-1.9
		c0,0,14.2,0.7,22.2,9c0,0-0.3-1.4-1.5-3.4c0,0-0.2-0.2-0.1-0.4c0,0,0.1-0.3,1.5-0.1c0,0,5.1,0.8,16.8,5.1c0,0,8.8,3.1,13.6,5.1
		c7.2,3,25.3,10.3,36.7,16.7c2,1.1,10.5,5.3,10.5,5.3c6.4,3.9,12.2,6.8,12.2,6.8c5.8,2.7,9.9,1.4,9.9,1.4c1.3-0.5,3.9-1.9,4.9-0.9
		C260.5,156.7,260.5,157.4,260.2,158L260.2,158z M261.7,155.8c-0.8-1.8-3.2-1.3-3.2-1.3c-1.1,0.1-2.5,1.2-4.4,1.6
		c-4.2,0.9-7.4-0.6-7.4-0.6c-6.2-2.8-10.3-5.8-13-7.3c-2.7-1.6-12.7-6.8-22.8-11.9c0,0-11.5-5.9-28.5-12.9c0,0-32.8-14.9-56.4-14.9
		c0,0-12.2-0.2-16.4,4.6c0,0-0.7,0.6-0.4,1.4c0,0,0,0.2-0.1,0.3c0,0-1.8,1.2-3.3,2.9c0,0-0.8,0.8-0.2,2c0,0,0.8,1.4,1.3,2
		c0.5,0.6,1.5,1.6,3,1.5c0.7-0.1,0.7-0.2,0.7-0.2c0.7,0.7,1.9,0.8,1.9,0.8c-0.1-0.4-0.6-1.3-0.6-1.8c0-0.6,0.2-1.1,0.2-1.1
		c0.3-0.6,0.7-1.4,1.2-1.8c0.4-0.3,1.5-0.7,2.3-0.1c0.6,0.5,1.3,1.9,0.6,3.8c0,0-0.9,1.5-1.7,1.7l-0.2,0c-0.5,0-1.5-0.6-1.5-0.6
		s0,0.1,0.1,0.6c0.1,0.3,0.2,0.6,0.2,0.9l-0.2,0.2c0,0-0.7,0.5-0.4,1.3c0,0,0.6,2.4,2.4,2.4c1.6,0.1,2.9-1.4,2.9-1.4
		c3.4-3.6,8.1-4.1,8.1-4.1c5.2-0.4,12.7,5,14.8,6.6c-7.8-0.1-10.9,2.9-10.9,2.9c-4.4,3.4-2.7,7.5-2.7,7.5c0.3,0.9,1.2,1.5,1.8,1.8
		c0.8,0.4,1.5,0.4,2.1,0.3c0.5,0,1-0.2,1.2-0.4c0.6-0.4,1.7-1,2.2-1.8c0.3-0.4,0.7-1.3,0.5-2.1c0,0-0.1-0.7,0.5-0.8
		c0,0,2.1-0.5,6.2,1.3c0,0,4.5,2.6,10.4,3.1c0,0,6.6,0.7,8.3-2.9c0,0,3.8,1.6,9.4,2.2c0,0,5.4,0.6,14.3-0.1c1.7-0.1,3.8,0,3.8,0
		c2.8,0.3,4.6,1.8,5.3,3c2.9,4.7,6.3,13.9,20.5,13.6l6.4-0.2c3.9,0,7.1,0,10.2,1.7c1.4,0.7,4.9,4.3,7.2,5.5
		c6.5,4.4,10.3,2.4,10.3,2.4c2.2-1.3,2.1-3.6,1.5-4.9c-0.7-0.2,8.1,1.3,11.9-3.6C261.8,157.4,261.9,156.4,261.7,155.8L261.7,155.8z"
		/>
</g>
</svg>
