<?xml version="1.0" encoding="utf-8"?>
<!-- Generator: Adobe Illustrator 23.0.6, SVG Export Plug-In . SVG Version: 6.00 Build 0)  -->
<svg version="1.1" xmlns="http://www.w3.org/2000/svg" xmlns:xlink="http://www.w3.org/1999/xlink" x="0px" y="0px"
	 viewBox="0 0 620 300" style="enable-background:new 0 0 620 300;" xml:space="preserve">
<style type="text/css">
	.st0{display:none;}
	.st1{display:inline;fill-rule:evenodd;clip-rule:evenodd;fill:#B2A6A6;}
	.st2{display:inline;fill-rule:evenodd;clip-rule:evenodd;fill:#151616;}
	.st3{display:inline;fill-rule:evenodd;clip-rule:evenodd;fill:#FFFFFF;}
	.st4{display:inline;fill:none;stroke:#FFFFFF;stroke-width:0.216;}
	.st5{display:inline;fill:none;stroke:#B2A6A6;stroke-width:0.216;}
	.st6{display:inline;fill-rule:evenodd;clip-rule:evenodd;fill:#686261;}
	.st7{display:inline;fill:none;stroke:#686261;stroke-width:0.216;}
	.st8{display:inline;fill-rule:evenodd;clip-rule:evenodd;fill:#D7490F;}
	.st9{display:inline;fill:none;stroke:#D7490F;stroke-width:0.216;}
	.st10{display:inline;fill-rule:evenodd;clip-rule:evenodd;fill:#D02C0F;}
	.st11{display:inline;fill:none;stroke:#D02C0F;stroke-width:0.216;}
	.st12{display:inline;fill-rule:evenodd;clip-rule:evenodd;fill:#C71F10;}
	.st13{display:inline;fill:none;stroke:#C71F10;stroke-width:0.216;}
	.st14{fill:#86DD72;}
	.st15{opacity:0.2;fill:#78CE63;}
	.st16{opacity:0.2;fill:#64CC77;}
	.st17{fill:#139B00;}
	.st18{fill:none;stroke:#FEFEFE;stroke-width:4;stroke-miterlimit:10;}
	.st19{fill:#FEFEFE;}
</style>
<g id="Layer_1">
	<g id="Layer_3" class="st0">
		<polygon class="st1" points="381.1,172.2 381.1,183.5 395.4,183.5 395.4,175 409.4,175 409.4,167.4 417.7,167.4 417.7,159.4 
			424.6,159.4 424.6,150.5 437.1,150.5 437.1,148.7 443.7,148.7 443.7,143.5 445.2,143.5 445.2,130.3 436.8,130.3 436.8,128.4 
			409.5,128.4 409.5,166.4 388.7,166.4 388.7,172.2 		"/>
		<polygon class="st2" points="382,36 382,35.2 390.2,35.2 390.2,37.8 397.6,37.8 397.6,24.1 406.8,24.1 406.8,16.1 417.5,16.1 
			417.5,19.4 431.5,19.4 431.5,12.4 443.6,12.4 443.6,35.8 438.5,35.8 438.5,52.1 432.4,52.1 432.4,61.3 423.5,61.3 423.5,91.4 
			417.1,91.4 417.1,102.6 430.1,102.6 430.1,94.4 439.3,94.4 439.3,119.6 448,119.6 448,136 420.4,136 420.4,152.9 399.5,152.9 
			399.5,157.6 332.5,157.6 332.5,148.5 320.5,148.5 320.5,143.2 308,143.2 308,134.2 294.7,134.2 294.7,126.6 281.3,126.6 
			281.3,120.2 295.7,120.2 295.7,126.6 303.1,126.6 303.1,119.7 325.9,119.7 325.9,110.9 349.9,110.9 349.9,103.9 368.8,103.9 
			368.8,43.4 370.7,43.4 370.7,36 		"/>
		<polygon class="st3" points="344.6,49.7 344.6,42.4 355.9,42.4 355.9,49.1 364.1,49.1 364.1,47.4 372.7,47.4 372.7,38.9 
			378.9,38.9 378.9,43.7 388.4,43.7 388.4,38.8 394,38.8 394,34 405,34 405,41.3 399.6,41.3 399.6,58.3 390.6,58.3 390.6,88 
			383.4,88 383.4,116 376.8,116 376.8,134 387.9,134 387.9,142 394.2,142 394.2,159.3 373.4,159.3 373.4,164 365.8,164 365.8,175.2 
			355.6,175.2 355.6,164.1 348.1,164.1 348.1,155.9 339.9,155.9 339.9,164 330.9,164 330.9,155 337.3,155 337.3,110.3 340.2,110.3 
			340.2,101.6 335.5,101.6 335.5,84.6 342.7,84.6 342.7,67.5 350.6,67.5 350.6,49.7 		"/>
		<polygon class="st4" points="344.6,49.7 344.6,42.4 355.9,42.4 355.9,49.1 364.1,49.1 364.1,47.4 372.7,47.4 372.7,38.9 
			378.9,38.9 378.9,43.7 388.4,43.7 388.4,38.8 394,38.8 394,34 405,34 405,41.3 399.6,41.3 399.6,58.3 390.6,58.3 390.6,88 
			383.4,88 383.4,116 376.8,116 376.8,134 387.9,134 387.9,142 394.2,142 394.2,159.3 373.4,159.3 373.4,164 365.8,164 365.8,175.2 
			355.6,175.2 355.6,164.1 348.1,164.1 348.1,155.9 339.9,155.9 339.9,164 330.9,164 330.9,155 337.3,155 337.3,110.3 340.2,110.3 
			340.2,101.6 335.5,101.6 335.5,84.6 342.7,84.6 342.7,67.5 350.6,67.5 350.6,49.7 		"/>
		<polygon class="st1" points="362.7,66.7 383.6,66.7 383.6,82.1 371.8,81.6 371.7,74.4 362.5,73.1 		"/>
		<polygon class="st5" points="362.7,66.7 383.6,66.7 383.6,82.1 371.8,81.6 371.7,74.4 362.5,73.1 		"/>
		<polygon class="st1" points="360.7,119.6 360.7,125.7 372.8,125.7 372.6,119.8 		"/>
		<polygon class="st5" points="360.7,119.6 360.7,125.7 372.8,125.7 372.6,119.8 		"/>
		<polygon class="st3" points="285.6,149.6 285.6,157.6 288.4,157.6 288.4,167.2 291.2,167.2 291.2,174.4 297.3,174.4 297.3,179.8 
			306.5,179.8 306.5,174.4 309.2,174.4 309.2,164 306.3,164 306.3,154.9 294.3,154.9 294.3,149.6 		"/>
		<polygon class="st4" points="285.6,149.6 285.6,157.6 288.4,157.6 288.4,167.2 291.2,167.2 291.2,174.4 297.3,174.4 297.3,179.8 
			306.5,179.8 306.5,174.4 309.2,174.4 309.2,164 306.3,164 306.3,154.9 294.3,154.9 294.3,149.6 		"/>
		<polygon class="st1" points="296.5,158.1 296.5,168.1 304.7,168.1 304.7,157.9 		"/>
		<polygon class="st5" points="296.5,158.1 296.5,168.1 304.7,168.1 304.7,157.9 		"/>
		<polygon class="st6" points="309.2,164 309.1,175.4 322.2,175.4 322.2,164 		"/>
		<polygon class="st7" points="309.2,164 309.1,175.4 322.2,175.4 322.2,164 		"/>
		<polygon class="st1" points="355.6,175.2 355.6,164.1 348.1,164.1 348.1,155.9 339.9,155.9 339.9,164 322.2,164 322.2,175.4 		"/>
		<polygon class="st5" points="355.6,175.2 355.6,164.1 348.1,164.1 348.1,155.9 339.9,155.9 339.9,164 322.2,164 322.2,175.4 		"/>
		<polygon class="st6" points="325.3,184.2 325.3,175.4 365.8,175.4 365.8,184.1 		"/>
		<polygon class="st7" points="325.3,184.2 325.3,175.4 365.8,175.4 365.8,184.1 		"/>
		<polygon class="st8" points="304.8,184.8 304.8,191.7 302.6,191.7 302.6,200.8 305.5,200.8 305.5,207.2 312,207.2 312,213 
			320.5,213 320.5,207.6 325.8,207.6 325.8,201 336.4,201 336.4,192.4 344,192.4 344,184.1 304.8,184.1 		"/>
		<polygon class="st9" points="304.8,184.8 304.8,191.7 302.6,191.7 302.6,200.8 305.5,200.8 305.5,207.2 312,207.2 312,213 
			320.5,213 320.5,207.6 325.8,207.6 325.8,201 336.4,201 336.4,192.4 344,192.4 344,184.1 304.8,184.1 		"/>
		<polygon class="st3" points="413.2,100.8 413.2,120.3 421.5,120.3 421.5,100.9 		"/>
		<polygon class="st4" points="413.2,100.8 413.2,120.3 421.5,120.3 421.5,100.9 		"/>
		<polygon class="st10" points="312.5,184.1 312.5,196.7 325.8,196.7 325.8,184.1 		"/>
		<polygon class="st11" points="312.5,184.1 312.5,196.7 325.8,196.7 325.8,184.1 		"/>
		<polygon class="st12" points="325.8,201 336.4,201 336.4,192.4 344,192.4 344,184.1 325.8,184.1 		"/>
		<polygon class="st13" points="325.8,201 336.4,201 336.4,192.4 344,192.4 344,184.1 325.8,184.1 		"/>
	</g>
	<g id="Layer_5">
	</g>
	<rect x="0" class="st14" width="620" height="300"/>
</g>
<g id="Layer_2">
	<path class="st15" d="M345.6,0c5.1,18.5,17.4,50.6,47.6,71.2c30.4,20.7,81.3,31.6,119.5,14.7c11.1-4.9,24.2-13.6,41-10.3
		c9.7,1.9,21.8,7.9,30.8,17.6c9.1,9.7,10.8,18.5,22.7,25.7c5,3,9.6,4.4,12.8,5.1V0H345.6z"/>
	<path class="st16" d="M0,196.6c45.1,4.5,75.1,19.5,95.6,35.9c18,14.3,18.9,21.9,35.2,30.8c26,14.1,47.5,7.8,107,1.5
		c71.7-7.7,105.2-5.4,117.3-4.4c23.8,2,53.6,6.4,82.1,26.4c7.1,5,12.5,9.8,16.1,13.3H0V196.6z"/>
</g>
<g id="Layer_3_1_">
</g>
<g id="Layer_4">
	<path class="st17" d="M67.1,144.8c0-2.1-1.7-3.8-3.9-3.9c-1.4,0-2.6,0.7-3.3,1.7c-0.7-1-1.9-1.7-3.2-1.8c-2.1,0-3.9,1.7-3.9,3.8
		c0,1.1,0.5,2.1,1.3,2.8l0,0l5.8,6l5.9-6l0,0C66.6,146.9,67.1,145.9,67.1,144.8z"/>
	<path class="st17" d="M50.3,147.2c-2.1,0-3.8,1.7-3.8,3.9c0,1.4,0.7,2.5,1.7,3.2c-1,0.7-1.7,1.9-1.7,3.2c0,2.1,1.7,3.9,3.8,3.9
		c1.1,0,2.1-0.5,2.8-1.3v0l6-5.9l-6-5.9v0C52.5,147.7,51.5,147.2,50.3,147.2z"/>
	<path class="st17" d="M52.9,164c0,2.1,1.7,3.8,3.9,3.8c1.4,0,2.5-0.7,3.2-1.7c0.7,1,1.9,1.7,3.2,1.7c2.1,0,3.9-1.7,3.9-3.8
		c0-1.1-0.5-2.1-1.3-2.8h0l-5.9-6l-5.9,6h0C53.3,161.9,52.9,162.9,52.9,164z"/>
	<path class="st17" d="M69.6,161.5c2.1,0,3.8-1.7,3.8-3.9c0-1.4-0.7-2.5-1.7-3.2c1-0.7,1.7-1.9,1.7-3.2c0-2.1-1.7-3.9-3.8-3.9
		c-1.1,0-2.1,0.5-2.8,1.3v0l-6,5.9l6,5.9v0C67.5,161,68.5,161.5,69.6,161.5z"/>
	<g>
		<path class="st18" d="M304.4,147.6"/>
		<path class="st18" d="M282.4,147.6"/>
		<path class="st18" d="M304.4,155.5"/>
		<path class="st18" d="M282.4,155.5"/>
	</g>
	<g>
		<path class="st19" d="M89.1,143.9h-4.3v-3.4h23.1v3.4H94.3c-0.8,0.4-1.5,1.1-2.1,1.9c-0.6,0.8-1,1.7-1.3,2.6
			c-0.3,0.9-0.6,1.9-0.7,2.9c-0.1,1-0.2,1.9-0.2,2.8c0,0.7,0.1,1.5,0.2,2.3c0.1,0.8,0.3,1.6,0.5,2.4c0.2,0.8,0.5,1.6,0.9,2.3
			c0.4,0.7,0.8,1.4,1.3,2c0.5,0.6,1.1,1,1.8,1.4c0.7,0.3,1.5,0.5,2.4,0.5c1.8,0,3.4-0.5,4.7-1.4c1.4-0.9,2.4-2.2,3-3.9l2.9,1.1
			c-1.2,1.9-2.7,3.5-4.5,4.7c-1.8,1.2-3.8,1.7-6.2,1.7c-1.9,0-3.6-0.3-5.1-1c-1.5-0.7-2.8-1.6-3.9-2.8c-1.1-1.2-1.9-2.6-2.4-4.2
			c-0.6-1.6-0.8-3.3-0.8-5.1c0-0.9,0.1-1.9,0.3-2.8c0.2-0.9,0.5-1.9,0.8-2.8s0.8-1.8,1.4-2.6C87.7,145.2,88.4,144.5,89.1,143.9z"/>
		<path class="st19" d="M116.2,153.5c0,0.7,0,1.5,0.1,2.3c0.1,0.8,0.2,1.7,0.5,2.5c0.2,0.8,0.5,1.7,0.8,2.5c0.3,0.8,0.8,1.5,1.3,2.1
			s1.1,1.1,1.8,1.5c0.7,0.4,1.5,0.6,2.4,0.6c0.9,0,1.7-0.1,2.5-0.4c0.8-0.3,1.6-0.6,2.3-1.1c0.7-0.5,1.3-1.1,1.8-1.8
			c0.5-0.7,0.9-1.5,1.1-2.3l2.9,1.1c-0.5,1-1.2,1.9-1.9,2.8s-1.6,1.5-2.5,2.1s-1.9,1-3,1.4c-1.1,0.3-2.2,0.5-3.3,0.5
			c-1.9,0-3.7-0.4-5.2-1.1c-1.5-0.7-2.8-1.7-3.8-3c-1-1.2-1.8-2.7-2.4-4.4c-0.5-1.7-0.8-3.4-0.8-5.2c0-1.8,0.3-3.5,0.8-5.2
			c0.6-1.7,1.4-3.1,2.4-4.4c1-1.3,2.3-2.3,3.8-3c1.5-0.8,3.2-1.1,5.1-1.1c1.4,0,2.7,0.2,3.9,0.6c1.2,0.4,2.2,1,3.2,1.7
			c0.9,0.7,1.8,1.6,2.5,2.6c0.7,1,1.3,2.2,1.8,3.4c0.4,1.2,0.7,2.3,0.7,3.5h1.1v1.9H116.2z M116.2,151.6h13.8c0-1-0.1-2-0.4-3.1
			c-0.3-1.1-0.7-2.2-1.3-3.2s-1.3-1.8-2.2-2.4s-1.9-1-3-1c-0.8,0-1.5,0.2-2.2,0.5c-0.6,0.3-1.2,0.7-1.7,1.2
			c-0.5,0.5-0.9,1.1-1.3,1.7c-0.4,0.7-0.7,1.3-0.9,2.1c-0.2,0.7-0.4,1.5-0.6,2.2C116.4,150.3,116.3,151,116.2,151.6z"/>
		<path class="st19" d="M166.8,166.5h-2.9c-0.7-0.6-1.4-1.3-2.1-2.1c-0.7-0.7-1.3-1.5-1.9-2.2c-0.6,0.6-1.2,1.2-1.8,1.8
			c-0.6,0.6-1.3,1.1-1.9,1.6c-0.7,0.5-1.4,0.8-2.2,1.1c-0.8,0.3-1.6,0.4-2.6,0.4c-0.9,0-1.8-0.1-2.6-0.4c-0.9-0.2-1.7-0.6-2.5-1
			s-1.6-0.9-2.3-1.4c-0.7-0.5-1.4-1.1-2-1.7c-0.1,0.1-0.1,0.3-0.2,0.5c-0.1,0.2-0.1,0.3-0.2,0.5l-0.9,1.9c-0.1,0.3-0.3,0.7-0.4,1
			h-2.3c0.6-1.5,1.2-3,1.9-4.4c0.7-1.4,1.4-2.9,2.1-4.3c1.5-3.1,3-6.1,4.6-9.1c1.5-3,3.1-6,4.9-8.9h1.5c0.4,1.2,0.9,2.6,1.5,4.1
			c0.6,1.5,1.3,3.1,2.1,4.8c0.8,1.7,1.6,3.3,2.5,5c0.9,1.7,1.8,3.3,2.7,4.9c0.9,1.6,1.8,3.1,2.7,4.4
			C165.2,164.3,166.1,165.5,166.8,166.5z M158.7,160.7c-0.5-0.6-0.9-1.2-1.4-1.8c-0.5-0.6-0.9-1.2-1.3-1.8c-1-1.5-2-3.1-2.9-4.7
			c-0.9-1.6-1.9-3.2-2.8-4.7c-1.2,1.7-2.2,3.5-3.2,5.3c-1,1.8-2,3.7-3,5.5c0.3,0.6,0.8,1.2,1.3,2c0.5,0.7,1.1,1.5,1.7,2.1
			s1.3,1.2,2,1.7c0.7,0.5,1.5,0.7,2.2,0.7c0.9,0,1.6-0.1,2.3-0.3c0.7-0.2,1.3-0.5,1.8-0.9c0.6-0.4,1.1-0.8,1.6-1.4
			C157.7,161.9,158.2,161.3,158.7,160.7z"/>
		<path class="st19" d="M169.1,145.7c-0.4,0-0.8,0-1.3,0.1c-0.4,0.1-0.8,0.1-1.3,0.2l-0.4-0.8c0.5-0.1,0.9-0.3,1.4-0.5
			c0.4-0.2,0.8-0.4,1.2-0.7c0.3-0.3,0.6-0.6,0.8-1c0.2-0.4,0.4-0.9,0.4-1.4c0-0.2,0-0.5,0-0.7c0-0.3,0-0.5,0.1-0.7
			c0.1-0.2,0.2-0.3,0.4-0.3c0.1,0,0.3-0.1,0.5-0.1c0.6,0,1.2,0.1,1.7,0.4c0.6,0.3,1.1,0.6,1.5,1.1c0.4,0.4,0.8,0.9,1.1,1.5
			c0.3,0.6,0.4,1.1,0.4,1.7c1.2-0.7,2.4-1.4,3.7-2.2s2.4-1.6,3.5-2.5c1,0,2.2,0.1,3.4,0.4c1.2,0.3,2.4,0.7,3.4,1.2
			c1.1,0.6,2,1.3,2.7,2.2c0.7,0.9,1.1,2,1.1,3.2v19.7h-4.8v-18.8c0-0.9-0.2-1.6-0.6-2.2c-0.4-0.6-0.9-1.1-1.5-1.5
			c-0.6-0.4-1.3-0.6-2.1-0.8c-0.8-0.2-1.5-0.2-2.3-0.2c-1,0.7-2.1,1.3-3.2,2c-1.1,0.6-2.2,1.2-3.3,1.8v19.8h-4.7v-19.2
			c0-0.6-0.2-1-0.5-1.2C170.1,145.8,169.6,145.7,169.1,145.7z"/>
		<path class="st19" d="M196.8,173.9l-0.1-0.9c1-0.2,1.8-0.4,2.4-0.6c0.6-0.2,1-0.5,1.3-0.9s0.5-0.9,0.6-1.6
			c0.1-0.7,0.1-1.5,0.1-2.6l0.7-0.1c0.4,0.7,0.7,1.4,1,2.1c0.3,0.7,0.6,1.4,1,2.1c0.2,0.3,0.4,0.7,0.6,0.9c0.2,0.3,0.5,0.6,0.8,0.8
			c0.7,0.7,1.4,1.3,2.2,1.8c0.8,0.5,1.7,0.7,2.7,0.7c0.9,0,1.8-0.1,2.9-0.4c1-0.3,2-0.7,2.9-1.2s1.7-1.2,2.2-2
			c0.6-0.8,0.9-1.7,0.9-2.7c0-0.9-0.2-1.8-0.7-2.6c-0.5-0.8-1.1-1.6-1.9-2.3c-0.8-0.7-1.7-1.5-2.7-2.2c-1-0.7-2.1-1.4-3.1-2.1
			c-1.1-0.7-2.1-1.4-3.1-2.1s-1.9-1.4-2.7-2.2c-0.8-0.8-1.4-1.6-1.9-2.4c-0.5-0.8-0.7-1.7-0.7-2.7c0-1.1,0.3-2,0.8-2.8
			c0.5-0.8,1.2-1.4,2-2s1.7-1,2.7-1.3c1-0.3,1.9-0.6,2.8-0.9h-11.3v-3.4h23.5v3.4c-1.2,0-2.4,0-3.4,0c-1,0-2,0-2.9,0.1
			c-0.9,0.1-1.9,0.3-2.8,0.5c-1,0.2-2,0.6-3.1,1.1c-0.4,0.2-0.8,0.4-1.2,0.6c-0.5,0.3-0.9,0.6-1.3,0.9c-0.4,0.3-0.7,0.7-1,1.1
			s-0.4,0.8-0.4,1.3c0,0.8,0.2,1.5,0.7,2.2c0.5,0.7,1.1,1.4,1.8,2s1.6,1.3,2.6,1.9c1,0.6,2,1.2,3,1.9c1,0.6,2,1.3,3,1.9
			c1,0.7,1.8,1.3,2.6,2.1c0.8,0.7,1.4,1.5,1.8,2.3c0.5,0.8,0.7,1.7,0.7,2.6c0,1.8-0.3,3.4-1,4.8c-0.7,1.4-1.5,2.6-2.6,3.6
			c-1.1,1-2.4,1.7-3.9,2.3s-3.1,0.8-4.8,0.8c-0.6,0-1.2-0.1-1.8-0.2c-0.6-0.1-1.2-0.3-1.8-0.5c-0.6-0.2-1.2-0.5-1.7-0.7
			c-0.5-0.3-1.1-0.6-1.5-0.9c-0.3-0.2-0.6-0.4-0.9-0.6c-0.3-0.2-0.6-0.3-1-0.4c-0.8-0.2-1.5-0.3-2.3-0.3
			C198.3,174.2,197.5,174.1,196.8,173.9z"/>
		<path class="st19" d="M252.5,166.5h-2.9c-0.7-0.6-1.4-1.3-2.1-2.1c-0.7-0.7-1.3-1.5-1.9-2.2c-0.6,0.6-1.2,1.2-1.8,1.8
			c-0.6,0.6-1.3,1.1-1.9,1.6c-0.7,0.5-1.4,0.8-2.2,1.1c-0.8,0.3-1.6,0.4-2.6,0.4c-0.9,0-1.8-0.1-2.6-0.4c-0.9-0.2-1.7-0.6-2.5-1
			s-1.6-0.9-2.3-1.4c-0.7-0.5-1.4-1.1-2-1.7c-0.1,0.1-0.1,0.3-0.2,0.5c-0.1,0.2-0.1,0.3-0.2,0.5l-0.9,1.9c-0.1,0.3-0.3,0.7-0.4,1
			h-2.3c0.6-1.5,1.2-3,1.9-4.4c0.7-1.4,1.4-2.9,2.1-4.3c1.5-3.1,3-6.1,4.6-9.1c1.5-3,3.1-6,4.9-8.9h1.5c0.4,1.2,0.9,2.6,1.5,4.1
			c0.6,1.5,1.3,3.1,2.1,4.8c0.8,1.7,1.6,3.3,2.5,5c0.9,1.7,1.8,3.3,2.7,4.9c0.9,1.6,1.8,3.1,2.7,4.4
			C250.9,164.3,251.7,165.5,252.5,166.5z M244.4,160.7c-0.5-0.6-0.9-1.2-1.4-1.8c-0.5-0.6-0.9-1.2-1.3-1.8c-1-1.5-2-3.1-2.9-4.7
			c-0.9-1.6-1.9-3.2-2.8-4.7c-1.2,1.7-2.2,3.5-3.2,5.3c-1,1.8-2,3.7-3,5.5c0.3,0.6,0.8,1.2,1.3,2c0.5,0.7,1.1,1.5,1.7,2.1
			s1.3,1.2,2,1.7c0.7,0.5,1.5,0.7,2.2,0.7c0.9,0,1.6-0.1,2.3-0.3c0.7-0.2,1.3-0.5,1.8-0.9c0.6-0.4,1.1-0.8,1.6-1.4
			C243.3,161.9,243.8,161.3,244.4,160.7z"/>
	</g>
	<g>
		<path class="st19" d="M381,173.9l-0.1-0.9c1-0.2,1.8-0.4,2.4-0.6c0.6-0.2,1-0.5,1.3-0.9s0.5-0.9,0.6-1.6c0.1-0.7,0.1-1.5,0.1-2.6
			l0.7-0.1c0.4,0.7,0.7,1.4,1,2.1c0.3,0.7,0.6,1.4,1,2.1c0.2,0.3,0.4,0.7,0.6,0.9s0.5,0.6,0.8,0.8c0.7,0.7,1.4,1.3,2.2,1.8
			c0.8,0.5,1.7,0.7,2.7,0.7c0.9,0,1.8-0.1,2.9-0.4s2-0.7,2.9-1.2c0.9-0.5,1.6-1.2,2.2-2c0.6-0.8,0.9-1.7,0.9-2.7
			c0-0.9-0.2-1.8-0.7-2.6s-1.1-1.6-1.9-2.3c-0.8-0.7-1.7-1.5-2.7-2.2c-1-0.7-2.1-1.4-3.1-2.1s-2.1-1.4-3.1-2.1s-1.9-1.4-2.7-2.2
			c-0.8-0.8-1.4-1.6-1.9-2.4c-0.5-0.8-0.7-1.7-0.7-2.7c0-1.1,0.3-2,0.8-2.8c0.5-0.8,1.2-1.4,2-2c0.8-0.5,1.7-1,2.7-1.3
			c1-0.3,1.9-0.6,2.8-0.9h-11.3v-3.4h23.5v3.4c-1.2,0-2.4,0-3.4,0c-1,0-2,0-2.9,0.1c-0.9,0.1-1.9,0.3-2.8,0.5s-2,0.6-3.1,1.1
			c-0.4,0.2-0.8,0.4-1.2,0.6c-0.5,0.3-0.9,0.6-1.3,0.9s-0.7,0.7-1,1.1c-0.3,0.4-0.4,0.8-0.4,1.3c0,0.8,0.2,1.5,0.7,2.2
			c0.5,0.7,1.1,1.4,1.8,2s1.6,1.3,2.6,1.9c1,0.6,2,1.2,3,1.9c1,0.6,2,1.3,3,1.9c1,0.7,1.8,1.3,2.6,2.1c0.8,0.7,1.4,1.5,1.8,2.3
			c0.5,0.8,0.7,1.7,0.7,2.6c0,1.8-0.3,3.4-1,4.8c-0.7,1.4-1.5,2.6-2.6,3.6s-2.4,1.7-3.9,2.3s-3.1,0.8-4.8,0.8
			c-0.6,0-1.2-0.1-1.8-0.2c-0.6-0.1-1.2-0.3-1.8-0.5c-0.6-0.2-1.2-0.5-1.7-0.7c-0.5-0.3-1.1-0.6-1.5-0.9c-0.3-0.2-0.6-0.4-0.9-0.6
			s-0.6-0.3-1-0.4c-0.8-0.2-1.5-0.3-2.3-0.3C382.5,174.2,381.7,174.1,381,173.9z"/>
		<path class="st19" d="M436.7,166.5h-2.9c-0.7-0.6-1.4-1.3-2.1-2.1c-0.7-0.7-1.3-1.5-1.9-2.2c-0.6,0.6-1.2,1.2-1.8,1.8
			c-0.6,0.6-1.3,1.1-1.9,1.6c-0.7,0.5-1.4,0.8-2.2,1.1c-0.8,0.3-1.6,0.4-2.6,0.4c-0.9,0-1.8-0.1-2.6-0.4s-1.7-0.6-2.5-1
			c-0.8-0.4-1.6-0.9-2.3-1.4c-0.7-0.5-1.4-1.1-2-1.7c-0.1,0.1-0.1,0.3-0.2,0.5c-0.1,0.2-0.1,0.3-0.2,0.5l-0.9,1.9
			c-0.1,0.3-0.3,0.7-0.4,1h-2.3c0.6-1.5,1.2-3,1.9-4.4c0.7-1.4,1.4-2.9,2.1-4.3c1.5-3.1,3-6.1,4.6-9.1c1.5-3,3.1-6,4.9-8.9h1.5
			c0.4,1.2,0.9,2.6,1.5,4.1c0.6,1.5,1.3,3.1,2.1,4.8s1.6,3.3,2.5,5c0.9,1.7,1.8,3.3,2.7,4.9c0.9,1.6,1.8,3.1,2.7,4.4
			C435,164.3,435.9,165.5,436.7,166.5z M428.6,160.7c-0.5-0.6-0.9-1.2-1.4-1.8c-0.5-0.6-0.9-1.2-1.3-1.8c-1-1.5-2-3.1-2.9-4.7
			c-0.9-1.6-1.9-3.2-2.8-4.7c-1.2,1.7-2.2,3.5-3.2,5.3c-1,1.8-2,3.7-3,5.5c0.3,0.6,0.8,1.2,1.3,2c0.5,0.7,1.1,1.5,1.7,2.1
			s1.3,1.2,2,1.7s1.5,0.7,2.2,0.7c0.9,0,1.6-0.1,2.3-0.3c0.7-0.2,1.3-0.5,1.8-0.9c0.6-0.4,1.1-0.8,1.6-1.4S428,161.3,428.6,160.7z"
			/>
		<path class="st19" d="M442.6,153.5c0,0.7,0,1.5,0.1,2.3c0.1,0.8,0.2,1.7,0.5,2.5c0.2,0.8,0.5,1.7,0.8,2.5c0.3,0.8,0.8,1.5,1.3,2.1
			s1.1,1.1,1.8,1.5s1.5,0.6,2.4,0.6c0.9,0,1.7-0.1,2.5-0.4s1.6-0.6,2.3-1.1c0.7-0.5,1.3-1.1,1.8-1.8s0.9-1.5,1.1-2.3l2.9,1.1
			c-0.5,1-1.2,1.9-1.9,2.8c-0.7,0.8-1.6,1.5-2.5,2.1s-1.9,1-3,1.4s-2.2,0.5-3.3,0.5c-1.9,0-3.7-0.4-5.2-1.1c-1.5-0.7-2.8-1.7-3.8-3
			c-1-1.2-1.8-2.7-2.4-4.4c-0.5-1.7-0.8-3.4-0.8-5.2c0-1.8,0.3-3.5,0.8-5.2c0.6-1.7,1.4-3.1,2.4-4.4c1-1.3,2.3-2.3,3.8-3
			c1.5-0.8,3.2-1.1,5.1-1.1c1.4,0,2.7,0.2,3.9,0.6c1.2,0.4,2.2,1,3.2,1.7c0.9,0.7,1.8,1.6,2.5,2.6s1.3,2.2,1.8,3.4
			c0.4,1.2,0.7,2.3,0.7,3.5h1.1v1.9H442.6z M442.6,151.6h13.8c0-1-0.1-2-0.4-3.1c-0.3-1.1-0.7-2.2-1.3-3.2s-1.3-1.8-2.2-2.4
			s-1.9-1-3-1c-0.8,0-1.5,0.2-2.2,0.5c-0.6,0.3-1.2,0.7-1.7,1.2c-0.5,0.5-0.9,1.1-1.3,1.7c-0.4,0.7-0.7,1.3-0.9,2.1
			c-0.2,0.7-0.4,1.5-0.6,2.2C442.8,150.3,442.7,151,442.6,151.6z"/>
		<path class="st19" d="M474.6,144.5v22h-4.7v-19.2c0-0.6-0.2-1-0.5-1.3c-0.3-0.3-0.7-0.4-1.3-0.4c-0.4,0-0.9,0-1.3,0.1
			c-0.4,0.1-0.9,0.1-1.3,0.2l-0.4-0.7c1-0.2,1.7-0.5,2.2-0.9c0.5-0.3,0.9-0.7,1.1-1.1c0.2-0.4,0.4-0.8,0.4-1.2s0.1-0.8,0.1-1.1
			c0-0.3,0.1-0.6,0.2-0.8c0.1-0.2,0.3-0.3,0.7-0.3c0.6,0,1.2,0.1,1.8,0.4c0.6,0.3,1.1,0.6,1.5,1.1c0.4,0.4,0.8,0.9,1,1.5
			C474.5,143.3,474.6,143.9,474.6,144.5z"/>
		<path class="st19" d="M496.8,164.9c0.7,0,1.4,0,1.9-0.2c0.6-0.1,1.1-0.2,1.6-0.4c0.5-0.2,1-0.4,1.5-0.7s1-0.6,1.6-1l1.6,2.2
			c-0.7,0.4-1.4,0.7-2,1c-0.6,0.3-1.2,0.6-1.9,0.8c-0.6,0.2-1.3,0.4-2,0.5c-0.7,0.1-1.4,0.2-2.3,0.2c-0.9,0-1.8,0-2.7-0.1
			c-0.9-0.1-1.7-0.2-2.6-0.5c-1.3-0.3-2.4-0.9-3.3-1.6s-1.7-1.6-2.3-2.6c-0.6-1-1-2.1-1.3-3.3c-0.3-1.2-0.4-2.4-0.4-3.6v-19.8
			c0-0.6-0.2-1-0.5-1.3c-0.3-0.3-0.7-0.4-1.3-0.4c-0.4,0-0.8,0.1-1.3,0.2s-0.8,0.2-1.3,0.2l-0.5-0.7c1-0.2,1.9-0.6,2.6-1.1
			c0.7-0.6,1.1-1.4,1.2-2.5c0-0.2,0-0.4,0.1-0.7c0-0.3,0.1-0.5,0.1-0.7c0.1-0.2,0.2-0.3,0.4-0.3c0.2,0,0.3-0.1,0.5-0.1
			c0.6,0,1.1,0.1,1.7,0.4s1,0.7,1.5,1.1c0.4,0.5,0.8,1,1.1,1.5c0.3,0.6,0.4,1.1,0.4,1.7v22c0,1.5,0.1,2.9,0.2,4.1s0.5,2.3,1,3.1
			c0.5,0.9,1.3,1.5,2.4,2C493.7,164.7,495.1,164.9,496.8,164.9z"/>
		<path class="st19" d="M503.5,173.9l-0.1-0.9c1-0.2,1.8-0.4,2.4-0.6c0.6-0.2,1-0.5,1.3-0.9s0.5-0.9,0.6-1.6
			c0.1-0.7,0.1-1.5,0.1-2.6l0.7-0.1c0.4,0.7,0.7,1.4,1,2.1c0.3,0.7,0.6,1.4,1,2.1c0.2,0.3,0.4,0.7,0.6,0.9s0.5,0.6,0.8,0.8
			c0.7,0.7,1.4,1.3,2.2,1.8c0.8,0.5,1.7,0.7,2.7,0.7c0.9,0,1.8-0.1,2.9-0.4s2-0.7,2.9-1.2c0.9-0.5,1.6-1.2,2.2-2
			c0.6-0.8,0.9-1.7,0.9-2.7c0-0.9-0.2-1.8-0.7-2.6s-1.1-1.6-1.9-2.3c-0.8-0.7-1.7-1.5-2.7-2.2c-1-0.7-2.1-1.4-3.1-2.1
			s-2.1-1.4-3.1-2.1s-1.9-1.4-2.7-2.2c-0.8-0.8-1.4-1.6-1.9-2.4c-0.5-0.8-0.7-1.7-0.7-2.7c0-1.1,0.3-2,0.8-2.8c0.5-0.8,1.2-1.4,2-2
			c0.8-0.5,1.7-1,2.7-1.3c1-0.3,1.9-0.6,2.8-0.9h-11.3v-3.4h23.5v3.4c-1.2,0-2.4,0-3.4,0c-1,0-2,0-2.9,0.1c-0.9,0.1-1.9,0.3-2.8,0.5
			s-2,0.6-3.1,1.1c-0.4,0.2-0.8,0.4-1.2,0.6c-0.5,0.3-0.9,0.6-1.3,0.9s-0.7,0.7-1,1.1c-0.3,0.4-0.4,0.8-0.4,1.3
			c0,0.8,0.2,1.5,0.7,2.2c0.5,0.7,1.1,1.4,1.8,2s1.6,1.3,2.6,1.9c1,0.6,2,1.2,3,1.9c1,0.6,2,1.3,3,1.9c1,0.7,1.8,1.3,2.6,2.1
			c0.8,0.7,1.4,1.5,1.8,2.3c0.5,0.8,0.7,1.7,0.7,2.6c0,1.8-0.3,3.4-1,4.8c-0.7,1.4-1.5,2.6-2.6,3.6s-2.4,1.7-3.9,2.3
			s-3.1,0.8-4.8,0.8c-0.6,0-1.2-0.1-1.8-0.2c-0.6-0.1-1.2-0.3-1.8-0.5c-0.6-0.2-1.2-0.5-1.7-0.7c-0.5-0.3-1.1-0.6-1.5-0.9
			c-0.3-0.2-0.6-0.4-0.9-0.6s-0.6-0.3-1-0.4c-0.8-0.2-1.5-0.3-2.3-0.3C505,174.2,504.3,174.1,503.5,173.9z"/>
		<path class="st19" d="M537.5,153.5c0,0.7,0,1.5,0.1,2.3c0.1,0.8,0.2,1.7,0.5,2.5c0.2,0.8,0.5,1.7,0.8,2.5c0.3,0.8,0.8,1.5,1.3,2.1
			s1.1,1.1,1.8,1.5s1.5,0.6,2.4,0.6c0.9,0,1.7-0.1,2.5-0.4s1.6-0.6,2.3-1.1c0.7-0.5,1.3-1.1,1.8-1.8s0.9-1.5,1.1-2.3l2.9,1.1
			c-0.5,1-1.2,1.9-1.9,2.8c-0.7,0.8-1.6,1.5-2.5,2.1s-1.9,1-3,1.4s-2.2,0.5-3.3,0.5c-1.9,0-3.7-0.4-5.2-1.1c-1.5-0.7-2.8-1.7-3.8-3
			c-1-1.2-1.8-2.7-2.4-4.4c-0.5-1.7-0.8-3.4-0.8-5.2c0-1.8,0.3-3.5,0.8-5.2c0.6-1.7,1.4-3.1,2.4-4.4c1-1.3,2.3-2.3,3.8-3
			c1.5-0.8,3.2-1.1,5.1-1.1c1.4,0,2.7,0.2,3.9,0.6c1.2,0.4,2.2,1,3.2,1.7c0.9,0.7,1.8,1.6,2.5,2.6s1.3,2.2,1.8,3.4
			c0.4,1.2,0.7,2.3,0.7,3.5h1.1v1.9H537.5z M537.5,151.6h13.8c0-1-0.1-2-0.4-3.1c-0.3-1.1-0.7-2.2-1.3-3.2s-1.3-1.8-2.2-2.4
			s-1.9-1-3-1c-0.8,0-1.5,0.2-2.2,0.5c-0.6,0.3-1.2,0.7-1.7,1.2c-0.5,0.5-0.9,1.1-1.3,1.7c-0.4,0.7-0.7,1.3-0.9,2.1
			c-0.2,0.7-0.4,1.5-0.6,2.2C537.7,150.3,537.6,151,537.5,151.6z"/>
		<path class="st19" d="M563.9,174.7l-1.7-1.4c0.5-0.3,0.9-0.7,1.4-1.2c0.5-0.5,0.9-1,1.3-1.5c0.4-0.5,0.7-1.1,0.9-1.7
			c0.2-0.6,0.4-1.2,0.4-1.8c-0.4,0-0.8-0.1-1.2-0.3c-0.4-0.2-0.7-0.5-1-0.9c-0.3-0.4-0.5-0.7-0.7-1.2c-0.2-0.4-0.3-0.8-0.3-1.2
			c0-0.5,0.1-1,0.3-1.4s0.5-0.8,0.8-1.2c0.3-0.3,0.7-0.6,1.2-0.8c0.5-0.2,0.9-0.3,1.4-0.3c0.8,0,1.5,0.2,2.1,0.6
			c0.6,0.4,1.1,1,1.4,1.6c0,0.1,0.1,0.2,0.1,0.3c0,0.1,0.1,0.3,0.1,0.4s0.1,0.3,0.1,0.4s0.1,0.2,0.1,0.3c0,1.1-0.2,2.1-0.6,3.2
			c-0.4,1.1-0.9,2.1-1.5,3c-0.6,1-1.3,1.9-2.1,2.7S564.8,174.2,563.9,174.7z M566.7,139.8c0.5,0,1,0.1,1.4,0.3
			c0.4,0.2,0.8,0.5,1.2,0.8s0.6,0.7,0.8,1.2c0.2,0.4,0.3,0.9,0.3,1.4c0,0.5-0.1,1-0.3,1.4c-0.2,0.5-0.5,0.8-0.8,1.2
			s-0.7,0.6-1.2,0.8s-0.9,0.3-1.4,0.3c-0.5,0-1-0.1-1.4-0.3c-0.5-0.2-0.8-0.5-1.2-0.8c-0.3-0.3-0.6-0.7-0.8-1.2
			c-0.2-0.5-0.3-0.9-0.3-1.4c0-0.5,0.1-0.9,0.3-1.4s0.5-0.8,0.8-1.2c0.3-0.3,0.7-0.6,1.2-0.8C565.8,139.9,566.2,139.8,566.7,139.8z"
			/>
	</g>
	<g>
		<path class="st19" d="M375.1,166c0,0.1,0,0.2,0,0.4c0,0.2-0.1,0.4-0.1,0.6c-1.1-0.1-2.6-0.2-4.4-0.2c-0.5,0-1.1,0-1.7-0.1
			s-1.3-0.3-2.1-0.7c-0.8-0.4-1.8-0.9-3-1.7c-1.1-0.8-2.5-1.8-4.1-3.2c-1.6,1.8-3.4,3.3-5.3,4.3c-1.9,1.1-4.1,1.6-6.5,1.6
			c-1.5,0-2.8-0.2-4.1-0.5s-2.3-0.9-3.2-1.6c-0.9-0.7-1.6-1.7-2.1-2.9c-0.5-1.2-0.8-2.5-0.8-4.1c0-2.1,0.7-4.1,2-5.9
			c1.3-1.8,3.2-3.4,5.6-4.9c-1-1-1.8-1.9-2.4-2.7c-0.6-0.8-1.1-1.6-1.5-2.4c-0.4-0.8-0.6-1.5-0.8-2.3s-0.2-1.5-0.2-2.3
			c0-2.1,0.8-3.7,2.3-5c1.5-1.3,3.5-1.9,5.9-1.9c1.2,0,2.2,0.2,3.2,0.6c1,0.4,1.8,0.9,2.5,1.6c0.7,0.7,1.3,1.4,1.7,2.4
			c0.4,0.9,0.6,1.9,0.6,3c0,1.3-0.4,2.6-1.2,4c-0.8,1.3-2.2,2.7-4.3,4c2,2.1,3.9,3.9,5.5,5.6c1.7,1.6,3.1,3.1,4.5,4.3
			c0.7-1,1.4-2,2-3.1c0.6-1.1,1.1-2,1.6-3c0.4-0.9,0.8-1.8,1-2.5c0.2-0.8,0.4-1.4,0.4-1.8c0-0.4-0.2-0.7-0.5-0.9
			c-0.3-0.2-0.9-0.4-1.9-0.6c-0.5,0-0.7-0.3-0.7-0.7c0-0.1,0-0.2,0-0.5c0-0.2,0.1-0.4,0.1-0.5c0.7,0.1,1.5,0.1,2.4,0.1
			c0.9,0,1.8,0,2.7,0c1.7,0,3.2-0.1,4.5-0.2c0,0.2,0.1,0.3,0.1,0.5c0,0.2,0.1,0.3,0.1,0.4c0,0.4-0.2,0.7-0.7,0.8
			c-0.5,0.1-1,0.2-1.3,0.3c-0.3,0.1-0.6,0.2-0.9,0.4s-0.5,0.4-0.7,0.7c-0.2,0.3-0.5,0.8-0.8,1.3c-0.8,1.8-1.7,3.5-2.7,5.3
			c-0.9,1.8-2,3.5-3.1,5.2c1.4,1.3,2.6,2.4,3.7,3.3c1.1,0.9,2,1.6,2.7,2.2c0.8,0.6,1.4,1,1.9,1.3c0.5,0.3,1,0.5,1.4,0.6
			c0.1,0,0.3,0.1,0.6,0.1c0.3,0,0.6,0.1,0.9,0.1c0.3,0.1,0.6,0.2,0.9,0.3S375.1,165.8,375.1,166z M346.5,148.6
			c-1.3,1.1-2.3,2.4-3,3.9c-0.7,1.5-1.1,3-1.1,4.6c0,1.4,0.2,2.5,0.7,3.4c0.5,0.9,1.1,1.6,1.8,2.1c0.7,0.5,1.4,0.9,2.2,1.1
			c0.8,0.2,1.5,0.3,2.1,0.3c1.6,0,3.1-0.3,4.4-0.9c1.4-0.6,2.8-1.7,4.4-3.2c-1.5-1.3-3.2-2.9-5.1-4.7
			C351,153.3,348.9,151.1,346.5,148.6z M349.7,144.9c1.1-1,1.9-2,2.3-3.2c0.5-1.1,0.7-2.2,0.7-3.2c0-1.8-0.4-3.2-1.1-4.2
			c-0.8-1-1.9-1.5-3.4-1.5c-1,0-1.8,0.3-2.4,0.9c-0.6,0.6-1,1.5-1,2.6c0,1.1,0.3,2.3,1,3.6C346.5,141.4,347.8,143,349.7,144.9z"/>
	</g>
	<g>
		<path class="st19" d="M281.6,150c0-0.3-0.1-0.5-0.1-0.7c0-0.2,0-0.4,0-0.6c0-1.1,0.3-1.6,0.9-1.6h22.7c0,0.2,0.1,0.4,0.1,0.6
			s0,0.4,0,0.6c0,1.1-0.3,1.7-1,1.7H281.6z M281.6,160.5c0-0.3-0.1-0.5-0.1-0.7c0-0.2,0-0.4,0-0.6c0-1.1,0.3-1.6,0.9-1.6h22.7
			c0,0.3,0.1,0.5,0.1,0.7s0,0.4,0,0.6c0,0.6-0.1,1.1-0.3,1.3c-0.2,0.2-0.4,0.4-0.7,0.4H281.6z"/>
	</g>
</g>
<g id="Layer_5_1_">
</g>
</svg>
