<?xml version="1.0" encoding="utf-8"?>
<!-- Generator: Adobe Illustrator 20.1.0, SVG Export Plug-In . SVG Version: 6.00 Build 0)  -->
<svg version="1.1" id="Layer_1" xmlns="http://www.w3.org/2000/svg" xmlns:xlink="http://www.w3.org/1999/xlink" x="0px" y="0px"
	 viewBox="0 0 620 300" style="enable-background:new 0 0 620 300;" xml:space="preserve">
<style type="text/css">
	.st0{clip-path:url(#SVGID_2_);fill:#3B576B;}
	.st1{clip-path:url(#SVGID_4_);fill:#4F7084;}
	.st2{clip-path:url(#SVGID_6_);fill:#416076;}
	.st3{clip-path:url(#SVGID_8_);}
	.st4{fill:#26BEE9;}
	.st5{fill:#88DB6F;}
	.st6{fill:none;stroke:#EFF2F4;stroke-width:5;stroke-miterlimit:10;}
	.st7{clip-path:url(#SVGID_10_);fill:none;stroke:#FFFFFF;stroke-width:2;stroke-miterlimit:10;stroke-dasharray:10;}
	.st8{clip-path:url(#SVGID_12_);fill:#FFFFFF;}
	.st9{clip-path:url(#SVGID_14_);fill:#E0DBBF;stroke:#EFF2F4;stroke-width:5;stroke-miterlimit:10;}
	.st10{clip-path:url(#SVGID_16_);fill:#CCC9B6;}
	.st11{clip-path:url(#SVGID_18_);fill:#CCC9B6;}
	.st12{clip-path:url(#SVGID_20_);fill:#CCC9B6;}
	.st13{clip-path:url(#SVGID_22_);fill:#CCC9B6;}
	.st14{clip-path:url(#SVGID_24_);}
	.st15{fill:#FFCE00;stroke:#FFE100;stroke-width:10;stroke-miterlimit:10;}
	.st16{fill:#FFE100;}
	.st17{fill:#FFCE00;}
	.st18{clip-path:url(#SVGID_26_);fill:#EFF2F4;}
	.st19{clip-path:url(#SVGID_28_);fill:#EFF2F4;}
	.st20{clip-path:url(#SVGID_30_);fill:#EFF2F4;}
	.st21{clip-path:url(#SVGID_32_);fill:#EFF2F4;}
	.st22{clip-path:url(#SVGID_34_);fill:#EFF2F4;}
	.st23{clip-path:url(#SVGID_36_);fill:#EFF2F4;}
	.st24{clip-path:url(#SVGID_38_);fill:#EFF2F4;}
	.st25{clip-path:url(#SVGID_40_);fill:#EFF2F4;}
	.st26{clip-path:url(#SVGID_42_);fill:#EFF2F4;}
</style>
<image style="overflow:visible;enable-background:new    ;" width="800" height="600" id="Layer_1_2_" xlink:href="B76EF2098D21AFEB.png"  transform="matrix(0.7 0 0 0.7 -714.667 -34.402)">
</image>
<g>
	<defs>
		<rect id="SVGID_1_" width="620" height="300"/>
	</defs>
	<clipPath id="SVGID_2_">
		<use xlink:href="#SVGID_1_"  style="overflow:visible;"/>
	</clipPath>
	<path class="st0" d="M0,0h620v300H0V0z"/>
</g>
<g>
	<defs>
		<rect id="SVGID_3_" width="620" height="300"/>
	</defs>
	<clipPath id="SVGID_4_">
		<use xlink:href="#SVGID_3_"  style="overflow:visible;"/>
	</clipPath>
	<circle class="st1" cx="310" cy="150" r="250.7"/>
</g>
<g>
	<defs>
		<rect id="SVGID_5_" width="620" height="300"/>
	</defs>
	<clipPath id="SVGID_6_">
		<use xlink:href="#SVGID_5_"  style="overflow:visible;"/>
	</clipPath>
	<circle class="st2" cx="310" cy="150" r="188"/>
</g>
<g>
	<defs>
		<rect id="SVGID_7_" width="620" height="300"/>
	</defs>
	<clipPath id="SVGID_8_">
		<use xlink:href="#SVGID_7_"  style="overflow:visible;"/>
	</clipPath>
	<g class="st3">
		<ellipse transform="matrix(0.3708 -0.9287 0.9287 0.3708 58.3478 386.7907)" class="st4" cx="314.6" cy="150.3" rx="39" ry="39"/>
		<path class="st5" d="M325.6,145.3l-14.5-5.8l2.9-7.4l39.5,15.8c-0.3-4.3-1.3-8.5-2.9-12.5l-51.9-20.7c-3.6,1.6-6.9,3.7-9.8,6.3
			l-3.9,8c-2.3-0.9-4.9,0.2-5.8,2.5s0.2,4.9,2.5,5.8l40.7,16.2c2.3,0.9,4.9-0.2,5.8-2.5C329,148.8,327.9,146.2,325.6,145.3
			L325.6,145.3z"/>
		<path class="st4" d="M349.8,154.9l-39-15.6c-2.3-0.9-3.4-3.5-2.5-5.8s3.5-3.4,5.8-2.5l39,15.6c2.3,0.9,3.4,3.5,2.5,5.8
			S352.1,155.8,349.8,154.9z"/>
		<path class="st5" d="M342.1,181.2c1.6-1.6,6.1-8,3.6-9l-24.2-9.7c-2.5-1-5.3,0.2-6.3,2.7s0.2,5.3,2.7,6.3l2.9,1.1l-3.3,8.2
			l-2.2-0.9c-2.5-1-5.3,0.2-6.3,2.7s0.2,5.3,2.7,6.3C311.8,189,340.5,182.8,342.1,181.2L342.1,181.2z"/>
		<path class="st4" d="M317.7,181L278,165.1c-2.3-0.9-3.4-3.5-2.5-5.7c0.9-2.3,3.5-3.4,5.7-2.5l39.8,15.9c2.3,0.9,3.4,3.5,2.5,5.7
			C322.6,180.8,320,181.9,317.7,181z"/>
		<path class="st5" d="M289.9,160.3l-14.4-5.8c0.2,3.6,1.1,7.2,2.5,10.5l8.7,3.5c2.3,0.9,4.8-0.2,5.7-2.5
			C293.3,163.8,292.2,161.2,289.9,160.3L289.9,160.3z"/>
		<ellipse transform="matrix(0.3708 -0.9287 0.9287 0.3708 58.3478 386.7907)" class="st6" cx="314.6" cy="150.3" rx="39" ry="39"/>
	</g>
</g>
<g>
	<defs>
		<rect id="SVGID_9_" width="620" height="300"/>
	</defs>
	<clipPath id="SVGID_10_">
		<use xlink:href="#SVGID_9_"  style="overflow:visible;"/>
	</clipPath>
	<path class="st7" d="M310,51.2c54.6,0,98.8,44.2,98.8,98.8s-44.2,98.8-98.8,98.8s-98.8-44.2-98.8-98.8"/>
</g>
<g>
	<defs>
		<rect id="SVGID_11_" width="620" height="300"/>
	</defs>
	<clipPath id="SVGID_12_">
		<use xlink:href="#SVGID_11_"  style="overflow:visible;"/>
	</clipPath>
	<path class="st8" d="M237.4,75.5c1.8,2.4,6.1,15.7,2.2,26.1c-5.4,14.3-9.7,19-10.8,20.1c-0.5,0-1.2,0.1-2.1,0.1
		c-1.7,0-4.2-0.2-6.5-1c-3.3-1.2-6-3.9-7-5c-0.2-1.7-0.3-8.2,5.2-22.6C222.3,83.1,234.5,76.1,237.4,75.5 M231.1,98.2
		c2.5,0,4.8-1.6,5.7-3.9c0.6-1.5,0.5-3.2-0.1-4.7c-0.7-1.5-1.9-2.6-3.4-3.2c-0.7-0.3-1.4-0.4-2.2-0.4c-2.5,0-4.8,1.6-5.7,3.9
		c-0.6,1.5-0.5,3.2,0.1,4.7c0.7,1.5,1.9,2.6,3.4,3.2C229.6,98,230.3,98.2,231.1,98.2 M210.6,97.5c-1.3,4.1-2.3,7.9-2.8,11.3
		c-1.9,0.2-4,0.9-5.7,1.7c1.4-3.7,3.5-8.6,6.2-11.2C208.9,98.5,209.7,98,210.6,97.5 M242.3,110.9c0.1,0.5,0.2,0.9,0.2,1.4
		c0.2,3.6-1.4,8.8-2.8,12.4c-0.6-1.4-1.5-2.9-2.4-4.1C239,117.8,240.6,114.6,242.3,110.9 M216.6,125.8l1.5,0.6
		c0.2,0.1,0.4,0.1,0.6,0.2l-1.7,1.5L216.6,125.8 M237.8,73.5c-3.3,0-17,7.9-21.2,19.1c-6.8,17.9-5.2,24.2-5.2,24.2s3.5,4.2,8.2,5.9
		c2.5,0.9,5.2,1.2,7.2,1.2c1.7,0,2.9-0.2,2.9-0.2s5.1-3.4,11.9-21.3c4.5-11.7-1-27.9-3.3-28.8C238.1,73.5,237.9,73.5,237.8,73.5
		L237.8,73.5z M231.1,96.2c-0.5,0-1-0.1-1.5-0.3c-2.1-0.8-3.2-3.2-2.4-5.3c0.6-1.6,2.2-2.7,3.9-2.7c0.5,0,1,0.1,1.5,0.3
		c2.1,0.8,3.2,3.2,2.4,5.3C234.3,95.1,232.8,96.2,231.1,96.2z M213.7,94.4c-2.1,0.3-4.6,1.2-6.9,3.4c-4.9,4.8-8.2,16.6-8.2,16.6
		s5.7-3.5,9.8-3.7h0.3c0.3,0,0.5,0,0.8,0.1C209.9,107.1,211.1,101.7,213.7,94.4L213.7,94.4z M242.3,105.8
		c-2.9,7.2-5.5,11.9-7.5,14.9c2.9,2.9,4.8,9.2,4.8,9.2s5.4-11,5-17.8C244.3,109.5,243.4,107.4,242.3,105.8z M214.1,122l1.3,10.1
		l7.5-6.5c-1.3-0.2-2.7-0.6-4.1-1.1C217.1,123.9,215.5,123,214.1,122z"/>
</g>
<g>
	<defs>
		<rect id="SVGID_13_" width="620" height="300"/>
	</defs>
	<clipPath id="SVGID_14_">
		<use xlink:href="#SVGID_13_"  style="overflow:visible;"/>
	</clipPath>
	<circle class="st9" cx="544.7" cy="69.8" r="27.3"/>
</g>
<g>
	<defs>
		<rect id="SVGID_15_" width="620" height="300"/>
	</defs>
	<clipPath id="SVGID_16_">
		<use xlink:href="#SVGID_15_"  style="overflow:visible;"/>
	</clipPath>
	<circle class="st10" cx="547.8" cy="58.5" r="5.8"/>
</g>
<g>
	<defs>
		<rect id="SVGID_17_" width="620" height="300"/>
	</defs>
	<clipPath id="SVGID_18_">
		<use xlink:href="#SVGID_17_"  style="overflow:visible;"/>
	</clipPath>
	<circle class="st11" cx="552.2" cy="78.6" r="4.4"/>
</g>
<g>
	<defs>
		<rect id="SVGID_19_" width="620" height="300"/>
	</defs>
	<clipPath id="SVGID_20_">
		<use xlink:href="#SVGID_19_"  style="overflow:visible;"/>
	</clipPath>
	<circle class="st12" cx="532.9" cy="68.1" r="3.8"/>
</g>
<g>
	<defs>
		<rect id="SVGID_21_" width="620" height="300"/>
	</defs>
	<clipPath id="SVGID_22_">
		<use xlink:href="#SVGID_21_"  style="overflow:visible;"/>
	</clipPath>
	<circle class="st13" cx="535.3" cy="85.4" r="2.4"/>
</g>
<g>
	<defs>
		<rect id="SVGID_23_" width="620" height="300"/>
	</defs>
	<clipPath id="SVGID_24_">
		<use xlink:href="#SVGID_23_"  style="overflow:visible;"/>
	</clipPath>
	<g class="st14">
		
			<ellipse transform="matrix(0.9947 -0.1024 0.1024 0.9947 -26.4059 2.065)" class="st15" cx="6.9" cy="258.2" rx="111.3" ry="111.3"/>
		<path class="st16" d="M64.3,214l-28.9,3c5.2-0.5,9-5.2,8.5-10.4s-5.2-9-10.4-8.5c5.2-0.5,9-5.2,8.5-10.4s-5.2-9-10.4-8.5l-87.2,9
			c-5.2,0.5-9,5.2-8.5,10.4s5.2,9,10.4,8.5c-5.2,0.5-9,5.2-8.5,10.4s5.2,9,10.4,8.5l3.7-0.4c-5.2,0.5-9,5.2-8.5,10.4s5.2,9,10.4,8.5
			l112.4-11.6c5.2-0.5,9-5.2,8.5-10.4C74.1,217.2,69.5,213.4,64.3,214z"/>
		<path class="st17" d="M83.6,212l-70.2,7.2c-5.2,0.5-9.9-3.3-10.4-8.5s3.3-9.9,8.5-10.4l70.2-7.2c5.2-0.5,9.9,3.3,10.4,8.5
			S88.8,211.5,83.6,212z"/>
		<path class="st16" d="M46,272l65.5-6.7c4.8-0.5,8.3-4.8,7.8-9.6c-0.5-4.8-4.8-8.3-9.6-7.8l-65.5,6.7c-4.8,0.5-8.3,4.8-7.8,9.6
			C36.9,269,41.2,272.5,46,272L46,272z M44.6,307.1l65.5-6.7c4.8-0.5,8.3-4.8,7.8-9.6c-0.5-4.8-4.8-8.3-9.6-7.8l-65.5,6.7
			c-4.8,0.5-8.3,4.8-7.8,9.6C35.5,304.1,39.8,307.6,44.6,307.1z"/>
		<path class="st16" d="M86.6,284.9l26.6-2.7c4.8-0.5,8.3-4.8,7.8-9.6c-0.5-4.8-4.8-8.3-9.6-7.8l-26.6,2.7c-4.8,0.5-8.3,4.8-7.8,9.6
			C77.5,281.9,81.8,285.4,86.6,284.9z"/>
		<path class="st17" d="M26.3,291.1l65.5-6.7c4.8-0.5,8.3-4.8,7.8-9.6c-0.5-4.8-4.8-8.3-9.6-7.8l-65.5,6.7c-4.8,0.5-8.3,4.8-7.8,9.6
			C17.1,288.1,21.4,291.6,26.3,291.1z"/>
	</g>
</g>
<g>
	<defs>
		<rect id="SVGID_25_" width="620" height="300"/>
	</defs>
	<clipPath id="SVGID_26_">
		<use xlink:href="#SVGID_25_"  style="overflow:visible;"/>
	</clipPath>
	<circle class="st18" cx="174" cy="232" r="2.7"/>
</g>
<g>
	<defs>
		<rect id="SVGID_27_" width="620" height="300"/>
	</defs>
	<clipPath id="SVGID_28_">
		<use xlink:href="#SVGID_27_"  style="overflow:visible;"/>
	</clipPath>
	<circle class="st19" cx="265.5" cy="279.1" r="3.1"/>
</g>
<g>
	<defs>
		<rect id="SVGID_29_" width="620" height="300"/>
	</defs>
	<clipPath id="SVGID_30_">
		<use xlink:href="#SVGID_29_"  style="overflow:visible;"/>
	</clipPath>
	<circle class="st20" cx="407.6" cy="274.8" r="2.5"/>
</g>
<g>
	<defs>
		<rect id="SVGID_31_" width="620" height="300"/>
	</defs>
	<clipPath id="SVGID_32_">
		<use xlink:href="#SVGID_31_"  style="overflow:visible;"/>
	</clipPath>
	<circle class="st21" cx="143.6" cy="141.9" r="2.6"/>
</g>
<g>
	<defs>
		<rect id="SVGID_33_" width="620" height="300"/>
	</defs>
	<clipPath id="SVGID_34_">
		<use xlink:href="#SVGID_33_"  style="overflow:visible;"/>
	</clipPath>
	<circle class="st22" cx="302.1" cy="276" r="2.6"/>
</g>
<g>
	<defs>
		<rect id="SVGID_35_" width="620" height="300"/>
	</defs>
	<clipPath id="SVGID_36_">
		<use xlink:href="#SVGID_35_"  style="overflow:visible;"/>
	</clipPath>
	<circle class="st23" cx="218.5" cy="42.5" r="2.6"/>
</g>
<g>
	<defs>
		<rect id="SVGID_37_" width="620" height="300"/>
	</defs>
	<clipPath id="SVGID_38_">
		<use xlink:href="#SVGID_37_"  style="overflow:visible;"/>
	</clipPath>
	<circle class="st24" cx="455.5" cy="223.1" r="2.6"/>
</g>
<g>
	<defs>
		<rect id="SVGID_39_" width="620" height="300"/>
	</defs>
	<clipPath id="SVGID_40_">
		<use xlink:href="#SVGID_39_"  style="overflow:visible;"/>
	</clipPath>
	<circle class="st25" cx="133.8" cy="163.8" r="4.2"/>
</g>
<g>
	<defs>
		<rect id="SVGID_41_" width="620" height="300"/>
	</defs>
	<clipPath id="SVGID_42_">
		<use xlink:href="#SVGID_41_"  style="overflow:visible;"/>
	</clipPath>
	<circle class="st26" cx="333.5" cy="12.5" r="2.7"/>
</g>
</svg>
