<?xml version="1.0" encoding="utf-8"?>
<!-- Generator: Adobe Illustrator 19.2.1, SVG Export Plug-In . SVG Version: 6.00 Build 0)  -->
<svg version="1.1" xmlns="http://www.w3.org/2000/svg" xmlns:xlink="http://www.w3.org/1999/xlink" x="0px" y="0px"
	 viewBox="0 0 620 300" style="enable-background:new 0 0 620 300;" xml:space="preserve">
<g id="back">
</g>
<g id="Layer_2">
	
		<rect x="165.8" y="94.6" transform="matrix(0.9686 -0.2487 0.2487 0.9686 -24.1745 80.7598)" style="fill:#8D70BA;" width="283.3" height="82.9"/>
	
		<rect x="164.1" y="94.8" transform="matrix(0.9686 -0.2487 0.2487 0.9686 -22.5758 80.1267)" style="fill:#A07DC9;" width="283.3" height="69.2"/>
	
		<rect x="416.1" y="140" transform="matrix(0.9686 -0.2487 0.2487 0.9686 -23.6234 110.3284)" style="fill:#D19A39;" width="17.4" height="17.4"/>
	
		<rect x="380.4" y="149.1" transform="matrix(0.9686 -0.2487 0.2487 0.9686 -27.0223 101.7454)" style="fill:#D19A39;" width="17.4" height="17.4"/>
	
		<rect x="344.8" y="158.3" transform="matrix(0.9686 -0.2487 0.2487 0.9686 -30.4212 93.1624)" style="fill:#D19A39;" width="17.4" height="17.4"/>
	
		<rect x="309.1" y="167.4" transform="matrix(0.9686 -0.2487 0.2487 0.9686 -33.8201 84.5795)" style="fill:#D19A39;" width="17.4" height="17.4"/>
	
		<rect x="273.4" y="176.6" transform="matrix(0.9686 -0.2487 0.2487 0.9686 -37.219 75.9965)" style="fill:#D19A39;" width="17.4" height="17.4"/>
	
		<rect x="237.8" y="185.8" transform="matrix(0.9686 -0.2487 0.2487 0.9686 -40.6179 67.4135)" style="fill:#D19A39;" width="17.4" height="17.4"/>
	
		<rect x="202.1" y="194.9" transform="matrix(0.9686 -0.2487 0.2487 0.9686 -44.0168 58.8306)" style="fill:#D19A39;" width="17.4" height="17.4"/>
	
		<rect x="208.4" y="198.8" transform="matrix(0.9686 -0.2487 0.2487 0.9686 -45.8532 59.5578)" style="fill:#E2B150;" width="8.7" height="24.8"/>
	
		<rect x="244.1" y="189.7" transform="matrix(0.9686 -0.2487 0.2487 0.9686 -42.4543 68.1408)" style="fill:#E2B150;" width="8.7" height="24.8"/>
	
		<rect x="279.7" y="180.5" transform="matrix(0.9686 -0.2487 0.2487 0.9686 -39.0554 76.7237)" style="fill:#E2B150;" width="8.7" height="24.8"/>
	
		<rect x="315.4" y="171.4" transform="matrix(0.9686 -0.2487 0.2487 0.9686 -35.6565 85.3067)" style="fill:#E2B150;" width="8.7" height="24.8"/>
	
		<rect x="351.1" y="162.2" transform="matrix(0.9686 -0.2487 0.2487 0.9686 -32.2576 93.8897)" style="fill:#E2B150;" width="8.7" height="24.8"/>
	
		<rect x="386.7" y="153" transform="matrix(0.9686 -0.2487 0.2487 0.9686 -28.8587 102.4726)" style="fill:#E2B150;" width="8.7" height="24.8"/>
	
		<rect x="422.4" y="143.9" transform="matrix(0.9686 -0.2487 0.2487 0.9686 -25.4598 111.0556)" style="fill:#E2B150;" width="8.7" height="24.8"/>
	<polygon style="fill:#A185C9;" points="177.5,197.9 434.7,60.6 451.8,127.2 	"/>
	
		<rect x="267.5" y="100.9" transform="matrix(0.9686 -0.2487 0.2487 0.9686 -22.8602 79.7953)" style="fill:#E2B150;" width="73.6" height="59"/>
	
		<rect x="272.7" y="105" transform="matrix(0.9686 -0.2487 0.2487 0.9686 -22.8602 79.7953)" style="fill:#D19A39;" width="63.3" height="50.7"/>
	<ellipse style="opacity:0.38;fill:#CFC1E5;" cx="307.5" cy="263.1" rx="130" ry="5.6"/>
</g>
</svg>
