<?xml version="1.0" encoding="utf-8"?>
<!-- Generator: Adobe Illustrator 19.2.1, SVG Export Plug-In . SVG Version: 6.00 Build 0)  -->
<svg version="1.1" xmlns="http://www.w3.org/2000/svg" xmlns:xlink="http://www.w3.org/1999/xlink" x="0px" y="0px"
	 viewBox="0 0 620 300" style="enable-background:new 0 0 620 300;" xml:space="preserve">
<style type="text/css">
	.st0{fill:#FFE780;}
	.st1{fill:#E25139;}
	.st2{fill:#C161D1;}
	.st3{fill:#64DDDA;}
	.st4{font-family:'Futura-Medium';}
	.st5{font-size:21.2532px;}
	.st6{fill:#F4F3ED;}
</style>
<g id="back">
	<rect class="st0" width="620" height="300"/>
</g>
<g id="red_x5F_circ">
	<circle class="st1" cx="310.2" cy="152.5" r="57.5"/>
</g>
<g id="purp_x5F_tri">
	<polygon class="st2" points="76,210 191,210 134,95 	"/>
</g>
<g id="turq_x5F_sqr">
	<rect x="429.5" y="95" class="st3" width="115" height="115"/>
</g>
<g id="Layer_5">
	<g>
		<path class="st1" d="M13.2,10.2l2.2,0.8c-0.8,1.8-1.3,3.5-1.6,5c-0.2,0.8-0.3,1.6-0.3,2.4c-0.1,0.9-0.1,1.8-0.1,2.8
			c0,1,0,2,0.1,2.8c0.1,0.9,0.2,1.7,0.3,2.4c0.3,1.5,0.8,3.2,1.6,5l-2.2,0.8c-1.5-3.2-2.3-6.9-2.3-11.1S11.6,13.4,13.2,10.2z"/>
		<path class="st1" d="M17.7,19.8c0-2.6,0.6-4.6,1.8-6.1c1.1-1.4,2.4-2.1,3.9-2.1s2.8,0.7,3.9,2.1c1.2,1.5,1.8,3.6,1.8,6.2
			c0,2.6-0.6,4.7-1.8,6.2c-1.1,1.4-2.4,2.1-3.9,2.1s-2.8-0.7-3.9-2.1C18.3,24.6,17.7,22.5,17.7,19.8z M20,19.8
			c0,1.8,0.3,3.3,0.9,4.4c0.6,1.2,1.4,1.7,2.4,1.7c0.9,0,1.7-0.6,2.4-1.7c0.6-1.1,0.9-2.6,0.9-4.3c0-1.8-0.3-3.2-0.9-4.4
			c-0.6-1.1-1.4-1.7-2.4-1.7c-0.9,0-1.7,0.6-2.3,1.7C20.3,16.7,20,18.1,20,19.8z"/>
		<path class="st1" d="M32.8,25l2.1,0.8l-3,5.9L30.3,31L32.8,25z"/>
		<path class="st1" d="M37.3,19.8c0-2.6,0.6-4.6,1.8-6.1c1.1-1.4,2.4-2.1,3.9-2.1s2.8,0.7,3.9,2.1c1.2,1.5,1.8,3.6,1.8,6.2
			c0,2.6-0.6,4.7-1.8,6.2c-1.1,1.4-2.4,2.1-3.9,2.1s-2.8-0.7-3.9-2.1C37.9,24.6,37.3,22.5,37.3,19.8z M39.7,19.8
			c0,1.8,0.3,3.3,0.9,4.4C41.3,25.4,42,26,43,26c0.9,0,1.7-0.6,2.4-1.7c0.6-1.1,0.9-2.6,0.9-4.3c0-1.8-0.3-3.2-0.9-4.4
			c-0.6-1.1-1.4-1.7-2.4-1.7c-0.9,0-1.7,0.6-2.3,1.7C40,16.7,39.7,18.1,39.7,19.8z"/>
		<path class="st1" d="M53.2,32.4L51,31.6c0.8-1.8,1.3-3.5,1.6-5c0.3-1.5,0.5-3.3,0.5-5.3c0-2-0.2-3.7-0.5-5.2
			c-0.3-1.5-0.8-3.2-1.6-5l2.2-0.8c1.5,3.2,2.3,6.9,2.3,11.1S54.7,29.2,53.2,32.4z"/>
	</g>
	<text transform="matrix(1 0 0 1 37.8606 157.6237)" class="st1 st4 st5">y</text>
	<text transform="matrix(1 0 0 1 303.512 39.4996)" class="st1 st4 st5">x</text>
	<rect x="73.2" y="19.9" class="st6" width="511.8" height="3.3"/>
	<polygon class="st6" points="585,14.6 585,28.4 598.8,21.6 	"/>
	
		<rect x="-82.3" y="160.3" transform="matrix(6.265637e-11 1 -1 6.265637e-11 191.8847 131.9186)" class="st6" width="224.6" height="3.3"/>
	<polygon class="st6" points="36.9,271 23.1,271 29.9,284.8 	"/>
</g>
</svg>
