<?xml version="1.0" encoding="utf-8"?>
<!-- Generator: Adobe Illustrator 19.2.1, SVG Export Plug-In . SVG Version: 6.00 Build 0)  -->
<svg version="1.1" id="snap-logo" xmlns="http://www.w3.org/2000/svg" xmlns:xlink="http://www.w3.org/1999/xlink" x="0px" y="0px"
	 viewBox="0 0 620 300" style="enable-background:new 0 0 620 300;" xml:space="preserve">
<style type="text/css">
	.st0{fill:url(#bottom_1_);stroke:url(#bottom_2_);}
	.st1{fill:url(#right_1_);stroke:url(#right_2_);}
	.st2{fill:url(#left_1_);stroke:url(#left_2_);}
	.st3{fill:url(#top_1_);stroke:url(#top_2_);}
</style>
<linearGradient id="bottom_1_" gradientUnits="userSpaceOnUse" x1="366.0018" y1="-237.1504" x2="366.0018" y2="-434.0513" gradientTransform="matrix(1 0 0 -1 -71 -184.5)">
	<stop  offset="0" style="stop-color:#002E3B"/>
	<stop  offset="1" style="stop-color:#002639"/>
</linearGradient>
<linearGradient id="bottom_2_" gradientUnits="userSpaceOnUse" x1="365.9991" y1="-236.2584" x2="365.9991" y2="-434.1545" gradientTransform="matrix(1 0 0 -1 -71 -184.5)">
	<stop  offset="0" style="stop-color:#002E3B"/>
	<stop  offset="1" style="stop-color:#002639"/>
</linearGradient>
<polygon id="bottom" class="st0" points="294.9,221.4 266.3,207.4 266.4,207.4 266.4,207.4 236,222.2 295,251 354,222.3 
	323.5,207.2 "/>
<radialGradient id="right_1_" cx="326.4402" cy="-208.6476" r="325.9299" gradientTransform="matrix(1 0 0 -1 -71 -184.5)" gradientUnits="userSpaceOnUse">
	<stop  offset="0" style="stop-color:#00BC85"/>
	<stop  offset="1" style="stop-color:#149D91"/>
</radialGradient>
<radialGradient id="right_2_" cx="326.3726" cy="-208.3191" r="326.5516" gradientTransform="matrix(1 0 0 -1 -71 -184.5)" gradientUnits="userSpaceOnUse">
	<stop  offset="0" style="stop-color:#00BC85"/>
	<stop  offset="1" style="stop-color:#149D91"/>
</radialGradient>
<polygon id="right" class="st1" points="354,163.9 354,83.7 327.4,100.4 327.4,147.2 327.4,147.2 327.4,147.2 236.1,192.7 
	236.1,222.3 "/>
<radialGradient id="left_1_" cx="320.5993" cy="-212.1417" r="404.713" gradientTransform="matrix(1 0 0 -1 -71 -184.5)" gradientUnits="userSpaceOnUse">
	<stop  offset="0" style="stop-color:#004473"/>
	<stop  offset="1" style="stop-color:#00345F"/>
</radialGradient>
<radialGradient id="left_2_" cx="320.5217" cy="-211.8219" r="405.4715" gradientTransform="matrix(1 0 0 -1 -71 -184.5)" gradientUnits="userSpaceOnUse">
	<stop  offset="0" style="stop-color:#004473"/>
	<stop  offset="1" style="stop-color:#00345F"/>
</radialGradient>
<polygon id="left" class="st2" points="354,222.3 354,222.3 354,192.7 262.7,147.2 262.7,100.4 236.1,83.7 236.1,163.9 "/>
<linearGradient id="top_1_" gradientUnits="userSpaceOnUse" x1="365.9396" y1="-238.1536" x2="365.9396" y2="-434.0586" gradientTransform="matrix(1 0 0 -1 -71 -184.5)">
	<stop  offset="0" style="stop-color:#002E3B"/>
	<stop  offset="1" style="stop-color:#002639"/>
</linearGradient>
<linearGradient id="top_2_" gradientUnits="userSpaceOnUse" x1="366.2045" y1="-238.0368" x2="366.2045" y2="-434.91" gradientTransform="matrix(1 0 0 -1 -71 -184.5)">
	<stop  offset="0" style="stop-color:#002E3B"/>
	<stop  offset="1" style="stop-color:#002639"/>
</linearGradient>
<polygon id="top" class="st3" points="262.6,100.3 262.6,100.3 295,84.5 327.3,100.3 353.9,83.7 294.9,54.9 236,83.7 236,83.7 
	262.6,100.3 "/>
</svg>
