<?xml version="1.0" encoding="utf-8"?>
<!-- Generator: Adobe Illustrator 23.0.6, SVG Export Plug-In . SVG Version: 6.00 Build 0)  -->
<svg version="1.1" id="Layer_1" xmlns="http://www.w3.org/2000/svg" xmlns:xlink="http://www.w3.org/1999/xlink" x="0px" y="0px"
	 viewBox="0 0 620 300" style="enable-background:new 0 0 620 300;" xml:space="preserve">
<style type="text/css">
	.st0{opacity:0.8;fill:none;stroke:#93E2E2;stroke-width:3;stroke-miterlimit:10;enable-background:new    ;}
	.st1{opacity:0.4;fill:#93E2E2;enable-background:new    ;}
	.st2{opacity:0.5;fill:#EF3F54;enable-background:new    ;}
	.st3{fill:none;stroke:#DEE2E2;stroke-width:3;stroke-linecap:round;stroke-linejoin:round;}
	.st4{fill:#93E2E2;}
	.st5{font-family:'Hack-Bold';}
	.st6{font-size:12px;}
	.st7{fill:none;stroke:#DEE2E2;stroke-width:3;stroke-linecap:round;stroke-linejoin:round;stroke-dasharray:10.3531,10.3531;}
	.st8{enable-background:new    ;}
</style>
<g id="Layer_3_1_">
</g>
<rect x="185.4" y="67.1" class="st0" width="135.4" height="171.7"/>
<g>
	<rect x="193.1" y="99" class="st1" width="120" height="131.7"/>
	<rect x="193.1" y="75.3" class="st2" width="120" height="16.7"/>
</g>
<polyline class="st3" points="165.5,67.1 150.1,67.1 150.1,238.9 165.5,238.9 "/>
<line class="st3" x1="150.1" y1="153" x2="109.9" y2="153"/>
<rect x="347" y="67.1" class="st0" width="135.4" height="91.5"/>
<rect x="354.7" y="126.9" class="st1" width="120" height="24.2"/>
<rect x="354.7" y="75.3" class="st2" width="120" height="43.7"/>
<polyline class="st3" points="253.1,202.3 253.1,273.2 292.5,273.2 "/>
<text transform="matrix(1 0 0 1 20.2943 157.4503)" class="st4 st5 st6">Deep Class</text>
<text transform="matrix(1 0 0 1 309.9999 277.6089)" class="st4 st5 st6">useful functionality (benefit) </text>
<polyline class="st3" points="253.1,83.7 253.1,23.6 292.5,23.6 "/>
<text transform="matrix(1 0 0 1 305.8563 26.8511)" class="st4 st5 st6">interface user needs to know (cost) </text>
<line class="st3" x1="414.7" y1="256.6" x2="414.7" y2="139"/>
<path class="st7" d="M414.7,49.3"/>
<line class="st3" x1="414.7" y1="96.3" x2="414.7" y2="41"/>
<polyline class="st3" points="493.5,67.1 510.2,67.1 510.2,158.6 493.5,158.6 "/>
<line class="st3" x1="510.2" y1="112.9" x2="526.5" y2="112.9"/>
<text transform="matrix(1 0 0 1 542.9458 112.8688)" class="st8"><tspan x="0" y="0" class="st4 st5 st6">shallow</tspan><tspan x="0" y="14.4" class="st4 st5 st6">class</tspan></text>
</svg>
