<?xml version="1.0" encoding="utf-8"?>
<!-- Generator: Adobe Illustrator 23.0.6, SVG Export Plug-In . SVG Version: 6.00 Build 0)  -->
<svg version="1.1" xmlns="http://www.w3.org/2000/svg" xmlns:xlink="http://www.w3.org/1999/xlink" x="0px" y="0px"
	 viewBox="0 0 620 300" style="enable-background:new 0 0 620 300;" xml:space="preserve">
<style type="text/css">
	.st0{opacity:0.2;}
	.st1{fill:#EFEFE6;}
	.st2{fill:#ED96A8;}
	.st3{fill:#F4D556;}
	.st4{fill:#7FDDDD;}
	.st5{fill:#597A7C;}
	.st6{fill:#EF6F90;}
	.st7{fill:#9CE5E3;}
	.st8{fill:#EDEBEC;}
	.st9{fill:#52AECE;}
	.st10{fill:#FFFFFF;}
</style>
<g id="Layer_1">
	<g class="st0">
		<g id="background">
			<rect class="st1" width="620" height="300"/>
		</g>
	</g>
</g>
<g id="Layer_2">
	<rect x="205.2" y="47.7" class="st2" width="88.7" height="88.7"/>
	<rect x="205.2" y="163.6" class="st3" width="88.7" height="88.7"/>
	<rect x="86.1" y="47.7" class="st4" width="88.7" height="88.7"/>
	<rect x="86.1" y="163.6" class="st5" width="88.7" height="88.7"/>
	<rect x="445.2" y="47.7" class="st6" width="88.7" height="88.7"/>
	<rect x="445.2" y="163.6" class="st7" width="88.7" height="88.7"/>
	<rect x="325.2" y="47.7" class="st8" width="88.7" height="88.7"/>
	<rect x="325.2" y="163.6" class="st9" width="88.7" height="88.7"/>
</g>
<g id="Layer_3">
	<g>
		<path class="st10" d="M241.4,79.6V66.2h13.4v13.4H241.4z M241.4,107.5V94.2h13.4v11.1c0,6.9-0.9,11.4-2.6,13.5
			c-1.7,2.1-5.1,3.2-10,3.2h-0.7v-4.5h0.5c2.3,0,3.7-0.8,4.2-2.4c0.4-1.2,0.6-3.8,0.6-7.6H241.4z"/>
	</g>
	<g>
		<path class="st10" d="M243.9,207.3v16.2h-16.2v-12.5c0-7.2,1.2-12.1,3.5-14.8c2.3-2.7,6.2-4,11.8-4h0.9v5.8h-0.7
			c-2.4,0-4,0.8-4.6,2.4c-0.6,1.2-0.9,3.5-1,6.9H243.9z M271.3,207.3v16.2h-16.2v-12.5c0-7.2,1.2-12.1,3.5-14.8
			c2.3-2.7,6.2-4,11.8-4h0.9v5.8h-0.7c-2.4,0-4,0.8-4.6,2.4c-0.6,1.2-0.9,3.5-1,6.9H271.3z"/>
	</g>
	<g>
		<path class="st10" d="M472.2,218.4h-9.8V217c0-6.7,1.3-11.8,4-15.3c2.7-3.5,6.4-5.3,11.2-5.3c3.8,0,8,1.7,12.6,5.1l3.8,2.8
			c3,2.5,5.3,3.7,7,3.7c3.8,0,5.8-3.9,5.9-11.7h9.8v1.4c0.1,3.2-0.2,6.2-1,9.1c-1.1,3.7-2.8,6.6-5.3,8.6c-2.4,1.9-5.3,2.9-8.7,2.9
			c-3.8,0-8-1.7-12.6-5.1l-3.7-2.8c-2.9-2.5-5.2-3.7-7-3.7C474.4,206.7,472.4,210.6,472.2,218.4z"/>
	</g>
	<g>
		<path class="st10" d="M379.7,234.7l-2.2-3.2c-3.2,3-7.2,4.5-12,4.5c-4.8,0-8.7-1.5-11.6-4.5c-3-3-4.4-6.9-4.4-11.8
			c0-5.1,1.5-9.3,4.4-12.6c1.7-2,4.2-3.8,7.4-5.5c-2.5-4.9-3.7-8.8-3.7-11.6c0-3.1,1.1-5.8,3.3-7.8c2.2-2.1,5-3.1,8.3-3.1
			c3.3,0,5.9,1.1,8,3.3c2.1,2.2,3.1,4.9,3.1,8.2c0,3.1-1.1,6-3.4,8.6c-1.4,1.6-3.4,3.3-6.1,5.1c2.5,5.5,5.5,11,9,16.4
			c1.5-2.9,2.2-5,2.2-6.5v-0.4h-2.7v-6.2H392v6.2h-3.9c0,3.1-1.7,7.1-5,11.9l2.1,2.6h4.6v6.3H379.7z M373.9,226.7
			c-4.3-7.1-7.8-13.5-10.3-19.3c-3.7,2.1-5.5,5.3-5.5,9.7c0,3.2,1,6,2.9,8.3c2.2,1.9,4.7,2.8,7.5,2.8
			C370.6,228.2,372.4,227.7,373.9,226.7z M368.4,198.7c2.6-3,4-6,4-8.8c0-3-1.2-4.5-3.5-4.5c-2.4,0-3.6,1.4-3.6,4.1
			c0,1.7,0.9,4.5,2.7,8.2C368.1,198,368.2,198.3,368.4,198.7z"/>
	</g>
	<g>
		<path class="st10" d="M126,218.4l-2.6-26.7v-10.8h11.6v10.8l-2.7,26.7H126z M123.7,235v-9.4h10.8v9.4H123.7z"/>
	</g>
	<g>
		<path class="st10" d="M481.1,118.7c-1.2,0-2.3-0.2-3.3-0.5c-1-0.4-1.9-0.9-2.6-1.5c-0.8-0.6-1.4-1.3-2-2.2c-0.6-0.8-1-1.7-1.4-2.7
			c-0.4-0.9-0.6-1.9-0.8-2.9c-0.2-1-0.3-2-0.3-2.9v-4.4c0-2.5-0.6-4.3-1.8-5.4c-1.2-1.1-3-1.7-5.4-1.7v-4.8c2.4,0,4.2-0.6,5.4-1.7
			c1.2-1.1,1.8-2.9,1.8-5.5v-4.4c0-0.9,0.1-1.9,0.2-2.9c0.2-1,0.4-2,0.7-2.9c0.3-0.9,0.8-1.8,1.3-2.6c0.5-0.8,1.2-1.5,2-2.2
			c0.8-0.6,1.7-1.1,2.7-1.5c1-0.4,2.1-0.5,3.4-0.5l0.7,3.8c-1.2,0-2.1,0.2-2.8,0.8c-0.7,0.5-1.2,1.2-1.5,2.1
			c-0.3,0.9-0.5,1.8-0.6,2.9c-0.1,1.1-0.1,2.1-0.1,3.1v4.4c0,2.2-0.5,4.1-1.5,5.7c-1,1.7-2.6,2.9-4.8,3.8c2.2,0.9,3.8,2.1,4.8,3.8
			c1,1.6,1.5,3.5,1.5,5.7v4.4c0,1,0.1,2.1,0.2,3.1c0.1,1.1,0.4,2,0.8,2.9c0.4,0.9,0.9,1.5,1.5,2.1c0.6,0.5,1.4,0.8,2.4,0.8
			L481.1,118.7z"/>
		<path class="st10" d="M497.3,114.9c1,0,1.8-0.2,2.4-0.8c0.6-0.5,1.1-1.2,1.5-2.1c0.4-0.9,0.6-1.8,0.8-2.9c0.1-1.1,0.2-2.1,0.2-3.1
			v-4.4c0-2.1,0.5-4,1.5-5.7c1-1.7,2.6-2.9,4.7-3.8c-2.1-0.9-3.7-2.2-4.7-3.8c-1-1.7-1.5-3.6-1.5-5.7v-4.4c0-1,0-2.1-0.1-3.1
			c-0.1-1.1-0.2-2-0.6-2.9c-0.3-0.9-0.8-1.5-1.5-2.1c-0.7-0.5-1.6-0.8-2.8-0.8l0.7-3.8c1.3,0,2.4,0.2,3.4,0.5c1,0.4,1.9,0.9,2.7,1.5
			c0.8,0.6,1.4,1.3,2,2.2c0.5,0.8,1,1.7,1.3,2.6c0.3,0.9,0.6,1.9,0.7,2.9c0.2,1,0.2,2,0.2,2.9v4.4c0,2.5,0.6,4.4,1.8,5.5
			c1.2,1.1,3,1.7,5.4,1.7v4.8c-2.4,0-4.3,0.6-5.4,1.7c-1.2,1.1-1.8,2.9-1.8,5.4v4.4c0,0.9-0.1,1.9-0.3,2.9c-0.2,1-0.4,2-0.8,2.9
			c-0.4,0.9-0.8,1.8-1.4,2.7c-0.6,0.8-1.2,1.6-2,2.2c-0.8,0.6-1.6,1.1-2.6,1.5c-1,0.4-2.1,0.5-3.3,0.5L497.3,114.9z"/>
	</g>
	<g>
		<path class="st10" d="M366.5,94l-14.1-3.5l2.3-7.2l13.5,5.9l-1.2-15.6h7.5l-1.3,15.9l13.4-5.7L389,91l-14.3,3.3l9.6,11.9l-6.1,4.5
			l-7.7-13.5l-7.6,13.1l-6.2-4.3L366.5,94z"/>
	</g>
	<g>
		<path class="st10" d="M108.1,74.4c0-1.4,0.2-2.7,0.6-4c0.4-1.2,1.1-2.3,1.9-3.3c0.9-0.9,1.9-1.7,3.2-2.2c1.3-0.5,2.7-0.8,4.4-0.8
			s3.2,0.3,4.4,0.8c1.3,0.5,2.3,1.3,3.2,2.2c0.8,0.9,1.5,2,1.9,3.3s0.6,2.6,0.6,4v2.8c0,1.4-0.2,2.7-0.6,3.9s-1.1,2.3-1.9,3.3
			c-0.8,0.9-1.9,1.7-3.2,2.2c-1.3,0.5-2.7,0.8-4.4,0.8c-1.7,0-3.2-0.3-4.4-0.8c-1.3-0.5-2.3-1.3-3.2-2.2c-0.9-0.9-1.5-2-1.9-3.3
			s-0.7-2.5-0.7-3.9V74.4z M114.3,77.2c0,0.7,0.1,1.3,0.2,1.9s0.4,1.1,0.7,1.6c0.3,0.5,0.8,0.8,1.3,1.1c0.5,0.3,1.1,0.4,1.9,0.4
			c0.7,0,1.4-0.1,1.9-0.4c0.5-0.3,0.9-0.6,1.2-1.1c0.3-0.5,0.5-1,0.7-1.6s0.2-1.2,0.2-1.9v-2.8c0-0.7-0.1-1.3-0.2-1.9
			s-0.4-1.1-0.7-1.6c-0.3-0.5-0.7-0.8-1.2-1.1c-0.5-0.3-1.1-0.4-1.9-0.4c-0.7,0-1.4,0.1-1.9,0.4c-0.5,0.3-0.9,0.6-1.2,1.1
			c-0.3,0.5-0.5,1-0.7,1.6s-0.2,1.2-0.2,1.9V77.2z M121.7,111l-4.7-2.3L137.6,71l4.7,2.3L121.7,111z M129.8,105.8
			c0-1.4,0.2-2.7,0.6-4c0.4-1.2,1.1-2.3,1.9-3.3c0.9-0.9,1.9-1.7,3.2-2.2c1.3-0.5,2.7-0.8,4.4-0.8s3.2,0.3,4.4,0.8
			c1.3,0.5,2.3,1.3,3.2,2.2c0.8,0.9,1.5,2,1.9,3.3s0.6,2.6,0.6,4v2.9c0,1.4-0.2,2.7-0.6,4s-1.1,2.3-1.9,3.3
			c-0.8,0.9-1.9,1.7-3.1,2.2s-2.7,0.8-4.4,0.8s-3.2-0.3-4.4-0.8c-1.3-0.5-2.4-1.3-3.2-2.2c-0.9-0.9-1.5-2-1.9-3.3
			c-0.4-1.2-0.6-2.6-0.6-4V105.8z M135.9,108.7c0,0.7,0.1,1.3,0.2,1.9s0.4,1.1,0.7,1.6c0.3,0.5,0.8,0.8,1.3,1.1
			c0.5,0.3,1.2,0.4,1.9,0.4c0.8,0,1.4-0.1,1.9-0.4c0.5-0.3,0.9-0.6,1.2-1.1c0.3-0.5,0.5-1,0.6-1.6c0.1-0.6,0.2-1.2,0.2-1.9v-2.9
			c0-0.6-0.1-1.3-0.2-1.8s-0.4-1.1-0.7-1.6c-0.3-0.5-0.7-0.8-1.2-1.1c-0.5-0.3-1.1-0.4-1.9-0.4c-0.8,0-1.4,0.1-1.9,0.4
			c-0.5,0.3-0.9,0.6-1.2,1.1c-0.3,0.5-0.5,1-0.7,1.6c-0.1,0.6-0.2,1.2-0.2,1.8V108.7z"/>
	</g>
</g>
</svg>
