<?xml version="1.0" encoding="utf-8"?>
<!-- Generator: Adobe Illustrator 19.2.1, SVG Export Plug-In . SVG Version: 6.00 Build 0)  -->
<svg version="1.1" xmlns="http://www.w3.org/2000/svg" xmlns:xlink="http://www.w3.org/1999/xlink" x="0px" y="0px"
	 viewBox="0 0 620 300" style="enable-background:new 0 0 620 300;" xml:space="preserve">
<style type="text/css">
	.st0{fill:#F2D55A;}
	.st1{display:none;}
	.st2{display:inline;opacity:7.000000e-02;fill:#FFFFFF;}
	.st3{font-family:'MyriadPro-Regular';}
	.st4{font-size:200px;}
	.st5{fill:#192339;}
	.st6{fill:#283449;}
	.st7{fill:#F2F3F4;}
	.st8{fill:#C42935;}
	.st9{fill:#EEA42A;}
	.st10{fill:#3F816F;}
	.st11{fill:#8ED6D3;}
	.st12{fill:#E58A28;}
	.st13{fill:#EAD934;}
	.st14{fill:#F9F2F5;}
</style>
<g id="Layer_1">
	<rect class="st0" width="620" height="300"/>
</g>
<g id="Layer_3" class="st1">
	<text transform="matrix(1 0 0 1 255.6523 214.8513)" class="st2 st3 st4">V</text>
</g>
<g id="Layer_2">
	<rect x="135.8" y="56.9" class="st5" width="370.4" height="210.8"/>
	<rect x="122.8" y="70.5" class="st6" width="370.4" height="184.9"/>
	<rect x="122.8" y="44.6" class="st7" width="370.4" height="26"/>
</g>
<g id="Layer_4">
	<circle class="st8" cx="139.3" cy="57.6" r="4.7"/>
	<circle class="st9" cx="157" cy="57.6" r="4.7"/>
	<circle class="st10" cx="173.4" cy="57.6" r="4.7"/>
</g>
<g id="Layer_5">
	<g>
		<path class="st8" d="M142.1,93.9c0,1.2-0.3,2.1-0.8,2.7s-1.5,0.8-2.7,0.8c-0.4,0-0.8,0-1.2-0.1s-0.8-0.2-1.3-0.3v-1.8
			c0.4,0.2,0.8,0.4,1.2,0.5s0.8,0.2,1.2,0.2c0.6,0,1-0.1,1.3-0.4s0.4-0.7,0.4-1.2v-0.8c-0.2,0.4-0.5,0.6-0.8,0.8s-0.7,0.3-1.2,0.3
			c-0.9,0-1.6-0.3-2.1-1s-0.8-1.6-0.8-2.8c0-1.2,0.3-2.2,0.8-2.9s1.2-1.1,2.1-1.1c0.4,0,0.8,0.1,1.2,0.3s0.6,0.5,0.8,0.9v-1h2V93.9z
			 M140.1,90.5c0-0.7-0.1-1.2-0.4-1.6s-0.6-0.6-1-0.6c-0.4,0-0.8,0.2-1,0.6s-0.4,1-0.4,1.6c0,0.7,0.1,1.2,0.4,1.7s0.6,0.6,1,0.6
			c0.4,0,0.8-0.2,1-0.6S140.1,91.2,140.1,90.5z"/>
		<path class="st8" d="M150.9,88.9c-0.2-0.2-0.5-0.4-0.8-0.5s-0.6-0.2-1-0.2c-0.4,0-0.8,0.1-1.1,0.2s-0.6,0.4-0.7,0.6
			c-0.1,0.2-0.2,0.4-0.2,0.6s-0.1,0.6-0.1,1.1v3.5h-2v-7.7h2V88c0.2-0.4,0.5-0.8,0.9-1s0.9-0.4,1.4-0.4c0.3,0,0.5,0,0.8,0.1
			s0.5,0.2,0.7,0.3V88.9z"/>
		<path class="st8" d="M159,94.1c-0.5,0.2-0.9,0.3-1.4,0.4s-1,0.1-1.5,0.1c-1.3,0-2.3-0.3-2.9-1s-1-1.7-1-3c0-1.2,0.3-2.2,1-3
			s1.5-1.1,2.7-1.1c1.1,0,2,0.3,2.6,1s0.9,1.6,0.9,2.8v0.8h-5.2c0,0.6,0.2,1.1,0.5,1.3s0.9,0.4,1.6,0.4c0.5,0,0.9-0.1,1.4-0.2
			s0.9-0.3,1.4-0.6V94.1z M157.3,89.8c0-0.5-0.1-0.9-0.4-1.2s-0.6-0.4-1.2-0.4c-0.5,0-0.8,0.1-1.1,0.4s-0.4,0.7-0.5,1.2L157.3,89.8z
			"/>
		<path class="st8" d="M167.3,93.9c0,1.2-0.3,2.1-0.8,2.7s-1.5,0.8-2.7,0.8c-0.4,0-0.8,0-1.2-0.1s-0.8-0.2-1.3-0.3v-1.8
			c0.4,0.2,0.8,0.4,1.2,0.5s0.8,0.2,1.2,0.2c0.6,0,1-0.1,1.3-0.4s0.4-0.7,0.4-1.2v-0.8c-0.2,0.4-0.5,0.6-0.8,0.8s-0.7,0.3-1.2,0.3
			c-0.9,0-1.6-0.3-2.1-1s-0.8-1.6-0.8-2.8c0-1.2,0.3-2.2,0.8-2.9s1.2-1.1,2.1-1.1c0.4,0,0.8,0.1,1.2,0.3s0.6,0.5,0.8,0.9v-1h2V93.9z
			 M165.3,90.5c0-0.7-0.1-1.2-0.4-1.6s-0.6-0.6-1-0.6c-0.4,0-0.8,0.2-1,0.6s-0.4,1-0.4,1.6c0,0.7,0.1,1.2,0.4,1.7s0.6,0.6,1,0.6
			c0.4,0,0.8-0.2,1-0.6S165.3,91.2,165.3,90.5z"/>
		<path class="st8" d="M169,90.6c0-1.2,0.3-2.2,1-2.9s1.5-1.1,2.6-1.1c1.1,0,1.9,0.4,2.6,1.1s1,1.7,1,2.9s-0.3,2.2-1,2.9
			s-1.5,1.1-2.6,1.1c-1.1,0-1.9-0.4-2.6-1.1S169,91.9,169,90.6z M172.5,88.2c-0.5,0-0.9,0.2-1.1,0.6s-0.4,1-0.4,1.8s0.1,1.3,0.4,1.8
			s0.6,0.6,1.1,0.6c0.5,0,0.9-0.2,1.1-0.6s0.4-1,0.4-1.8s-0.1-1.3-0.4-1.8S173,88.2,172.5,88.2z"/>
		<path class="st8" d="M184.6,88.9c-0.2-0.2-0.5-0.4-0.8-0.5s-0.6-0.2-1-0.2c-0.4,0-0.8,0.1-1.1,0.2s-0.6,0.4-0.7,0.6
			c-0.1,0.2-0.2,0.4-0.2,0.6s-0.1,0.6-0.1,1.1v3.5h-2v-7.7h2V88c0.2-0.4,0.5-0.8,0.9-1s0.9-0.4,1.4-0.4c0.3,0,0.5,0,0.8,0.1
			s0.5,0.2,0.7,0.3V88.9z"/>
		<path class="st8" d="M190,95.3c-0.3,0.7-0.6,1.2-1,1.6s-0.8,0.5-1.4,0.5H186v-1.5h0.8c0.4,0,0.7-0.1,0.9-0.2s0.4-0.5,0.6-1
			l0.2-0.4l-2.9-7.4h2.1l1.8,5l1.7-5h2.1L190,95.3z"/>
		<path class="st11" d="M209.6,90.1v4.4h-2v-0.9c-0.2,0.3-0.6,0.6-0.9,0.8s-0.8,0.3-1.3,0.3c-0.9,0-1.5-0.2-2-0.7s-0.7-1.1-0.7-1.9
			c0-0.9,0.3-1.6,0.9-2s1.5-0.6,2.7-0.6h1.4v-0.3c0-0.3-0.1-0.6-0.4-0.7s-0.6-0.2-1-0.2c-0.5,0-0.9,0.1-1.4,0.2s-0.9,0.3-1.4,0.6
			v-1.7c0.4-0.2,0.9-0.3,1.3-0.4s0.9-0.1,1.4-0.1c1.2,0,2.1,0.3,2.6,0.8S209.6,88.8,209.6,90.1z M206.8,90.9c-0.7,0-1.3,0.1-1.6,0.3
			s-0.4,0.5-0.4,1c0,0.3,0.1,0.6,0.3,0.8s0.5,0.3,0.8,0.3c0.5,0,0.9-0.2,1.2-0.6s0.4-1,0.4-1.7v-0.1H206.8z"/>
		<path class="st11" d="M215.1,84.6v2.2h2.6v1.5h-2.6V92c0,0.3,0.1,0.6,0.2,0.7s0.4,0.2,0.8,0.2h1.5v1.5h-1.7
			c-1.1,0-1.9-0.2-2.3-0.6s-0.6-1-0.6-2v-3.5h-2v-1.5h2v-2.2H215.1z"/>
		<path class="st12" d="M228.5,83.8h2v5.6l2.4-2.6h2.4l-2.9,2.9l3.1,4.8h-2.2l-2.1-3.6l-0.7,0.7v2.9h-2V83.8z"/>
		<path class="st12" d="M243.2,94.1c-0.5,0.2-0.9,0.3-1.4,0.4s-1,0.1-1.5,0.1c-1.3,0-2.3-0.3-2.9-1s-1-1.7-1-3c0-1.2,0.3-2.2,1-3
			s1.5-1.1,2.7-1.1c1.1,0,2,0.3,2.6,1s0.9,1.6,0.9,2.8v0.8h-5.2c0,0.6,0.2,1.1,0.5,1.3s0.9,0.4,1.6,0.4c0.5,0,0.9-0.1,1.4-0.2
			s0.9-0.3,1.4-0.6V94.1z M241.5,89.8c0-0.5-0.1-0.9-0.4-1.2s-0.6-0.4-1.2-0.4c-0.5,0-0.8,0.1-1.1,0.4s-0.4,0.7-0.5,1.2L241.5,89.8z
			"/>
		<path class="st12" d="M247.2,93.4v4h-2V86.8h2V88c0.2-0.4,0.5-0.8,0.8-1s0.7-0.3,1.2-0.3c0.9,0,1.6,0.4,2,1.1s0.7,1.7,0.7,3
			c0,1.3-0.2,2.3-0.7,3s-1.2,1-2.1,1c-0.4,0-0.8-0.1-1.1-0.3S247.4,93.8,247.2,93.4z M250,90.6c0-0.7-0.1-1.3-0.4-1.7
			s-0.6-0.6-1-0.6s-0.8,0.2-1,0.6s-0.4,1-0.4,1.7s0.1,1.3,0.4,1.7s0.6,0.6,1,0.6s0.8-0.2,1-0.6S250,91.4,250,90.6z"/>
		<path class="st12" d="M255.2,91.3v-5.9h-2v-1.5h4v7.4c0,0.6,0.1,1,0.3,1.3s0.5,0.4,1,0.4h1.6v1.5h-2.2c-1,0-1.6-0.2-2.1-0.7
			S255.2,92.4,255.2,91.3z"/>
		<path class="st12" d="M268.5,94.1c-0.5,0.2-0.9,0.3-1.4,0.4s-1,0.1-1.5,0.1c-1.3,0-2.3-0.3-2.9-1s-1-1.7-1-3c0-1.2,0.3-2.2,1-3
			s1.5-1.1,2.7-1.1c1.1,0,2,0.3,2.6,1s0.9,1.6,0.9,2.8v0.8h-5.2c0,0.6,0.2,1.1,0.5,1.3s0.9,0.4,1.6,0.4c0.5,0,0.9-0.1,1.4-0.2
			s0.9-0.3,1.4-0.6V94.1z M266.8,89.8c0-0.5-0.1-0.9-0.4-1.2s-0.6-0.4-1.2-0.4c-0.5,0-0.8,0.1-1.1,0.4s-0.4,0.7-0.5,1.2L266.8,89.8z
			"/>
		<path class="st12" d="M277.3,88.9c-0.2-0.2-0.5-0.4-0.8-0.5s-0.6-0.2-1-0.2c-0.4,0-0.8,0.1-1.1,0.2s-0.6,0.4-0.7,0.6
			c-0.1,0.2-0.2,0.4-0.2,0.6s-0.1,0.6-0.1,1.1v3.5h-2v-7.7h2V88c0.2-0.4,0.5-0.8,0.9-1s0.9-0.4,1.4-0.4c0.3,0,0.5,0,0.8,0.1
			s0.5,0.2,0.7,0.3V88.9z"/>
		<path class="st11" d="M287.8,86.8h4v6.1h2.5v1.5h-7v-1.5h2.5v-4.6h-2V86.8z M289.8,83.1h2v2.3h-2V83.1z"/>
		<path class="st11" d="M302,89.5v5h-2v-4.7c0-0.6-0.1-1-0.2-1.2s-0.4-0.4-0.8-0.4c-0.4,0-0.6,0.2-0.9,0.5s-0.3,0.8-0.3,1.3v4.4h-2
			v-7.7h2V88c0.1-0.4,0.4-0.8,0.7-1s0.8-0.3,1.2-0.3c0.7,0,1.3,0.2,1.6,0.7S302,88.5,302,89.5z"/>
		<path class="st13" d="M319.8,90.1c-0.4,0.9-0.8,1.6-1.2,1.9c-0.4,0.3-0.8,0.5-1.2,0.5c-0.7,0-1.2-0.4-1.8-1l-1-1.3
			c-0.2-0.2-0.4-0.3-0.7-0.3c-0.3,0-0.5,0.1-0.7,0.4c-0.2,0.3-0.4,0.7-0.6,1.3l-1.1-0.6c0.1-0.5,0.3-0.8,0.5-1.2s0.4-0.6,0.6-0.8
			c0.4-0.4,0.9-0.6,1.3-0.6c0.4,0,0.8,0.1,1.1,0.3c0.3,0.2,0.7,0.6,1,1c0.6,0.9,1,1.3,1.4,1.3c0.3,0,0.5-0.2,0.7-0.5
			c0.1-0.2,0.2-0.4,0.3-0.6s0.2-0.4,0.3-0.7L319.8,90.1z"/>
		<path class="st11" d="M139.3,130.1h-1l0-2.1c-0.4,0-0.8-0.1-1.2-0.2s-0.9-0.3-1.4-0.5v-1.8c0.5,0.3,0.9,0.5,1.4,0.6
			s0.9,0.2,1.2,0.2v-2.2c-0.9-0.2-1.6-0.5-2-0.9s-0.7-1-0.7-1.7c0-0.8,0.2-1.4,0.7-1.8s1.1-0.7,2-0.8v-1.6h1l0,1.6
			c0.3,0,0.7,0.1,1,0.1s0.7,0.2,1.1,0.3v1.8c-0.3-0.2-0.6-0.3-0.9-0.4s-0.7-0.2-1.1-0.2v2.1c0.9,0.1,1.6,0.4,2,0.9s0.7,1.1,0.7,1.9
			c0,0.7-0.2,1.4-0.7,1.8s-1.2,0.7-2,0.8L139.3,130.1z M138.3,122.5v-1.9c-0.3,0-0.5,0.1-0.6,0.3s-0.2,0.4-0.2,0.6
			c0,0.3,0.1,0.5,0.2,0.6S138.1,122.4,138.3,122.5z M139.3,124.5v2.1c0.3,0,0.5-0.2,0.7-0.3s0.2-0.4,0.2-0.7c0-0.3-0.1-0.5-0.2-0.7
			S139.6,124.5,139.3,124.5z"/>
		<path class="st14" d="M158.2,120.6v1.8c-0.4-0.2-0.8-0.4-1.2-0.5s-0.8-0.2-1.2-0.2c-0.4,0-0.8,0.1-1,0.2s-0.3,0.3-0.3,0.6
			c0,0.4,0.5,0.7,1.5,0.9l0.1,0l0.6,0.1c0.7,0.2,1.3,0.5,1.6,0.8s0.5,0.9,0.5,1.6c0,0.8-0.3,1.4-0.8,1.8s-1.3,0.6-2.3,0.6
			c-0.5,0-0.9,0-1.4-0.1s-1-0.2-1.5-0.4V126c0.4,0.3,0.9,0.4,1.4,0.6s0.9,0.2,1.3,0.2c0.5,0,0.8-0.1,1.1-0.2s0.4-0.3,0.4-0.6
			c0-0.3-0.1-0.5-0.3-0.6s-0.6-0.3-1.2-0.4l-0.6-0.1c-0.8-0.2-1.3-0.4-1.7-0.8s-0.5-0.9-0.5-1.5c0-0.7,0.3-1.3,0.8-1.7
			s1.3-0.6,2.2-0.6c0.4,0,0.9,0,1.3,0.1S157.8,120.5,158.2,120.6z"/>
		<path class="st14" d="M160.9,125.4v-5h2v4.7c0,0.6,0.1,0.9,0.2,1.2s0.4,0.4,0.8,0.4s0.6-0.2,0.8-0.5s0.3-0.8,0.3-1.3v-4.4h2v7.7
			h-2v-1.1c-0.1,0.4-0.4,0.8-0.7,1s-0.7,0.3-1.2,0.3c-0.7,0-1.3-0.2-1.7-0.7S160.9,126.3,160.9,125.4z"/>
		<path class="st14" d="M173.7,121.5v-4.1h2v10.6h-2v-1.1c-0.2,0.4-0.5,0.8-0.8,1s-0.7,0.3-1.2,0.3c-0.9,0-1.6-0.4-2-1.1
			s-0.7-1.7-0.7-3c0-1.3,0.2-2.3,0.7-3s1.2-1,2.1-1c0.4,0,0.8,0.1,1.1,0.3S173.4,121.1,173.7,121.5z M170.9,124.3
			c0,0.7,0.1,1.3,0.4,1.7s0.6,0.6,1,0.6s0.8-0.2,1-0.6s0.4-1,0.4-1.7s-0.1-1.3-0.4-1.7s-0.6-0.6-1-0.6s-0.8,0.2-1,0.6
			S170.9,123.5,170.9,124.3z"/>
		<path class="st14" d="M177.4,124.2c0-1.2,0.3-2.2,1-2.9s1.5-1.1,2.6-1.1c1.1,0,1.9,0.4,2.6,1.1s1,1.7,1,2.9s-0.3,2.2-1,2.9
			s-1.5,1.1-2.6,1.1c-1.1,0-1.9-0.4-2.6-1.1S177.4,125.5,177.4,124.2z M180.9,121.8c-0.5,0-0.9,0.2-1.1,0.6s-0.4,1-0.4,1.8
			s0.1,1.3,0.4,1.8s0.6,0.6,1.1,0.6c0.5,0,0.9-0.2,1.1-0.6s0.4-1,0.4-1.8s-0.1-1.3-0.4-1.8S181.4,121.8,180.9,121.8z"/>
		<path class="st14" d="M201.1,123.7v4.4h-2v-0.9c-0.2,0.3-0.6,0.6-0.9,0.8s-0.8,0.3-1.3,0.3c-0.9,0-1.5-0.2-2-0.7s-0.7-1.1-0.7-1.9
			c0-0.9,0.3-1.6,0.9-2s1.5-0.6,2.7-0.6h1.4v-0.3c0-0.3-0.1-0.6-0.4-0.7s-0.6-0.2-1-0.2c-0.5,0-0.9,0.1-1.4,0.2s-0.9,0.3-1.4,0.6
			v-1.7c0.4-0.2,0.9-0.3,1.3-0.4s0.9-0.1,1.4-0.1c1.2,0,2.1,0.3,2.6,0.8S201.1,122.4,201.1,123.7z M198.4,124.5
			c-0.7,0-1.3,0.1-1.6,0.3s-0.4,0.5-0.4,1c0,0.3,0.1,0.6,0.3,0.8s0.5,0.3,0.8,0.3c0.5,0,0.9-0.2,1.2-0.6s0.4-1,0.4-1.7v-0.1H198.4z"
			/>
		<path class="st14" d="M205,127v4h-2v-10.6h2v1.1c0.2-0.4,0.5-0.8,0.8-1s0.7-0.3,1.2-0.3c0.9,0,1.6,0.4,2,1.1s0.7,1.7,0.7,3
			c0,1.3-0.2,2.3-0.7,3s-1.2,1-2.1,1c-0.4,0-0.8-0.1-1.1-0.3S205.3,127.4,205,127z M207.8,124.2c0-0.7-0.1-1.3-0.4-1.7
			s-0.6-0.6-1-0.6s-0.8,0.2-1,0.6s-0.4,1-0.4,1.7s0.1,1.3,0.4,1.7s0.6,0.6,1,0.6s0.8-0.2,1-0.6S207.8,125,207.8,124.2z"/>
		<path class="st14" d="M215.1,118.2v2.2h2.6v1.5h-2.6v3.6c0,0.3,0.1,0.6,0.2,0.7s0.4,0.2,0.8,0.2h1.5v1.5h-1.7
			c-1.1,0-1.9-0.2-2.3-0.6s-0.6-1-0.6-2v-3.5h-2v-1.5h2v-2.2H215.1z"/>
		<path class="st14" d="M219.6,123.1h7.2v1.8h-7.2V123.1z"/>
		<path class="st14" d="M234.8,127.5c0,1.2-0.3,2.1-0.8,2.7s-1.5,0.8-2.7,0.8c-0.4,0-0.8,0-1.2-0.1s-0.8-0.2-1.3-0.3v-1.8
			c0.4,0.2,0.8,0.4,1.2,0.5s0.8,0.2,1.2,0.2c0.6,0,1-0.1,1.3-0.4s0.4-0.7,0.4-1.2v-0.8c-0.2,0.4-0.5,0.6-0.8,0.8s-0.7,0.3-1.2,0.3
			c-0.9,0-1.6-0.3-2.1-1s-0.8-1.6-0.8-2.8c0-1.2,0.3-2.2,0.8-2.9s1.2-1.1,2.1-1.1c0.4,0,0.8,0.1,1.2,0.3s0.6,0.5,0.8,0.9v-1h2V127.5
			z M232.8,124.1c0-0.7-0.1-1.2-0.4-1.6s-0.6-0.6-1-0.6c-0.4,0-0.8,0.2-1,0.6s-0.4,1-0.4,1.6c0,0.7,0.1,1.2,0.4,1.7s0.6,0.6,1,0.6
			c0.4,0,0.8-0.2,1-0.6S232.8,124.8,232.8,124.1z"/>
		<path class="st14" d="M243.2,127.7c-0.5,0.2-0.9,0.3-1.4,0.4s-1,0.1-1.5,0.1c-1.3,0-2.3-0.3-2.9-1s-1-1.7-1-3c0-1.2,0.3-2.2,1-3
			s1.5-1.1,2.7-1.1c1.1,0,2,0.3,2.6,1s0.9,1.6,0.9,2.8v0.8h-5.2c0,0.6,0.2,1.1,0.5,1.3s0.9,0.4,1.6,0.4c0.5,0,0.9-0.1,1.4-0.2
			s0.9-0.3,1.4-0.6V127.7z M241.5,123.4c0-0.5-0.1-0.9-0.4-1.2s-0.6-0.4-1.2-0.4c-0.5,0-0.8,0.1-1.1,0.4s-0.4,0.7-0.5,1.2
			L241.5,123.4z"/>
		<path class="st14" d="M248.9,118.2v2.2h2.6v1.5h-2.6v3.6c0,0.3,0.1,0.6,0.2,0.7s0.4,0.2,0.8,0.2h1.5v1.5h-1.7
			c-1.1,0-1.9-0.2-2.3-0.6s-0.6-1-0.6-2v-3.5h-2v-1.5h2v-2.2H248.9z"/>
		<path class="st14" d="M262.5,120.4h4v6.1h2.5v1.5h-7v-1.5h2.5v-4.6h-2V120.4z M264.5,116.7h2v2.3h-2V116.7z"/>
		<path class="st14" d="M276.7,123.1v5h-2v-4.7c0-0.6-0.1-1-0.2-1.2s-0.4-0.4-0.8-0.4c-0.4,0-0.6,0.2-0.9,0.5s-0.3,0.8-0.3,1.3v4.4
			h-2v-7.7h2v1.1c0.1-0.4,0.4-0.8,0.7-1s0.8-0.3,1.2-0.3c0.7,0,1.3,0.2,1.6,0.7S276.7,122.1,276.7,123.1z"/>
		<path class="st14" d="M284.6,120.6v1.8c-0.4-0.2-0.8-0.4-1.2-0.5s-0.8-0.2-1.2-0.2c-0.4,0-0.8,0.1-1,0.2s-0.3,0.3-0.3,0.6
			c0,0.4,0.5,0.7,1.5,0.9l0.1,0l0.6,0.1c0.7,0.2,1.3,0.5,1.6,0.8s0.5,0.9,0.5,1.6c0,0.8-0.3,1.4-0.8,1.8s-1.3,0.6-2.3,0.6
			c-0.5,0-0.9,0-1.4-0.1s-1-0.2-1.5-0.4V126c0.4,0.3,0.9,0.4,1.4,0.6s0.9,0.2,1.3,0.2c0.5,0,0.8-0.1,1.1-0.2s0.4-0.3,0.4-0.6
			c0-0.3-0.1-0.5-0.3-0.6s-0.6-0.3-1.2-0.4l-0.6-0.1c-0.8-0.2-1.3-0.4-1.7-0.8s-0.5-0.9-0.5-1.5c0-0.7,0.3-1.3,0.8-1.7
			s1.3-0.6,2.2-0.6c0.4,0,0.9,0,1.3,0.1S284.2,120.5,284.6,120.6z"/>
		<path class="st14" d="M291,118.2v2.2h2.6v1.5H291v3.6c0,0.3,0.1,0.6,0.2,0.7s0.4,0.2,0.8,0.2h1.5v1.5h-1.7c-1.1,0-1.9-0.2-2.3-0.6
			s-0.6-1-0.6-2v-3.5h-2v-1.5h2v-2.2H291z"/>
		<path class="st14" d="M302.3,123.7v4.4h-2v-0.9c-0.2,0.3-0.6,0.6-0.9,0.8s-0.8,0.3-1.3,0.3c-0.9,0-1.5-0.2-2-0.7s-0.7-1.1-0.7-1.9
			c0-0.9,0.3-1.6,0.9-2s1.5-0.6,2.7-0.6h1.4v-0.3c0-0.3-0.1-0.6-0.4-0.7s-0.6-0.2-1-0.2c-0.5,0-0.9,0.1-1.4,0.2s-0.9,0.3-1.4,0.6
			v-1.7c0.4-0.2,0.9-0.3,1.3-0.4s0.9-0.1,1.4-0.1c1.2,0,2.1,0.3,2.6,0.8S302.3,122.4,302.3,123.7z M299.5,124.5
			c-0.7,0-1.3,0.1-1.6,0.3s-0.4,0.5-0.4,1c0,0.3,0.1,0.6,0.3,0.8s0.5,0.3,0.8,0.3c0.5,0,0.9-0.2,1.2-0.6s0.4-1,0.4-1.7v-0.1H299.5z"
			/>
		<path class="st14" d="M305.8,124.9V119h-2v-1.5h4v7.4c0,0.6,0.1,1,0.3,1.3s0.5,0.4,1,0.4h1.6v1.5h-2.2c-1,0-1.6-0.2-2.1-0.7
			S305.8,126,305.8,124.9z"/>
		<path class="st14" d="M314.2,124.9V119h-2v-1.5h4v7.4c0,0.6,0.1,1,0.3,1.3s0.5,0.4,1,0.4h1.6v1.5h-2.2c-1,0-1.6-0.2-2.1-0.7
			S314.2,126,314.2,124.9z"/>
		<path class="st14" d="M336.3,120.4l-2.4,7.7h-2.5l-2.4-7.7h2l1.6,6l1.6-6H336.3z"/>
		<path class="st14" d="M338.4,120.4h4v6.1h2.5v1.5h-7v-1.5h2.5v-4.6h-2V120.4z M340.3,116.7h2v2.3h-2V116.7z"/>
		<path class="st14" d="M350,121.2c0.2-0.3,0.3-0.6,0.6-0.7s0.5-0.2,0.9-0.2c0.7,0,1.1,0.2,1.4,0.7c0.3,0.5,0.4,1.4,0.4,2.8v4.3
			h-1.6v-4.9c0-0.6,0-1-0.1-1.1s-0.2-0.3-0.5-0.3s-0.4,0.1-0.5,0.3s-0.1,0.6-0.1,1.1v4.9h-1.6v-4.9c0-0.6,0-0.9-0.1-1.1
			s-0.3-0.3-0.5-0.3s-0.4,0.1-0.5,0.3s-0.1,0.6-0.1,1.1v4.9h-1.6v-7.7h1.5v0.8c0.1-0.3,0.3-0.5,0.5-0.7s0.5-0.3,0.8-0.3
			s0.6,0.1,0.8,0.3S349.9,120.9,350,121.2z"/>
	</g>
</g>
</svg>
