<?xml version="1.0" encoding="utf-8"?>
<!-- Generator: Adobe Illustrator 19.2.1, SVG Export Plug-In . SVG Version: 6.00 Build 0)  -->
<svg version="1.1" xmlns="http://www.w3.org/2000/svg" xmlns:xlink="http://www.w3.org/1999/xlink" x="0px" y="0px"
	 viewBox="0 0 620 300" style="enable-background:new 0 0 620 300;" xml:space="preserve">
<g id="Layer_3">
	<rect x="-0.2" y="-1" style="fill:#E56180;" width="620" height="301"/>
</g>
<g id="Layer_1">
	<g>
		<rect x="228" y="57" style="fill:#C94C79;" width="7" height="170"/>
		<polygon style="fill:#C94C79;" points="255,64 255,71 248,71 248,157 255,157 255,164 371,164 371,157 255,157 255,71 371,71 
			371,64 		"/>
		<rect x="296" y="139" style="fill:#C94C79;" width="27" height="6"/>
		<path style="fill:#C94C79;" d="M241.6,227H235v6.6v19.6v6.9h6.6H384h7v-6.9v-19.6V227h-7H241.6z M384,253H242v-19h142V253z"/>
		<rect x="242" y="44" style="fill:#C94C79;" width="142" height="6"/>
		<rect x="391" y="57" style="fill:#C94C79;" width="6" height="170"/>
		<rect x="371" y="71" style="fill:#C94C79;" width="6" height="86"/>
		<rect x="330" y="193" style="fill:#C94C79;" width="41" height="6"/>
		<rect x="248" y="199" style="fill:#C94C79;" width="14" height="8"/>
		<rect x="330" y="91" style="fill:#C94C79;" width="7" height="13"/>
		<rect x="283" y="91" style="fill:#C94C79;" width="6" height="13"/>
		<polygon style="fill:#C94C79;" points="316.4,125 316,125 316,118 316,118 316,91 309,91 309,118 303,118 303,125 309.2,125 		"/>
		<rect x="323" y="145" style="fill:#C94C79;" width="7" height="7"/>
		<rect x="290" y="145" style="fill:#C94C79;" width="6" height="7"/>
		<rect x="235" y="50" style="fill:#C94C79;" width="7" height="7"/>
		<rect x="384" y="50" style="fill:#C94C79;" width="7" height="7"/>
	</g>
</g>
<g id="Layer_4">
	<g>
		<polygon style="fill:#FDFDFD;" points="252,61 252,68 245,68 245,154 252,154 252,161 368,161 368,154 252,154 252,68 368,68 
			368,61 		"/>
		<rect x="225" y="54" style="fill:#FDFDFD;" width="7" height="170"/>
		<rect x="293" y="136" style="fill:#FDFDFD;" width="27" height="6"/>
		<path style="fill:#FDFDFD;" d="M238.6,224H232v6.6v19.6v6.9h6.6H381h7v-6.9v-19.6V224h-7H238.6z M381,250H239v-19h142V250z"/>
		<rect x="239" y="41" style="fill:#FDFDFD;" width="142" height="6"/>
		<rect x="388" y="54" style="fill:#FDFDFD;" width="6" height="170"/>
		<rect x="368" y="68" style="fill:#FDFDFD;" width="6" height="86"/>
		<rect x="327" y="190" style="fill:#FDFDFD;" width="41" height="6"/>
		<rect x="245" y="196" style="fill:#FDFDFD;" width="14" height="8"/>
		<rect x="327" y="88" style="fill:#FDFDFD;" width="7" height="13"/>
		<rect x="280" y="88" style="fill:#FDFDFD;" width="6" height="13"/>
		<polygon style="fill:#FDFDFD;" points="313.4,122 313,122 313,115 313,115 313,88 306,88 306,115 300,115 300,122 306.2,122 		"/>
		<rect x="320" y="142" style="fill:#FDFDFD;" width="7" height="7"/>
		<rect x="287" y="142" style="fill:#FDFDFD;" width="6" height="7"/>
		<rect x="232" y="47" style="fill:#FDFDFD;" width="7" height="7"/>
		<rect x="381" y="47" style="fill:#FDFDFD;" width="7" height="7"/>
	</g>
</g>
</svg>
