<?xml version="1.0" encoding="utf-8"?>
<!-- Generator: Adobe Illustrator 19.2.1, SVG Export Plug-In . SVG Version: 6.00 Build 0)  -->
<svg version="1.1" xmlns="http://www.w3.org/2000/svg" xmlns:xlink="http://www.w3.org/1999/xlink" x="0px" y="0px"
	 viewBox="0 0 620 300" style="enable-background:new 0 0 620 300;" xml:space="preserve">
<style type="text/css">
	.st0{fill:#F4F4E9;}
	.st1{fill:#FFFFFF;}
	.st2{fill:#D6222C;}
	.st3{fill:#482683;}
	.st4{fill:#DBA753;}
	.st5{fill:#4D9BDB;}
	.st6{fill:#7B0099;}
	.st7{font-family:'Yahoo';}
	.st8{font-size:60.4467px;}
	.st9{font-size:100.2207px;}
</style>
<g id="Layer_2">
	<rect x="-0.6" y="0.6" class="st0" width="620" height="300"/>
</g>
<g id="oracle">
</g>
<g id="hp">
</g>
<g id="yahoo">
</g>
<g id="cadbury">
	<g>
		<polygon class="st1" points="315.8,190.6 196.5,205.2 194.4,113.9 298.6,103 		"/>
		<g>
			<path class="st2" d="M251.9,185.4c-4.2,0.5-8.3,0.2-12-1c-3.8-1.2-7.2-3-10.1-5.4c-3-2.5-5.4-5.5-7.3-9.1
				c-1.9-3.6-3.1-7.6-3.7-12c-0.5-4.5-0.3-8.6,0.8-12.5c1-3.9,2.7-7.2,5.1-10.1c2.3-2.9,5.2-5.3,8.7-7.1c3.4-1.8,7.3-3,11.5-3.5
				l14.8-1.7c4.4-0.5,8.5-0.3,12.4,0.8c3.8,1,7.2,2.7,10.1,5c2.9,2.3,5.3,5.2,7.2,8.7c1.9,3.5,3.1,7.4,3.6,11.8
				c0.5,4.4,0.3,8.6-0.8,12.6c-1,4-2.7,7.5-5,10.6c-2.3,3.1-5.2,5.6-8.7,7.6c-3.4,2-7.3,3.3-11.7,3.8L251.9,185.4z M265.5,173
				c2.8-0.3,5.3-1.1,7.5-2.4c2.2-1.3,4.1-2.9,5.6-4.9c1.5-2,2.6-4.2,3.2-6.8c0.7-2.6,0.8-5.3,0.5-8.1c-0.3-2.8-1.1-5.4-2.3-7.7
				c-1.2-2.3-2.8-4.2-4.7-5.8c-1.9-1.5-4.1-2.6-6.5-3.4c-2.5-0.7-5.1-0.9-7.9-0.6l-14.8,1.7c-2.7,0.3-5.2,1.1-7.4,2.4
				c-2.2,1.2-4,2.8-5.5,4.8c-1.5,1.9-2.5,4.1-3.2,6.7c-0.7,2.5-0.8,5.2-0.5,8.1c0.3,2.8,1.1,5.4,2.4,7.8c1.2,2.3,2.8,4.3,4.7,5.9
				c1.9,1.6,4,2.7,6.5,3.4c2.4,0.7,5,0.9,7.8,0.6L265.5,173z"/>
		</g>
	</g>
	<g>
		<polygon class="st3" points="114.1,86 96.2,212.1 204.3,193.8 225.5,68.7 		"/>
		<g>
			<g>
				<path class="st4" d="M180.4,93.7c3.4-0.4,6.4-0.5,8.9-0.2c2.5,0.3,4.6,0.9,6.3,1.9c1.7,0.9,2.9,2.1,3.7,3.4
					c0.8,1.4,1.2,2.9,1.3,4.7c0.1,2.4-0.5,5.1-1.8,7.9c-1.2,2.9-2.9,5.8-5,8.7c-2.1,2.9-4.6,5.8-7.4,8.5c-2.8,2.8-5.7,5.2-8.8,7.4
					c-3,2.2-6.1,4-9.2,5.4c-3.1,1.4-6,2.2-8.6,2.5c-1.1,0.1-2.1,0-3.2-0.2c-1.1-0.2-2-0.6-2.9-1.1c-0.9-0.5-1.6-1.2-2.2-2
					c-0.6-0.8-0.9-1.9-1-3.1c-0.1-1.4,0.2-2.9,0.9-4.6c0.7-1.6,1.7-3.3,2.9-5c1.3-1.7,2.7-3.3,4.4-4.9c1.7-1.6,3.4-3.1,5.3-4.4
					c1.8-1.4,3.7-2.5,5.6-3.5c1.9-1,3.6-1.7,5.2-2.1c0.6-0.3,1-0.4,1.4-0.2c0.4,0.1,0.7,0.4,0.8,0.7c0.1,0.3,0.1,0.7,0,1.1
					c-0.2,0.4-0.5,0.8-1.1,1.1c-1.4,0.6-3.2,1.6-5.2,2.8c-2,1.2-3.9,2.6-5.8,4.2c-1.8,1.6-3.4,3.3-4.6,5.1c-1.2,1.8-1.8,3.6-1.6,5.4
					c0.1,0.8,0.3,1.4,0.7,1.9c0.4,0.5,0.9,0.9,1.4,1.2c0.6,0.3,1.2,0.5,1.9,0.6c0.7,0.1,1.4,0.1,2.1,0c2.4-0.2,4.8-0.9,7.2-2
					c2.3-1.1,4.5-2.5,6.6-4.2c2.1-1.7,4-3.6,5.8-5.8c1.8-2.2,3.3-4.4,4.6-6.7c1.3-2.3,2.3-4.6,3-6.9c0.7-2.3,1.1-4.5,1.1-6.5
					c0-1.3-0.2-2.4-0.6-3.5c-0.4-1.1-1.1-1.9-2-2.6c-1-0.7-2.3-1.1-3.9-1.3c-1.6-0.2-3.7-0.2-6.1,0.2c-4.2,0.6-8.3,1.8-12.2,3.6
					c-3.9,1.7-7.6,3.9-11,6.4c-3.4,2.6-6.6,5.4-9.5,8.6c-2.9,3.2-5.5,6.5-7.7,9.9c-2.2,3.4-4.1,6.9-5.7,10.5
					c-1.5,3.6-2.6,7-3.3,10.4c-0.7,3.4-0.9,6.6-0.7,9.6c0.2,3,1,5.6,2.3,8c1.3,2.3,3.1,4.2,5.6,5.6c2.4,1.4,5.5,2.3,9.1,2.5
					c2.2,0.2,4.7,0.1,7.5-0.2c2.8-0.3,5.9-1.1,9.3-2.5c3.4-1.4,6.9-3.5,10.7-6.3c3.8-2.8,7.8-6.7,11.9-11.6c0.5-0.4,1-0.6,1.4-0.7
					c0.4,0,0.8,0.1,1,0.4c0.2,0.2,0.4,0.6,0.4,1c0,0.4-0.1,0.9-0.4,1.3l-3.4,4c-2.2,3-4.8,6-8,8.9c-3.2,2.9-6.7,5.5-10.4,7.8
					c-3.8,2.3-7.8,4.2-12,5.6c-4.2,1.4-8.4,2.1-12.5,2.1c-3,0-5.8-0.4-8.6-1.2c-2.7-0.8-5.2-2.1-7.3-3.8c-2.1-1.7-3.9-3.9-5.2-6.5
					c-1.3-2.6-2.1-5.8-2.3-9.3c-0.3-5,0.4-10.2,1.9-15.4c1.6-5.2,3.8-10.2,6.7-15.1c2.9-4.9,6.4-9.5,10.4-13.8
					c4-4.4,8.3-8.2,12.9-11.6c4.6-3.3,9.4-6.1,14.3-8.2C170.7,95.6,175.5,94.2,180.4,93.7z"/>
			</g>
		</g>
	</g>
	<g>
		<g>
			<polygon class="st5" points="349.4,140 343.8,140 329.3,180 334.9,180 			"/>
			<path class="st5" d="M393.5,117.6l-75.9-0.4l-43,115.7l18.1,0.3L329.9,132h25.6c3.7,0,6.4,1,8,3.2s1.7,5.3,0.2,9.3l-13.9,37.9
				c-0.5,1.4-1.4,2.3-2.8,3.3c-1.4,1-2.8,1.2-4.2,1.2h-16.4l-16.6,46l44,0.3L393.5,117.6z"/>
		</g>
		<g>
			<path class="st1" d="M329.9,130.8h25.6c3.7,0,6.4,1.1,8,3.4c1.6,2.3,1.7,5.4,0.2,9.4l-13.9,38c-0.5,1.4-1.4,2.5-2.8,3.5
				c-1.4,1-2.8,1.5-4.2,1.5h-16.4l-16.6,45.5l-17.1,0.3L329.9,130.8z M349.4,139.4h-5.6l-14.5,39.7h5.6L349.4,139.4z"/>
		</g>
	</g>
	<g>
		<polygon class="st6" points="374.2,106.7 381.9,201.6 474.3,182.9 477.1,88.8 		"/>
		<text transform="matrix(1 0 0 1 389.439 169.4909)" class="st1 st7 st8">Y</text>
		<text transform="matrix(1 0 0 1 481.6851 159.2797)" class="st6 st7 st9">!</text>
	</g>
</g>
</svg>
