<?xml version="1.0" encoding="utf-8"?>
<!-- Generator: Adobe Illustrator 19.2.1, SVG Export Plug-In . SVG Version: 6.00 Build 0)  -->
<svg version="1.1" id="Layer_1" xmlns="http://www.w3.org/2000/svg" xmlns:xlink="http://www.w3.org/1999/xlink" x="0px" y="0px"
	 viewBox="0 0 620 300" style="enable-background:new 0 0 620 300;" xml:space="preserve">
<g>
	<path style="fill:#F6A11F;" d="M314,80.7c12.4-0.4,24.9,1.4,36.6,5.6c17.6,6.2,33.3,17.5,44.8,32.2c5.1,6.4,9.3,13.5,12.6,21
		c0.6,1.2,1,2.6,0.7,4c-0.4,2.3-2.4,4.3-4.8,4.5c-2.4,0.4-5-1.2-5.8-3.5c-6.6-15.5-17.9-29.1-31.9-38.4c-8.7-5.8-18.4-10-28.6-12.4
		c-13.1-3.1-27-3.1-40.1,0c-18.8,4.3-35.9,15.1-48.1,30c-5.1,6.3-9.4,13.3-12.6,20.8c-0.7,1.7-2.3,3.1-4.1,3.4
		c-1.8,0.3-3.7-0.3-5-1.6c-1.5-1.5-2-3.8-1.2-5.8c8.8-20.8,25.1-38.3,45.1-48.7C284.7,85,299.3,81.2,314,80.7L314,80.7z"/>
	<path style="fill:#0A6DAE;" d="M297.6,144.7c-0.1-1.1,0.9-1.9,2-1.9c1.3,0,2.6,0,4,0c0.9,0,2,0.6,2,1.7c0,12.1,0,24.2,0,36.3
		c4.9-5.4,9.8-10.9,14.8-16.3c1-1,1.7-2.4,3.2-2.5c2-0.1,4.1,0,6.1,0c0.8-0.1,1.7,0.6,1.4,1.5c-0.3,0.6-0.9,1.1-1.4,1.6
		c-5.3,5.3-10.7,10.6-15.9,15.9c5.1,5.8,10.1,11.7,15.2,17.6c0.7,0.8,1.5,1.5,2,2.5c0.4,0.7-0.3,1.6-1,1.6c-1.7,0.1-3.4,0-5.1,0
		c-0.9,0-1.8,0.1-2.6-0.3c-0.8-0.5-1.4-1.3-2-2.1c-4.9-6.2-9.8-12.4-14.7-18.5c-0.1,6.1,0,12.2,0,18.2c0,0.7,0.1,1.5-0.5,2.1
		c-1,0.9-2.4,0.6-3.6,0.7c-1.1,0-2.3,0.2-3.2-0.6c-0.5-0.4-0.6-1-0.6-1.6C297.6,181.9,297.6,163.3,297.6,144.7L297.6,144.7z"/>
	<path style="fill:#0A6DAE;" d="M275.3,161.8c2.5-0.8,5.2-0.9,7.6,0.1c0.8,0.4,1.8,1.2,1.4,2.3c-0.4,1.3-0.7,2.6-1.2,3.9
		c-0.3,0.9-1.4,1.3-2.3,1.1c-2-0.3-4-1-6.1-1c-1.5,0-2.8,0.7-3.8,1.8c-1.6,1.6-2.4,3.8-2.8,5.9c-0.3,1.6-0.2,3.2-0.2,4.8
		c0,6.7,0,13.3,0,20c0.1,1.1-1,1.8-2,1.9c-1.4,0-2.7,0-4.1,0c-1-0.1-2.1-0.8-2-1.9c0-12.4,0-24.7,0-37.1c-0.1-1.2,1.3-1.9,2.3-1.8
		c1.3,0.1,3.2-0.4,4,0.9c0.7,1.6,1,3.3,1.6,4.8C269.8,165.1,272.2,162.8,275.3,161.8L275.3,161.8z"/>
	<path style="fill:#0A6DAE;" d="M136.6,162.8c0.4-0.4,0.8-0.9,1.4-0.9c1.8,0,3.7-0.1,5.5,0c0.9,0,1.6,0.8,1.7,1.7
		c1.8,7.4,3.6,14.8,5.4,22.1c0.5,2.3,1.2,4.5,1.5,6.9c0.4,2.1,0.4,4.2,0.8,6.3c0.5-3,0.9-6,1.7-8.9c2.4-8.8,4.7-17.6,7.1-26.4
		c0.2-1,1.1-1.7,2.1-1.7c2.1-0.1,4.1,0,6.2,0c1.1-0.1,2.3,0.6,2.5,1.7c1.8,6.4,3.5,12.8,5.3,19.3c1.1,4.2,2.5,8.3,3.1,12.5
		c0.2,1.2,0.3,2.4,0.6,3.5c0.7-6.7,2.4-13.2,3.8-19.8c1.2-5.2,2.3-10.5,3.5-15.7c0.2-1,1.3-1.6,2.3-1.5c1.7,0,3.3-0.1,5,0
		c1,0,1.6,1.1,1.2,2c-3.3,12.3-6.7,24.6-10,36.9c-0.2,1-1,1.8-2,1.8c-2.6,0.1-5.2,0-7.7,0c-0.9,0.1-1.9-0.4-2.1-1.4
		c-2.3-8.5-4.6-16.9-6.8-25.4c-0.8-2.9-1.2-6-1.5-9c-0.4,2.7-0.6,5.4-1.4,8.1c-2.3,8.7-4.7,17.4-7,26.1c-0.3,1.4-1.9,1.7-3.1,1.6
		c-2.4,0-4.8,0.1-7.2,0c-0.9,0-1.5-0.7-1.7-1.5c-3.4-12.2-6.7-24.5-10.1-36.7C136.6,163.8,136.7,163.3,136.6,162.8L136.6,162.8z"/>
	<path style="fill:#0A6DAE;" d="M438.4,161.9c1.7,0,3.5,0,5.2,0c1.1,0,2.1,0.7,2.4,1.8c3,7.9,6,15.8,9,23.7c0.6,1.6,1.1,3.3,1.4,5
		c1.2-4.7,2.9-9.2,4.4-13.9c1.6-5,3.2-10,4.9-15c0.2-0.9,1.1-1.5,2-1.5c1.4-0.1,2.9,0,4.3-0.1c0.8,0,1.8-0.1,2.5,0.6
		c0.4,0.3,0.3,0.9,0.2,1.4c-4.8,13.8-9.6,27.5-14.4,41.3c-0.8,2.3-1.5,4.7-2.8,6.8c-1.9,3.1-5.1,5.4-8.5,6.6
		c-1.2,0.4-2.4,1.2-3.7,0.7c-0.9-0.2-1.3-1.2-1.8-1.9c-0.4-0.6-1-1.2-0.9-2c0.1-0.8,0.7-1.4,1.4-1.6c1.5-0.5,2.9-1.1,4.1-2.1
		c2.9-2.4,4.6-6,5.3-9.6c-0.5-1.6-1.3-3.1-1.9-4.7c-4.6-10.7-9.2-21.4-13.8-32.1c-0.3-0.7-0.7-1.4-0.8-2.1
		C436.8,162.3,437.7,162,438.4,161.9L438.4,161.9z"/>
	<path style="fill:#0A6DAE;" d="M225.1,161.2c4.5-0.3,9.3,0.7,13,3.4c3.4,2.4,5.6,6.1,6.7,10c1.3,4.7,1.3,9.7,0.1,14.4
		c-1.1,4.4-3.6,8.5-7.4,10.9c-4.1,2.7-9.2,3.4-14,2.8c-4.1-0.5-8-2.3-10.9-5.3c-3.3-3.5-5-8.3-5.3-13c-0.4-5.3,0.4-10.8,3.3-15.3
		c2.2-3.4,5.6-5.9,9.5-7C221.8,161.6,223.4,161.4,225.1,161.2L225.1,161.2z M224.1,167.1c-2.5,0.5-4.8,2-6.1,4.3
		c-2.1,3.6-2.4,8-2.3,12c0.2,3.7,0.7,7.7,3.1,10.6c1.8,2.3,4.7,3.4,7.5,3.3c2.7,0.1,5.5-0.8,7.4-2.9c2.3-2.6,3.1-6.1,3.4-9.5
		c0.1-3.3,0.2-6.7-0.6-9.9c-0.7-2.7-2.1-5.4-4.6-6.9C229.5,166.8,226.7,166.7,224.1,167.1L224.1,167.1z"/>
	<path style="fill:#0A6DAE;" d="M369.7,144.2c-0.1-0.9,0.9-1.6,1.8-1.6c1.3-0.1,2.7,0,4,0c1,0,2.2,0.8,2,1.9c0,18.7,0,37.3,0,56
		c0.1,1-0.9,1.7-1.8,1.8c-1.1,0.1-2.2,0.1-3.2,0c-0.8,0-1.5-0.5-1.7-1.3c-0.4-1.2-0.6-2.5-0.9-3.7c-1.5,2-3.4,3.8-5.8,4.7
		c-3.4,1.3-7.2,1.3-10.7,0.4c-3.5-0.8-6.6-3.3-8.3-6.4c-2.7-4.9-3-10.6-2.8-16c0.1-4.6,1-9.5,4-13.2c2.3-3.1,6-4.9,9.8-5.4
		c3.5-0.5,7.3,0.1,10.2,2.2c1.4,1,2.5,2.3,3.4,3.6C369.7,159.5,369.7,151.9,369.7,144.2L369.7,144.2z M359,166.9
		c-2.5,0.2-4.9,1.6-6,3.9c-2.2,4.2-2.2,9.1-2.1,13.7c0.2,3,0.5,6.1,1.9,8.9c1,1.8,2.7,3.3,4.7,3.7c3.1,0.8,6.8,0.1,9-2.4
		c2.1-2.4,2.8-5.7,3.2-8.9c0.2-3.6,0.2-7.2-0.6-10.7c-0.6-2.3-1.6-4.7-3.5-6.3C363.8,167.2,361.3,166.6,359,166.9L359,166.9z"/>
	<path style="fill:#0A6DAE;" d="M403.9,162c3.6-1,7.4-1.1,11.1-0.2c3.4,0.8,6.5,2.7,8.6,5.5c2.2,2.9,3.3,6.4,3.8,10
		c0.4,2.7,0.3,5.5,0.3,8.3c0,5,0,10,0,14.9c0.1,0.6-0.3,1.1-0.8,1.5c-0.8,0.5-1.9,0.3-2.8,0.3c-1,0-2.4,0.1-3-1
		c-0.6-1.3-0.7-2.7-1-4c-1.4,1.7-2.9,3.5-4.9,4.4c-3.1,1.5-6.7,1.4-10,0.8c-4-0.8-7.8-3.2-10.1-6.6c-2.7-4-3.7-9-3.7-13.8
		c0-4.7,0.9-9.5,3.5-13.4C396.9,165.4,400.2,163,403.9,162L403.9,162z M407.4,167.1c-1.2,0.3-2.5,0.8-3.5,1.5c-2,1.6-3,4.1-3.6,6.5
		c-0.8,3.8-0.8,7.8-0.4,11.7c0.4,2.9,1.1,5.9,3.2,8c1.7,1.8,4.3,2.4,6.7,2.3c2.6,0.1,5.3-0.9,7-2.9c2.1-2.5,2.7-5.9,3-9.1
		c0.2-3.7,0.2-7.5-0.8-11.1c-0.7-2.3-1.9-4.5-3.9-5.8C412.8,166.9,410,166.7,407.4,167.1L407.4,167.1z"/>
	<path style="fill:#0A6DAE;" d="M476.6,191.5c1.2-0.2,2.5-0.2,3.7,0.4c1.9,0.9,3.3,2.9,3.1,5.1c0.2,2.6-2,4.9-4.5,5.3
		c-2.8,0.6-5.8-1.4-6.3-4.2C471.8,195.3,473.8,192.1,476.6,191.5L476.6,191.5z M476.3,192.6c-2.1,0.8-3.3,3.1-2.8,5.3
		c0.5,2.5,3.5,4.2,5.9,3.3c2.2-0.7,3.7-3.3,3-5.5C481.7,193.1,478.7,191.6,476.3,192.6L476.3,192.6z"/>
	<path style="fill:#0A6DAE;" d="M475.6,193.7c1.5,0.1,3.1-0.3,4.5,0.5c1.1,0.8,0.6,2.5-0.7,2.9c0.3,0.9,0.8,1.8,1.3,2.7
		c-0.6,0-1.1,0-1.7,0c-0.4-0.8-0.8-1.6-1.2-2.5c-0.2,0-0.5,0-0.7,0c0,0.8,0,1.6,0,2.5c-0.5,0-1,0-1.5,0
		C475.6,197.7,475.6,195.7,475.6,193.7L475.6,193.7z M477.1,194.6c0,0.6,0,1.2,0,1.8c0.5,0,1,0,1.5-0.1c0.5-0.2,0.4-0.8,0.3-1.2
		C478.5,194.6,477.8,194.7,477.1,194.6L477.1,194.6z"/>
</g>
</svg>
