<?xml version="1.0" encoding="utf-8"?>
<!-- Generator: Adobe Illustrator 19.2.1, SVG Export Plug-In . SVG Version: 6.00 Build 0)  -->
<svg version="1.1" xmlns="http://www.w3.org/2000/svg" xmlns:xlink="http://www.w3.org/1999/xlink" x="0px" y="0px"
	 viewBox="0 0 620 300" style="enable-background:new 0 0 620 300;" xml:space="preserve">
<style type="text/css">
	.st0{fill:#C1F4D5;}
	.st1{fill:#58CC6B;}
	.st2{opacity:0.2;fill:#FFFCE9;}
	.st3{fill:#D2625D;}
	.st4{fill:#AD4949;}
	.st5{fill:#F7F3EF;}
	.st6{fill:#F2E4D7;}
	.st7{fill:#F4E767;}
	.st8{fill:#A6BBE8;}
	.st9{fill:#9CB2D8;}
	.st10{fill:#E0CD5A;}
	.st11{fill:#E0E0DE;}
	.st12{fill:#EFEFEF;}
	.st13{fill:#CCCCCA;}
	.st14{fill:#444444;}
	.st15{fill:#E1F7FF;}
	.st16{fill:#D0EFF7;}
	.st17{fill:#55BC61;}
	.st18{opacity:0.5;fill:#F7F3EF;}
	.st19{fill:#F9D7ED;}
	.st20{fill:none;stroke:#F9D7ED;stroke-width:3;stroke-miterlimit:10;}
	.st21{fill:#F4BDDF;}
	.st22{fill:#FFFCE9;}
	.st23{fill:#E88134;}
	.st24{fill:#D87532;}
	.st25{fill:#EA9357;}
	.st26{fill:#FAFFFF;}
	.st27{fill:none;stroke:#444444;stroke-width:2;stroke-linecap:square;stroke-linejoin:round;stroke-miterlimit:10;}
</style>
<g id="background">
	<rect class="st0" width="620" height="300"/>
</g>
<g id="Layer_2">
	<path class="st1" d="M577,167.3V211h-3v-45.6c-1-0.5-2.3-0.4-3.7-0.4h0.1c-5.9,0-10.5,4.5-10.5,10.3v35.5c0,5.9,4.7,10.2,10.6,10.2
		h-0.1c5.9,0,10.5-4.3,10.5-10.2v-35.5C581,172.1,580,169.2,577,167.3z"/>
	<polygon class="st2" points="190.2,90.4 154.3,257 368.8,258 223.2,80.6 	"/>
	<rect x="27.4" y="247.1" class="st3" width="183.9" height="9.9"/>
	<rect x="27.4" y="210.7" class="st3" width="183.9" height="9.9"/>
	<rect x="27.4" y="210.7" class="st3" width="9.9" height="46.4"/>
	<rect x="27.4" y="247.1" class="st4" width="9.9" height="9.9"/>
	<rect x="27.4" y="210.7" class="st4" width="9.9" height="9.9"/>
	<rect x="37.3" y="241.8" class="st5" width="168.6" height="5.3"/>
	<rect x="37.3" y="231.2" class="st5" width="168.6" height="5.3"/>
	<rect x="37.3" y="220.6" class="st5" width="173.9" height="5.3"/>
	<rect x="120.5" y="168.1" class="st5" width="67.6" height="5.3"/>
	<rect x="120.5" y="178.7" class="st5" width="60.8" height="5.3"/>
	<rect x="120.5" y="199.9" class="st5" width="67.6" height="5.9"/>
	<rect x="120.5" y="189.3" class="st5" width="67.6" height="5.3"/>
	<rect x="37.3" y="225.9" class="st6" width="173.9" height="5.3"/>
	<rect x="37.3" y="236.5" class="st6" width="168.6" height="5.3"/>
	<rect x="120.5" y="173.4" class="st6" width="67.6" height="5.3"/>
	<rect x="120.5" y="194.6" class="st6" width="67.6" height="5.3"/>
	<rect x="120.5" y="184" class="st6" width="67.6" height="5.3"/>
	<g>
		<polygon class="st7" points="49,270 49,270 63,270 63,270 		"/>
		<polygon class="st7" points="56,262.8 63,269.8 63,231 49,231 49,269.8 		"/>
	</g>
	<path class="st8" d="M113,163.2H44.8c-4.1,0-7.5,3.4-7.5,7.5v32.5c0,4.1,3.4,7.5,7.5,7.5H113c4.1,0,7.5-3.4,7.5-7.5v-32.5
		C120.5,166.6,117.2,163.2,113,163.2z"/>
	<path class="st9" d="M115.3,210.7L115.3,210.7c-2.9,0-5.3-2.4-5.3-5.2v-37c0-2.9,2.4-5.2,5.2-5.2h0c2.9,0,5.2,2.4,5.2,5.2v37
		C120.5,208.3,118.2,210.7,115.3,210.7z"/>
	
		<rect x="150.1" y="126.6" transform="matrix(1.058132e-10 -1 1 1.058132e-10 -13.0953 318.182)" class="st9" width="4.9" height="78"/>
	
		<rect x="150.1" y="169.2" transform="matrix(1.058132e-10 -1 1 1.058132e-10 -55.6902 360.7769)" class="st9" width="4.9" height="78"/>
	<rect x="37.3" y="188" class="st9" width="76.2" height="22.7"/>
	<rect x="49" y="163.2" class="st7" width="7.9" height="47.5"/>
	<rect x="63" y="163.2" class="st7" width="7.9" height="47.5"/>
	<rect x="49" y="188" class="st10" width="7.9" height="22.7"/>
	<rect x="63" y="188" class="st10" width="7.9" height="22.7"/>
	<path class="st11" d="M316,247v9.8c0,1.8,1.3,3.2,2.8,3.2h196.6c1.5,0,2.7-1.4,2.7-3.2V247H316z"/>
	<rect x="315.8" y="246.7" class="st12" width="201.9" height="8.6"/>
	<rect x="399.1" y="246.7" class="st13" width="35.9" height="3.7"/>
	<rect x="320.5" y="127.9" class="st14" width="192.7" height="118.8"/>
	<rect x="325.9" y="134.7" class="st15" width="181.8" height="105.9"/>
	<rect x="435" y="142.6" class="st16" width="65.9" height="44.7"/>
	<g>
		<rect x="437" y="195" class="st15" width="61.9" height="34.2"/>
		<path class="st16" d="M496.9,197v30.2H439V197H496.9 M500.9,193H435v38.2h65.9V193L500.9,193z"/>
	</g>
	<polygon class="st7" points="441,179 459.8,179 450.4,163.3 	"/>
	<ellipse class="st3" cx="467.2" cy="157.1" rx="7.5" ry="7.8"/>
	<ellipse class="st1" cx="560" cy="190.6" rx="10" ry="10.5"/>
	<rect x="289.5" y="209.2" class="st1" width="5.4" height="25.7"/>
	<path class="st17" d="M294,204.3V240c3,0,5-3.1,5-7v-21.7C299,207.4,297,204.3,294,204.3z"/>
	<rect x="283" y="235" transform="matrix(-1 8.367339e-11 -8.367339e-11 -1 577 474.9238)" class="st17" width="11" height="5"/>
	<rect x="283" y="204.3" transform="matrix(-1 8.367339e-11 -8.367339e-11 -1 577 413.4947)" class="st17" width="11" height="5"/>
	<polygon class="st9" points="485,160.7 495.3,171.5 485,182.3 474.7,171.5 	"/>
	<path class="st1" d="M278,194h-33.8H236v8.6v1.6v44.5c0,4.6,3.5,8.3,8.2,8.3H278c4.6,0,8-3.7,8-8.3v-44.5v-1.6V194H278z"/>
	<rect x="248.8" y="194" class="st17" width="10.8" height="63"/>
	<rect x="262.7" y="194" class="st17" width="5.4" height="63"/>
	<g>
		<path class="st18" d="M238.7,171.1c0,6.2,5.3,11.3,11.3,11.3v-22.6C244,159.8,238.7,164.9,238.7,171.1z"/>
		<g>
			<path class="st18" d="M258.3,160.1c0-6.2-5.3-11.3-11.3-11.3v22.6C253,171.3,258.3,166.3,258.3,160.1z"/>
			<circle class="st18" cx="247.1" cy="149.2" r="10.8"/>
		</g>
	</g>
	<rect x="85.2" y="149" class="st19" width="80.5" height="14.2"/>
	<line class="st20" x1="80.1" y1="106.8" x2="128.2" y2="154.9"/>
	<line class="st20" x1="87.8" y1="99.1" x2="135.9" y2="147.2"/>
	<line class="st20" x1="87.6" y1="105.2" x2="196.3" y2="68"/>
	<polyline class="st20" points="84.3,95.1 164.6,67.5 197,67.5 206,67.5 	"/>
	<rect x="85.2" y="149" class="st21" width="80.5" height="7.1"/>
	<path class="st21" d="M144.2,144.6h-37.5c-2.2,0-3.9,1.8-3.9,3.9v0.9c0,2.2,1.8,3.9,3.9,3.9h37.5c2.2,0,3.9-1.8,3.9-3.9v-0.9
		C148.1,146.4,146.4,144.6,144.2,144.6z"/>
	
		<ellipse transform="matrix(0.9624 -0.2718 0.2718 0.9624 -13.2931 58.3956)" class="st22" cx="204.2" cy="77.2" rx="19.9" ry="17.3"/>
	<g>
		<circle class="st19" cx="85.2" cy="101.2" r="8.5"/>
		<path class="st21" d="M85.2,95.2c3.3,0,6,2.7,6,6s-2.7,6-6,6s-6-2.7-6-6S81.9,95.2,85.2,95.2 M85.2,90.2c-6.1,0-11,4.9-11,11
			s4.9,11,11,11s11-4.9,11-11S91.3,90.2,85.2,90.2L85.2,90.2z"/>
	</g>
	<path class="st19" d="M232.8,77.8c-5.7-16.7-21.2-26.1-35.5-21.9c-14.3,4.2-22.1,20.5-17.9,37.6L232.8,77.8z"/>
	<path class="st23" d="M599.8,211.2c-20.3,0-40.6,0-60.9,0c1.5,16.3,2.9,32.6,4.4,48.8h51.7C596.6,243.7,598.2,227.4,599.8,211.2z"
		/>
	<path class="st24" d="M571.8,211.1H550c1.1,16.2,2.2,32.4,3.4,48.5c6.2,0.1,12.3,0.2,18.5,0.3V211.1z"/>
	<polygon class="st25" points="600,211.1 599,219 540,219 538.9,211.2 	"/>
	<path class="st17" d="M574,165.4V211h3v-43.7C577,166.5,576,165.9,574,165.4z"/>
	<g>
		<path class="st17" d="M570.3,165c0,0,0.1,0,0.1,0c0,0,0,0,0,0H570.3z"/>
		<path class="st17" d="M571,165c0,0-0.4,0-0.5,0c-0.9,0-1.5,0.1-2.5,0.3V211h3V165z"/>
	</g>
	<path class="st17" d="M555,199.6c1,0.6,2,1,3,1.3v-20.4c-1,0.2-2,0.7-3,1.3V199.6z"/>
	<rect x="339.7" y="142.6" class="st16" width="77.4" height="88.6"/>
	<rect x="345.4" y="150" class="st15" width="65.2" height="5"/>
	<rect x="345.4" y="160.9" class="st15" width="65.2" height="5"/>
	<rect x="345.4" y="171.5" class="st15" width="65.2" height="5"/>
	<rect x="398.6" y="184.2" class="st1" width="12" height="40.1"/>
	<rect x="382.6" y="204.3" class="st7" width="12" height="20"/>
	<rect x="350.3" y="194" class="st3" width="12" height="30.3"/>
	<rect x="366.3" y="194" class="st19" width="12" height="30.3"/>
	<circle class="st26" cx="550" cy="67.1" r="31.6"/>
	<polyline class="st27" points="550,45 550,67 538.9,74 	"/>
</g>
</svg>
