<?xml version="1.0" encoding="utf-8"?>
<!-- Generator: Adobe Illustrator 23.0.6, SVG Export Plug-In . SVG Version: 6.00 Build 0)  -->
<svg version="1.1" id="Layer_1" xmlns="http://www.w3.org/2000/svg" xmlns:xlink="http://www.w3.org/1999/xlink" x="0px" y="0px"
	 viewBox="0 0 560 288" style="enable-background:new 0 0 560 288;" xml:space="preserve">
<style type="text/css">
	.st0{fill:#6AD5A1;}
	.st1{opacity:0.15;fill:#007B5E;enable-background:new    ;}
	.st2{fill:none;stroke:#3031AB;stroke-miterlimit:10;}
	.st3{fill:none;stroke:#E3F2FF;stroke-width:12;stroke-linecap:round;stroke-linejoin:round;stroke-miterlimit:10;}
	.st4{fill:none;stroke:#E3F2FF;stroke-width:4;stroke-miterlimit:10;}
	.st5{fill:#E3F2FF;}
	.st6{fill:none;stroke:#E3F2FF;stroke-width:4;stroke-linecap:round;stroke-linejoin:round;stroke-miterlimit:10;}
	.st7{fill:none;stroke:#E3F2FF;stroke-width:3;stroke-miterlimit:10;}
	.st8{fill:#4C5EDE;}
	
		.st9{opacity:0.9;fill:#E3F2FF;stroke:#3031AB;stroke-width:6;stroke-linecap:round;stroke-linejoin:round;stroke-miterlimit:10;enable-background:new    ;}
	
		.st10{opacity:0.9;fill:none;stroke:#E3F2FF;stroke-width:8;stroke-linecap:round;stroke-linejoin:round;stroke-miterlimit:10;enable-background:new    ;}
	.st11{fill:#3031AB;}
	
		.st12{fill:#4C5EDE;stroke:#3031AB;stroke-width:4;stroke-linecap:round;stroke-linejoin:round;stroke-miterlimit:10;stroke-dasharray:215,40,100;}
</style>
<g>
	<rect class="st0" width="560" height="288"/>
</g>
<g id="Layer_3">
	<path class="st1" d="M266.1,50c-34.7,0-65.9,0-102,23.6c-5.9,3.9-33.5,28.3-38.7,64c-4.6,31.6,13.1,55.6,18.6,63
		c20.6,28,59.6,49.3,95.3,43c36.8-6.5,47.2-38.3,79.6-33.2c12,1.9,18.2,7.4,38.1,8.8c13.1,0.9,25.8,1.8,36.6-4.4
		c25.8-14.7,23.2-58.8,23-61.6c-3.4-47.9-47.4-75-49.3-76.2C349.3,66.4,322.6,50,266.1,50z"/>
</g>
<g id="Layer_6">
	<path class="st2" d="M110.6,154.8"/>
	<g>
		<line class="st3" x1="110.1" y1="97.1" x2="125.6" y2="95.4"/>
		<line class="st3" x1="120.4" y1="63.2" x2="132.6" y2="72.6"/>
		<line class="st3" x1="150.5" y1="45.4" x2="152.3" y2="62.6"/>
	</g>
</g>
<g id="Layer_7">
	<circle class="st4" cx="496.8" cy="38.8" r="6.9"/>
	<circle class="st5" cx="524" cy="75.3" r="3.5"/>
	<g>
		<line class="st6" x1="471.4" y1="76" x2="484.3" y2="81.5"/>
		<line class="st6" x1="475.1" y1="85.2" x2="480.6" y2="72.3"/>
	</g>
	<circle class="st7" cx="316.2" cy="81.4" r="4.3"/>
	
		<ellipse transform="matrix(0.3827 -0.9239 0.9239 0.3827 108.0683 610.5357)" class="st7" cx="510.9" cy="224.4" rx="4.3" ry="4.3"/>
	<circle class="st4" cx="41.9" cy="30" r="6.7"/>
	<circle class="st5" cx="65.5" cy="254" r="3.5"/>
	<circle class="st5" cx="26.3" cy="65.5" r="3.5"/>
	<circle class="st5" cx="329.3" cy="171" r="3.5"/>
	<g>
		<line class="st6" x1="39.5" y1="211.9" x2="33.3" y2="224.4"/>
		<line class="st6" x1="30.1" y1="215" x2="42.6" y2="221.3"/>
	</g>
</g>
<g id="Layer_4">
</g>
<g id="Layer_5">
	<path class="st3" d="M190.2,76.6c3-18.3,20.2-30.6,38.5-27.6s30.6,20.2,27.6,38.5l-7.3,44.3"/>
	<path class="st8" d="M162.2,187.5l76.9,12.6c6.5,1.1,12.5-3.3,13.6-9.8l10.8-66c1.1-6.5-3.3-12.5-9.8-13.6l-76.9-12.6
		c-6.5-1.1-12.5,3.3-13.6,9.8l-10.8,66C151.4,180.4,155.7,186.5,162.2,187.5z"/>
	<path class="st9" d="M204.3,147.1c-3.2-2.1-5-5.9-4.3-9.8c0.9-5.4,6-9,11.3-8.1c5.4,0.9,9,6,8.1,11.3c-0.7,4-3.5,7-7.2,8l2,23.2
		l-9.6-1.6l-10.1-1.7L204.3,147.1z"/>
	<line class="st10" x1="176.3" y1="112.5" x2="173.9" y2="126.9"/>
	<line class="st10" x1="171.9" y1="139.4" x2="170.8" y2="145.9"/>
	<path class="st11" d="M267.4,113.1l-13.6-2.3c6.5,1.1,10.8,7.1,9.8,13.6l-10.8,66c-1.1,6.5-7.1,10.8-13.6,9.8l-17.7-2.9l31.3,5.2
		c6.5,1.1,12.5-3.3,13.6-9.8l10.8-66C278.2,120.3,273.9,114.2,267.4,113.1z"/>
</g>
<g id="Layer_8">
	<path class="st12" d="M395,185.2c-5.5-8.4-14.7-12.9-24-12.8L353.6,101l-6.2,1.5l-6.2,1.5l-13.5,3.3l3.3,13.7l13.5-3.3l2.1,8.6
		l-13.5,3.3l2,8.3l13.5-3.3l9.9,40.8c-1,0.5-2,1.1-2.8,1.6c-13.1,8.6-16.7,26.2-8.2,39.3c8.6,13.1,26.2,16.7,39.3,8.2
		C399.9,215.9,403.6,198.3,395,185.2z M387,210c-5.1,8.7-16.3,11.7-25,6.5c-8.7-5.1-11.7-16.3-6.5-25c5.1-8.7,16.3-11.7,25-6.5
		C389.1,190.1,392.1,201.3,387,210z"/>
</g>
</svg>
