<svg xmlns="http://www.w3.org/2000/svg" viewBox="0 0 620 300"><style>.st0{fill:#f779aa}.st1{fill:#f9f4f6}.st2,.st3{fill:#fff1de;stroke:#0b0f1c;stroke-width:3;stroke-linecap:round;stroke-linejoin:round;stroke-miterlimit:10}.st3{fill:#e5f9f8}.st4{fill:#0b0f1c}.st5{fill:#fff1de;stroke:#ead6c1;stroke-width:3;stroke-linecap:round;stroke-linejoin:round;stroke-miterlimit:10}.st6{fill:none}.st7{fill:#accfe5}.st8{fill:#fff}.st10,.st11,.st12,.st13,.st9{fill:#3d5191;stroke:#0b0f1c;stroke-width:3;stroke-linecap:round;stroke-linejoin:round;stroke-miterlimit:10}.st10,.st11,.st12,.st13{fill:#dadce0}.st11,.st12,.st13{fill:#38631e}.st12,.st13{fill:#0b0f1c;stroke-width:2}.st13{stroke-width:4}.st14{fill:#f5f6f7}</style><path class="st0" d="M0 0h620v300H0z" id="Layer_1"/><g id="line"><path class="st1" d="M223.5 266.5h-2.6c-.5 0-.9-.5-.9-1s.5-.9 1-.9c3.3.1 6.7 0 10-.4.5-.1 1 .3 1.1.8s-.3 1-.8 1.1c-2.7.2-5.3.4-7.8.4zM213.4 265.7h-.1c-2.5-.4-5.1-.9-7.5-1.6-.5-.1-.8-.7-.7-1.2.1-.5.7-.8 1.2-.7 2.4.7 4.9 1.2 7.3 1.6.5.1.9.6.8 1.1-.2.4-.6.8-1 .8zM238.5 264.7c-.4 0-.8-.3-.9-.7-.1-.5.2-1 .7-1.1 2.4-.6 4.8-1.3 7.2-2.1.5-.2 1 .1 1.2.6.2.5-.1 1-.6 1.2-2.4.9-4.9 1.6-7.4 2.2 0-.1-.1-.1-.2-.1zM198.8 261.6c-.1 0-.2 0-.4-.1-2.4-1-4.7-2.1-6.9-3.3-.5-.3-.6-.8-.4-1.3.3-.5.8-.6 1.3-.4 2.2 1.2 4.4 2.3 6.7 3.2.5.2.7.8.5 1.2-.1.5-.5.7-.8.7zM252.8 259.5c-.3 0-.7-.2-.8-.5-.2-.5 0-1 .4-1.3 2.2-1.1 4.4-2.4 6.5-3.7.4-.3 1-.2 1.3.3.3.4.2 1-.3 1.3-2.1 1.4-4.4 2.7-6.7 3.9h-.4zM185.5 254.3c-.2 0-.4-.1-.6-.2-2.1-1.5-4.1-3.1-6-4.8-.4-.4-.4-1-.1-1.3.4-.4 1-.4 1.3-.1 1.8 1.7 3.8 3.2 5.8 4.7.4.3.5.9.2 1.3 0 .3-.3.4-.6.4zM265.4 251.2c-.3 0-.5-.1-.7-.3-.3-.4-.3-1 .1-1.3 1.9-1.6 3.7-3.3 5.5-5.1.4-.4 1-.4 1.3 0 .4.4.4 1 0 1.3-1.8 1.9-3.7 3.6-5.6 5.3-.1 0-.3.1-.6.1zM174.2 244.2c-.3 0-.5-.1-.7-.3-1.7-1.9-3.3-4-4.7-6.1-.3-.4-.2-1 .2-1.3.4-.3 1-.2 1.3.2 1.4 2 3 4 4.6 5.9.3.4.3 1-.1 1.3-.1.2-.3.3-.6.3zM275.9 240.2c-.2 0-.4-.1-.6-.2-.4-.3-.5-.9-.2-1.3 1.5-2 2.9-4.1 4.1-6.2.3-.5.8-.6 1.3-.3s.6.8.3 1.3c-1.3 2.2-2.7 4.4-4.3 6.4 0 .2-.3.3-.6.3zM165.6 231.7c-.3 0-.7-.2-.8-.5-1.2-2.3-2.3-4.6-3.2-7-.2-.5 0-1 .5-1.2.5-.2 1 0 1.2.5.9 2.3 2 4.6 3.1 6.8.2.5.1 1-.4 1.3-.1 0-.2.1-.4.1zM283.5 227.1c-.1 0-.3 0-.4-.1-.5-.2-.7-.8-.5-1.3 1-2.3 1.9-4.6 2.6-7 .2-.5.7-.8 1.2-.6.5.2.8.7.6 1.2-.7 2.4-1.6 4.9-2.7 7.2-.1.4-.4.6-.8.6zM160.1 217.6c-.4 0-.8-.3-.9-.7-.6-2.5-1.2-5-1.5-7.6-.1-.5.3-1 .8-1.1.5-.1 1 .3 1.1.8.3 2.5.8 4.9 1.5 7.3.1.5-.2 1-.7 1.2-.2.1-.2.1-.3.1zM287.9 212.6h-.2c-.5-.1-.9-.6-.8-1.1.4-2.4.7-4.9.9-7.4 0-.5.5-.9 1-.9s.9.5.9 1c-.2 2.6-.5 5.1-.9 7.6 0 .5-.4.8-.9.8zM355 133.2h2.6c.5 0 .9.5.9 1s-.5.9-1 .9c-3.3-.1-6.7 0-10 .4-.5.1-1-.3-1.1-.8-.1-.5.3-1 .8-1.1 2.6-.3 5.2-.4 7.8-.4zM339.9 134.9c.4 0 .8.3.9.7.1.5-.2 1-.7 1.1-2.4.6-4.8 1.3-7.2 2.1-.5.2-1-.1-1.2-.6-.2-.5.1-1 .6-1.2 2.4-.9 4.9-1.6 7.4-2.2.1.1.1.1.2.1zM325.7 140.1c.3 0 .7.2.8.5.2.5 0 1-.4 1.3-2.2 1.1-4.4 2.4-6.5 3.7-.4.3-1 .2-1.3-.3-.3-.4-.2-1 .3-1.3 2.1-1.4 4.4-2.7 6.7-3.9h.4zM313 148.4c.3 0 .5.1.7.3.3.4.3 1-.1 1.3-1.9 1.6-3.7 3.3-5.5 5.1-.4.4-1 .4-1.3 0-.4-.4-.4-1 0-1.3 1.8-1.9 3.7-3.6 5.6-5.3.2 0 .4-.1.6-.1zM302.6 159.4c.2 0 .4.1.6.2.4.3.5.9.2 1.3-1.5 2-2.9 4.1-4.1 6.2-.3.5-.8.6-1.3.3s-.6-.8-.3-1.3c1.3-2.2 2.7-4.4 4.3-6.4 0-.1.3-.3.6-.3zM294.9 172.5c.1 0 .3 0 .4.1.5.2.7.8.5 1.3-1 2.3-1.9 4.6-2.6 7-.2.5-.7.8-1.2.6-.5-.2-.8-.7-.6-1.2.7-2.4 1.6-4.9 2.7-7.2.1-.4.4-.6.8-.6zM290.5 187h.2c.5.1.9.6.8 1.1-.4 2.4-.7 4.9-.9 7.4 0 .5-.5.9-1 .9s-.9-.5-.9-1c.2-2.6.5-5.1.9-7.6 0-.5.4-.8.9-.8z"/></g><g id="Layer_4"><path class="st2" d="M471 208.2h-64.6c-6.1 0-11.1-5-11.1-11.1v-82.3c0-6.1 5-11.1 11.1-11.1H471c6.1 0 11.1 5 11.1 11.1v82.3c0 6.1-4.9 11.1-11.1 11.1z"/><path class="st3" d="M463.4 166.9H414c-6.1 0-11.1-5-11.1-11.1V121c0-6.1 5-11.1 11.1-11.1h49.4c6.1 0 11.1 5 11.1 11.1v34.8c0 6.2-5 11.1-11.1 11.1z"/><path class="st4" d="M449.8 182.4h23.5c.6 0 1.1-.5 1.1-1.1v-.8c0-.6-.5-1.1-1.1-1.1h-23.5c-.6 0-1.1.5-1.1 1.1v.8c0 .6.5 1.1 1.1 1.1z"/><path class="st4" d="M463.4 184.3h10c.6 0 1.1-.5 1.1-1.1v-2.3c0-.6-.5-1.1-1.1-1.1h-10c-.6 0-1.1.5-1.1 1.1v2.3c-.1.6.5 1.1 1.1 1.1z"/><circle class="st5" cx="405.7" cy="199" r="2.8"/><path class="st6" d="M424.7 126.4h24v24h-24v-24z"/><path class="st7" d="M442.7 142.5c-.8 0-1.4.3-2 .8l-7.1-4.1c.1-.2.1-.5.1-.7 0-.2 0-.5-.1-.7l7.1-4.1c.5.5 1.2.8 2 .8 1.7 0 3-1.3 3-3s-1.3-3-3-3-3 1.3-3 3c0 .2 0 .5.1.7l-7.1 4.1c-.5-.5-1.2-.8-2-.8-1.7 0-3 1.3-3 3s1.3 3 3 3c.8 0 1.5-.3 2-.8l7.1 4.2c0 .2-.1.4-.1.7 0 1.6 1.3 2.9 2.9 2.9 1.6 0 2.9-1.3 2.9-2.9s-1.2-3.1-2.8-3.1z"/><path class="st6" d="M414.3 49.6h48.8v48.8h-48.8V49.6z"/><path class="st8" d="M416.4 67.9l4.1 4.1c10.1-10.1 26.5-10.1 36.6 0l4.1-4.1c-12.5-12.4-32.5-12.4-44.8 0zm16.2 16.2l6.1 6.1 6.1-6.1c-3.3-3.3-8.8-3.3-12.2 0zm-8.1-8.1l4.1 4.1c5.6-5.6 14.7-5.6 20.3 0L453 76c-7.9-7.8-20.6-7.8-28.5 0z"/></g><g id="Layer_2"><path transform="rotate(90 160.596 144.078)" class="st9" d="M125.2 91.3H196v105.6h-70.8z"/><path transform="rotate(90 131.75 112.99)" class="st10" d="M120.8 104.1h22v17.8h-22z"/><path transform="rotate(90 143.486 152.912)" class="st11" d="M131.7 141.1h23.6v23.6h-23.6z"/><path transform="rotate(90 143.486 152.912)" class="st4" d="M137.6 147h11.8v11.8h-11.8z"/><path class="st12" d="M100.2 156.6h15.3v9h-15.3z"/><path class="st13" d="M204.7 118h-46.8 46.8zM204.7 163h-38.2 38.2z"/><g><path class="st14" d="M190.1 131.1l-1.9-4.1c-.1-.2-.3-.3-.5-.3s-.4.1-.5.3l-2 3.5-1.7-3.5c-.1-.2-.3-.3-.5-.3s-.4.1-.5.3l-2 3.5-1.7-3.5c-.1-.2-.3-.3-.5-.3s-.4.1-.5.3l-2 3.5-1.7-3.5c-.1-.2-.3-.3-.5-.3s-.4.1-.5.3l-2 3.5-1.7-3.5c-.1-.2-.3-.3-.5-.3s-.4.1-.5.3l-2.2 4.1c-.2.3-.1.6.2.8.3.2.6.1.8-.2l1.7-3.1 1.4 3c.1.2.3.3.5.3.1 0 .2 0 .2-.1.3.1.6 0 .7-.2l1.7-3.1 1.4 3c.1.2.3.3.5.3.1 0 .2 0 .2-.1.3.1.6 0 .7-.2l1.7-3.1 1.4 3c.1.2.3.3.5.3.1 0 .2 0 .2-.1.3.1.6 0 .7-.2l1.7-3.1 1.4 3c.1.2.3.3.5.3.1 0 .2 0 .2-.1.3.1.6 0 .7-.2l1.7-3.1 1.4 3c.1.2.3.3.5.3.1 0 .2 0 .2-.1 1.1.3 1.2 0 1.1-.3z"/></g></g></svg>