<?xml version="1.0" encoding="utf-8"?>
<!-- Generator: Adobe Illustrator 19.2.1, SVG Export Plug-In . SVG Version: 6.00 Build 0)  -->
<svg version="1.1" xmlns="http://www.w3.org/2000/svg" xmlns:xlink="http://www.w3.org/1999/xlink" x="0px" y="0px"
	 viewBox="0 0 620 300" style="enable-background:new 0 0 620 300;" xml:space="preserve">
<style type="text/css">
	.st0{fill:none;stroke:#1E7FC6;stroke-width:7;stroke-linecap:round;stroke-linejoin:round;stroke-miterlimit:10;}
	.st1{fill:#CE2C2C;}
	.st2{fill:#1E7FC6;}
</style>
<g id="Layer_4">
</g>
<g id="Layer_2">
	<rect x="209.4" y="35.2" class="st0" width="229.6" height="229.6"/>
	<g>
		<path class="st1" d="M138.8,234.9c1-3,2.8-5.5,5.5-7.4c2.1-1.5,4.5-2.5,7-3.1c2.5-0.5,4.9-0.8,7.1-0.8c5.7,0,10.6,1.2,14.6,3.5
			c5.4,3.1,8.1,8,8.1,14.5v18.6h-43.2v-18.6C137.9,238.9,138.2,236.7,138.8,234.9z M145.4,251.4h28.2v-8.3c0-4.3-2.1-7.2-6.3-8.9
			c-2.3-0.9-5-1.4-8.2-1.4c-4.4,0-7.8,0.7-10.1,2.1c-2.4,1.4-3.5,4.1-3.5,8.2V251.4z"/>
		<path class="st1" d="M149.1,209.2h19.2c1.8,0,3.2-0.2,4.1-0.6c1.6-0.8,2.4-2.2,2.4-4.5c0-2.8-1.2-4.8-3.5-5.8
			c-1.2-0.5-2.9-0.8-5-0.8h-17.4V189h31.9v8.1h-4.5c0.1,0.1,0.4,0.3,0.9,0.6c0.5,0.3,0.9,0.7,1.3,1.1c1.2,1.3,2,2.6,2.4,3.8
			s0.6,2.6,0.6,4.3c0,4.7-1.7,7.9-5.1,9.5c-1.9,0.9-4.6,1.4-8.3,1.4h-19.2V209.2z"/>
		<path class="st1" d="M153,153.6c3-2.4,6.9-3.6,11.7-3.6c5,0,9.1,1.2,12.3,3.5c3.3,2.4,4.9,5.6,4.9,9.9c0,2.7-0.5,4.8-1.6,6.4
			c-0.6,1-1.7,2-3.3,3.1h4v8.2h-43.1v-8.3h15.4c-1.5-1.1-2.6-2.2-3.4-3.5c-1-1.5-1.5-3.4-1.5-5.8C148.4,159.3,149.9,156,153,153.6z
			 M172.4,160.6c-1.7-1.2-4-1.8-6.9-1.8c-2.3,0-4.1,0.3-5.6,0.9c-2.8,1.1-4.2,3.2-4.2,6.2c0,3.1,1.4,5.1,4.1,6.3
			c1.5,0.6,3.4,0.9,5.7,0.9c2.7,0,5-0.6,6.8-1.8c1.8-1.2,2.7-3.1,2.7-5.6C175,163.5,174.2,161.8,172.4,160.6z"/>
		<path class="st1" d="M181.1,135.7v8.3h-43.2v-8.3H181.1z"/>
		<path class="st1" d="M145.3,119v8.5h-7.7V119H145.3z M149.1,127.5V119h31.9v8.5H149.1z"/>
		<path class="st1" d="M151,85.2c1.7-2.1,4.6-3.1,8.6-3.1h21.5v8.6h-19.4c-1.7,0-3,0.2-3.9,0.7c-1.6,0.8-2.5,2.4-2.5,4.7
			c0,2.8,1.2,4.7,3.6,5.8c1.3,0.5,2.9,0.8,4.9,0.8h17.3v8.3h-31.9v-8.1h4.7c-1.6-1.1-2.8-2.1-3.5-3c-1.3-1.7-1.9-3.9-1.9-6.5
			C148.4,89.9,149.2,87.2,151,85.2z"/>
	</g>
	<g>
		<path class="st2" d="M260.6,79.6h13v43.2h-8.4V93.6c0-0.8,0-2,0-3.5c0-1.5,0-2.7,0-3.5l-8.2,36.2h-8.8l-8.1-36.2c0,0.8,0,2,0,3.5
			c0,1.5,0,2.7,0,3.5v29.2h-8.4V79.6h13.1l7.9,34L260.6,79.6z"/>
		<path class="st2" d="M289.8,87.1h-8.5v-7.7h8.5V87.1z M281.4,90.9h8.5v31.9h-8.5V90.9z"/>
		<path class="st2" d="M323.7,92.7c2.1,1.7,3.1,4.6,3.1,8.6v21.5h-8.6v-19.4c0-1.7-0.2-3-0.7-3.9c-0.8-1.6-2.4-2.5-4.7-2.5
			c-2.8,0-4.7,1.2-5.8,3.6c-0.5,1.3-0.8,2.9-0.8,4.9v17.3H298V91h8.1v4.7c1.1-1.6,2.1-2.8,3-3.5c1.7-1.3,3.9-1.9,6.5-1.9
			C318.9,90.1,321.6,91,323.7,92.7z"/>
		<path class="st2" d="M343.2,87.1h-8.5v-7.7h8.5V87.1z M334.7,90.9h8.5v31.9h-8.5V90.9z"/>
	</g>
	<g>
		<path class="st1" d="M260.6,141.6h13v43.2h-8.4v-29.2c0-0.8,0-2,0-3.5c0-1.5,0-2.7,0-3.5l-8.2,36.2h-8.8l-8.1-36.2
			c0,0.8,0,2,0,3.5c0,1.5,0,2.7,0,3.5v29.2h-8.4v-43.2h13.1l7.9,34L260.6,141.6z"/>
		<path class="st1" d="M293.9,165.4c1.6-0.2,2.7-0.4,3.3-0.7c1.2-0.5,1.8-1.3,1.8-2.4c0-1.3-0.5-2.2-1.4-2.7s-2.3-0.7-4.1-0.7
			c-2,0-3.4,0.5-4.2,1.5c-0.6,0.7-1,1.7-1.2,2.9h-8.1c0.2-2.8,1-5.1,2.4-6.9c2.2-2.8,6-4.2,11.4-4.2c3.5,0,6.6,0.7,9.4,2.1
			c2.7,1.4,4.1,4,4.1,7.9v14.6c0,1,0,2.2,0.1,3.7c0.1,1.1,0.2,1.8,0.5,2.2s0.7,0.7,1.2,1v1.2H300c-0.3-0.6-0.4-1.2-0.5-1.8
			s-0.2-1.2-0.2-1.9c-1.2,1.2-2.5,2.3-4,3.2c-1.8,1-3.9,1.6-6.1,1.6c-2.9,0-5.3-0.8-7.2-2.5s-2.8-4-2.8-7c0-3.9,1.5-6.8,4.6-8.5
			c1.7-1,4.1-1.6,7.4-2.1L293.9,165.4z M299,169.3c-0.5,0.3-1.1,0.6-1.6,0.8s-1.3,0.4-2.2,0.6l-1.9,0.4c-1.8,0.3-3.1,0.7-3.8,1.1
			c-1.3,0.8-2,1.9-2,3.5c0,1.4,0.4,2.5,1.2,3.1c0.8,0.6,1.8,1,2.9,1c1.8,0,3.5-0.5,5-1.6s2.3-3,2.4-5.8V169.3z"/>
		<path class="st1" d="M314.5,141.8h8.2v23.3l10.5-12h10.4l-11.4,11.9l11.9,19.9h-10.2l-7.7-13.6l-3.5,3.6v10h-8.2V141.8z"/>
		<path class="st1" d="M368.8,153.5c2.2,1,4.1,2.6,5.5,4.7c1.3,1.9,2.2,4.1,2.5,6.6c0.2,1.5,0.3,3.6,0.3,6.3h-23.3
			c0.1,3.2,1.2,5.4,3.3,6.7c1.3,0.8,2.8,1.2,4.6,1.2c1.9,0,3.4-0.5,4.6-1.5c0.6-0.5,1.2-1.3,1.7-2.2h8.5c-0.2,1.9-1.3,3.8-3.1,5.8
			c-2.9,3.1-6.9,4.7-12,4.7c-4.2,0-8-1.3-11.2-3.9s-4.9-6.9-4.9-12.8c0-5.5,1.5-9.8,4.4-12.7c2.9-3,6.7-4.4,11.4-4.4
			C364.1,152,366.6,152.5,368.8,153.5z M356.3,160.8c-1.2,1.2-1.9,2.9-2.2,4.9h14.4c-0.2-2.2-0.9-3.9-2.2-5c-1.3-1.1-3-1.7-5-1.7
			C359.2,158.9,357.5,159.5,356.3,160.8z"/>
		<path class="st1" d="M399.1,152.2c0.1,0,0.3,0,0.7,0v8.6c-0.5-0.1-1-0.1-1.4-0.1c-0.4,0-0.7,0-1,0c-3.4,0-5.6,1.1-6.8,3.3
			c-0.6,1.2-1,3.1-1,5.7v15.3h-8.4v-31.9h8v5.6c1.3-2.1,2.4-3.6,3.4-4.4c1.6-1.3,3.6-2,6.1-2C398.9,152.1,399,152.1,399.1,152.2z"/>
	</g>
	<g>
		<path class="st1" d="M232,203.7h30.8v7.6h-21.8v9.9h19.1v7.5h-19.1v18.1h-9V203.7z"/>
		<path class="st1" d="M280.6,227.4c1.6-0.2,2.7-0.4,3.3-0.7c1.2-0.5,1.8-1.3,1.8-2.4c0-1.3-0.5-2.2-1.4-2.7
			c-0.9-0.5-2.3-0.7-4.1-0.7c-2,0-3.4,0.5-4.2,1.5c-0.6,0.7-1,1.7-1.2,2.9h-8.1c0.2-2.8,1-5.1,2.4-6.9c2.2-2.8,6-4.2,11.4-4.2
			c3.5,0,6.6,0.7,9.4,2.1c2.7,1.4,4.1,4,4.1,7.9v14.6c0,1,0,2.2,0.1,3.7c0.1,1.1,0.2,1.8,0.5,2.2c0.3,0.4,0.7,0.7,1.2,1v1.2h-9.1
			c-0.3-0.6-0.4-1.2-0.5-1.8c-0.1-0.6-0.2-1.2-0.2-1.9c-1.2,1.2-2.5,2.3-4,3.2c-1.8,1-3.9,1.6-6.1,1.6c-2.9,0-5.3-0.8-7.2-2.5
			c-1.9-1.7-2.8-4-2.8-7c0-3.9,1.5-6.8,4.6-8.5c1.7-1,4.1-1.6,7.4-2.1L280.6,227.4z M285.7,231.3c-0.5,0.3-1.1,0.6-1.6,0.8
			c-0.5,0.2-1.3,0.4-2.2,0.6l-1.9,0.4c-1.8,0.3-3.1,0.7-3.8,1.1c-1.3,0.8-2,1.9-2,3.5c0,1.4,0.4,2.5,1.2,3.1c0.8,0.6,1.8,1,2.9,1
			c1.8,0,3.5-0.5,5-1.6s2.3-3,2.4-5.8V231.3z"/>
		<path class="st1" d="M309.9,211.1h-8.5v-7.7h8.5V211.1z M301.4,214.9h8.5v31.9h-8.5V214.9z"/>
		<path class="st1" d="M335.7,214.2c0.1,0,0.3,0,0.7,0v8.6c-0.5-0.1-1-0.1-1.4-0.1c-0.4,0-0.7,0-1,0c-3.4,0-5.6,1.1-6.8,3.3
			c-0.6,1.2-1,3.1-1,5.7v15.3h-8.4v-31.9h8v5.6c1.3-2.1,2.4-3.6,3.4-4.4c1.6-1.3,3.6-2,6.1-2C335.5,214.1,335.6,214.1,335.7,214.2z"
			/>
		<path class="st1" d="M362.1,215.5c2.2,1,4.1,2.6,5.5,4.7c1.3,1.9,2.2,4.1,2.5,6.6c0.2,1.5,0.3,3.6,0.3,6.3h-23.3
			c0.1,3.2,1.2,5.4,3.3,6.7c1.3,0.8,2.8,1.2,4.6,1.2c1.9,0,3.4-0.5,4.6-1.5c0.6-0.5,1.2-1.3,1.7-2.2h8.5c-0.2,1.9-1.3,3.8-3.1,5.8
			c-2.9,3.1-6.9,4.7-12,4.7c-4.2,0-8-1.3-11.2-3.9s-4.9-6.9-4.9-12.8c0-5.5,1.5-9.8,4.4-12.7c2.9-3,6.7-4.4,11.4-4.4
			C357.4,214,359.9,214.5,362.1,215.5z M349.6,222.8c-1.2,1.2-1.9,2.9-2.2,4.9h14.4c-0.2-2.2-0.9-3.9-2.2-5c-1.3-1.1-3-1.7-5-1.7
			C352.5,220.9,350.8,221.5,349.6,222.8z"/>
	</g>
</g>
</svg>
