<?xml version="1.0" encoding="utf-8"?>
<!-- Generator: Adobe Illustrator 23.0.6, SVG Export Plug-In . SVG Version: 6.00 Build 0)  -->
<svg version="1.1" xmlns="http://www.w3.org/2000/svg" xmlns:xlink="http://www.w3.org/1999/xlink" x="0px" y="0px"
	 viewBox="0 0 620 300" style="enable-background:new 0 0 620 300;" xml:space="preserve">
<style type="text/css">
	.st0{fill:#8FDAFF;}
	.st1{display:none;}
	.st2{display:inline;fill-rule:evenodd;clip-rule:evenodd;fill:#B2A6A6;}
	.st3{display:inline;fill-rule:evenodd;clip-rule:evenodd;fill:#151616;}
	.st4{display:inline;fill-rule:evenodd;clip-rule:evenodd;fill:#FFFFFF;}
	.st5{display:inline;fill:none;stroke:#FFFFFF;stroke-width:0.216;}
	.st6{display:inline;fill:none;stroke:#B2A6A6;stroke-width:0.216;}
	.st7{display:inline;fill-rule:evenodd;clip-rule:evenodd;fill:#686261;}
	.st8{display:inline;fill:none;stroke:#686261;stroke-width:0.216;}
	.st9{display:inline;fill-rule:evenodd;clip-rule:evenodd;fill:#D7490F;}
	.st10{display:inline;fill:none;stroke:#D7490F;stroke-width:0.216;}
	.st11{display:inline;fill-rule:evenodd;clip-rule:evenodd;fill:#D02C0F;}
	.st12{display:inline;fill:none;stroke:#D02C0F;stroke-width:0.216;}
	.st13{display:inline;fill-rule:evenodd;clip-rule:evenodd;fill:#C71F10;}
	.st14{display:inline;fill:none;stroke:#C71F10;stroke-width:0.216;}
	.st15{fill:#FFFFFF;}
	.st16{fill-rule:evenodd;clip-rule:evenodd;fill:#105325;}
	.st17{fill-rule:evenodd;clip-rule:evenodd;fill:#FFFFFF;}
	.st18{fill-rule:evenodd;clip-rule:evenodd;fill:#151616;}
	.st19{fill-rule:evenodd;clip-rule:evenodd;fill:#D7490F;}
	.st20{fill-rule:evenodd;clip-rule:evenodd;fill:#D02C0F;}
	.st21{fill-rule:evenodd;clip-rule:evenodd;fill:#123B1A;}
	.st22{fill-rule:evenodd;clip-rule:evenodd;fill:#C71F10;}
	.st23{fill-rule:evenodd;clip-rule:evenodd;fill:#102B11;}
	.st24{fill:#9E9E9E;}
	.st25{fill:#55B570;}
	.st26{fill:#105325;}
	.st27{fill:#C71F10;}
	.st28{fill:#D02C0F;}
	.st29{fill:#D7490F;}
	.st30{fill:#299DE5;}
</style>
<g id="Layer_4">
	<rect class="st0" width="620" height="300"/>
</g>
<g id="Layer_3" class="st1">
	<polygon class="st2" points="381.1,172.2 381.1,183.5 395.4,183.5 395.4,175 409.4,175 409.4,167.4 417.7,167.4 417.7,159.4 
		424.6,159.4 424.6,150.5 437.1,150.5 437.1,148.7 443.7,148.7 443.7,143.5 445.2,143.5 445.2,130.3 436.8,130.3 436.8,128.4 
		409.5,128.4 409.5,166.4 388.7,166.4 388.7,172.2 	"/>
	<polygon class="st3" points="382,36 382,35.2 390.2,35.2 390.2,37.8 397.6,37.8 397.6,24.1 406.8,24.1 406.8,16.1 417.5,16.1 
		417.5,19.4 431.5,19.4 431.5,12.4 443.6,12.4 443.6,35.8 438.5,35.8 438.5,52.1 432.4,52.1 432.4,61.3 423.5,61.3 423.5,91.4 
		417.1,91.4 417.1,102.6 430.1,102.6 430.1,94.4 439.3,94.4 439.3,119.6 448,119.6 448,136 420.4,136 420.4,152.9 399.5,152.9 
		399.5,157.6 332.5,157.6 332.5,148.5 320.5,148.5 320.5,143.2 308,143.2 308,134.2 294.7,134.2 294.7,126.6 281.3,126.6 
		281.3,120.2 295.7,120.2 295.7,126.6 303.1,126.6 303.1,119.7 325.9,119.7 325.9,110.9 349.9,110.9 349.9,103.9 368.8,103.9 
		368.8,43.4 370.7,43.4 370.7,36 	"/>
	<polygon class="st4" points="344.6,49.7 344.6,42.4 355.9,42.4 355.9,49.1 364.1,49.1 364.1,47.4 372.7,47.4 372.7,38.9 
		378.9,38.9 378.9,43.7 388.4,43.7 388.4,38.8 394,38.8 394,34 405,34 405,41.3 399.6,41.3 399.6,58.3 390.6,58.3 390.6,88 
		383.4,88 383.4,116 376.8,116 376.8,134 387.9,134 387.9,142 394.2,142 394.2,159.3 373.4,159.3 373.4,164 365.8,164 365.8,175.2 
		355.6,175.2 355.6,164.1 348.1,164.1 348.1,155.9 339.9,155.9 339.9,164 330.9,164 330.9,155 337.3,155 337.3,110.3 340.2,110.3 
		340.2,101.6 335.5,101.6 335.5,84.6 342.7,84.6 342.7,67.5 350.6,67.5 350.6,49.7 	"/>
	<polygon class="st5" points="344.6,49.7 344.6,42.4 355.9,42.4 355.9,49.1 364.1,49.1 364.1,47.4 372.7,47.4 372.7,38.9 
		378.9,38.9 378.9,43.7 388.4,43.7 388.4,38.8 394,38.8 394,34 405,34 405,41.3 399.6,41.3 399.6,58.3 390.6,58.3 390.6,88 
		383.4,88 383.4,116 376.8,116 376.8,134 387.9,134 387.9,142 394.2,142 394.2,159.3 373.4,159.3 373.4,164 365.8,164 365.8,175.2 
		355.6,175.2 355.6,164.1 348.1,164.1 348.1,155.9 339.9,155.9 339.9,164 330.9,164 330.9,155 337.3,155 337.3,110.3 340.2,110.3 
		340.2,101.6 335.5,101.6 335.5,84.6 342.7,84.6 342.7,67.5 350.6,67.5 350.6,49.7 	"/>
	<polygon class="st2" points="362.7,66.7 383.6,66.7 383.6,82.1 371.8,81.6 371.7,74.4 362.5,73.1 	"/>
	<polygon class="st6" points="362.7,66.7 383.6,66.7 383.6,82.1 371.8,81.6 371.7,74.4 362.5,73.1 	"/>
	<polygon class="st2" points="360.7,119.6 360.7,125.7 372.8,125.7 372.6,119.8 	"/>
	<polygon class="st6" points="360.7,119.6 360.7,125.7 372.8,125.7 372.6,119.8 	"/>
	<polygon class="st4" points="285.6,149.6 285.6,157.6 288.4,157.6 288.4,167.2 291.2,167.2 291.2,174.4 297.3,174.4 297.3,179.8 
		306.5,179.8 306.5,174.4 309.2,174.4 309.2,164 306.3,164 306.3,154.9 294.3,154.9 294.3,149.6 	"/>
	<polygon class="st5" points="285.6,149.6 285.6,157.6 288.4,157.6 288.4,167.2 291.2,167.2 291.2,174.4 297.3,174.4 297.3,179.8 
		306.5,179.8 306.5,174.4 309.2,174.4 309.2,164 306.3,164 306.3,154.9 294.3,154.9 294.3,149.6 	"/>
	<polygon class="st2" points="296.5,158.1 296.5,168.1 304.7,168.1 304.7,157.9 	"/>
	<polygon class="st6" points="296.5,158.1 296.5,168.1 304.7,168.1 304.7,157.9 	"/>
	<polygon class="st7" points="309.2,164 309.1,175.4 322.2,175.4 322.2,164 	"/>
	<polygon class="st8" points="309.2,164 309.1,175.4 322.2,175.4 322.2,164 	"/>
	<polygon class="st2" points="355.6,175.2 355.6,164.1 348.1,164.1 348.1,155.9 339.9,155.9 339.9,164 322.2,164 322.2,175.4 	"/>
	<polygon class="st6" points="355.6,175.2 355.6,164.1 348.1,164.1 348.1,155.9 339.9,155.9 339.9,164 322.2,164 322.2,175.4 	"/>
	<polygon class="st7" points="325.3,184.2 325.3,175.4 365.8,175.4 365.8,184.1 	"/>
	<polygon class="st8" points="325.3,184.2 325.3,175.4 365.8,175.4 365.8,184.1 	"/>
	<polygon class="st9" points="304.8,184.8 304.8,191.7 302.6,191.7 302.6,200.8 305.5,200.8 305.5,207.2 312,207.2 312,213 
		320.5,213 320.5,207.6 325.8,207.6 325.8,201 336.4,201 336.4,192.4 344,192.4 344,184.1 304.8,184.1 	"/>
	<polygon class="st10" points="304.8,184.8 304.8,191.7 302.6,191.7 302.6,200.8 305.5,200.8 305.5,207.2 312,207.2 312,213 
		320.5,213 320.5,207.6 325.8,207.6 325.8,201 336.4,201 336.4,192.4 344,192.4 344,184.1 304.8,184.1 	"/>
	<polygon class="st4" points="413.2,100.8 413.2,120.3 421.5,120.3 421.5,100.9 	"/>
	<polygon class="st5" points="413.2,100.8 413.2,120.3 421.5,120.3 421.5,100.9 	"/>
	<polygon class="st11" points="312.5,184.1 312.5,196.7 325.8,196.7 325.8,184.1 	"/>
	<polygon class="st12" points="312.5,184.1 312.5,196.7 325.8,196.7 325.8,184.1 	"/>
	<polygon class="st13" points="325.8,201 336.4,201 336.4,192.4 344,192.4 344,184.1 325.8,184.1 	"/>
	<polygon class="st14" points="325.8,201 336.4,201 336.4,192.4 344,192.4 344,184.1 325.8,184.1 	"/>
</g>
<g id="Layer_1">
	<g>
		<polygon class="st15" points="138.9,222.5 140.3,228.8 114,234.6 111.5,223.4 103.4,225.2 101.5,216.4 93.6,218.1 90.3,203.3 
			132.6,194 		"/>
		<polygon class="st15" points="197.7,175 200.8,189.1 181.8,193.3 182.9,198.5 175.6,200.1 178,210.8 167.6,213.1 165.3,202.4 
			158.1,204 156.3,195.5 148.1,197.3 149.8,205.1 141.5,206.9 139.6,198.4 144.9,197.2 135.3,153.7 138.4,153 136.5,144.4 
			132.3,145.4 128.4,127.6 134.9,126.2 131.1,109 139.1,107.2 135.4,90.6 129.3,92 127.5,83.8 138.6,81.4 140.4,89.4 147.6,87.8 
			147,85 156.6,82.9 154,71.2 156.8,70.5 157.6,74.4 161.1,73.7 162.1,78.5 171.6,76.4 170.3,70.5 175.3,69.4 174.2,64.4 
			186.3,61.8 188.2,70.5 181.1,72.1 184.6,88.2 175.7,90.2 182.2,119.8 175.4,121.3 181.4,148.6 175.2,150 179.2,168 189.5,165.7 
			191.8,176.2 		"/>
		<polygon class="st16" points="230.9,152.8 284.7,141 282.4,130.6 287.1,129.6 278,88.2 271.6,89.6 270.2,83.3 234.7,91.1 
			235.8,96.1 226.9,98.1 228.9,107.5 220.4,109.4 222.7,119.8 214.2,121.7 219.4,145.4 228.8,143.3 		"/>
		<polygon class="st17" points="243.6,99.3 253,97.2 252.3,94.1 264,91.5 264.4,93.5 270.5,92.1 276.5,119.1 269.1,120.7 
			270.1,125.4 259.3,127.7 258,122.2 249.1,124.1 		"/>
		
			<rect x="262.3" y="96.1" transform="matrix(0.9766 -0.2152 0.2152 0.9766 -16.0389 59.7055)" class="st18" width="7.7" height="14.7"/>
		<polygon class="st19" points="280.6,100.3 293.4,97.5 294.6,102.9 311.5,99.2 312.7,104.7 327.9,101.4 331.9,119.5 287.1,129.4 		
			"/>
		<polygon class="st20" points="283.8,114.9 303.5,110.6 305.1,117.9 330.4,112.4 332,119.7 287.1,129.6 		"/>
		<polygon class="st21" points="234.6,137.4 235.8,142.7 239,142 240.9,150.6 284.7,141 282.4,130.6 287.1,129.6 285.5,122.4 
			277.6,124.1 276.5,119.1 269.1,120.7 271,129.5 252.6,133.6 253.4,136.9 245.7,138.6 244.9,135.1 		"/>
		
			<rect x="285.9" y="119.1" transform="matrix(0.9766 -0.2152 0.2152 0.9766 -19.8538 65.44)" class="st22" width="9.3" height="9.6"/>
		<polygon class="st23" points="240.9,150.6 230.9,152.8 228.8,143.3 219.4,145.4 216.5,132.3 232.7,128.8 235.8,142.7 239,142 		
			"/>
		
			<rect x="208.6" y="126.6" transform="matrix(0.9766 -0.2152 0.2152 0.9766 -24.3963 49.03)" class="st15" width="8.7" height="20"/>
		<polygon class="st24" points="210.9,147.3 228.8,143.3 230.9,152.8 226.8,153.7 228.8,163.2 223.6,164.3 220.6,150.7 212,152.6 		
			"/>
		<polygon points="206.6,127.7 197.3,129.8 198.9,136.7 187.6,139.2 185.5,129.8 191.4,128.5 184.8,98.3 193.5,96.4 191.6,87.8 
			197.5,86.5 193.9,70.4 198.6,69.4 193.5,46.1 180.9,48.8 182.2,54.7 169.6,57.5 169,54.7 157.7,57.2 159.5,65.1 174.2,64.4 
			180.3,63.1 186.3,61.8 188.2,70.5 181.1,72.1 184.6,88.2 175.7,90.2 182.2,119.8 175.4,121.3 181.4,148.6 175.2,150 179.2,168 
			189.5,165.7 191.8,176.2 206.1,173.1 205.4,170.1 223.9,166 219.4,145.4 210.9,147.3 		"/>
		<polygon class="st24" points="170.8,100.3 174.1,115.3 162.7,117.8 161,110.3 152,112.3 150.3,104.8 		"/>
		
			<rect x="160.3" y="155.3" transform="matrix(0.9766 -0.2152 0.2152 0.9766 -30.2575 39.553)" class="st24" width="12.5" height="6.9"/>
		<rect x="129.7" y="91.2" transform="matrix(0.9766 -0.2152 0.2152 0.9766 -18.8434 31.1845)" width="8.2" height="21.8"/>
		
			<rect x="258.3" y="118.4" transform="matrix(0.9766 -0.2152 0.2152 0.9766 -20.1854 59.6361)" class="st24" width="11.1" height="8.3"/>
		<polygon points="135.3,153.7 123.5,156.3 124.7,162 100.7,167.3 102.7,176.4 81.2,181.1 82.7,187.8 75.7,189.3 74.2,182.6 
			59.1,186 60.9,194 73.9,191.1 75.6,198.9 88.8,196 90.4,203.3 102.4,200.7 103.6,206.5 115.9,203.8 117.7,212.4 141.5,206.9 
			139.6,198.4 144.9,197.2 		"/>
		<polyline points="174.2,64.4 175.3,69.4 170.3,70.5 171.6,76.4 162.1,78.5 156.1,79.9 157.3,85.6 147.6,87.8 140.4,89.4 
			138.6,81.4 149.9,78.9 147.6,68.2 159.6,65.6 159.5,65.1 		"/>
		<path d="M126.7,72.3"/>
		<polygon class="st25" points="211.9,168.7 214,178.2 207.9,179.5 209.5,187.2 200.8,189.1 202.5,196.9 189.8,199.7 191.6,207.6 
			178,210.6 175.6,200 182.9,198.4 181.8,193.2 200.8,189.1 197.7,175 206.1,173.1 205.4,170.1 		"/>
		
			<rect x="138.8" y="214.9" transform="matrix(0.9766 -0.2152 0.2152 0.9766 -43.547 39.3849)" class="st26" width="40.7" height="9.6"/>
		<polygon class="st25" points="167.6,213.1 128.3,221.8 125.8,210.5 149.9,205.2 148.1,197.3 156.3,195.5 158.1,204 165.3,202.4 		
			"/>
		<polygon class="st27" points="141.5,228.5 145,244.8 156.1,242.4 154.1,233.7 161.4,232.1 159.7,224.5 		"/>
		
			<rect x="130.5" y="229.7" transform="matrix(0.9766 -0.2152 0.2152 0.9766 -47.5414 34.9387)" class="st28" width="12.5" height="12.2"/>
		<polygon class="st29" points="147.5,239.7 149.8,250.4 145,251.5 146.2,257 136,259.2 134.8,253.6 127.7,255.2 126.3,248.9 
			122.7,249.7 120.7,240.4 124.2,239.6 122.7,232.7 130.4,230.9 133.1,242.9 		"/>
		<polygon class="st26" points="117.7,212.4 120.2,223.5 132.2,220.9 129.7,209.6 		"/>
	</g>
</g>
<g id="Layer_5">
</g>
<g id="Layer_6">
	<g>
		<rect x="494.9" y="212.7" class="st15" width="21" height="11.8"/>
		<rect x="406.6" y="135.5" class="st15" width="14.8" height="14.9"/>
		<polygon class="st15" points="414,178.3 414,188 428.1,188 428.1,212.1 440.7,212.1 440.7,223.6 485.7,223.6 485.7,212.1 
			498.6,212.1 498.6,188 511.2,188 511.2,152.7 497.7,152.7 497.7,143.2 471.8,143.2 471.8,154.4 454.9,154.4 454.9,133.5 
			442,133.5 442,144.6 430.9,144.6 430.9,154.4 420.7,154.4 420.7,178.3 		"/>
		<rect x="414" y="171.1" class="st24" width="6.8" height="24"/>
		<polygon class="st29" points="426.5,172.8 426.5,180.5 435.8,180.5 435.8,192.2 444.6,192.2 444.6,210.8 462,210.8 462,218.6 
			475.7,218.6 475.7,210.8 485.6,210.8 485.6,218.6 499.7,218.6 499.7,187.9 511.1,187.9 511.1,176.6 497.8,176.6 497.8,168.1 
			450.2,168.1 450.2,156.9 439.1,156.9 439.1,172.8 		"/>
		<polygon class="st28" points="444.6,173.7 444.6,180.9 452,180.9 452,196.8 482.2,196.8 482.2,185 474.8,185 474.8,173.7 		"/>
		<rect x="452" y="180.9" class="st27" width="12.9" height="15.8"/>
		<rect x="414" y="142.4" class="st30" width="16.9" height="16.8"/>
		<polygon class="st27" points="482.2,185 482.2,201.4 492.5,201.4 492.5,184.7 		"/>
		<rect x="414" y="188" class="st30" width="21.8" height="9.9"/>
		<rect x="424.6" y="210" class="st30" width="17.6" height="21.3"/>
		<rect x="484.8" y="157.3" class="st24" width="12.6" height="6.2"/>
		<rect x="471" y="128" class="st15" width="11.2" height="8.6"/>
		<rect x="497.4" y="123.2" class="st15" width="16" height="12.3"/>
		<rect x="505.4" y="129.4" class="st30" width="15.7" height="12"/>
		<rect x="521.1" y="153.9" class="st15" width="10.8" height="9.5"/>
		<rect x="527" y="136.6" class="st29" width="9.8" height="9.9"/>
		<rect x="449.4" y="115.8" class="st29" width="9.8" height="9.9"/>
		<rect x="521" y="173.7" class="st30" width="10.9" height="14.9"/>
		<rect x="527" y="194.9" class="st15" width="9.8" height="10.3"/>
		<rect x="504.8" y="198.5" class="st29" width="9.9" height="9.6"/>
		<rect x="497.4" y="236.3" class="st29" width="9.9" height="9.6"/>
		<rect x="447.8" y="231.3" class="st15" width="12.9" height="8.6"/>
		<rect x="473.4" y="231.3" class="st15" width="8.5" height="8.6"/>
		<rect x="409.7" y="210" class="st15" width="8.5" height="8.6"/>
		<rect x="399.3" y="194.7" class="st29" width="8.5" height="8.6"/>
		<rect x="395" y="162.8" class="st15" width="8.5" height="8.6"/>
		<rect x="388.5" y="178.8" class="st30" width="15.1" height="8.6"/>
		<rect x="421.4" y="224.1" class="st15" width="9.1" height="10.1"/>
		<rect x="412.3" y="234.2" class="st15" width="9.1" height="10.1"/>
	</g>
</g>
</svg>
