<?xml version="1.0" encoding="utf-8"?>
<!-- Generator: Adobe Illustrator 19.2.1, SVG Export Plug-In . SVG Version: 6.00 Build 0)  -->
<svg version="1.1" xmlns="http://www.w3.org/2000/svg" xmlns:xlink="http://www.w3.org/1999/xlink" x="0px" y="0px"
	 viewBox="0 0 620 300" style="enable-background:new 0 0 620 300;" xml:space="preserve">
<style type="text/css">
	.st0{fill:#F9F0C7;}
	.st1{fill:none;stroke:#4B4C4B;stroke-width:4;stroke-linecap:round;stroke-linejoin:round;stroke-miterlimit:10;}
	.st2{fill:#3F62BA;stroke:#4B4C4B;stroke-width:4;stroke-linejoin:round;stroke-miterlimit:10;}
	.st3{fill:#ED6B51;stroke:#4B4C4B;stroke-width:4;stroke-linejoin:round;stroke-miterlimit:10;}
	.st4{fill:#ED6B51;stroke:#4B4C4B;stroke-width:3.5;stroke-linejoin:round;stroke-miterlimit:10;}
	.st5{fill:#75D8A2;stroke:#4B4C4B;stroke-width:3.5;stroke-linejoin:round;stroke-miterlimit:10;}
	.st6{fill:#4B4C4B;}
</style>
<g id="Layer_1">
	<rect class="st0" width="620" height="300"/>
</g>
<g id="Layer_3">
</g>
<g id="Layer_2">
	<polyline class="st1" points="262.5,68.8 286.9,68.8 295.6,77.6 	"/>
	<circle class="st2" cx="310" cy="104.1" r="28.2"/>
	<rect x="300.3" y="192.2" class="st3" width="19.5" height="19.5"/>
	<rect x="300.3" y="211.7" class="st2" width="19.5" height="19.5"/>
	<polygon class="st2" points="255.1,90.9 216.9,85.4 178.6,80 210.9,127.5 249.2,132.9 310,141.5 	"/>
	<rect x="287.9" y="158.4" class="st2" width="44.2" height="33.8"/>
	<polygon class="st3" points="268.5,176.3 237.7,182.1 206.9,187.9 230.2,142.2 261,136.4 310,127.1 	"/>
	<polygon class="st2" points="364.9,90.9 403.1,85.4 441.4,80 409.1,127.5 370.8,132.9 310,141.5 	"/>
	<polygon class="st3" points="351.5,176.3 382.3,182.1 413.1,187.9 389.8,142.2 359,136.4 310,127.1 	"/>
	<rect x="281.8" y="105.2" class="st3" width="56.3" height="67.8"/>
	<path class="st4" d="M319.9,155h-19.8c-3.2,0-5.8-2.6-5.8-5.8v-19.8c0-3.2,2.6-5.8,5.8-5.8h19.8c3.2,0,5.8,2.6,5.8,5.8v19.8
		C325.7,152.4,323.1,155,319.9,155z"/>
	<path class="st5" d="M314.8,146.9h-9.6c-1.6,0-2.8-1.3-2.8-2.8v-9.6c0-1.6,1.3-2.8,2.8-2.8h9.6c1.6,0,2.8,1.3,2.8,2.8v9.6
		C317.6,145.6,316.4,146.9,314.8,146.9z"/>
	<g>
		<path class="st6" d="M329.4,130h-3c-0.9,0-1.6-0.7-1.6-1.6v0c0-0.9,0.7-1.6,1.6-1.6h3c0.9,0,1.6,0.7,1.6,1.6v0
			C331.1,129.3,330.3,130,329.4,130z"/>
		<path class="st6" d="M329.4,137.3h-3c-0.9,0-1.6-0.7-1.6-1.6l0,0c0-0.9,0.7-1.6,1.6-1.6h3c0.9,0,1.6,0.7,1.6,1.6l0,0
			C331.1,136.5,330.3,137.3,329.4,137.3z"/>
		<path class="st6" d="M329.4,144.5h-3c-0.9,0-1.6-0.7-1.6-1.6v0c0-0.9,0.7-1.6,1.6-1.6h3c0.9,0,1.6,0.7,1.6,1.6v0
			C331.1,143.8,330.3,144.5,329.4,144.5z"/>
		<path class="st6" d="M329.4,151.8h-3c-0.9,0-1.6-0.7-1.6-1.6l0,0c0-0.9,0.7-1.6,1.6-1.6h3c0.9,0,1.6,0.7,1.6,1.6l0,0
			C331.1,151.1,330.3,151.8,329.4,151.8z"/>
	</g>
	<g>
		<path class="st6" d="M293.5,130h-3c-0.9,0-1.6-0.7-1.6-1.6l0,0c0-0.9,0.7-1.6,1.6-1.6h3c0.9,0,1.6,0.7,1.6,1.6l0,0
			C295.1,129.3,294.4,130,293.5,130z"/>
		<path class="st6" d="M293.5,137.3h-3c-0.9,0-1.6-0.7-1.6-1.6l0,0c0-0.9,0.7-1.6,1.6-1.6h3c0.9,0,1.6,0.7,1.6,1.6l0,0
			C295.1,136.5,294.4,137.3,293.5,137.3z"/>
		<path class="st6" d="M293.5,144.5h-3c-0.9,0-1.6-0.7-1.6-1.6l0,0c0-0.9,0.7-1.6,1.6-1.6h3c0.9,0,1.6,0.7,1.6,1.6l0,0
			C295.1,143.8,294.4,144.5,293.5,144.5z"/>
		<path class="st6" d="M293.5,151.8h-3c-0.9,0-1.6-0.7-1.6-1.6l0,0c0-0.9,0.7-1.6,1.6-1.6h3c0.9,0,1.6,0.7,1.6,1.6l0,0
			C295.1,151.1,294.4,151.8,293.5,151.8z"/>
	</g>
	<line class="st1" x1="286.9" y1="68.8" x2="280.8" y2="77.6"/>
	<line class="st1" x1="274.7" y1="68.8" x2="268.6" y2="77.6"/>
	<line class="st1" x1="262.5" y1="68.8" x2="256.3" y2="77.6"/>
	<polyline class="st1" points="262.5,68.8 286.9,68.8 295.6,77.6 	"/>
	<line class="st1" x1="286.9" y1="68.8" x2="280.8" y2="77.6"/>
	<line class="st1" x1="274.7" y1="68.8" x2="268.6" y2="77.6"/>
	<line class="st1" x1="262.5" y1="68.8" x2="256.3" y2="77.6"/>
	<polyline class="st1" points="357.5,68.8 333.1,68.8 324.4,77.6 	"/>
	<line class="st1" x1="333.1" y1="68.8" x2="339.2" y2="77.6"/>
	<line class="st1" x1="345.3" y1="68.8" x2="351.4" y2="77.6"/>
	<line class="st1" x1="357.5" y1="68.8" x2="363.7" y2="77.6"/>
	<polyline class="st1" points="357.5,68.8 333.1,68.8 324.4,77.6 	"/>
	<line class="st1" x1="333.1" y1="68.8" x2="339.2" y2="77.6"/>
	<line class="st1" x1="345.3" y1="68.8" x2="351.4" y2="77.6"/>
	<line class="st1" x1="357.5" y1="68.8" x2="363.7" y2="77.6"/>
</g>
</svg>
