<svg id="Layer_1" xmlns="http://www.w3.org/2000/svg" viewBox="0 0 620 300"><style>.st0{fill:#ffcb04}.st1,.st2,.st3{fill:#3d5191;stroke:#0b0f1c;stroke-width:3;stroke-linecap:round;stroke-linejoin:round;stroke-miterlimit:10}.st2,.st3{fill:#dadce0}.st3{fill:#38631e}.st4,.st5,.st6{fill:#0b0f1c}.st5,.st6{stroke:#0b0f1c;stroke-width:2;stroke-linecap:round;stroke-linejoin:round;stroke-miterlimit:10}.st6{stroke-width:4}.st7{fill:#f5f6f7}.st10,.st11,.st12,.st13,.st8,.st9{fill:none;stroke:#0b0f1c;stroke-width:3;stroke-linecap:round;stroke-linejoin:round;stroke-miterlimit:10}.st10,.st11,.st12,.st13,.st9{fill:#e86275}.st10,.st11,.st12,.st13{fill:#ffcb04}.st11,.st12,.st13{fill:none;stroke:#95aa99}.st12,.st13{stroke:#e8be7f}.st13{stroke:#d59b6d}</style><path id="back" class="st0" d="M0 0h620v300H0V0z"/><g id="galileo"><path class="st1" d="M230.1 118.9v61h-91v-61h91z"/><path class="st2" d="M167.4 113.1V132h-15.3v-18.9h15.3z"/><path class="st3" d="M180.1 146.8v20.3h-20.3v-20.3h20.3z"/><path class="st4" d="M175 151.9v10.2h-10.2v-10.2H175z"/><path class="st5" d="M132.5 160.2h13.2v7.7h-13.2v-7.7z"/><path class="st6" d="M222.7 128h-40.4 40.4zm0 38h-33 33z"/><path class="st7" d="M210 138.3l-1.7-3.5c-.1-.2-.2-.3-.4-.3s-.4.1-.5.3l-1.7 3.1-1.4-3c-.1-.2-.2-.3-.4-.3s-.4.1-.5.3l-1.7 3.1-1.4-3c-.1-.2-.2-.3-.4-.3s-.4.1-.5.3l-1.7 3.1-1.4-3c-.1-.2-.2-.3-.4-.3s-.4.1-.5.3l-1.7 3.1-1.4-3c-.1-.2-.2-.3-.4-.3s-.4.1-.5.3l-1.9 3.5c-.1.2 0 .5.2.7.2.1.5 0 .7-.2l1.5-2.6 1.2 2.6c.1.2.3.3.5.3h.2c.2.1.5 0 .6-.2l1.5-2.6 1.2 2.6c.1.2.3.3.5.3h.2c.2.1.5 0 .6-.2l1.5-2.6 1.2 2.6c.1.2.3.3.5.3h.2c.2.1.5 0 .6-.2l1.5-2.6 1.2 2.6c.1.2.3.3.5.3h.2c.2.1.5 0 .6-.2l1.5-2.6 1.2 2.6c.1.2.3.3.5.3h.2c.2-1.1.4-1.4.2-1.6z"/></g><g id="Layer_3"><path class="st8" d="M115 164.5H75.5v-105H281l7.7 21.5m.2.3l10.4-22.1 8.8 21.9 8.8-22.1 9.7 22 8-22 9.4 22.3 8.8-21.8h163.7V105"/><circle class="st9" cx="515.5" cy="147" r="28.3"/><circle class="st10" cx="515.5" cy="147" r="9.4"/><path class="st11" d="M510.4 125.1l-1.8 5.8m20.5 6.9l4.8-3.6m-5.5 25.9l-1.8 5.8m-26.5-3.1l4.8-3.6"/><path class="st12" d="M518.2 167.3l-5.4-2.6M495.2 147l.6 6m23.6-27l4.8 3.6"/><path class="st13" d="M533.8 147.1l1.4 5.8m-33-16.1l-5.4 2.4"/><path class="st8" d="M516.5 191v56.5H170l-.1-50.5"/></g></svg>