<svg xmlns="http://www.w3.org/2000/svg" viewBox="0 0 620 300"><style>.st0{fill:#d2d4d8}.st1{fill:#e26e20}.st2{fill:#3f3e3e;stroke:#514f4f;stroke-width:5;stroke-miterlimit:10}.st3{fill:#efefef}.st4{fill:#366da8}.st5{fill:#f4f4f4}.st6{fill:#302f2f}.st7,.st8{stroke-miterlimit:10}.st7{stroke-linecap:round;stroke-linejoin:round;fill:#49708e;stroke:#edeeef;stroke-width:3}.st8{fill:#e8e6e6;stroke:#514f4f;stroke-width:5}.st9{fill:#3f3e3e}.st10{fill:#514f4f}.st11{fill:#fff}</style><path class="st0" d="M0 0h620v300H0z" id="Layer_4"/><g id="Layer_2"><path class="st1" d="M-117.7 372.7H85V418h-202.7z"/><path class="st2" d="M84.2 397.5H-80.9c-10.4 0-18.8 8.1-18.8 18s8.4 18 18.8 18H84.2c10.4 0 18.8-8.1 18.8-18s-8.4-18-18.8-18z"/><path class="st3" d="M349.2 138.5H402v14.1h-52.8z"/><path class="st4" d="M214 138.5h52.8v14.1H214zM214 119.1h52.8v14.1H214z"/><path class="st2" d="M-56.3 88.5H-39V204h-17.3zM-173 88.5h19V204h-19z"/><path class="st1" d="M-56.3 61h-98.6l-9.1 14v144h116V75z"/><path class="st5" d="M-155.7 152.2h40.7v58.3h-40.7z"/><path class="st6" d="M264.5 133.7h89.2v18.9h-89.2z"/><path class="st7" d="M-155.7 95.9h40.7v46.8h-40.7z"/><path class="st2" d="M250.3 83.6H368v57H250.3z"/><circle class="st8" cx="309.1" cy="112.1" r="14.1"/><path class="st9" d="M182.1 170.7h50.6v43.2h-50.6z"/><path class="st10" d="M230.2 173.2v38.2h-45.6v-38.2h45.6m5-5h-55.6v48.2h55.6v-48.2z"/><path class="st9" d="M385.8 170.7h50.6v43.2h-50.6z"/><path class="st10" d="M433.9 173.2v38.2h-45.6v-38.2h45.6m5-5h-55.6v48.2h55.6v-48.2z"/><path class="st1" d="M205 152.5h208.1v51H205z"/><path class="st2" d="M276.9 175.6h64.5v20.3h-64.5z"/><circle class="st6" cx="330" cy="185.8" r="6"/><circle class="st6" cx="315.5" cy="185.8" r="4.4"/><path class="st11" d="M178 118.1h6.6c0-16.3 13.2-29.5 29.5-29.5V82c-20 .1-36.1 16.2-36.1 36.1z"/><path class="st11" d="M191.1 118.1h6.6c0-9 7.3-16.4 16.4-16.4v-6.6c-12.7.1-23 10.4-23 23z"/></g></svg>