<?xml version="1.0" encoding="utf-8"?>
<!-- Generator: Adobe Illustrator 19.2.1, SVG Export Plug-In . SVG Version: 6.00 Build 0)  -->
<svg version="1.1" id="Layer_1" xmlns="http://www.w3.org/2000/svg" xmlns:xlink="http://www.w3.org/1999/xlink" x="0px" y="0px"
	 viewBox="0 0 620 300" style="enable-background:new 0 0 620 300;" xml:space="preserve">
<rect x="54.6" y="80.4" style="fill:none;stroke:#86D7E0;stroke-width:3;stroke-linecap:round;stroke-linejoin:round;stroke-miterlimit:10;" width="135.4" height="91"/>
<rect x="263.5" y="126.9" style="fill:none;stroke:#E2DE61;stroke-width:3;stroke-linecap:round;stroke-linejoin:round;stroke-miterlimit:10;" width="115.8" height="131.3"/>
<rect x="450" y="81.4" style="fill:none;stroke:#90DD9F;stroke-width:3;stroke-linecap:round;stroke-linejoin:round;stroke-miterlimit:10;" width="115.8" height="150.5"/>
<g>
	<rect x="115.4" y="90.7" style="opacity:0.5;fill:#ABD6D8;" width="62.4" height="51.9"/>
	<rect x="66.8" y="109.1" style="opacity:0.5;fill:#ABD6D8;" width="62.4" height="51.9"/>
</g>
<g>
	<rect x="274.6" y="138.4" style="opacity:0.5;fill:#E2DE86;" width="62.4" height="51.9"/>
	<rect x="305.8" y="164.4" style="opacity:0.5;fill:#E2DE86;" width="62.4" height="51.9"/>
</g>
<rect x="274.6" y="229.1" style="opacity:0.5;fill:#E2DE86;" width="93.6" height="17.4"/>
<rect x="461.1" y="93.3" style="opacity:0.5;fill:#9BD3A4;" width="93.6" height="17.4"/>
<rect x="461.1" y="125.2" style="opacity:0.5;fill:#9BD3A4;" width="93.6" height="17.4"/>
<rect x="507.8" y="177.5" transform="matrix(1.249295e-10 -1 1 1.249295e-10 345.2286 732.2052)" style="opacity:0.5;fill:#9BD3A4;" width="61.7" height="32"/>
<rect x="461.1" y="162.6" style="opacity:0.5;fill:#9BD3A4;" width="29.9" height="29.9"/>
<rect x="476.1" y="177.6" style="opacity:0.5;fill:#9BD3A4;" width="29.9" height="29.9"/>
<g>
	<g>
		<path style="fill:none;stroke:#EDEDED;stroke-width:3;stroke-linecap:round;stroke-linejoin:round;" d="M121.3,187.7
			c0.6,1.4,1.4,2.9,2.2,4.5"/>
		
			<path style="fill:none;stroke:#EDEDED;stroke-width:3;stroke-linecap:round;stroke-linejoin:round;stroke-dasharray:10.3531,10.3531;" d="
			M128.7,201.1c4.9,7.4,11.6,15.5,20.8,22.7c30,23.5,66,21.5,83.6,18.6"/>
		<path style="fill:none;stroke:#EDEDED;stroke-width:3;stroke-linecap:round;stroke-linejoin:round;" d="M238.2,241.5
			c2.3-0.5,3.9-0.9,4.9-1.1"/>
	</g>
</g>
</svg>
