<?xml version="1.0" encoding="utf-8"?>
<!-- Generator: Adobe Illustrator 19.2.1, SVG Export Plug-In . SVG Version: 6.00 Build 0)  -->
<svg version="1.1" xmlns="http://www.w3.org/2000/svg" xmlns:xlink="http://www.w3.org/1999/xlink" x="0px" y="0px"
	 viewBox="0 0 620 300" style="enable-background:new 0 0 620 300;" xml:space="preserve">
<g id="Layer_1">
</g>
<g id="Layer_2">
	<g>
		<ellipse style="opacity:0.25;fill:#BDD1CF;" cx="310" cy="150.1" rx="49.8" ry="13.3"/>
		<ellipse style="opacity:0.25;fill:#BDD1CF;" cx="310" cy="136.7" rx="49.8" ry="13.3"/>
		<ellipse style="opacity:0.25;fill:#BDD1CF;" cx="310" cy="123.4" rx="49.8" ry="13.3"/>
		<ellipse style="opacity:0.25;fill:#BDD1CF;" cx="310" cy="110.1" rx="49.8" ry="13.3"/>
		<ellipse style="opacity:0.25;fill:#BDD1CF;" cx="310" cy="176.7" rx="49.8" ry="13.3"/>
		<ellipse style="opacity:0.25;fill:#BDD1CF;" cx="310" cy="190" rx="49.8" ry="13.3"/>
		<ellipse style="opacity:0.25;fill:#BDD1CF;" cx="310" cy="203.3" rx="49.8" ry="13.3"/>
		<ellipse style="opacity:0.25;fill:#BDD1CF;" cx="310" cy="163.3" rx="49.8" ry="13.3"/>
		<ellipse style="fill:none;stroke:#A9D3D1;stroke-width:3;stroke-miterlimit:10;" cx="310" cy="203.3" rx="49.8" ry="13.3"/>
		<ellipse style="fill:none;stroke:#A9D3D1;stroke-width:3;stroke-miterlimit:10;" cx="310" cy="96.8" rx="49.8" ry="13.4"/>
		<rect x="358.2" y="96.8" style="fill:#A9D3D1;" width="3.1" height="106.5"/>
		<rect x="258.7" y="96.8" style="fill:#A9D3D1;" width="3.1" height="106.5"/>
	</g>
	<g>
		<ellipse style="opacity:0.2;fill:#97C998;" cx="472.4" cy="150.1" rx="49.8" ry="13.3"/>
		<ellipse style="opacity:0.2;fill:#97C998;" cx="472.4" cy="136.7" rx="49.8" ry="13.3"/>
		<ellipse style="opacity:0.2;fill:#97C998;" cx="472.4" cy="123.4" rx="49.8" ry="13.3"/>
		<ellipse style="opacity:0.2;fill:#97C998;" cx="472.4" cy="110.1" rx="49.8" ry="13.3"/>
		<ellipse style="opacity:0.2;fill:#97C998;" cx="472.4" cy="176.7" rx="49.8" ry="13.3"/>
		<ellipse style="opacity:0.2;fill:#97C998;" cx="472.4" cy="190" rx="49.8" ry="13.3"/>
		<ellipse style="opacity:0.2;fill:#97C998;" cx="472.4" cy="203.3" rx="49.8" ry="13.3"/>
		<ellipse style="opacity:0.2;fill:#97C998;" cx="472.4" cy="163.3" rx="49.8" ry="13.3"/>
		<ellipse style="fill:none;stroke:#8FDB94;stroke-width:3;stroke-miterlimit:10;" cx="472.4" cy="203.3" rx="49.8" ry="13.3"/>
		<ellipse style="fill:none;stroke:#8FDB94;stroke-width:3;stroke-miterlimit:10;" cx="472.4" cy="96.8" rx="49.8" ry="13.4"/>
		<rect x="520.6" y="96.8" style="fill:#8FDB94;" width="3.1" height="106.5"/>
		<rect x="421.1" y="96.8" style="fill:#8FDB94;" width="3.1" height="106.5"/>
	</g>
	<rect x="195.8" y="96.7" style="fill:#E0714F;" width="3.1" height="106.5"/>
	<g>
		<ellipse style="opacity:0.2;fill:#D6735C;" cx="147.6" cy="150.1" rx="49.8" ry="13.3"/>
		<ellipse style="opacity:0.2;fill:#D6735C;" cx="147.6" cy="136.7" rx="49.8" ry="13.3"/>
		<ellipse style="opacity:0.2;fill:#D6735C;" cx="147.6" cy="123.4" rx="49.8" ry="13.3"/>
		<ellipse style="opacity:0.2;fill:#D6735C;" cx="147.6" cy="110.1" rx="49.8" ry="13.3"/>
		<ellipse style="opacity:0.2;fill:#D6735C;" cx="147.6" cy="176.7" rx="49.8" ry="13.3"/>
		<ellipse style="opacity:0.2;fill:#D6735C;" cx="147.6" cy="190" rx="49.8" ry="13.3"/>
		<ellipse style="opacity:0.2;fill:#D6735C;" cx="147.6" cy="203.3" rx="49.8" ry="13.3"/>
		<ellipse style="opacity:0.2;fill:#D6735C;" cx="147.6" cy="163.3" rx="49.8" ry="13.3"/>
		<ellipse style="fill:none;stroke:#E0714F;stroke-width:3;stroke-miterlimit:10;" cx="147.6" cy="203.3" rx="49.8" ry="13.3"/>
		<ellipse style="fill:none;stroke:#E0714F;stroke-width:3;stroke-miterlimit:10;" cx="147.6" cy="96.8" rx="49.8" ry="13.4"/>
		<rect x="96.3" y="96.8" style="fill:#E0714F;" width="3.1" height="106.5"/>
	</g>
	<g>
		<g>
			<path style="fill:none;stroke:#EDEDED;stroke-width:3;stroke-linecap:round;stroke-linejoin:round;" d="M310,69
				c-0.9-0.8-2.2-1.9-3.8-3.2"/>
			
				<path style="fill:none;stroke:#EDEDED;stroke-width:3;stroke-linecap:round;stroke-linejoin:round;stroke-dasharray:9.8191,9.8191;" d="
				M298.3,60c-13.9-9.4-38.1-21.8-70.1-21.6c-34.5,0.2-59.7,15-72.5,24.4"/>
			<path style="fill:none;stroke:#EDEDED;stroke-width:3;stroke-linecap:round;stroke-linejoin:round;" d="M151.8,65.8
				c-1.6,1.3-2.9,2.4-3.8,3.2"/>
		</g>
	</g>
	<g>
		<g>
			<path style="fill:none;stroke:#EDEDED;stroke-width:3;stroke-linecap:round;stroke-linejoin:round;" d="M472,233.4
				c-0.9,0.8-2.2,1.9-3.8,3.2"/>
			
				<path style="fill:none;stroke:#EDEDED;stroke-width:3;stroke-linecap:round;stroke-linejoin:round;stroke-dasharray:9.8191,9.8191;" d="
				M460.3,242.4c-13.9,9.4-38.1,21.8-70.1,21.6c-34.5-0.2-59.7-15-72.5-24.4"/>
			<path style="fill:none;stroke:#EDEDED;stroke-width:3;stroke-linecap:round;stroke-linejoin:round;" d="M313.8,236.6
				c-1.6-1.3-2.9-2.4-3.8-3.2"/>
		</g>
	</g>
</g>
</svg>
