<svg id="back" xmlns="http://www.w3.org/2000/svg" viewBox="0 0 620 300"><defs><style>.cls-1,.cls-6{fill:#ea4c89;}.cls-2{fill:#e2d5e3;}.cls-3,.cls-4{fill:#f9f9f9;}.cls-4{fill-rule:evenodd;}.cls-5{fill:none;stroke:#ea4c89;stroke-miterlimit:10;}.cls-6{font-size:10px;font-family:Helvetica;font-weight:700;}.cls-6,.cls-8{letter-spacing:10px;}.cls-7{letter-spacing:9px;}</style></defs><title>dribbble_thanks</title><rect class="cls-1" width="620" height="300"/><rect class="cls-2" x="146.37" y="41.01" width="333.51" height="224.7"/><rect class="cls-3" x="140.85" y="34.71" width="333.51" height="224.7"/><path class="cls-1" d="M434.69,49.13a2.76,2.76,0,0,1,3.25,0,4.11,4.11,0,0,0,3.56.56,2.76,2.76,0,0,1,3.09,1,4.11,4.11,0,0,0,3.21,1.64,2.76,2.76,0,0,1,2.63,1.91A4.11,4.11,0,0,0,453,56.79a2.76,2.76,0,0,1,1.91,2.63,4.11,4.11,0,0,0,1.64,3.21,2.76,2.76,0,0,1,1,3.09,4.11,4.11,0,0,0,.56,3.56,2.76,2.76,0,0,1,0,3.25,4.11,4.11,0,0,0-.56,3.56,2.76,2.76,0,0,1-1,3.09,4.11,4.11,0,0,0-1.64,3.21A2.76,2.76,0,0,1,453,85a4.11,4.11,0,0,0-2.55,2.55,2.76,2.76,0,0,1-2.63,1.91,4.11,4.11,0,0,0-3.21,1.64,2.76,2.76,0,0,1-3.09,1,4.11,4.11,0,0,0-3.56.56,2.76,2.76,0,0,1-3.25,0,4.11,4.11,0,0,0-3.56-.56,2.76,2.76,0,0,1-3.09-1,4.11,4.11,0,0,0-3.21-1.64,2.76,2.76,0,0,1-2.63-1.91A4.11,4.11,0,0,0,419.65,85a2.76,2.76,0,0,1-1.91-2.63,4.11,4.11,0,0,0-1.64-3.21,2.76,2.76,0,0,1-1-3.09,4.11,4.11,0,0,0-.56-3.56,2.76,2.76,0,0,1,0-3.25,4.11,4.11,0,0,0,.56-3.56,2.76,2.76,0,0,1,1-3.09,4.11,4.11,0,0,0,1.64-3.21,2.76,2.76,0,0,1,1.91-2.63,4.11,4.11,0,0,0,2.55-2.55,2.76,2.76,0,0,1,2.63-1.91A4.11,4.11,0,0,0,428,50.69a2.76,2.76,0,0,1,3.09-1A4.11,4.11,0,0,0,434.69,49.13Z"/><g id="ball-2" data-name="ball"><path class="cls-4" d="M436.31,56.4A14.51,14.51,0,1,0,450.82,70.9,14.52,14.52,0,0,0,436.31,56.4Zm9.59,6.69a12.33,12.33,0,0,1,2.8,7.72,29,29,0,0,0-8.63-.4l-0.27-.64c-0.26-.6-0.53-1.2-0.82-1.79A16.51,16.51,0,0,0,445.9,63.09Zm-9.59-4.56a12.34,12.34,0,0,1,8.21,3.12A14,14,0,0,1,438,66.13a66.14,66.14,0,0,0-4.62-7.25A12.38,12.38,0,0,1,436.31,58.53ZM431,59.71a79.06,79.06,0,0,1,4.59,7.17,46.22,46.22,0,0,1-11.46,1.51A12.44,12.44,0,0,1,431,59.71Zm-7.12,11.21c0-.13,0-0.25,0-0.38a45.71,45.71,0,0,0,12.74-1.76c0.35,0.69.69,1.4,1,2.1l-0.49.15a19.66,19.66,0,0,0-10.07,8.18A12.34,12.34,0,0,1,423.92,70.92Zm12.39,12.39a12.33,12.33,0,0,1-7.61-2.62c0.22-.46,2.73-5.3,9.72-7.74l0.08,0a51.52,51.52,0,0,1,2.64,9.4A12.32,12.32,0,0,1,436.31,83.32Zm6.92-2.12a53.48,53.48,0,0,0-2.41-8.84,18.19,18.19,0,0,1,7.72.53A12.41,12.41,0,0,1,443.24,81.2Z"/></g><polygon class="cls-1" points="347.83 47.85 347.83 97.77 347.83 147.69 347.83 197.61 347.83 247.54 347.5 247.54 347.15 247.54 346.81 247.54 346.48 247.54 346.48 197.61 346.48 147.69 346.48 97.77 346.48 47.85 346.81 47.85 347.15 47.85 347.5 47.85 347.83 47.85"/><polygon class="cls-1" points="459.37 167.47 434.94 167.47 410.52 167.47 386.1 167.47 361.67 167.47 361.67 167.13 361.67 166.78 361.67 166.44 361.67 166.1 386.1 166.1 410.52 166.1 434.94 166.1 459.37 166.1 459.37 166.44 459.37 166.78 459.37 167.13 459.37 167.47"/><polygon class="cls-1" points="459.37 178.68 434.94 178.68 410.52 178.68 386.1 178.68 361.67 178.68 361.67 178.34 361.67 178 361.67 177.66 361.67 177.32 386.1 177.32 410.52 177.32 434.94 177.32 459.37 177.32 459.37 177.66 459.37 178 459.37 178.34 459.37 178.68"/><polygon class="cls-1" points="427.68 189.77 411.18 189.77 394.68 189.77 378.17 189.77 361.67 189.77 361.67 189.46 361.67 189.15 361.67 188.84 361.67 188.53 378.17 188.53 394.68 188.53 411.18 188.53 427.68 188.53 427.68 188.84 427.68 189.15 427.68 189.46 427.68 189.77"/><polygon class="cls-1" points="427.68 200.98 411.18 200.98 394.68 200.98 378.17 200.98 361.67 200.98 361.67 200.67 361.67 200.37 361.67 200.06 361.67 199.75 378.17 199.75 394.68 199.75 411.18 199.75 427.68 199.75 427.68 200.06 427.68 200.37 427.68 200.67 427.68 200.98"/><polygon class="cls-1" points="388.25 223.41 381.6 223.41 374.96 223.41 368.31 223.41 361.67 223.41 361.67 223.1 361.67 222.8 361.67 222.49 361.67 222.18 368.31 222.18 374.96 222.18 381.6 222.18 388.25 222.18 388.25 222.49 388.25 222.8 388.25 223.1 388.25 223.41"/><polygon class="cls-1" points="459.37 212.2 434.94 212.2 410.52 212.2 386.1 212.2 361.67 212.2 361.67 211.89 361.67 211.58 361.67 211.27 361.67 210.97 386.1 210.97 410.52 210.97 434.94 210.97 459.37 210.97 459.37 211.27 459.37 211.58 459.37 211.89 459.37 212.2"/><path class="cls-5" d="M153.11,51c7.91-3.77,17.33-3,25.24.38,7.16,3.39,15.07,2.64,22.22-.38"/><path class="cls-5" d="M153.11,56.14c7.91-3.77,17.33-3,25.24.38,7.16,3.39,15.07,2.64,22.22-.38"/><path class="cls-5" d="M153.11,61.26c7.91-3.77,17.33-3,25.24.38,7.16,3.39,15.07,2.64,22.22-.38"/><path class="cls-5" d="M153.11,66.38c7.91-3.77,17.33-3,25.24.38,7.16,3.39,15.07,2.64,22.22-.38"/><text class="cls-6" transform="translate(203.87 121.28)">JOINED <tspan x="-17.22" y="38.55">DRIBBBLE</tspan><tspan class="cls-7"><tspan x="-13.79" y="77.1">A</tspan><tspan class="cls-8" x="2.7" y="77.1">T LAST!</tspan></tspan></text></svg>