<svg id="Layer_1" data-name="Layer 1" xmlns="http://www.w3.org/2000/svg" viewBox="0 0 26.08 26.08"><defs><style>.cls-1{fill:#f60;}.cls-2{fill:#fff;}.cls-3{fill:none;stroke:#fff;stroke-miterlimit:10;stroke-width:0.1px;}</style></defs><title>avatar</title><circle class="cls-1" cx="13.04" cy="13.04" r="13.04"/><path class="cls-2" d="M15.35,14.9h2.28v0.18a3.76,3.76,0,0,1-.15,1.1A2.34,2.34,0,0,1,17,17a2.5,2.5,0,0,1-2,.86,2.68,2.68,0,0,1-2-.84,2.87,2.87,0,0,1,2.06-4.89,2.8,2.8,0,0,1,1.21.26,3.49,3.49,0,0,1,1.05.86l-0.59.57a2,2,0,0,0-1.65-.9,2,2,0,0,0-1.47.6A2,2,0,0,0,13.07,15a2.07,2.07,0,0,0,2,2.07,1.66,1.66,0,0,0,1.1-.41,1.48,1.48,0,0,0,.55-1H15.35V14.9Z" transform="translate(-1.92 -1.92)"/><polygon id="top_path" data-name="top path" class="cls-3" points="13.02 4.19 3.75 9.74 13.02 21.97 22.28 9.74 13.02 4.19"/><polygon id="bottom_path" data-name="bottom path" class="cls-3" points="13.02 21.97 22.28 16.43 13.02 4.19 3.75 16.43 13.02 21.97"/><g id="bottom_U" data-name="bottom U"><polyline class="cls-3" points="22.36 9.74 19.48 20.34 13.09 21.97"/><polyline class="cls-3" points="3.83 9.74 6.7 20.34 13.09 21.97"/></g><g id="top_U" data-name="top U"><polyline class="cls-3" points="3.75 16.43 6.62 5.82 13.02 4.19"/><polyline class="cls-3" points="22.28 16.43 19.41 5.82 13.02 4.19"/></g><g id="dots"><circle class="cls-2" cx="12.99" cy="21.92" r="0.25"/><circle class="cls-2" cx="19.4" cy="20.34" r="0.25"/><circle class="cls-2" cx="22.31" cy="16.43" r="0.25"/><circle class="cls-2" cx="22.31" cy="9.77" r="0.25"/><circle class="cls-2" cx="19.4" cy="5.86" r="0.25"/><circle class="cls-2" cx="12.99" cy="4.19" r="0.25"/><circle class="cls-2" cx="6.66" cy="5.86" r="0.25"/><circle class="cls-2" cx="3.75" cy="9.77" r="0.25"/><circle class="cls-2" cx="3.75" cy="16.43" r="0.25"/><circle class="cls-2" cx="6.66" cy="20.34" r="0.25"/></g></svg>