<svg xmlns="http://www.w3.org/2000/svg" viewBox="0 0 620 300"><style>.st0{fill:#7dd1cf}.st1{fill:#fff}.st2,.st3,.st4{fill:#3d5191;stroke:#0b0f1c;stroke-width:3;stroke-linecap:round;stroke-linejoin:round;stroke-miterlimit:10}.st3,.st4{fill:#dadce0}.st4{fill:#38631e}.st5,.st6,.st7{fill:#0b0f1c}.st6,.st7{stroke:#0b0f1c;stroke-width:2;stroke-linecap:round;stroke-linejoin:round;stroke-miterlimit:10}.st7{stroke-width:4}.st8{fill:#f5f6f7}.st9{fill:none;stroke:#edde26;stroke-width:4;stroke-linecap:round;stroke-linejoin:round;stroke-miterlimit:10}.st10{fill:#edde26}.st11{fill:#3aa4af}.st12{fill:#d6f1f2}.st13{fill:#32969b}</style><path class="st0" d="M0 0h620v300H0z" id="Layer_1"/><path class="st1" d="M311.4 111.6c3.2 0 6.8 3.6 6.8 6.8V138c0 3.2-3.6 6.8-6.8 6.8h-24.5c-.8 0-1.6.3-2.1.9l-9.6 9.6v-7.4c0-1.7-1.3-3-3-3-3.2 0-6.8-3.6-6.8-6.8v-19.6c0-3.2 3.6-6.8 6.8-6.8h39.2M331 136c3.2 0 6.8 3.6 6.8 6.8v19.6c0 3.2-3.6 6.8-6.8 6.8-1.7 0-3 1.3-3 3v7.4l-9.6-9.6c-.6-.6-1.3-.9-2.1-.9h-24.5c-3.2 0-6.8-3.6-6.8-6.8v-1.6l5.2-5.2h21.2c9.3 0 17.7-8.4 17.7-17.7V136h1.9m-19.6-27.4h-39.1c-4.9 0-9.8 4.9-9.8 9.8V138c0 4.9 4.9 9.8 9.8 9.8v14.7l14.7-14.7h24.5c4.9 0 9.8-4.9 9.8-9.8v-19.6c-.1-4.9-5-9.8-9.9-9.8zM331 133h-4.9v4.9c0 7.5-7.1 14.7-14.7 14.7H289l-6.9 6.9v2.9c0 4.9 4.9 9.8 9.8 9.8h24.5l14.7 14.7v-14.7c4.9 0 9.8-4.9 9.8-9.8v-19.6c-.2-4.9-5-9.8-9.9-9.8z" id="Layer_4"/><g id="Layer_2"><path transform="rotate(90 513.683 151.078)" class="st2" d="M478.3 98.3h70.8v105.6h-70.8z"/><path transform="rotate(90 484.837 119.99)" class="st3" d="M473.9 111.1h22v17.8h-22z"/><path transform="rotate(90 496.573 159.912)" class="st4" d="M484.8 148.1h23.6v23.6h-23.6z"/><path transform="rotate(90 496.573 159.912)" class="st5" d="M490.7 154h11.8v11.8h-11.8z"/><path class="st6" d="M453.2 163.6h15.3v9h-15.3z"/><path class="st7" d="M557.8 125H511h46.8zM557.8 170h-38.3 38.3z"/><g><path class="st8" d="M543.2 138.1l-1.9-4.1c-.1-.2-.3-.3-.5-.3s-.4.1-.5.3l-2 3.5-1.7-3.5c-.1-.2-.3-.3-.5-.3s-.4.1-.5.3l-2 3.5-1.6-3.5c-.1-.2-.3-.3-.5-.3s-.4.1-.5.3l-2 3.5-1.7-3.5c-.1-.2-.3-.3-.5-.3s-.4.1-.5.3l-2 3.5-1.7-3.5c-.1-.2-.3-.3-.5-.3s-.4.1-.5.3l-2.2 4.1c-.2.3-.1.6.2.8.3.2.6.1.8-.2l1.7-3.1 1.4 3c.1.2.3.3.5.3.1 0 .2 0 .2-.1.3.1.6 0 .7-.2l1.7-3.1 1.4 3c.1.2.3.3.5.3.1 0 .2 0 .2-.1.3.1.6 0 .7-.2l1.7-3.1 1.4 3c.1.2.3.3.5.3.1 0 .2 0 .2-.1.3.1.6 0 .7-.2l1.7-3.1 1.4 3c.1.2.3.3.5.3.1 0 .2 0 .2-.1.3.1.6 0 .7-.2l1.7-3.1 1.4 3c.1.2.3.3.5.3.1 0 .2 0 .2-.1 1 .3 1.1 0 1-.3z"/></g></g><g id="Layer_3"><path class="st9" d="M96.5 173.8l7.3 14.7M103.7 173.8l7.3 14.7"/><path class="st10" d="M139.7 111.4l-20.8.2 8.2 8.2-8.2 8.3 20.8-.2-8.3-8.2z"/><path class="st11" d="M129 141v-21.4c0-7.3-5.7-13.1-13-13.1s-13 5.9-13 13.1V141H61.1c0 19 15.3 34 34.2 34s34.2-15 34.2-34h-.5z"/><circle class="st12" cx="116.4" cy="119.6" r="5.7"/><path class="st13" d="M129.3 141L89 170.5V141zM61.1 141L47 126.4V141z"/><path class="st9" d="M97 189h22"/></g></svg>