<svg id="Layer_1" xmlns="http://www.w3.org/2000/svg" viewBox="0 0 620 300"><style>.st0{fill:#333}.st1{fill:#ea4335}.st2{fill:#fbbc05}.st3{fill:#4285f4}.st4{fill:#34a853}.st5{fill:none;stroke:#4285f4;stroke-width:3;stroke-miterlimit:10}.st6{fill:#fff}.st7{fill:none}</style><circle class="st0" cx="266" cy="125.5" r="8.5"/><circle class="st0" cx="315" cy="125.5" r="8.5"/><path class="st1" d="M283.6 115.6c0 12.8-10 22.2-22.2 22.2-12.3 0-22.3-9.4-22.3-22.2 0-12.9 10-22.2 22.3-22.2 12.2 0 22.2 9.3 22.2 22.2zm-9.8 0c0-8-5.8-13.4-12.5-13.4s-12.5 5.5-12.5 13.4 5.8 13.4 12.5 13.4 12.5-5.5 12.5-13.4z"/><path class="st2" d="M331.6 115.6c0 12.8-10 22.2-22.2 22.2-12.3 0-22.2-9.4-22.2-22.2 0-12.8 10-22.2 22.2-22.2s22.2 9.3 22.2 22.2zm-9.8 0c0-8-5.8-13.4-12.5-13.4s-12.5 5.5-12.5 13.4 5.8 13.4 12.5 13.4 12.5-5.5 12.5-13.4z"/><path class="st3" d="M377.6 94.7v39.8c0 16.4-9.7 23.1-21.1 23.1-10.8 0-17.2-7.2-19.7-13.1l8.5-3.5c1.5 3.6 5.2 7.9 11.2 7.9 7.3 0 11.8-4.5 11.8-13v-3.2h-.3c-2.2 2.7-6.4 5-11.7 5-11.1 0-21.2-9.7-21.2-22.1 0-12.5 10.2-22.3 21.2-22.3 5.3 0 9.5 2.4 11.7 5h.3v-3.6h9.3zm-8.6 21c0-7.8-5.2-13.5-11.8-13.5-6.7 0-12.4 5.7-12.4 13.5 0 7.7 5.6 13.4 12.4 13.4 6.6-.1 11.8-5.7 11.8-13.4z"/><path class="st4" d="M392.8 71.4v65h-9.5v-65h9.5z"/><path class="st1" d="M429.8 122.9l7.6 5c-2.4 3.6-8.3 9.8-18.5 9.8-12.6 0-22-9.7-22-22.2 0-13.2 9.5-22.2 20.9-22.2 11.5 0 17.1 9.2 19 14.1l1 2.5-29.6 12.3c2.3 4.5 5.8 6.7 10.8 6.7 4.9.1 8.3-2.3 10.8-6zm-23.2-8l19.8-8.2c-1.1-2.8-4.4-4.7-8.2-4.7-5 0-11.9 4.3-11.6 12.9z"/><path class="st3" d="M203.1 109.8v-9.4h31.7c.3 1.6.5 3.6.5 5.7 0 7.1-1.9 15.8-8.1 22-6.1 6.3-13.8 9.7-24 9.7-19 0-34.9-15.5-34.9-34.4s16-34.4 34.9-34.4c10.5 0 18 4.1 23.6 9.5l-6.6 6.6c-4-3.8-9.5-6.7-17-6.7-13.9 0-24.7 11.2-24.7 25s10.8 25 24.7 25c9 0 14.1-3.6 17.4-6.9 2.7-2.7 4.4-6.5 5.1-11.7h-22.6z"/><g><path class="st5" d="M165.8 204.7h271.1v43.5H165.8z"/><path class="st3" d="M390 204.7h48v44.6h-48z"/><path class="st6" d="M421.2 229.7H420l-.4-.4c1.5-1.7 2.3-3.9 2.3-6.3 0-5.3-4.3-9.7-9.7-9.7-5.3 0-9.7 4.3-9.7 9.7s4.3 9.7 9.7 9.7c2.4 0 4.6-.9 6.3-2.3l.4.4v1.2l7.4 7.4 2.2-2.2-7.3-7.5zm-8.9 0a6.7 6.7 0 1 1 0-13.4 6.7 6.7 0 0 1 0 13.4z"/><path class="st7" d="M393.4 204.7h46.8v46.8h-46.8v-46.8z"/></g></svg>