<?xml version="1.0" encoding="utf-8"?>
<!-- Generator: Adobe Illustrator 19.2.1, SVG Export Plug-In . SVG Version: 6.00 Build 0)  -->
<svg version="1.1" id="Layer_2" xmlns="http://www.w3.org/2000/svg" xmlns:xlink="http://www.w3.org/1999/xlink" x="0px" y="0px"
	 viewBox="0 0 620 300" style="enable-background:new 0 0 620 300;" xml:space="preserve">
<style type="text/css">
	.st0{fill:#35AA93;}
	.st1{fill:none;stroke:#35AA93;stroke-width:5;stroke-miterlimit:10;}
	.st2{fill:none;stroke:#E2C227;stroke-width:5;stroke-miterlimit:10;}
	.st3{fill:#FFFFFF;stroke:#C84941;stroke-width:5;stroke-miterlimit:10;}
	.st4{font-family:'Helvetica-Light';}
	.st5{font-size:42.1225px;}
	.st6{fill:#E2C226;}
</style>
<g>
	<path class="st0" d="M310,97.1l92.5,38.6L310,174.2l-92.5-38.6L310,97.1 M310,91.7l-105.4,44h0l105.4,44l105.4-44h0L310,91.7
		L310,91.7z"/>
</g>
<polyline class="st1" points="374.5,150.6 374.5,189.2 308.8,219.2 243,189.2 243,150.6 "/>
<polyline class="st2" points="322.2,114.7 394.4,144.8 394.4,181.2 "/>
<g>
	<path class="st3" d="M327.2,37c-22.5-8.4-47.5,3.1-55.9,25.5c-1.9,5-2.8,10.2-2.7,15.3l0,0c0,0,0,0.1,0,0.1c0,4.4,0.7,8.7,2,12.8
		c8.4,28.9,40.3,59.4,40.3,59.4s27.3-25.7,39.2-51.6c1-1.8,1.9-3.7,2.6-5.7C361.1,70.4,349.6,45.4,327.2,37z"/>
	<circle class="st3" cx="312" cy="77.7" r="24.7"/>
</g>
<text transform="matrix(1 0 0 1 267.26 263.8129)" class="st0 st4 st5">SPS</text>
<polyline class="st6" points="396.3,181.2 392.4,181.2 392.4,183 "/>
</svg>
