<?xml version="1.0" encoding="utf-8"?>
<!-- Generator: Adobe Illustrator 20.1.0, SVG Export Plug-In . SVG Version: 6.00 Build 0)  -->
<svg version="1.1" id="Layer_2" xmlns="http://www.w3.org/2000/svg" xmlns:xlink="http://www.w3.org/1999/xlink" x="0px" y="0px"
	 viewBox="0 0 620 300" style="enable-background:new 0 0 620 300;" xml:space="preserve">
<style type="text/css">
	.st0{fill:#35AA93;}
	.st1{fill:none;stroke:#35AA93;stroke-width:5;stroke-miterlimit:10;}
	.st2{fill:none;stroke:#E2C227;stroke-width:5;stroke-miterlimit:10;}
	.st3{fill:#FFFFFF;stroke:#C84941;stroke-width:5;stroke-miterlimit:10;}
	.st4{enable-background:new    ;}
	.st5{fill:#E2C226;}
</style>
<g>
	<path class="st0" d="M310,97.1l92.5,38.6L310,174.2l-92.5-38.6L310,97.1 M310,91.7l-105.4,44l0,0l105.4,44l105.4-44l0,0L310,91.7
		L310,91.7z"/>
</g>
<polyline class="st1" points="374.5,150.6 374.5,189.2 308.8,219.2 243,189.2 243,150.6 "/>
<polyline class="st2" points="322.2,114.7 394.4,144.8 394.4,181.2 "/>
<g>
	<path class="st3" d="M327.2,37c-22.5-8.4-47.5,3.1-55.9,25.5c-1.9,5-2.8,10.2-2.7,15.3l0,0v0.1c0,4.4,0.7,8.7,2,12.8
		c8.4,28.9,40.3,59.4,40.3,59.4s27.3-25.7,39.2-51.6c1-1.8,1.9-3.7,2.6-5.7C361.1,70.4,349.6,45.4,327.2,37z"/>
	<circle class="st3" cx="312" cy="77.7" r="24.7"/>
</g>
<g class="st4">
	<path class="st0" d="M271.9,254.8c0.1,1.3,0.4,2.5,0.9,3.4s1.1,1.7,1.9,2.3c0.8,0.6,1.7,1,2.7,1.3c1,0.3,2.1,0.4,3.2,0.4
		c1.3,0,2.5-0.2,3.5-0.5c1-0.3,1.8-0.8,2.4-1.4c0.6-0.6,1.1-1.2,1.4-2c0.3-0.8,0.4-1.6,0.4-2.4c0-1.2-0.3-2.1-0.8-2.9
		s-1.2-1.3-2.1-1.8c-0.9-0.5-1.8-0.8-2.9-1.1c-1.1-0.3-2.2-0.6-3.4-0.8c-1.2-0.3-2.3-0.6-3.4-0.9c-1.1-0.4-2.1-0.9-2.9-1.5
		c-0.9-0.6-1.6-1.4-2.1-2.4c-0.5-1-0.8-2.2-0.8-3.7c0-1,0.2-2,0.7-3c0.4-1,1.1-1.9,1.9-2.6c0.9-0.8,1.9-1.4,3.2-1.8
		c1.3-0.4,2.8-0.7,4.5-0.7c1.7,0,3.2,0.2,4.5,0.7c1.3,0.5,2.3,1.1,3.2,2c0.8,0.8,1.5,1.8,1.9,2.9s0.6,2.3,0.6,3.5h-2.7
		c0-1.2-0.2-2.1-0.6-3c-0.4-0.8-1-1.5-1.7-2.1c-0.7-0.5-1.5-0.9-2.4-1.2c-0.9-0.3-1.8-0.4-2.8-0.4c-1.5,0-2.7,0.2-3.7,0.6
		c-1,0.4-1.8,0.9-2.4,1.6c-0.6,0.6-1,1.4-1.2,2.1c-0.2,0.8-0.3,1.6-0.1,2.4c0.2,1,0.6,1.8,1.2,2.4c0.6,0.6,1.4,1.1,2.3,1.5
		s1.9,0.7,3,0.9c1.1,0.2,2.2,0.5,3.3,0.8c1.1,0.3,2.2,0.6,3.3,0.9s2,0.9,2.8,1.5c0.8,0.6,1.5,1.4,2,2.4c0.5,1,0.7,2.2,0.7,3.6
		c0,2.8-1,5-2.9,6.5s-4.7,2.3-8.2,2.3c-1.6,0-3-0.2-4.4-0.6c-1.3-0.4-2.5-1-3.5-1.9c-1-0.8-1.7-1.9-2.3-3.1
		c-0.5-1.2-0.8-2.7-0.8-4.3H271.9z"/>
	<path class="st0" d="M296.3,263.8v-30.3h11.1c2,0,3.6,0.2,4.9,0.7c1.3,0.4,2.3,1.1,3,1.9s1.3,1.7,1.6,2.7c0.3,1,0.4,2.1,0.4,3.2
		c0,1.7-0.3,3.1-1,4.2c-0.7,1.1-1.6,2-2.7,2.6c-1.1,0.6-2.3,1.1-3.7,1.3c-1.4,0.3-2.8,0.4-4.2,0.4h-6.5v13.4H296.3z M305.7,248
		c1.3,0,2.6-0.1,3.6-0.3s2-0.5,2.7-0.9c0.7-0.5,1.3-1.1,1.7-1.9c0.4-0.8,0.6-1.8,0.6-3.1c0-1.9-0.6-3.4-1.9-4.3
		c-1.2-1-3.2-1.5-6-1.5h-7.4v12H305.7z"/>
	<path class="st0" d="M323.3,254.8c0.1,1.3,0.4,2.5,0.9,3.4c0.5,0.9,1.1,1.7,1.9,2.3c0.8,0.6,1.7,1,2.7,1.3c1,0.3,2.1,0.4,3.2,0.4
		c1.3,0,2.5-0.2,3.5-0.5c1-0.3,1.8-0.8,2.4-1.4c0.6-0.6,1.1-1.2,1.4-2c0.3-0.8,0.4-1.6,0.4-2.4c0-1.2-0.3-2.1-0.8-2.9
		c-0.5-0.7-1.2-1.3-2.1-1.8c-0.9-0.5-1.8-0.8-2.9-1.1s-2.2-0.6-3.4-0.8c-1.2-0.3-2.3-0.6-3.4-0.9c-1.1-0.4-2.1-0.9-2.9-1.5
		c-0.9-0.6-1.6-1.4-2.1-2.4s-0.8-2.2-0.8-3.7c0-1,0.2-2,0.7-3c0.4-1,1.1-1.9,1.9-2.6c0.9-0.8,1.9-1.4,3.2-1.8
		c1.3-0.4,2.8-0.7,4.5-0.7c1.7,0,3.2,0.2,4.5,0.7c1.3,0.5,2.3,1.1,3.2,2c0.8,0.8,1.5,1.8,1.9,2.9c0.4,1.1,0.6,2.3,0.6,3.5H339
		c0-1.2-0.2-2.1-0.6-3c-0.4-0.8-1-1.5-1.7-2.1c-0.7-0.5-1.5-0.9-2.4-1.2c-0.9-0.3-1.8-0.4-2.8-0.4c-1.5,0-2.7,0.2-3.7,0.6
		s-1.8,0.9-2.4,1.6c-0.6,0.6-1,1.4-1.2,2.1s-0.3,1.6-0.1,2.4c0.2,1,0.6,1.8,1.2,2.4c0.6,0.6,1.4,1.1,2.3,1.5c0.9,0.4,1.9,0.7,3,0.9
		c1.1,0.2,2.2,0.5,3.3,0.8c1.1,0.3,2.2,0.6,3.3,0.9c1.1,0.4,2,0.9,2.8,1.5c0.8,0.6,1.5,1.4,2,2.4c0.5,1,0.7,2.2,0.7,3.6
		c0,2.8-1,5-2.9,6.5s-4.7,2.3-8.2,2.3c-1.6,0-3-0.2-4.4-0.6c-1.3-0.4-2.5-1-3.5-1.9c-1-0.8-1.7-1.9-2.3-3.1
		c-0.5-1.2-0.8-2.7-0.8-4.3H323.3z"/>
</g>
<polyline class="st5" points="396.3,181.2 392.4,181.2 392.4,183 "/>
</svg>
