<?xml version="1.0" encoding="utf-8"?>
<!-- Generator: Adobe Illustrator 19.2.1, SVG Export Plug-In . SVG Version: 6.00 Build 0)  -->
<svg version="1.1" xmlns="http://www.w3.org/2000/svg" xmlns:xlink="http://www.w3.org/1999/xlink" x="0px" y="0px"
	 viewBox="0 0 620 300" style="enable-background:new 0 0 620 300;" xml:space="preserve">
<style type="text/css">
	.st0{fill:#F9E873;}
	.st1{fill:#F2DE6B;}
	.st2{fill:#F7F5EB;}
	.st3{fill:#E8E7E2;}
	.st4{fill:#DD794E;}
	.st5{fill:#E5815E;}
	
		.st6{fill:none;stroke:#DD794E;stroke-width:3;stroke-linecap:round;stroke-linejoin:round;stroke-miterlimit:10;stroke-dasharray:12;}
</style>
<g id="Layer_2">
	<rect class="st0" width="620" height="300"/>
</g>
<g id="Layer_3">
	
		<rect x="518.3" y="199.1" transform="matrix(0.9858 0.1679 -0.1679 0.9858 44.6657 -85.0062)" class="st1" width="13.2" height="44.9"/>
	
		<rect x="478.8" y="240.7" transform="matrix(0.9858 0.1679 -0.1679 0.9858 48.9067 -80.898)" class="st1" width="47.8" height="16"/>
	
		<rect x="448.5" y="232.8" transform="matrix(0.9858 0.1679 -0.1679 0.9858 46.9302 -73.2567)" class="st1" width="16" height="16"/>
	
		<rect x="387.1" y="222.3" transform="matrix(0.9858 0.1679 -0.1679 0.9858 44.3006 -63.0909)" class="st1" width="16" height="16"/>
	
		<rect x="405.6" y="209.2" transform="matrix(0.9858 0.1679 -0.1679 0.9858 42.3605 -66.3849)" class="st1" width="16" height="16"/>
	
		<rect x="395.1" y="175.5" transform="matrix(0.9858 0.1679 -0.1679 0.9858 36.5466 -65.0966)" class="st1" width="16" height="16"/>
	
		<rect x="527.5" y="69.7" transform="matrix(0.9858 0.1679 -0.1679 0.9858 27.9115 -88.6481)" class="st1" width="21.2" height="102"/>
	
		<rect x="434.4" y="194.5" transform="matrix(0.9858 0.1679 -0.1679 0.9858 40.2553 -71.3838)" class="st2" width="15.5" height="15.5"/>
	
		<rect x="383.4" y="217.2" transform="matrix(0.9858 0.1679 -0.1679 0.9858 43.3282 -62.4906)" class="st2" width="15.5" height="15.5"/>
	<g>
		<path class="st2" d="M534.2,178.2l19.5-114.4l-138-23.5l-17,99.6l14.8,2.5l-2.6,15.2l-2.6,15.3l15.8,2.7l2.7-15.8l15.8,2.7
			l-2.7,15.8l14.8,2.5l-2.5,14.8l15.8,2.7l-2.7,15.8l-15.8-2.7l-2.5,14.8l0,0l-2.7,15.8l15.8,2.7l2.7-15.8l14.8,2.5l-2.7,15.8
			l46.3,7.9l10.4-61.1l-15.8-2.7l2.7-15.8L534.2,178.2z M510.6,221.9l-14.8-2.5l2.7-15.8l-15.8-2.7l2.5-14.8l15.8,2.7l-2.5,14.8
			l14.8,2.5L510.6,221.9z"/>
		<polygon class="st2" points="439.9,178.4 424.1,175.7 421.5,190.7 421.5,190.9 418.9,206.2 403.1,203.6 403.2,203.4 403.1,203.5 
			400.6,218.3 416.4,221 418.9,206.2 434.2,208.8 449.5,211.4 452.1,195.7 437.4,193.2 		"/>
		<polygon class="st2" points="391,185.3 405.8,187.8 405.8,188 408.3,173 393.5,170.5 		"/>
		
			<rect x="383.9" y="217.5" transform="matrix(0.1679 -0.9858 0.9858 0.1679 104.2831 573.4858)" class="st2" width="16" height="15"/>
	</g>
	
		<rect x="419.1" y="63.5" transform="matrix(0.9858 0.1679 -0.1679 0.9858 18.3698 -77.3031)" class="st3" width="94.1" height="12.9"/>
	
		<rect x="414.6" y="91.3" transform="matrix(0.9858 0.1679 -0.1679 0.9858 23.1693 -78.5447)" class="st3" width="122.6" height="12.9"/>
	
		<rect x="410.4" y="115.3" transform="matrix(0.9858 0.1679 -0.1679 0.9858 27.0263 -76.1425)" class="st3" width="106.5" height="12.9"/>
	
		<rect x="427.8" y="143.8" transform="matrix(0.9858 0.1679 -0.1679 0.9858 32.0281 -78.1659)" class="st3" width="100.6" height="12.9"/>
</g>
<g id="Layer_1">
	<g>
		
			<rect x="80" y="119.9" transform="matrix(0.9287 -0.3708 0.3708 0.9287 -45.8183 52.4697)" class="st4" width="67.1" height="51"/>
		
			<rect x="87.9" y="136.1" transform="matrix(0.9287 -0.3708 0.3708 0.9287 -46.5344 55.6163)" class="st5" width="67.1" height="25.5"/>
		
			<rect x="79.4" y="121" transform="matrix(0.9287 -0.3708 0.3708 0.9287 -42.4979 42.8286)" class="st5" width="21.6" height="22"/>
		<polygon class="st5" points="229.7,88.5 213.3,78.6 104.2,122.1 109.9,136.3 127.2,129.4 132.3,141.9 136.7,125.6 143.8,122.8 
			148.6,134.6 165.9,127.7 161.2,115.8 161.4,115.8 176.5,124.4 176.5,124.4 181.1,107.9 181.7,107.6 186.5,119.5 203.8,112.5 
			208.4,97 223.8,105.2 223.9,105.6 		"/>
		
			<rect x="83.1" y="111.5" transform="matrix(0.9287 -0.3708 0.3708 0.9287 -42.4808 53.0193)" class="st5" width="67.1" height="51"/>
		
			<ellipse transform="matrix(0.9287 -0.3708 0.3708 0.9287 -50.0496 49.007)" class="st0" cx="102.4" cy="154.7" rx="7.8" ry="7.8"/>
		
			<rect x="148.4" y="118.3" transform="matrix(0.9287 -0.3708 0.3708 0.9287 -35.0833 66.8324)" class="st4" width="15.7" height="12.8"/>
		<polygon class="st4" points="161.2,115.8 181.7,107.6 176.9,124.2 		"/>
		
			<rect x="183.4" y="103.7" transform="matrix(0.9287 -0.3708 0.3708 0.9287 -27.0771 79.3294)" class="st4" width="18.7" height="12.8"/>
		<polygon class="st4" points="203.8,112.5 208.4,97 199.1,100.7 		"/>
		<polygon class="st4" points="229.9,88.4 208.6,96.9 223.8,105.2 		"/>
	</g>
	<path class="st6" d="M194.3,160.5c7.3,13,20,31.2,39.9,45c50,34.4,103.3,11,112.1,6.9"/>
</g>
</svg>
