<?xml version="1.0" encoding="utf-8"?>
<!-- Generator: Adobe Illustrator 19.2.1, SVG Export Plug-In . SVG Version: 6.00 Build 0)  -->
<svg version="1.1" xmlns="http://www.w3.org/2000/svg" xmlns:xlink="http://www.w3.org/1999/xlink" x="0px" y="0px"
	 viewBox="0 0 620 300" style="enable-background:new 0 0 620 300;" xml:space="preserve">
<style type="text/css">
	.st0{fill:#75D89F;}
	.st1{fill:#3D5191;stroke:#0B0F1C;stroke-width:3;stroke-linecap:round;stroke-linejoin:round;stroke-miterlimit:10;}
	.st2{fill:#DADCE0;stroke:#0B0F1C;stroke-width:3;stroke-linecap:round;stroke-linejoin:round;stroke-miterlimit:10;}
	.st3{fill:#38631E;stroke:#0B0F1C;stroke-width:3;stroke-linecap:round;stroke-linejoin:round;stroke-miterlimit:10;}
	.st4{fill:#0B0F1C;}
	.st5{fill:#0B0F1C;stroke:#0B0F1C;stroke-width:2;stroke-linecap:round;stroke-linejoin:round;stroke-miterlimit:10;}
	.st6{fill:#0B0F1C;stroke:#0B0F1C;stroke-width:4;stroke-linecap:round;stroke-linejoin:round;stroke-miterlimit:10;}
	.st7{fill:#F5F6F7;}
	.st8{fill:#FFFFFF;}
	.st9{fill:none;stroke:#FFFFFF;stroke-width:2;stroke-miterlimit:10;stroke-dasharray:10;}
	.st10{fill:none;stroke:#FFFFFF;stroke-width:2;stroke-miterlimit:10;}
	.st11{fill:none;stroke:#FFFFFF;stroke-width:2;stroke-linecap:round;stroke-linejoin:round;stroke-miterlimit:10;}
	.st12{fill:none;}
</style>
<g id="Layer_1">
	<rect class="st0" width="620" height="300"/>
</g>
<g id="Layer_2">
	<g>
		
			<rect x="264.9" y="73.7" transform="matrix(4.490523e-11 1 -1 4.490523e-11 464.3955 -166.3504)" class="st1" width="100.9" height="150.6"/>
		
			<rect x="258.6" y="92" transform="matrix(5.106652e-11 1 -1 5.106652e-11 378.9013 -169.5486)" class="st2" width="31.3" height="25.4"/>
		<g>
			
				<rect x="274.2" y="144.8" transform="matrix(4.494076e-11 1 -1 4.494076e-11 452.5903 -129.3411)" class="st3" width="33.6" height="33.6"/>
			
				<rect x="282.6" y="153.2" transform="matrix(4.491322e-11 1 -1 4.491322e-11 452.5903 -129.3411)" class="st4" width="16.8" height="16.8"/>
		</g>
		<rect x="229.2" y="166.9" class="st5" width="21.8" height="12.8"/>
		<polygon class="st6" points="378.3,112 311.6,112 311.6,112 378.3,112 		"/>
		<polygon class="st6" points="378.3,176 323.7,176 323.7,176 378.3,176 		"/>
		<g>
			<path class="st7" d="M357.4,130.5l-2.7-5.8c-0.1-0.3-0.4-0.5-0.7-0.5c-0.3,0-0.6,0.2-0.8,0.4l-2.8,5l-2.4-5
				c-0.1-0.3-0.4-0.5-0.7-0.5c-0.3,0-0.6,0.2-0.8,0.4l-2.8,5l-2.4-5c-0.1-0.3-0.4-0.5-0.7-0.5c-0.3,0-0.6,0.2-0.8,0.4l-2.8,5l-2.4-5
				c-0.1-0.3-0.4-0.5-0.7-0.5c-0.3,0-0.6,0.2-0.8,0.4l-2.8,5l-2.4-5c-0.1-0.3-0.4-0.5-0.7-0.5c-0.3,0-0.6,0.2-0.8,0.4l-3.2,5.8
				c-0.2,0.4-0.1,0.9,0.3,1.1c0.4,0.2,0.9,0.1,1.1-0.3l2.4-4.4l2,4.3c0.1,0.3,0.4,0.5,0.7,0.5c0.1,0,0.2,0,0.4-0.1c0,0,0,0,0,0
				c0.4,0.2,0.8,0,1.1-0.3l2.4-4.4l2,4.3c0.1,0.3,0.4,0.5,0.7,0.5c0.1,0,0.2,0,0.4-0.1c0,0,0,0,0,0c0.4,0.2,0.8,0,1.1-0.3l2.4-4.4
				l2,4.3c0.1,0.3,0.4,0.5,0.7,0.5c0.1,0,0.2,0,0.4-0.1c0,0,0,0,0,0c0.4,0.2,0.8,0,1.1-0.3l2.4-4.4l2,4.3c0.1,0.3,0.4,0.5,0.7,0.5
				c0.1,0,0.2,0,0.4-0.1c0,0,0,0,0,0c0.4,0.2,0.8,0,1.1-0.3l2.4-4.4l2,4.3c0.1,0.3,0.4,0.5,0.7,0.5c0.1,0,0.2,0,0.4-0.1
				C357.5,131.4,357.6,130.9,357.4,130.5z"/>
		</g>
	</g>
	<g>
		<path class="st8" d="M554.1,209.9c6.4,0,13.4,5.5,13.4,14.3c0,9-7.9,15.8-15.3,21.4c-1.3,1-2.5,1.9-3.5,2.7
			c-3.5,2.6-5.3,4-6.8,5.4c-1.1-1-2.3-1.9-4.1-3.3c-1.5-1.2-3.5-2.6-6.1-4.8l0,0c-6.8-5.4-15.3-12.1-15.3-21.3c0-4,1.5-7.7,4.2-10.4
			c2.5-2.5,5.9-4,9.2-4c4.1,0,7.9,2.2,10.5,6.2l1.7,2.5l1.7-2.5C546.2,212.1,550,209.9,554.1,209.9 M554.1,207.9
			c-4.4,0-8.9,2.1-12.2,7.1c-3.3-5-7.8-7.1-12.2-7.1c-7.8,0-15.4,6.8-15.4,16.4c0,10.2,9.2,17.4,16.1,22.9c7.2,5.7,9.2,6.9,11.5,9.2
			c2.3-2.3,4.2-3.6,11.5-9.2c7-5.4,16.1-12.8,16.1-23C569.5,214.7,561.9,207.9,554.1,207.9L554.1,207.9z"/>
	</g>
	<g>
		<g>
			<path class="st8" d="M547.5,116.8c-1.2,0-2.2,0.3-2.9,1c-0.1,0.1-0.2,0.2-0.3,0.3l-33.9,33.9c-0.5,0.5-0.8,1-0.9,1.5l4.6,0.1
				l36.2-36.2C549.2,116.9,548.3,116.8,547.5,116.8L547.5,116.8z"/>
		</g>
		<g>
			<path class="st8" d="M553.9,121.6c0.2,0.2,0.4,0.4,0.6,0.6c3.5,3.2,4.8,7.2,3.6,8.5c0,0-0.1,0.1-0.1,0.1
				c-0.1,0.1-0.2,0.2-0.2,0.3c-0.1,0.1-0.1,0.2-0.2,0.2l-31.3,31.3l0-2.3c0-0.5-0.2-1-0.6-1.4c-0.4-0.4-0.9-0.6-1.4-0.6c0,0,0,0,0,0
				l-5.5,0l0-1.6L553.9,121.6 M553.7,119l-36.8,36.8l-0.1,4.5l7.6,0l-0.1,7c0.3-0.2,0.6-0.4,0.9-0.7l33.9-33.9
				c0.1-0.1,0.3-0.3,0.4-0.5c0.1-0.1,0.1-0.1,0.2-0.2c2.2-2.4,0.6-7.5-3.7-11.4C555.2,120.1,554.5,119.5,553.7,119L553.7,119z"/>
		</g>
		<path class="st8" d="M507.5,161.5l-2.1,9.7l9.6-1.9C513.5,163.3,507.5,161.5,507.5,161.5z"/>
	</g>
</g>
<g id="Layer_3">
	<g id="start">
		<path class="st8" d="M100.1,238.6c-2.1-0.7-3.7-2.4-4.7-5.1c-1-2.6-1.5-5.8-1.6-9.6l0-0.5l-0.5-0.1c-2.3-0.3-4.4-0.7-6.3-1.3
			c-1.1-0.4-2.2-0.8-3.1-1.3c-2.6-1.3-4.2-3.1-4.6-5.2c-0.4-2.1,0.2-4.4,2.1-6.6c1.7-2.2,4.2-4.3,7.5-6.2l0.5-0.3l-0.2-0.5
			c-1.5-3.4-2.4-6.6-2.5-9.4c-0.2-2.9,0.6-5.2,2.2-6.6c1.6-1.5,3.9-2,6.8-1.5c1,0.2,2.1,0.4,3.2,0.8c1.9,0.6,3.8,1.5,5.9,2.6
			l0.5,0.3l0.3-0.4c2.2-3,4.5-5.3,6.9-6.9c2.5-1.6,4.8-2.1,6.8-1.4c2.1,0.7,3.7,2.4,4.7,5.1c1,2.6,1.6,5.8,1.6,9.6l0,0.5l0.5,0.1
			c2.3,0.3,4.4,0.7,6.2,1.3c1.1,0.4,2.2,0.8,3.1,1.3c2.6,1.3,4.2,3.1,4.6,5.2c0.4,2.1-0.3,4.4-2.1,6.7c-1.7,2.2-4.3,4.3-7.5,6.2
			l-0.5,0.3l0.2,0.5c1.5,3.4,2.3,6.6,2.4,9.4c0.2,2.9-0.6,5.2-2.2,6.6c-1.6,1.5-3.9,2-6.8,1.5c-1-0.2-2.1-0.4-3.2-0.8
			c-1.9-0.6-3.9-1.5-5.9-2.7l-0.5-0.3l-0.3,0.4c-2.2,3-4.5,5.3-6.9,6.9C104.5,238.8,102.2,239.2,100.1,238.6z M104.8,223.2
			c-2.9,0.3-5.8,0.4-8.5,0.3l-0.6,0l0,0.6c0,3.3,0.3,6.2,1.1,8.5c0.8,2.4,2.1,4,3.8,4.5c1.7,0.5,3.6,0.1,5.8-1.4
			c2-1.4,4-3.5,5.9-6.2l0.4-0.5l-0.5-0.4c-2.3-1.5-4.6-3.3-6.8-5.2l-0.2-0.2L104.8,223.2z M127.9,216.7c-2.5,1.2-5.1,2.3-7.9,3.3
			l-0.3,0.1l-0.1,0.2c-1.2,2.6-2.5,5.2-4,7.5l-0.3,0.5l0.6,0.3c2.1,1.2,4,2.1,5.8,2.7c0.7,0.2,1.4,0.4,2.1,0.5
			c2.5,0.5,4.5,0.1,5.8-1.1c1.3-1.2,1.9-3.1,1.6-5.7c-0.2-2.4-1-5.2-2.4-8.2l-0.3-0.6L127.9,216.7z M89.5,204.3
			c-2.9,1.6-5.1,3.4-6.7,5.2c-1.7,2-2.4,3.8-2,5.6c0.4,1.8,1.8,3.2,4.1,4.3c0.6,0.3,1.3,0.6,2,0.8c1.8,0.6,3.9,1,6.3,1.2l0.6,0.1
			l0-0.6c0.1-2.8,0.5-5.6,1.1-8.4l0.1-0.3l-0.2-0.2c-1.7-2.4-3.3-4.9-4.6-7.4L90,204L89.5,204.3z M115.9,221.2
			c-1.1,0.3-2.2,0.5-3.4,0.8c-1.3,0.3-2.4,0.5-3.5,0.7l-1.3,0.2l1,0.9c1.5,1.2,2.9,2.3,4.4,3.3l0.5,0.4l0.3-0.5
			c0.9-1.4,1.7-3,2.6-4.8l0.6-1.2L115.9,221.2z M96.4,215.6c-0.3,1.8-0.5,3.6-0.7,5.4l-0.1,0.6l0.6,0c1.7,0.1,3.5,0,5.5-0.1l1.4-0.1
			l-1-1c-0.9-0.9-1.7-1.8-2.4-2.6c-0.8-0.8-1.5-1.7-2.3-2.6l-0.9-1.1L96.4,215.6z M113.3,196.8c-2,0.3-4,0.6-6,1
			c-2.2,0.5-4.2,1-5.9,1.5l-0.3,0.1l-0.1,0.3c-0.7,1.6-1.4,3.5-2.1,5.7c-0.7,2.2-1.3,4.2-1.6,5.9l-0.1,0.3l0.2,0.2
			c1,1.3,2.3,2.9,3.9,4.7c1.4,1.5,2.8,3,4.3,4.4l0.2,0.2l0.3,0c2.1-0.2,4.1-0.6,6-1.1c2.1-0.5,4.1-1,5.9-1.5l0.3-0.1l0.1-0.3
			c0.7-1.6,1.4-3.6,2.1-5.8c0.7-2.2,1.2-4.1,1.6-5.9l0.1-0.3L122,206c-1.2-1.5-2.5-3.1-3.9-4.7c-1.4-1.5-2.8-2.9-4.3-4.3l-0.2-0.2
			L113.3,196.8z M123.4,209.7c-0.3,1.2-0.6,2.3-1,3.3c-0.3,1.1-0.7,2.2-1.2,3.4l-0.5,1.3l1.3-0.5c0.8-0.3,1.5-0.6,2.3-0.9
			c0.9-0.4,1.9-0.8,2.7-1.3l0.6-0.3l-0.3-0.6c-0.8-1.4-1.7-3-2.8-4.6l-0.8-1.1L123.4,209.7z M97.3,200.8c-1.8,0.6-3.5,1.3-5,2.1
			l-0.6,0.3l0.3,0.6c0.8,1.5,1.7,3.1,2.9,4.7l0.8,1.1l0.3-1.3c0.3-1.1,0.6-2.2,1-3.4c0.2-0.8,0.5-1.5,0.8-2.3c0.1-0.3,0.2-0.7,0.4-1
			l0.5-1.2L97.3,200.8z M132.4,197.7c-1.8-0.6-3.9-1-6.3-1.2l-0.6-0.1l0,0.7c-0.1,2.7-0.5,5.6-1.1,8.5l-0.1,0.3l0.2,0.2
			c1.7,2.3,3.2,4.8,4.5,7.2l0.3,0.6l0.6-0.3c2.9-1.6,5.2-3.4,6.8-5.2c1.7-2,2.4-3.8,2-5.6c-0.4-1.7-1.8-3.2-4.1-4.3
			C133.8,198.2,133.1,197.9,132.4,197.7z M97.9,186.5c-0.8-0.2-1.5-0.4-2.2-0.6c-2.6-0.5-4.5-0.1-5.8,1.1c-1.4,1.2-1.9,3.1-1.7,5.7
			c0.2,2.4,1.1,5.2,2.5,8.2l0.3,0.6l0.6-0.3c2.4-1.2,5.1-2.3,7.9-3.3l0.3-0.1l0.1-0.3c1.2-2.6,2.5-5.2,4-7.6l0.3-0.5l-0.6-0.3
			C101.6,188,99.6,187.1,97.9,186.5z M123,196.3c-1.7,0-3.5,0-5.5,0.1l-1.3,0.1l0.9,1c0.9,1,1.7,1.8,2.4,2.5
			c0.8,0.9,1.6,1.8,2.3,2.7l0.9,1.1l0.2-1.3c0.3-1.8,0.5-3.6,0.7-5.5l0.1-0.7L123,196.3z M105.4,191.1c-0.9,1.5-1.8,3.1-2.6,4.8
			l-0.6,1.2l1.3-0.4c1.1-0.3,2.2-0.6,3.4-0.8c1.1-0.3,2.2-0.5,3.4-0.7l1.4-0.2l-1.1-0.9c-1.4-1.2-2.9-2.3-4.3-3.3l-0.5-0.4
			L105.4,191.1z M118.7,180.8c-1.7-0.5-3.6-0.1-5.7,1.4c-2,1.4-4,3.5-5.9,6.2l-0.4,0.5l0.5,0.4c2.3,1.5,4.6,3.3,6.8,5.3l0.2,0.2
			l0.3,0c3.1-0.3,6-0.4,8.5-0.3l0.6,0l0-0.6c0-3.3-0.4-6.2-1.2-8.5C121.7,182.8,120.4,181.3,118.7,180.8z"/>
		<ellipse transform="matrix(0.3064 -0.9519 0.9519 0.3064 -122.8261 249.2944)" class="st8" cx="109.7" cy="208.9" rx="4" ry="4"/>
	</g>
	<g>
		<path class="st9" d="M30.1,285.3c-1.2-35.2,6-71.1,22.4-105c13.4-27.6,31.7-51.2,53.3-70.3"/>
		<g>
			<path class="st8" d="M179.8,50.2c8.9,0,14.4,1.7,15.5,2.5c0.8,3.3-6.5,26.3-22.2,36.3c-21.4,13.5-31.2,15-33.3,15.2
				c-1.6-1-7.2-4.6-10.5-9.7c-3.3-5.1-4.1-11.7-4.3-13.6c0.5-0.8,1.8-2.9,4.8-6c3.7-3.8,10.7-10,23.4-18
				C162.3,51.1,173.8,50.2,179.8,50.2 M170.9,76.5c1.6,0,3.2-0.5,4.5-1.3c3.9-2.5,5.1-7.7,2.6-11.7c-1.6-2.5-4.2-3.9-7.2-3.9
				c-1.6,0-3.2,0.5-4.5,1.3c-3.9,2.5-5.1,7.7-2.6,11.7C165.3,75.1,168,76.5,170.9,76.5 M137.6,54.3c1.8,0,3.5,0.3,5.2,0.8
				c-6.7,4.6-12.3,9.1-16.7,13.4c-3.3-2.2-8.1-3.5-11.7-4.2c5.1-3.5,14.1-9,20.9-9.9C136,54.4,136.8,54.3,137.6,54.3 M121.2,94.4
				c0.7,1.4,1.4,2.8,2.1,4c0.5,0.8,1.1,1.6,1.7,2.4l-7.7,0.6L121.2,94.4 M169.4,99.7c-0.5,1.8-1.2,3.5-2.3,5.1
				c-3.7,5.7-12.5,11.5-17.9,14.6c0.8-3.1,1.6-7.1,1.4-10.6C156.2,106.7,162.5,103.7,169.4,99.7 M179.8,48.2
				c-8.9,0-19.5,1.7-27.7,6.9C126.8,71.2,123,80.5,123,80.5s0.5,8.5,4.7,15.1c4.1,6.5,11.6,10.7,11.6,10.7s0,0,0.1,0
				c1.1,0,11-0.5,34.8-15.5c16.6-10.5,24.9-35.8,22.8-39.1C196,50,188.8,48.2,179.8,48.2L179.8,48.2z M170.9,74.5
				c-2.1,0-4.2-1.1-5.5-3c-1.9-3-1-7,2-8.9c1.1-0.7,2.3-1,3.4-1c2.1,0,4.2,1.1,5.5,3c1.9,3,1,7-2,8.9
				C173.2,74.2,172.1,74.5,170.9,74.5L170.9,74.5z M137.6,52.3c-0.8,0-1.7,0.1-2.6,0.2c-10.6,1.4-25.8,13.1-25.8,13.1
				s10.4,1,15.8,4.6c0.5,0.3,0.9,0.7,1.2,1c4.1-4.2,10.6-9.8,20.7-16.5C144.6,53.5,141.4,52.3,137.6,52.3L137.6,52.3z M121.5,89.7
				l-7.8,13.9l15.4-1.1c-1.5-1.5-2.9-3.2-4.1-5.1C123.5,94.9,122.3,92.2,121.5,89.7L121.5,89.7z M172,95.9
				c-10.4,6.2-18,9.7-23.4,11.6c0,0,0,0,0,0.1c0.9,6.3-2.7,16-2.7,16s17.1-8.7,22.9-17.7C171.1,102.3,171.9,98.8,172,95.9L172,95.9z
				"/>
		</g>
	</g>
	<g>
		<path class="st8" d="M64.1,32.4c2.5,0,4.9,1,6.6,2.8c0.4,0.4,0.9,0.6,1.5,0.6c0.1,0,0.3,0,0.4,0c0.2,0,0.3-0.1,0.5-0.1
			c-0.7,0.5-0.9,1.4-0.7,2.2c0.3,0.8,1,1.4,1.9,1.4c0,0,0.1,0,0.1,0c-0.2,0.1-0.3,0.2-0.5,0.3c-0.5,0.4-0.9,1-0.8,1.7
			c0,0.4,0,0.9,0,1.3c0,7.1-2.8,14.3-7.6,19.8c-3.8,4.3-10.7,9.5-21.8,9.5c-3,0-6-0.5-8.9-1.4c3.5-0.8,6.7-2.3,9.6-4.6
			c0.7-0.5,0.9-1.4,0.7-2.2c-0.3-0.8-1-1.3-1.9-1.4c-2.8-0.1-5.3-1.4-7-3.5c0.7-0.1,1.4-0.2,2.2-0.4c0.9-0.2,1.5-1.1,1.5-2
			c0-0.9-0.7-1.7-1.6-1.9c-3.2-0.6-5.7-3-6.7-5.9c0.8,0.2,1.6,0.3,2.4,0.3c0,0,0,0,0.1,0c0.9,0,1.6-0.6,1.9-1.4
			c0.3-0.8-0.1-1.8-0.8-2.3c-2.5-1.7-4-4.5-4-7.5c0-0.6,0.1-1.2,0.2-1.8C37.2,42,45,45.5,53.3,46c0,0,0.1,0,0.1,0
			c0.6,0,1.2-0.3,1.5-0.7c0.4-0.5,0.6-1.1,0.4-1.7c-0.2-0.7-0.2-1.4-0.2-2.1C55.1,36.5,59.2,32.4,64.1,32.4 M64.1,30.4
			c-6.1,0-11,4.9-11,11c0,0.9,0.1,1.7,0.3,2.5c-9.2-0.5-17.3-4.8-22.7-11.5c-0.9,1.6-1.5,3.5-1.5,5.5c0,3.8,1.9,7.2,4.9,9.2
			c-1.8-0.1-3.5-0.6-5-1.4c0,0,0,0.1,0,0.1c0,5.3,3.8,9.8,8.8,10.8c-0.9,0.2-1.9,0.4-2.9,0.4c-0.7,0-1.4-0.1-2.1-0.2
			c1.4,4.4,5.5,7.6,10.3,7.6c-3.8,3-8.5,4.7-13.7,4.7c-0.9,0-1.8-0.1-2.6-0.2c4.9,3.1,10.7,4.9,16.9,4.9c20.3,0,31.3-16.8,31.3-31.3
			c0-0.5,0-1,0-1.4c2.2-1.6,4-3.5,5.5-5.7c-2,0.9-4.1,1.5-6.3,1.7c2.3-1.4,4-3.5,4.8-6.1c-2.1,1.3-4.5,2.2-7,2.7
			C70.2,31.8,67.3,30.4,64.1,30.4L64.1,30.4z M80.7,35.6L80.7,35.6L80.7,35.6z"/>
	</g>
	<g id="picture_1_">
		
			<ellipse transform="matrix(0.2694 -0.963 0.963 0.2694 -89.5886 370.279)" class="st10" cx="199.3" cy="244.2" rx="6.2" ry="6.2"/>
		<path class="st10" d="M240.4,239.1c-2.4-0.7-52.2-14.6-52.2-14.6s-2.4-0.7-3,1.7s-10.6,38-10.6,38s-0.7,2.4,1.7,3
			c2.4,0.7,52.2,14.6,52.2,14.6s2.4,0.7,3-1.7c0.7-2.4,10.6-38,10.6-38S242.7,239.7,240.4,239.1z"/>
		<path class="st10" d="M225.6,273.3c0,0,1.6-14.9-5.5-16.9c-7.1-2-12.1,6.8-16.9,5.5s-4.1-3.7-8.8-5c-4.7-1.3-11.5,4.5-11.5,4.5
			L225.6,273.3z"/>
	</g>
	<polygon class="st10" points="297.8,22.8 305.2,31.8 316.8,30.8 310.5,40.7 315,51.5 303.7,48.5 294.9,56.1 294.2,44.5 284.2,38.4 
		295.1,34.2 	"/>
	<path class="st11" d="M337.7,281.4c0.7,0.1,1.4,0.2,2.2,0.2c0.8,0,1.6,0,2.4-0.2c3-0.5,5.5-1.8,7.7-4.1c2.8-2.7,4.2-6.1,4.2-10.1
		c0-3.9-1.4-7.3-4.2-10.1c-2.8-2.7-6.1-4.1-10.1-4.1c-0.5,0-1,0-1.5,0c0-0.2,0-0.4,0-0.6c0-3.8-1.3-7-4.1-9.7
		c-0.3-0.3-0.6-0.6-0.9-0.8c-2.4-2.1-5.3-3.1-8.7-3.1c-3.8,0-7,1.3-9.7,3.9c-0.7,0.7-1.3,1.5-1.8,2.2c-0.9,1.5-1.6,3-1.9,4.7
		c-1.1-0.4-2.2-0.5-3.4-0.5c-3.1,0-5.7,1-7.9,3.2c-1.8,1.8-2.8,3.9-3,6.4c-0.3,0-0.6,0-0.8,0c-2.1,0-3.9,0.5-5.6,1.4
		c-0.9,0.5-1.7,1.1-2.4,1.9c-2.2,2.2-3.3,4.9-3.3,8c0,3.2,1.1,5.8,3.3,8c2.2,2.2,4.9,3.4,8,3.4L337.7,281.4z"/>
	<g>
		<g>
			<path class="st8" d="M448.1,165.5L448.1,165.5L448.1,165.5 M451.8,166.1v3.1c0,0.9,0.5,1.6,1.3,1.9c0.9,0.3,1.8,0.8,2.7,1.6
				c0.4,0.3,0.8,0.5,1.3,0.5c0.3,0,0.7-0.1,1-0.3l2.5-1.4l2,3.4l-2.5,1.4c-0.7,0.4-1.1,1.2-1,2c0,0.4,0.1,0.8,0.1,1.2v0.3
				c0,0.6,0,1.1-0.1,1.6c-0.1,0.8,0.2,1.6,1,2.1l2.6,1.5l-2,3.4l-2.7-1.5c-0.3-0.2-0.7-0.3-1-0.3c-0.4,0-0.8,0.1-1.2,0.4l-0.9,0.7
				c-0.6,0.3-1.2,0.6-1.7,0.8c-0.8,0.3-1.3,1-1.3,1.9v3.1h-3.8v-3.1c0-0.8-0.5-1.6-1.3-1.9c-1-0.4-1.9-0.9-2.7-1.6
				c-0.4-0.3-0.8-0.5-1.3-0.5c-0.3,0-0.7,0.1-1,0.3l-2.5,1.4l-2-3.4l2.6-1.5c0.7-0.4,1.1-1.3,1-2.1c-0.1-0.3-0.1-0.7-0.1-1.1v-0.3
				c0-0.6,0-1.1,0.1-1.6c0.1-0.8-0.2-1.7-1-2.1l-2.6-1.5l2-3.4l2.7,1.5c0.3,0.2,0.7,0.3,1,0.3c0.4,0,0.8-0.1,1.2-0.4
				c0.3-0.2,0.6-0.5,0.9-0.6c0.6-0.4,1.2-0.7,1.8-0.9c0.8-0.3,1.3-1,1.3-1.9v-3.1H451.8 M439.6,170.7L439.6,170.7L439.6,170.7
				 M461.2,171.1L461.2,171.1L461.2,171.1 M452.4,164.1h-4.8c-1,0-1.5,0.5-1.5,1.5v3.6c-0.7,0.3-1.5,0.6-2.1,1.1
				c-0.3,0.2-0.7,0.5-1,0.7l-3.1-1.8c-0.3-0.2-0.6-0.3-0.9-0.3c-0.5,0-0.9,0.3-1.1,0.8l-2.5,4.3c-0.2,0.5-0.3,0.9-0.2,1.2
				c0.1,0.3,0.3,0.6,0.7,0.8l3,1.7c-0.1,0.6-0.2,1.3-0.2,2c0,0.1,0,0.2,0,0.3c0,0.5,0.1,0.9,0.1,1.4l-3,1.7c-0.8,0.5-1,1.1-0.6,1.9
				c0,0,0.1,0.1,0.1,0.2l2.5,4.3c0.3,0.5,0.7,0.8,1.2,0.8c0.3,0,0.6-0.1,0.9-0.3l2.9-1.7c1,0.9,2.1,1.5,3.3,1.9v3.6
				c0,1,0.5,1.5,1.5,1.5h4.8c1,0,1.5-0.5,1.5-1.5v-3.6c0.7-0.3,1.5-0.6,2.1-1c0.3-0.2,0.7-0.5,1-0.7l3.1,1.8
				c0.3,0.2,0.6,0.3,0.9,0.3c0.5,0,0.8-0.3,1.2-0.8l2.5-4.3c0.1-0.1,0.1-0.2,0.2-0.4c0.1-0.3,0.1-0.6,0.1-0.9
				c-0.1-0.3-0.4-0.6-0.8-0.8l-3-1.8c0.1-0.6,0.2-1.3,0.2-2c0-0.1,0-0.2,0-0.3c0-0.5-0.1-0.9-0.1-1.4l3-1.7c0.9-0.5,1-1.2,0.5-2
				l-2.5-4.3c-0.3-0.6-0.7-0.8-1.2-0.8c-0.3,0-0.6,0.1-0.9,0.3l-2.9,1.7c-1-0.9-2.1-1.5-3.3-1.9v-3.6
				C453.8,164.6,453.4,164.1,452.4,164.1L452.4,164.1z"/>
		</g>
		<g>
			<path class="st8" d="M450,176.5c0.9,0,1.6,0.3,2.2,0.9c0.7,0.7,1,1.4,1,2.3c0,0.9-0.3,1.6-1,2.2c-0.7,0.7-1.4,1-2.2,1
				c-0.9,0-1.6-0.3-2.2-1c-0.6-0.6-0.9-1.3-0.9-2.2c0-0.9,0.3-1.6,0.9-2.3C448.4,176.7,449.1,176.5,450,176.5 M450,174.5
				c-1.4,0-2.6,0.5-3.7,1.5c-1,1-1.5,2.3-1.5,3.7c0,1.4,0.5,2.6,1.5,3.7c1,1,2.2,1.5,3.7,1.5c1.4,0,2.6-0.5,3.7-1.5
				c1-1,1.5-2.2,1.5-3.7c0-1.4-0.5-2.7-1.5-3.7C452.7,175,451.5,174.5,450,174.5L450,174.5z"/>
		</g>
	</g>
	<g id="cofee_1_">
		<g>
			<g>
				<path class="st8" d="M570.6,17.3l2.9,3.5c0.3,0.3,0.6,0.6,1.1,0.7l4.4,1.1l0.4,1.9l-23.2,5.2l-23.2,5.2l-0.4-1.9l3.5-2.9
					c0.3-0.3,0.6-0.6,0.7-1.1l1.1-4.4l16.4-3.7L570.6,17.3 M551.4,29.5c0.2,0,0.5,0,0.7-0.1l7.5-1.7c1.8-0.4,2.9-2.2,2.5-3.9
					c-0.3-1.5-1.7-2.6-3.2-2.6c-0.2,0-0.5,0-0.7,0.1l-7.5,1.7c-0.9,0.2-1.6,0.7-2.1,1.5c-0.5,0.7-0.6,1.6-0.4,2.5
					C548.5,28.4,549.8,29.5,551.4,29.5 M571.4,15.1l-17.6,4l-17.6,4l-1.4,5.6l-4.5,3.7l1.1,5l25.1-5.7l25.2-5.7l-1.1-5l-5.6-1.4
					L571.4,15.1L571.4,15.1z M551.4,27.5c-0.6,0-1.1-0.4-1.3-1c-0.2-0.7,0.3-1.4,1-1.5l7.5-1.7c0.1,0,0.2,0,0.3,0
					c0.6,0,1.1,0.4,1.3,1c0.2,0.7-0.3,1.4-1,1.5l-7.5,1.7C551.6,27.5,551.5,27.5,551.4,27.5L551.4,27.5z"/>
			</g>
		</g>
		<g>
			<path class="st8" d="M579,63l1.3,11.5l-26.7,6l-3.8-10.9L579,63 M580.7,60.5l-33.5,7.6l5.1,14.7l30.2-6.8L580.7,60.5L580.7,60.5z
				"/>
		</g>
		<g>
			<path class="st8" d="M575.5,32l0.7,6.3l-34.5,7.8l-2.1-6L575.5,32 M577.3,29.6L537,38.7l3.4,9.8l38-8.6L577.3,29.6L577.3,29.6z"
				/>
		</g>
		<g>
			<path class="st8" d="M576.7,42.4l1.9,16.6l-30,6.8L543,50L576.7,42.4 M578.4,39.9l-38,8.6l6.8,19.6l33.5-7.6L578.4,39.9
				L578.4,39.9z"/>
		</g>
	</g>
	<polygon class="st10" points="494,255.3 480.4,261.4 426.7,229.1 470.4,265.9 470.4,265.9 470.4,278.9 462,269.7 439,279.9 
		417.5,220.7 	"/>
	<g>
		<g>
			<path class="st8" d="M427.1,77.7c-10.9-6.4-14.5-20.6-8.1-31.5c6.4-10.9,20.6-14.5,31.5-8.1c10.9,6.4,14.5,20.6,8.1,31.5
				C452.1,80.5,438,84.1,427.1,77.7z M448.9,40.7c-9.5-5.6-21.8-2.4-27.4,7c-5.6,9.5-2.4,21.8,7,27.4c9.5,5.6,21.8,2.4,27.4-7
				C461.6,58.6,458.4,46.3,448.9,40.7z"/>
		</g>
		<g>
			<path class="st12" d="M419.2,54.1c-1.5,8.1,2,16.6,9.4,21c7.5,4.4,16.6,3.4,22.9-1.9c-5.2-2.6-10.8-5.7-16.5-9
				C429.3,60.8,423.9,57.4,419.2,54.1z"/>
			<path class="st12" d="M456.6,72.4c8.8,4.2,14.8,6.2,16.8,6c-0.7-1.3-3.8-5-13.3-11.8c-0.4,1-0.9,2.1-1.5,3
				C458,70.6,457.3,71.5,456.6,72.4z"/>
			<path class="st12" d="M448.9,40.7c-9.5-5.6-21.8-2.4-27.4,7c-0.6,1.1-1.1,2.2-1.5,3.3c4.6,3.2,10.1,6.8,16.6,10.6
				c6.4,3.8,12.2,6.9,17.2,9.4c0.8-0.9,1.5-1.9,2.1-3C461.6,58.6,458.4,46.3,448.9,40.7z"/>
			<path class="st12" d="M420.9,43.4c-10.6-5-15.3-6-16.8-6c0.8,1.8,5.4,6.1,13.4,11.8c0.4-1,0.9-2,1.5-3
				C419.6,45.2,420.2,44.3,420.9,43.4z"/>
			<path class="st8" d="M404.1,37.4c1.5,0,6.2,1,16.8,6c0.7-0.8,1.4-1.6,2.1-2.3c-19.4-9.3-21.1-6.4-21.7-5.3
				c-0.9,1.6-0.6,4.2,8.9,11.7c1.9,1.5,4,3.1,6.3,4.7c0.3-1,0.6-2,1-3C409.6,43.5,405,39.2,404.1,37.4z"/>
			<path class="st8" d="M420,51c-0.4,1-0.6,2-0.8,3.1c4.8,3.3,10.2,6.7,15.9,10.1c5.7,3.4,11.3,6.4,16.5,9c0.8-0.7,1.6-1.4,2.3-2.2
				c-5-2.5-10.8-5.6-17.2-9.4C430.2,57.8,424.6,54.2,420,51z"/>
			<path class="st8" d="M461,63.5c-0.3,1-0.6,2-1,3c9.5,6.8,12.7,10.5,13.3,11.8c-2,0.1-8-1.8-16.8-6c-0.7,0.8-1.4,1.6-2.2,2.3
				c2.5,1.2,5,2.3,7.2,3.3c11.2,4.7,13.6,3.7,14.5,2.1C476.9,78.9,478.5,76,461,63.5z"/>
		</g>
	</g>
</g>
</svg>
