<?xml version="1.0" encoding="utf-8"?>
<!-- Generator: Adobe Illustrator 19.2.1, SVG Export Plug-In . SVG Version: 6.00 Build 0)  -->
<svg version="1.1" xmlns="http://www.w3.org/2000/svg" xmlns:xlink="http://www.w3.org/1999/xlink" x="0px" y="0px"
	 viewBox="0 0 800 600" style="enable-background:new 0 0 800 600;" xml:space="preserve">
<style type="text/css">
	.st0{fill:#FFFFFF;}
	.st1{fill:#D3EDF4;}
	.st2{fill:#C2ECF8;}
	.st3{fill:#BBE3EF;}
	.st4{fill:#FFFCFF;}
	.st5{fill:#61BCAD;stroke:#E5D8D1;stroke-miterlimit:10;}
	.st6{fill:#E5D8D1;}
	.st7{fill:#30A05D;}
	.st8{fill:#19773F;}
	.st9{fill:#25874C;}
	.st10{fill:#7F8484;}
	.st11{fill:#9FA3A3;}
	.st12{fill:#CCCCCC;}
	.st13{fill:#931637;}
	.st14{fill:#8B2223;}
	.st15{fill:#962F34;}
	.st16{fill:#822C35;}
	.st17{fill:#991F36;}
	.st18{fill:#772226;}
	.st19{fill:#5B4750;}
	.st20{fill:#A02441;}
	.st21{fill:#512B39;}
	.st22{fill:#513840;}
	.st23{fill:#72421E;}
	.st24{fill:#8C582D;}
	.st25{fill:#442D1E;}
	.st26{fill:#D3A475;}
	.st27{fill:#BC8E64;}
	.st28{fill:#6FB1B2;}
	.st29{fill:#CADBDD;}
	.st30{fill:#4D97A3;}
	.st31{fill:#E4F3F4;}
	.st32{fill:#8BB9C1;}
	.st33{fill:#71A9AF;}
	.st34{fill:#478A9E;}
	.st35{fill:#CAE5E5;}
	.st36{fill:#B6CB00;}
	.st37{fill:#AEB704;}
	.st38{fill:#CBD363;}
	.st39{fill:#9FC134;}
	.st40{fill:#EFD01B;}
</style>
<g id="Layer_28">
	<rect x="127.6" y="96.6" class="st0" width="496.5" height="496.5"/>
</g>
<g id="sky">
	<polygon class="st1" points="413.7,185 404.8,136.4 189.3,169.1 223.4,338.9 436.6,317.9 	"/>
	<polygon class="st2" points="540.2,517 560.7,157.3 378.4,174.9 377.2,518.1 	"/>
	<polyline class="st3" points="203.1,518.1 202.8,516.6 173.1,299.4 450.4,329.1 438.6,397.9 	"/>
</g>
<g id="clouds">
	<polygon class="st4" points="208.3,357.4 251.1,357.4 241.1,345.1 230.7,349.3 224.8,339.7 214.9,342.4 206.4,334.8 197.7,357.4 	
		"/>
	<polygon class="st4" points="246.1,292.5 335.7,292.5 304.6,281.3 299.7,263.4 279.4,277.5 265.5,268.8 	"/>
	<polygon class="st4" points="494.3,237.7 534.3,237.7 527,217.7 510.7,226.9 494.3,224.7 476.7,237.7 	"/>
	<polygon class="st5" points="386.1,357.1 400.7,358.8 400.7,346.2 386.1,344.8 	"/>
	<rect x="392.8" y="345.6" class="st6" width="1.2" height="12.5"/>
	
		<rect x="392.8" y="344.4" transform="matrix(8.221363e-02 -0.9966 0.9966 8.221363e-02 10.3908 714.9366)" class="st6" width="1.2" height="14.8"/>
</g>
<g id="trees">
	<g>
		<polygon class="st7" points="242.6,479.3 326.8,479.3 284.7,398.9 		"/>
		<polygon class="st7" points="248.3,457.6 321,457.6 284.7,388.2 		"/>
		<polygon class="st7" points="254.6,434.7 314.8,434.7 284.7,377.1 		"/>
		<polygon class="st7" points="261.4,410.4 308,410.4 284.7,365.9 		"/>
		<polygon class="st7" points="265.6,391.9 303.8,391.9 284.7,355.4 		"/>
		<polygon class="st7" points="269.7,374.7 299.7,374.7 284.7,346.1 		"/>
	</g>
	<g>
		<polygon class="st8" points="224.4,500.4 297.1,500.4 260.8,431 		"/>
		<polygon class="st8" points="230.6,477.5 290.9,477.5 260.8,420 		"/>
		<polygon class="st8" points="237.5,453.2 284,453.2 260.8,408.7 		"/>
		<polygon class="st8" points="241.6,434.8 279.9,434.8 260.8,398.2 		"/>
		<polygon class="st8" points="245.8,417.5 275.7,417.5 260.8,388.9 		"/>
	</g>
	<g>
		<polygon class="st9" points="241.8,492.6 316.9,492.6 279.4,433.2 		"/>
		<polygon class="st9" points="247,469.1 311.8,469.1 279.4,417.8 		"/>
		<polygon class="st9" points="258.6,438.2 300.1,438.2 279.4,405.4 		"/>
	</g>
</g>
<g id="wall">
	<polygon class="st10" points="297.1,489 263.6,486.7 260.8,517.1 298.2,517.1 	"/>
	<polygon class="st11" points="293.8,470.3 213.6,467.7 213.9,501.5 299.7,491.2 	"/>
	<path class="st12" d="M266.3,485.2c0,1.5,0,30.9,0,30.9h-64.4l-1.8-33.3L266.3,485.2z"/>
	<polygon class="st12" points="200.1,482.8 198.2,482.7 201.4,506.1 	"/>
</g>
<g id="attic">
	<polygon class="st13" points="345.3,345.2 354,346.2 371.1,360.3 371.1,339 356.5,326.9 	"/>
</g>
<g id="Layer_17">
	<polygon class="st14" points="365.4,370 365.4,327.9 360.8,327.7 362.2,370 	"/>
	<rect x="359" y="327.7" class="st15" width="3.2" height="42.3"/>
	<polygon class="st16" points="359.7,370 359.5,327.7 357.4,327.6 356,370 	"/>
	<polygon class="st17" points="356.9,370 357.4,327.6 352.5,327.5 354.2,370 	"/>
	<polygon class="st18" points="351.3,373.7 346.5,373.7 345.6,336.6 349.4,336.7 	"/>
	<polygon class="st15" points="353.8,370.1 351.5,370.1 351.3,327.2 353.8,327.3 	"/>
	<polygon class="st18" points="384.5,370.1 380.6,370.1 379.8,330 383,330.1 	"/>
	<polygon class="st15" points="385.6,361.3 384.1,361.3 383.9,331.6 385.6,331.7 	"/>
	<polygon class="st14" points="378.3,370.1 376.2,370.1 376.2,329.9 378.1,330 	"/>
	<polygon class="st17" points="376.2,370.1 373.3,370.1 371.8,329.8 376.2,329.9 	"/>
	<rect x="370.3" y="329.8" class="st14" width="3" height="40.3"/>
	<polygon class="st16" points="366.8,329.1 365.9,366.2 368.8,366.3 368.8,329.1 	"/>
</g>
<g id="Layer_19">
	<polygon class="st19" points="356.5,328.3 352.2,324.9 339.4,344.6 345.7,345.3 	"/>
</g>
<g id="Layer_2">
	<polygon class="st20" points="355.3,477.4 478.4,477.4 478.4,390.5 355.3,381.7 	"/>
	<polygon class="st13" points="317.7,344.2 355.9,380.8 355.9,477.5 292.1,477.5 288.6,396.7 	"/>
	<polygon class="st20" points="418.3,345.3 418.2,363.6 370.3,359 370.3,339.3 	"/>
</g>
<g id="Layer_21">
	<polygon class="st14" points="358.3,360.3 358.3,477.4 353.7,477.9 355,360.3 	"/>
	<rect x="351.8" y="360.3" class="st15" width="3.2" height="117.6"/>
	<polygon class="st16" points="352.5,360.3 352.4,478.1 350.2,478.3 348.9,360.3 	"/>
	<polygon class="st17" points="349.9,360.3 350.2,478.3 346.6,478.6 347.9,360.3 	"/>
	<polygon class="st14" points="347.9,360.3 344.7,360.3 343.2,479 347.4,478.6 	"/>
	<polygon class="st18" points="344.7,360.3 340.8,360.3 340.1,479.3 343.2,479 	"/>
	<polygon class="st15" points="340.8,360.3 338.6,360.3 338.3,479.5 340.8,479.3 	"/>
	<polygon class="st15" points="303.5,363.3 301.3,363.3 301,482.5 303.5,482.3 	"/>
	<polygon class="st14" points="338.6,360.3 336.4,360.3 336.4,479.7 338.3,479.5 	"/>
	<polygon class="st17" points="336.4,360.3 333.6,360.3 332.1,480.1 336.4,479.7 	"/>
	<rect x="330.6" y="360.3" class="st14" width="3" height="119.8"/>
	<polygon class="st14" points="314,479.9 310.9,479.9 309.4,361.2 313.5,361.6 	"/>
	<polygon class="st14" points="327.9,483.2 327.9,346.4 323.3,345.8 324.7,483.2 	"/>
	<rect x="321.5" y="345.8" class="st15" width="3.2" height="137.3"/>
	<polygon class="st16" points="322.1,483.2 322,345.6 319.9,345.4 318.5,483.2 	"/>
	<polygon class="st17" points="319.5,483.2 319.9,345.4 316.2,345 317.5,483.2 	"/>
	<polygon class="st18" points="313.3,483.2 309.4,483.2 308.7,352.9 311.8,353.2 	"/>
	<polygon class="st15" points="317.3,483.4 315,483.4 314.8,344.3 317.3,344.5 	"/>
	<polygon class="st14" points="308.2,483.2 306,483.2 306,356.6 307.9,356.8 	"/>
	<polygon class="st20" points="306,483.2 303.2,483.2 301.7,363.4 306,363.8 	"/>
	<rect x="299.9" y="367.5" class="st20" width="2.3" height="115.7"/>
	<polygon class="st18" points="296,485.2 298.4,485 298.4,374.7 296,374.7 	"/>
	<polygon class="st15" points="294.5,477.4 293.3,477.4 289.8,392.2 292.8,388.2 	"/>
	<rect x="300.1" y="369.6" class="st15" width="3.2" height="117.6"/>
</g>
<g id="Layer_22">
	<polyline class="st21" points="317.7,345.1 314.4,341.6 281.6,397.6 288.9,397.4 317.7,345.1 	"/>
</g>
<g id="smaller_wall">
	<g>
		<polygon class="st14" points="398,382.4 398,340.2 393.4,340.1 394.8,382.4 		"/>
		<rect x="391.6" y="340.1" class="st15" width="3.2" height="42.3"/>
		<polygon class="st16" points="392.3,382.4 392.1,340 390,339.9 388.6,382.4 		"/>
		<polygon class="st17" points="389.6,382.4 390,339.9 386.3,339.8 387.6,382.4 		"/>
		<polygon class="st18" points="384.5,382.4 380.6,382.4 379.8,339.6 382.9,339.7 		"/>
		<polygon class="st15" points="386.4,382.4 384.1,382.4 383.9,339.6 386.4,339.6 		"/>
		<polygon class="st14" points="378.3,382.4 376.2,382.4 376.2,339.4 378,339.5 		"/>
		<polygon class="st17" points="376.2,382.4 373.3,382.4 371.8,339.3 376.2,339.4 		"/>
		<rect x="370.3" y="339.3" class="st14" width="3" height="43.1"/>
	</g>
	<polygon class="st18" points="417.1,382.4 413.2,382.4 412.4,342.4 415.6,342.5 	"/>
	<polygon class="st15" points="418.2,373.7 416.7,373.7 416.5,344 418.2,344 	"/>
	<polygon class="st14" points="410.9,382.4 408.8,382.4 408.8,342.2 410.7,342.3 	"/>
	<polygon class="st17" points="408.8,382.4 405.9,382.4 404.5,342.1 408.8,342.2 	"/>
	<rect x="402.9" y="342.1" class="st14" width="3" height="40.3"/>
	<polygon class="st16" points="399.4,341.4 398.5,378.6 401.4,378.6 401.4,341.4 	"/>
</g>
<g id="smaller_roof">
	<polygon class="st22" points="352.1,324.9 370.3,339.3 418.3,345.3 423.5,346.1 406.1,331 	"/>
</g>
<g id="right_wall">
	<polygon class="st14" points="478.4,477.4 478.4,391.7 473.9,391.4 475.2,477.4 	"/>
	<rect x="472" y="391.4" class="st15" width="3.2" height="86"/>
	<polygon class="st16" points="472.7,477.4 472.6,391.3 470.4,391.1 469.1,477.4 	"/>
	<polygon class="st17" points="470.1,477.4 470.4,391.1 466.8,390.9 468,477.4 	"/>
	<polygon class="st14" points="468,477.4 464.9,477.4 463.4,390.6 467.5,390.9 	"/>
	<polygon class="st18" points="464.9,477.4 461,477.4 460.2,390.4 463.4,390.6 	"/>
	<polygon class="st15" points="461,477.4 458.7,477.4 458.5,390.3 461,390.4 	"/>
	<polygon class="st14" points="458.7,477.4 456.6,477.4 456.6,390.1 458.5,390.3 	"/>
	<polygon class="st17" points="456.6,477.4 453.8,477.4 452.3,389.8 456.6,390.1 	"/>
	<rect x="450.7" y="389.8" class="st14" width="3" height="87.6"/>
	<polygon class="st14" points="434.2,390 431.1,390 429.5,476.7 433.7,476.5 	"/>
	<g>
		<polygon class="st14" points="448.1,387.5 448.1,477.6 443.5,477.9 444.8,387.5 		"/>
		<rect x="441.7" y="387.5" class="st15" width="3.2" height="90.4"/>
		<polygon class="st16" points="442.3,387.5 442.2,478 440,478.2 438.7,387.5 		"/>
		<polygon class="st17" points="439.7,387.5 440,478.2 436.4,478.5 437.7,387.5 		"/>
		<polygon class="st18" points="434.5,387.5 430.6,387.5 429.9,479 433,478.7 		"/>
		<polygon class="st15" points="436.5,387.4 434.2,387.4 434,479 436.5,478.8 		"/>
		<polygon class="st14" points="428.4,387.5 426.2,387.5 426.2,479.3 428.1,479.1 		"/>
		<polygon class="st17" points="426.2,387.5 423.4,387.5 421.9,479.6 426.2,479.3 		"/>
		<rect x="420.4" y="387.5" class="st14" width="3" height="92.1"/>
	</g>
	<polygon class="st16" points="414,386.1 413.9,481.1 411.7,481.3 410.3,386.1 	"/>
	<polygon class="st14" points="409.3,386.1 406.2,386.1 404.7,481.9 408.8,481.6 	"/>
	<polygon class="st18" points="406.2,386.1 402.3,386.1 401.5,482.1 404.7,481.9 	"/>
	<polygon class="st14" points="400,379.5 397.9,379.5 397.9,482.4 399.8,482.3 	"/>
	<polygon class="st17" points="397.9,386.1 395,386.1 393.6,482.8 397.9,482.4 	"/>
	<rect x="392" y="380.8" class="st14" width="3" height="102"/>
	<g>
		<polygon class="st14" points="389.4,485.3 389.4,382.4 384.8,382 386.1,485.3 		"/>
		<rect x="383" y="382" class="st15" width="3.2" height="103.3"/>
		<polygon class="st16" points="383.6,485.3 383.5,381.8 381.3,381.7 380,485.3 		"/>
		<polygon class="st17" points="381,485.3 381.3,381.7 377.7,381.3 379,485.3 		"/>
		<polygon class="st18" points="375.8,485.3 371.9,485.3 371.2,380.7 374.3,381 		"/>
		<polygon class="st15" points="377.8,485.5 375.5,485.5 375.3,380.8 377.8,380.9 		"/>
		<polygon class="st14" points="369.7,485.3 367.5,485.3 367.5,380.4 369.4,380.6 		"/>
		<polygon class="st17" points="367.5,485.3 364.7,485.3 363.2,380 367.5,380.4 		"/>
		<rect x="361.7" y="380" class="st14" width="3" height="105.2"/>
	</g>
	<polygon class="st14" points="416.2,386.1 418.5,386.3 418.5,479 416.2,479 	"/>
	<polygon class="st16" points="356.7,382.4 355.9,479.4 358.8,479.5 358.8,382.4 	"/>
</g>
<g id="roof">
	<polygon class="st22" points="314.2,341.6 353.9,345.9 370.2,358.8 418.2,363.4 418.2,352.5 441.3,356.1 485.3,392.2 355,382.5 	
		"/>
</g>
<g id="Layer_29">
	<g>
		<polygon class="st9" points="486.7,459 544,459 515.3,411.8 		"/>
		<polygon class="st9" points="490.6,440.3 540.1,440.3 515.3,399.5 		"/>
		<polygon class="st9" points="499.5,415.7 531.2,415.7 515.3,389.6 		"/>
	</g>
</g>
<g id="single_tree">
	<g>
		<polygon class="st7" points="495.4,505.9 563.8,505.9 529.6,443.6 		"/>
		<polygon class="st7" points="500.1,484.1 559.1,484.1 529.6,430.3 		"/>
		<polygon class="st7" points="515.3,444.6 559.1,444.6 537.2,404.7 		"/>
		<polygon class="st7" points="520,421.8 563.8,421.8 541.9,381.9 		"/>
		<polygon class="st7" points="522.3,512.9 531,436.5 555.5,425.3 543.7,523.7 524.7,522.1 		"/>
	</g>
</g>
<g id="tree">
	<polygon class="st8" points="438.3,517.4 529.6,517.4 484,421.7 	"/>
	<polygon class="st8" points="464.5,517 540.5,517 502.5,437.8 	"/>
	<polygon class="st8" points="469.5,474.9 527.9,474.9 498.7,413.7 	"/>
	<polygon class="st8" points="466.8,433.9 514.8,433.9 490.8,383.6 	"/>
	<polygon class="st8" points="467.9,410.8 509.1,410.8 488.5,367.7 	"/>
</g>
<g id="wheel">
	<polygon class="st23" points="468,482.1 451.4,482.1 451.4,399.1 468.8,399.1 	"/>
	<ellipse class="st23" cx="451.4" cy="440.6" rx="25.4" ry="41.5"/>
	<ellipse class="st24" cx="468" cy="440.6" rx="25.4" ry="41.5"/>
	<ellipse class="st25" cx="468.4" cy="439.9" rx="22.6" ry="36.9"/>
	<g>
		<ellipse class="st24" cx="469.5" cy="439.9" rx="2.5" ry="4.1"/>
		<path class="st24" d="M469.8,437.2l3.9-34.2c0,0,9.1,4.5,10.9,9.6l-13.7,25.2L469.8,437.2z"/>
		<path class="st24" d="M470.9,438.8l20-4.6c0,0,3.2,6.4-0.2,15.9l-19.9-9.5L470.9,438.8z"/>
		<polygon class="st24" points="469.8,442.8 476.9,476.1 462.6,480.2 453.7,472 468,442.2 		"/>
		<path class="st24" d="M468.8,437.8l-18.1-24.1c0,0-8,12.2-6.7,26.2h24L468.8,437.8z"/>
	</g>
</g>
<g id="wings">
	<g>
		<path class="st25" d="M440.2,404.8c0,0,1-1,2.2-1.5l12.4,0.2c0,0-1.2,0.6-2.2,1.5L440.2,404.8z"/>
		<path class="st25" d="M445.2,402c0,0,0.9-1,1.9-1.5l10.7,0.2c0,0-1,0.6-1.9,1.5L445.2,402z"/>
		<path class="st25" d="M437.5,407.7c0,0,1-1,2.2-1.5l12.4,0.2c0,0-1.2,0.6-2.2,1.5L437.5,407.7z"/>
		<path class="st25" d="M435,410.6c0,0,1-1,2.2-1.5l12.4,0.2c0,0-1.2,0.6-2.2,1.5L435,410.6z"/>
		<path class="st25" d="M432.9,413.4c0,0,1-1,2.2-1.5l12.4,0.2c0,0-1.2,0.6-2.2,1.5L432.9,413.4z"/>
		<path class="st25" d="M431.4,416.4c0,0,1-1,2.2-1.5l12.4,0.2c0,0-1.2,0.6-2.2,1.5L431.4,416.4z"/>
		<path class="st25" d="M430.2,419.7c0,0,1-1,2.2-1.5l12.4,0.2c0,0-1.2,0.6-2.2,1.5L430.2,419.7z"/>
		<path class="st25" d="M429.2,422.9c0,0,1-1,2.2-1.5l12.4,0.2c0,0-1.2,0.6-2.2,1.5L429.2,422.9z"/>
		<path class="st25" d="M428.9,425.9c0,0,1-1,2.2-1.5l12.4,0.2c0,0-1.2,0.6-2.2,1.5L428.9,425.9z"/>
		<path class="st25" d="M427.9,428.9c0,0,1-1,2.2-1.5l12.4,0.2c0,0-1.2,0.6-2.2,1.5L427.9,428.9z"/>
		<path class="st25" d="M427.2,432.5c0,0,1-1,2.2-1.5l12.4,0.2c0,0-1.2,0.6-2.2,1.5L427.2,432.5z"/>
		<path class="st25" d="M426.9,435.7c0,0,1-1,2.2-1.5l12.4,0.2c0,0-1.2,0.6-2.2,1.5L426.9,435.7z"/>
		<path class="st25" d="M426.6,439.3c0,0,1-1,2.2-1.5l12.4,0.2c0,0-1.2,0.6-2.2,1.5L426.6,439.3z"/>
		<path class="st25" d="M426.6,442.9c0,0,1-1,2.2-1.5l12.4,0.2c0,0-1.2,0.6-2.2,1.5L426.6,442.9z"/>
		<path class="st25" d="M426.9,446.3c0,0,1-1,2.2-1.5l12.4,0.2c0,0-1.2,0.6-2.2,1.5L426.9,446.3z"/>
		<path class="st25" d="M427.2,449.6c0,0,1-1,2.2-1.5l12.4,0.2c0,0-1.2,0.6-2.2,1.5L427.2,449.6z"/>
		<path class="st25" d="M428.4,452.9c0,0,1-1,2.2-1.5l12.4,0.2c0,0-1.2,0.6-2.2,1.5L428.4,452.9z"/>
		<path class="st25" d="M429.1,456.2c0,0,1-1,2.2-1.5l12.4,0.2c0,0-1.2,0.6-2.2,1.5L429.1,456.2z"/>
		<path class="st25" d="M429.7,459.8c0,0,1-1,2.2-1.5l12.4,0.2c0,0-1.2,0.6-2.2,1.5L429.7,459.8z"/>
		<path class="st25" d="M431.4,463.1c0,0,1-1,2.1-1.5l11.8,0.2c0,0-1.2,0.6-2.1,1.5L431.4,463.1z"/>
		<path class="st25" d="M432.2,466.5c0,0,1-1,2.1-1.5l11.8,0.2c0,0-1.2,0.6-2.1,1.5L432.2,466.5z"/>
		<path class="st25" d="M433.5,469.3c0,0,1-1,2.1-1.5l11.8,0.2c0,0-1.2,0.6-2.1,1.5L433.5,469.3z"/>
		<path class="st25" d="M436.3,472.8c0,0,1-1,2.1-1.5l11.8,0.2c0,0-1.2,0.6-2.1,1.5L436.3,472.8z"/>
		<path class="st25" d="M438.8,475.7c0,0,1-1,2.1-1.5l11.8,0.2c0,0-1.2,0.6-2.1,1.5L438.8,475.7z"/>
	</g>
</g>
<g id="foundations">
	<polygon class="st26" points="292.1,477.4 288.6,509.4 333,511.5 358.8,507.5 355.3,477.4 	"/>
	<polygon class="st27" points="355.3,477.4 399.7,477.4 357.3,497.6 	"/>
</g>
<g id="water">
	<polygon class="st28" points="437.5,475.2 440.9,479 428.5,476.7 425.9,479.9 412.6,476.7 391.6,482 385.9,492.7 358.8,494.8 
		385.9,478.6 418.5,474.2 	"/>
	<polygon class="st29" points="426,477.9 410.3,474.1 389.4,479.6 383.6,490.6 350.8,493.2 336.7,501.6 359.8,501.6 383.6,503.6 
		417.4,492.6 	"/>
	<polygon class="st30" points="447.7,478.7 425.7,474.8 411.2,490.9 393.5,490.9 371,505 418.7,505 	"/>
	<polygon class="st31" points="451.6,492.2 445.8,473.8 422.9,481.9 421.4,493.8 	"/>
	<polygon class="st31" points="436.4,488.4 403.9,486.7 383.6,493.7 339.4,507.5 368.6,505.8 395.7,496.8 403.9,500.4 429.9,493.1 	
		"/>
	<polygon class="st32" points="449.5,482.3 437.7,477.4 409.7,496.8 366.4,496.8 346.3,512.5 386.4,514.9 405.3,505.8 420.2,503.1 	
		"/>
	<polygon class="st33" points="378.1,502.5 345.9,498.1 326.3,503.6 313.7,509.4 369.2,509.4 426.8,506.9 462.1,481 451.8,478.5 
		421.4,498.6 	"/>
	<polygon class="st34" points="436,500.4 425.2,497.6 394.3,506.8 382.9,517.1 426.6,507.4 	"/>
	<polygon class="st35" points="382.6,517.1 387.5,512.6 350.1,507.5 313.3,509.4 306.8,512.3 340.5,511.3 347.2,514.9 364.3,514.9 	
		"/>
	<polygon class="st31" points="350.7,514.9 333.4,506.2 308.7,507.4 299.1,509.9 286.1,507.5 273.5,517.1 293.1,517.1 306.8,520.3 
		325.1,512 	"/>
	<polygon class="st28" points="393.6,514.9 387.5,512.6 350.7,512.8 329.1,510.3 310,517.1 331.6,517.1 351.8,521.8 399,517.1 	"/>
	<polygon class="st34" points="358.8,520.9 331.6,517 310,516 293.1,517 275.8,515.3 269.6,520.1 300.3,519.4 311,522.2 
		332.3,525.6 	"/>
	<polygon class="st31" points="426.6,507.4 415.3,515.8 389.4,518.1 393,513 	"/>
	<polygon class="st34" points="326.3,503.6 300.5,500.4 275.7,504.8 248.3,509.4 243.5,516 278.5,513.3 286.1,507.5 298.2,506.2 
		308.7,507.4 319.1,506.9 	"/>
	<polygon class="st28" points="308.7,507.4 298.2,506.2 286.1,507.5 299.1,509.9 	"/>
	<polygon class="st32" points="278.4,513.3 255.8,511.5 218.7,513.6 216.1,519.3 242.5,519.3 254.5,516.1 270.2,520.1 	"/>
	<polygon class="st28" points="288.6,519.6 269.6,517.1 254.5,516.1 242.5,519.3 225.2,517.9 216.1,519.3 230.6,522.6 254.4,521.8 
		260.7,519.3 279.5,522.6 	"/>
	<polygon class="st31" points="279.5,504.1 261.8,501 240,505 235.6,508.2 221.3,507.9 214.4,514.2 217.9,515.3 218.6,513.8 
		227.6,513.3 230.7,511.1 241.8,509.4 247.3,507.5 253.8,506.8 259.3,507.5 260.1,507.6 	"/>
	<polygon class="st34" points="230.7,511.1 216.9,510.3 211,513.4 201.9,514.3 201.9,516.1 217.6,516.1 218.6,513.8 227.6,513.3 	
		"/>
	<polygon class="st32" points="203.6,514.1 211,513.4 216.9,510.3 218.6,510.4 220.1,509 210.5,510.3 	"/>
	<polygon class="st28" points="283,509.9 258.8,505 240.2,508 217.2,510.2 210.9,510.2 202.1,511.5 202.1,516.7 246,511.5 
		260.9,513.2 279.3,513.1 	"/>
	<polygon class="st34" points="287.3,516 279.4,511.5 246.2,509.9 206.8,516 	"/>
	<polygon class="st31" points="238.1,508.2 214.8,506.2 201.7,510.6 201.7,511.6 	"/>
	<polygon class="st35" points="245.2,504 240,505 235.9,508 217.6,506.4 233.6,504 	"/>
	<polygon class="st35" points="209.9,507.8 201.5,507.1 201.7,510.6 	"/>
	<polyline class="st28" points="201.7,515.8 201.3,511.6 202.5,511.6 202.5,516.1 201.7,515.8 	"/>
</g>
<g id="more_trees">
	<g>
		<polygon class="st7" points="460,526.1 528,526.1 494,464.1 		"/>
		<polygon class="st7" points="464.6,504.4 523.3,504.4 494,450.9 		"/>
		<polygon class="st7" points="478.6,466.9 509.4,466.9 494,438.7 		"/>
	</g>
	<g>
		<polygon class="st8" points="416.3,558.3 482.9,558.3 449.6,501.6 		"/>
		<polygon class="st8" points="422,539.6 477.2,539.6 449.6,492.6 		"/>
		<polygon class="st8" points="428.3,519.7 470.9,519.7 449.6,483.4 		"/>
		<polygon class="st8" points="432.1,504.7 467.1,504.7 449.6,474.8 		"/>
		<polygon class="st8" points="435.9,490.6 463.3,490.6 449.6,467.2 		"/>
	</g>
	<g>
		<polygon class="st8" points="441.8,539.1 508,539.1 474.9,482.9 		"/>
		<polygon class="st8" points="447.5,520.6 502.3,520.6 474.9,474 		"/>
		<polygon class="st8" points="453.7,500.9 496.1,500.9 474.9,464.9 		"/>
		<polygon class="st8" points="457.5,486 492.3,486 474.9,456.4 		"/>
		<polygon class="st8" points="461.3,472 488.5,472 474.9,448.9 		"/>
	</g>
	<g>
		<polygon class="st9" points="409,544.1 455.4,544.1 432.2,507.4 		"/>
		<polygon class="st9" points="412.2,529.6 452.2,529.6 432.2,497.8 		"/>
		<polygon class="st9" points="419.4,510.5 445,510.5 432.2,490.2 		"/>
	</g>
	<g>
		<polygon class="st9" points="468.2,534.9 519.7,534.9 494,494.1 		"/>
		<polygon class="st9" points="471.7,518.8 516.2,518.8 494,483.6 		"/>
		<polygon class="st9" points="479.8,497.6 508.2,497.6 494,475 		"/>
	</g>
	<g>
		<polygon class="st7" points="394.4,560.3 444.4,560.3 419.4,519.3 		"/>
		<polygon class="st7" points="397.8,545.9 440.9,545.9 419.4,510.5 		"/>
		<polygon class="st7" points="408,521.1 430.7,521.1 419.4,502.5 		"/>
	</g>
	<g>
		<polygon class="st7" points="434,531.4 479.2,531.4 456.6,488.1 		"/>
		<polygon class="st7" points="437.1,516.2 476.1,516.2 456.6,478.9 		"/>
		<polygon class="st7" points="446.3,490 466.9,490 456.6,470.4 		"/>
	</g>
</g>
<g id="fields">
	<polygon class="st36" points="201.7,515.8 539.7,515.8 523.1,567.1 	"/>
	<polygon class="st37" points="523.1,567.1 370.7,527.4 326.3,535.7 	"/>
	<polygon class="st38" points="326.3,535.7 215.6,558.3 523.1,567.1 	"/>
	<polygon class="st39" points="201.7,515.8 215.6,558.3 326.3,535.7 	"/>
	<polygon class="st0" points="198.8,487.2 208.2,558.3 198.8,558.3 	"/>
	<polygon class="st39" points="215.7,558.3 202.5,515.8 208.2,558.3 	"/>
	<polygon class="st0" points="541.3,496.1 536.5,567.1 545.7,567.1 	"/>
	<polygon class="st36" points="539.9,515.8 536.5,567.1 523.1,567.1 539.7,515.8 	"/>
	<polygon class="st39" points="527.8,542 538.2,540.4 536.4,567.6 522.9,567.1 401.2,563.6 	"/>
	<polygon class="st0" points="536.4,567.6 548.9,363.4 615.5,386.1 595.5,567.6 	"/>
</g>
<g id="text">
	<g>
		<path class="st40" d="M227.2,218.3c0,0.5-0.1,0.8-0.3,1.1c-0.2,0.2-0.5,0.4-0.8,0.4c-0.6,0-1-0.3-1.4-0.8c-1.7-2.6-3-4.7-4-6.5
			c-1-1.8-1.5-3.5-1.6-5.3c0-1.3,0.2-2.7,0.8-4.2c0.6-1.5,1.5-3.1,2.9-5c0.5-0.8,1.4-1.7,2.4-2.7c1.1-1,2.3-2,3.6-2.8
			c1.3-0.9,2.7-1.6,4.1-2.2c1.4-0.6,2.7-0.9,3.9-1c1.7-0.1,3,0.5,4,1.8c1,1.3,1.6,3.5,1.7,6.8c0.1,1.8,0,3.6-0.3,5.3
			c-0.3,1.7-0.6,3.3-1.1,4.7l0.4-0.4c1.7-2.1,3.4-3.6,5.1-4.7c1.7-1.1,3.1-1.7,4.3-1.7c2.8-0.1,4.3,2.4,4.4,7.5
			c0.1,2.7-0.2,5.5-0.8,8.3c-0.6,2.8-1.2,5.5-1.7,8.2l-0.3,0.9c0.3-0.3,0.5-0.6,0.6-0.8c0.2-0.3,0.4-0.6,0.6-0.9
			c0.1-0.2,0.3-0.4,0.5-0.7c0.2-0.3,0.7-0.9,1.3-1.8c0.6-0.9,1.6-2.3,2.8-4.1c1.2-1.8,2.9-4.3,5.1-7.5c0.2-0.1,0.3-0.2,0.5-0.2
			c0.2,0,0.3,0,0.4,0c0.7,0,1.3,0.3,1.7,1c0.4,0.7,0.6,1.6,0.6,2.5c0,1.1,0,2.2-0.2,3.4c-0.2,1.1-0.3,2.2-0.4,3
			c-0.2,2.4-0.4,4.8-0.6,7.3c-0.2,2.5-0.3,5-0.2,7.5c0,1.4,0.2,2.7,0.3,4c0.2,1.3,0.5,2.6,0.9,3.8l1.3,0.4c0.5,0.4,0.7,0.8,0.8,1.2
			c0,0.3-0.1,0.6-0.4,0.8c-0.3,0.2-0.6,0.4-1.2,0.4c-0.3,0-0.7-0.1-1.3-0.3c-0.6-0.2-1-0.4-1.3-0.7c-0.8-0.9-1.3-2.2-1.6-4
			c-0.3-1.8-0.5-3.8-0.6-6c0-1.4-0.1-2.8,0-4.3c0-1.4,0.1-2.8,0.2-4.1c0.1-1.3,0.2-2.5,0.2-3.7c0.1-1.1,0.1-2.1,0.2-2.8l0.1-3
			c-0.9,1.4-2,3.2-3.2,5.2c-1.3,2-2.6,3.9-3.9,5.7c-1.3,1.8-2.6,3.4-3.7,4.7c-1.1,1.3-1.9,2-2.5,2c-0.6,0-1.1-0.3-1.5-0.9
			c-0.4-0.6-0.6-1.3-0.6-2.1c0-1.1,0-2.4,0.3-4c0.2-1.6,0.5-3.2,0.8-4.8c0.3-1.6,0.6-3.2,0.9-4.7c0.3-1.5,0.6-2.7,0.8-3.7
			c0.4-1.7,0.5-3.4,0.5-5.1c0-0.4-0.1-0.9-0.1-1.3c-0.1-0.5-0.2-0.9-0.3-1.3c-0.4,0-1,0.4-1.7,1c-0.7,0.7-1.4,1.5-2.2,2.3
			c-0.7,0.9-1.4,1.7-2,2.6c-0.6,0.8-1,1.4-1.2,1.8c-1.2,1.9-2.3,3.8-3.3,5.9c-1,2-2,4.1-3,6.1c-1,2-2.1,4-3.2,5.9
			c-1.1,1.9-2.5,3.7-4,5.3c-0.6,0.4-1.1,0.6-1.6,0.6c-1.5,0.1-2.3-0.8-2.5-2.4c0-0.9,0.2-2,0.6-3c0.4-1.1,0.8-2.1,1.3-3.2
			c0.5-1.1,1-2.1,1.5-3.2c0.5-1,1-2,1.4-2.8c0.9-2,1.6-3.6,2.2-4.9c0.6-1.3,1.2-2.6,1.7-3.8c0.5-1.2,1-2.5,1.4-4
			c0.5-1.4,0.9-3.1,1.4-5.2c0.3-1.3,0.6-2.6,0.7-3.8c0.2-1.3,0.2-2.5,0.2-3.7c-0.1-1.5-0.3-2.7-0.7-3.6c-0.4-0.9-1.2-1.3-2.2-1.3
			c-0.7,0-1.6,0.3-2.5,0.8c-1,0.5-2.1,1.4-3.4,2.5c-2.4,2.2-4.1,4.4-5.2,6.4c-1.1,2-1.6,3.9-1.5,5.5c0.1,1.7,0.5,3.3,1.4,5
			C224.9,214.4,226,216.3,227.2,218.3z"/>
		<path class="st40" d="M271.8,217.3c0.6-0.8,1.1-1.2,1.6-1.2c0.6,0,0.9,0.5,0.9,1.5c-0.3,2.6-0.7,5-1,7.2c-0.3,2.2-0.5,4-0.4,5.4
			c0.1,1.5,0.4,2.2,0.9,2.3c0.4,0.1,0.8,0.2,1.3,0.2c1.3,0,2.7-0.5,4.2-1.2c1.5-0.8,2.9-1.8,3.9-3c0.3-0.1,0.5-0.2,0.7-0.2
			c0.4,0,0.7,0.1,1,0.4c0.3,0.3,0.4,0.6,0.4,0.9c0,0.3-0.1,0.6-0.4,1c-2.6,2.3-4.9,3.9-6.8,4.8c-1.9,0.9-3.6,1.4-4.9,1.5
			c-1.6,0.1-2.7-0.4-3.5-1.4s-1.1-2.3-1.2-3.9c-0.1-2.9,0.2-5.5,0.9-7.7C270.3,221.5,271,219.4,271.8,217.3z M276.4,202.8
			c0.3,0.4,0.4,0.8,0.4,1.2c0,0.5-0.1,0.9-0.4,1.2c-0.3,0.4-0.6,0.5-1,0.5c-0.4,0-0.8-0.2-1.2-0.6c-0.4-0.4-0.5-0.8-0.6-1.1
			c0-0.4,0.1-0.8,0.4-1.1s0.7-0.5,1.1-0.5C275.7,202.5,276.1,202.6,276.4,202.8z"/>
		<path class="st40" d="M299.6,196.9c-0.3,1.9-0.8,4.1-1.6,6.6c-0.8,2.6-1.6,5.2-2.7,7.8c-1,2.6-2.2,5.1-3.6,7.4
			c-1.3,2.3-2.7,4.2-4.1,5.5c0.1,1.4,0.3,2.7,0.6,4s1.1,2.4,2.3,3.1c2.3-0.6,4.4-1.5,6.3-2.9c1.8-1.4,3.5-3,5-4.9
			c0.4-0.3,0.7-0.4,0.9-0.4c0.4,0,0.7,0.1,1,0.3c0.3,0.2,0.4,0.6,0.4,1c0,0.2,0,0.4-0.1,0.6c-0.6,1-1.5,2.1-2.5,3.3
			c-1,1.2-2.1,2.2-3.3,3.2c-1.2,1-2.4,1.8-3.7,2.5c-1.3,0.6-2.5,1-3.7,1c-2.2,0.1-4-1.1-5.4-3.4c-1.4-2.4-2.2-5.9-2.3-10.6
			c-0.1-1.9,0.1-4.5,0.4-7.7c0.3-3.2,0.9-6.4,1.8-9.8c0.9-3.3,2-6.4,3.5-9.3c1.5-2.9,3.3-5,5.6-6.4c0.7-0.4,1.3-0.7,1.9-0.7
			c1.5-0.1,2.5,0.5,3.1,1.6c0.6,1.1,0.9,2.3,1,3.6c0,0.9,0,1.7-0.1,2.5S299.8,196.3,299.6,196.9z M290.7,202.5
			c-2.3,5.8-3.4,11.7-3.3,17.8c0.7-1.1,1.3-2.2,1.8-3.4c0.5-1.2,0.9-2.4,1.4-3.6c0.5-1.3,1-2.8,1.6-4.5c0.6-1.7,1.1-3.5,1.6-5.3
			c0.5-1.8,0.9-3.7,1.3-5.5c0.3-1.8,0.5-3.4,0.4-4.9c-1.2,1.4-2.1,2.8-2.8,4.5C292,199.2,291.4,200.9,290.7,202.5z"/>
		<path class="st40" d="M317.5,196.3c-0.3,1.9-0.8,4.1-1.6,6.6c-0.8,2.6-1.6,5.2-2.7,7.8c-1,2.6-2.2,5.1-3.6,7.4
			c-1.3,2.3-2.7,4.2-4.1,5.5c0.1,1.4,0.3,2.7,0.6,4c0.3,1.3,1.1,2.4,2.3,3.1c2.3-0.6,4.4-1.5,6.3-2.9c1.8-1.4,3.5-3,5-4.9
			c0.4-0.3,0.7-0.4,0.9-0.4c0.4,0,0.7,0.1,1,0.3c0.3,0.2,0.4,0.6,0.4,1c0,0.2,0,0.4-0.1,0.6c-0.6,1-1.5,2.1-2.5,3.3
			c-1,1.2-2.1,2.2-3.3,3.2s-2.4,1.8-3.7,2.5c-1.3,0.6-2.5,1-3.7,1c-2.2,0.1-4-1.1-5.4-3.4c-1.4-2.4-2.2-5.9-2.3-10.6
			c-0.1-1.9,0.1-4.5,0.4-7.7c0.3-3.2,0.9-6.4,1.8-9.8c0.9-3.3,2-6.4,3.5-9.3c1.5-2.9,3.3-5,5.6-6.4c0.7-0.4,1.3-0.7,1.9-0.7
			c1.5-0.1,2.5,0.5,3.1,1.6c0.6,1.1,0.9,2.3,1,3.6c0,0.9,0,1.7-0.1,2.5C317.7,195,317.6,195.7,317.5,196.3z M308.6,201.9
			c-2.3,5.8-3.4,11.7-3.3,17.8c0.7-1.1,1.3-2.2,1.8-3.4c0.5-1.2,0.9-2.4,1.4-3.6c0.5-1.3,1-2.8,1.6-4.5c0.6-1.7,1.1-3.5,1.6-5.3
			c0.5-1.8,0.9-3.7,1.3-5.5c0.3-1.8,0.5-3.4,0.4-4.9c-1.2,1.4-2.1,2.8-2.8,4.5C309.9,198.6,309.2,200.2,308.6,201.9z"/>
		<path class="st40" d="M319.2,222c0.3-2.5,0.6-5.1,0.8-7.6c0.3-2.6,0.6-5.1,1-7.6c0.4-2.5,0.9-5,1.6-7.5s1.4-4.9,2.4-7.2
			c0.5-1.2,1.1-2.4,1.8-3.7c0.7-1.3,1.5-2.5,2.4-3.5c0.9-1.1,1.9-1.9,3-2.7c1.1-0.7,2.3-1.1,3.6-1.2c1.7-0.1,3.1,0.5,4.4,1.7
			c1.2,1.2,1.9,2.8,1.9,4.8c0.1,2.9-0.3,5.7-1.3,8.3c-1,2.6-2.3,5-3.9,7.3c-1.6,2.3-3.4,4.4-5.4,6.3c-2,2-4,3.8-5.9,5.6l-0.7,0.6
			c-0.2,1.5-0.4,3.1-0.6,4.6c-0.2,1.5-0.3,3.1-0.4,4.6c0.3-0.3,0.6-0.8,1-1.3c0.4-0.5,0.9-1.1,1.4-1.5c0.5-0.5,1-0.9,1.6-1.3
			c0.5-0.4,1-0.5,1.4-0.6c0.3,0,0.5,0,0.7,0.1c1.2,0.5,2,1.2,2.5,2c0.4,0.9,0.7,1.8,0.8,2.9c0.1,1.1,0.2,2.2,0.2,3.3
			c0,1.2,0.2,2.3,0.6,3.4c0.2,0,0.3,0,0.3,0.1c0.4-0.4,0.9-0.8,1.5-1.3c0.6-0.5,1.1-0.7,1.5-0.8c0.8,0,1.3,0.4,1.3,1.2
			c0,0.3-0.1,0.6-0.4,1c-0.3,0.4-0.7,0.9-1.1,1.3c-0.5,0.4-1,0.8-1.5,1.1c-0.5,0.3-1,0.5-1.5,0.5c-0.9,0-1.7-0.4-2.3-1.4
			c-0.6-1-1-2.1-1.3-3.3c-0.3-1.3-0.5-2.5-0.7-3.7c-0.1-1.2-0.3-2-0.5-2.5c-0.9,0.8-1.6,1.6-2.1,2.6c-0.5,0.9-1,1.9-1.5,2.9
			c-0.4,1-0.9,2-1.4,3c-0.5,1-1,2-1.8,2.8c-0.5,0.3-0.9,0.5-1.4,0.5c-0.5,0-1-0.1-1.3-0.5c-0.4-0.3-0.6-0.8-0.8-1.3
			c-0.2-0.5-0.3-1.1-0.4-1.8c-0.1-0.6-0.1-1.3-0.1-1.9c0-1.4,0-2.8,0.1-4.3C318.9,224.6,319,223.2,319.2,222z M327.9,199.6
			c-0.5,1.9-1,3.7-1.3,5.5c-0.4,1.8-0.7,3.6-1,5.5l1.7-1.7c1.4-1.5,2.7-3,4-4.6c1.3-1.6,2.4-3.2,3.4-5c1-1.7,1.7-3.5,2.3-5.4
			c0.6-1.9,0.8-3.9,0.7-6.1c0-0.5-0.2-0.9-0.6-1.2c-0.4-0.3-0.8-0.4-1.3-0.4c-1,0-1.9,0.5-2.7,1.5c-0.8,1-1.6,2.1-2.2,3.5
			c-0.6,1.4-1.2,2.8-1.7,4.4C328.6,197,328.2,198.4,327.9,199.6z"/>
		<path class="st40" d="M346.7,214.8c0,0.1,0,0.1,0.1,0.2c2.3-1.1,4.7-2.1,7.2-2.9c2.5-0.8,5-1.6,7.4-2.2c1,0,1.5,0.4,1.5,1.2
			c0,0.5-0.2,0.9-0.7,1.2c-1.7,0.7-3.3,1.5-4.9,2.3c-1.6,0.8-3.2,1.6-4.8,2.4c0.5,0.8,0.8,1.7,0.8,2.7c0,0.8-0.1,1.8-0.4,3
			c-0.3,1.2-0.8,2.5-1.4,3.7c-0.6,1.2-1.4,2.4-2.4,3.4c-1,1.1-2.1,1.8-3.3,2.4c-0.5,0.2-1.1,0.4-1.7,0.4c-0.6,0-1.2,0.1-1.8,0.2
			c-0.9-0.1-1.7-0.6-2.5-1.6c-0.8-1-1.2-2.2-1.3-3.6c0-1.1,0.2-2.5,0.6-4.1c0.4-1.6,1-3.2,1.7-4.7c0.7-1.5,1.4-2.8,2.2-3.9
			c0.8-1.1,1.5-1.7,2.2-1.7c0.5,0,0.9,0.2,1.2,0.7L346.7,214.8L346.7,214.8z M346.3,219.7c-0.9-0.4-1.5-1-1.6-1.8
			c-0.7,1.5-1.1,3.2-1.3,4.9c-0.2,1.7-0.3,3.4-0.2,5c0.8-0.1,1.6-0.6,2.2-1.4c0.7-0.8,1.2-1.6,1.6-2.5c0.4-0.9,0.8-1.8,1.1-2.6
			c0.3-0.8,0.4-1.2,0.4-1.4l0-0.2c-0.3-0.1-0.7-0.1-1.1-0.1C346.9,219.8,346.5,219.8,346.3,219.7z"/>
		<path class="st40" d="M361.4,209.4c0.3-0.5,0.7-0.8,1.2-0.8c0.3,0,0.6,0.1,0.9,0.3c0.3,0.2,0.4,0.6,0.4,1c0,0.1,0,0.3-0.1,0.6
			c-0.6,2-1.1,4.3-1.5,7c-0.4,2.7-0.6,5.3-0.5,7.9c0.1,1.8,0.3,3.4,0.7,4.7c0.5-0.3,0.9-0.6,1.2-0.8l0-0.1c0.4-0.8,1-1.5,1.7-2.2
			c0.7-0.7,1.3-1.4,1.7-2.2c0.5-0.8,1-1.8,1.6-3c0.5-1.2,1.1-2.3,1.6-3.4c0.5-1.1,1-2,1.6-2.8c0.6-0.8,1.1-1.2,1.8-1.2
			c0.6,0,1.1,0.2,1.5,0.6c0.4,0.4,0.7,1,0.7,1.7c0,0.9,0,2-0.2,3.4c-0.2,1.4-0.3,2.8-0.2,4.3c0,0.4,0,0.8,0.1,1.4
			c0,0.6,0.1,1.2,0.3,1.7c0.1,0.6,0.3,1.1,0.4,1.5c0.2,0.4,0.4,0.6,0.7,0.6c0.4,0,0.8-0.2,1.3-0.6c0.5-0.4,1-0.6,1.5-0.6
			c0.3,0,0.5,0.1,0.6,0.4c0.1,0.3,0.2,0.5,0.2,0.6c0,0.5-0.2,0.9-0.5,1.3c-0.4,0.4-0.8,0.7-1.2,1c-0.5,0.3-0.9,0.5-1.4,0.7
			c-0.5,0.1-0.8,0.2-1.1,0.2c-0.7,0-1.4-0.2-1.9-0.7c-0.5-0.5-0.9-1.1-1.3-1.7c-0.3-0.7-0.6-1.4-0.8-2.1c-0.2-0.7-0.3-1.2-0.5-1.6
			c-0.4,1-1,1.9-1.8,2.9c-0.7,1-1.5,1.9-2.3,2.7c-0.8,0.8-1.7,1.5-2.7,2c-1,0.5-1.9,0.8-2.8,0.8c-0.5,0-1.1-0.1-1.6-0.3
			s-1.1-0.6-1.5-1.1c-0.5-0.5-0.9-1.2-1.2-2.1c-0.3-0.9-0.5-2-0.5-3.3c0-1.3,0-2.9,0.3-4.7c0.2-1.8,0.5-3.6,1-5.4
			c0.4-1.8,0.9-3.5,1.4-5.1C360.5,211.4,361,210.2,361.4,209.4z"/>
		<path class="st40" d="M382.3,223c-0.3,0.4-0.7,0.7-1.1,0.7c-0.4,0-0.7-0.1-0.9-0.4c-0.2-0.3-0.4-0.6-0.4-1l0-0.4
			c0.6-1.4,1.4-2.9,2.4-4.5c1-1.6,2-3.1,3.1-4.6c1.1-1.5,2-2.8,2.9-4c0.9-1.2,1.5-2.3,1.9-3.1c0-0.5,0.3-0.9,0.9-1.1
			c0.6-0.2,1-0.4,1.2-0.4c0.6,0,1.1,0.2,1.6,0.6c0.4,0.4,0.6,1,0.7,1.9c-0.6,2.7-0.9,5.3-0.8,7.8c0,1.4,0.2,2.7,0.5,3.9
			c0.3,1.3,0.7,2.6,1.1,3.9c1.4-0.8,2.9-1.5,4.3-2.2c1.4-0.7,2.8-1.4,4.2-2c0.3-0.1,0.5-0.2,0.7-0.2c0.4,0,0.7,0.1,1,0.4
			c0.2,0.3,0.3,0.5,0.3,0.9c0,0.4-0.3,0.8-1.1,1.4c-0.7,0.6-1.6,1.1-2.6,1.7c-1,0.6-2.1,1.2-3.2,1.8c-1.1,0.6-2.1,1.2-2.9,1.8
			c0.1,1.7-0.1,3.1-0.6,4.3s-1.1,2.2-1.8,2.9c-0.7,0.8-1.5,1.3-2.4,1.7c-0.9,0.3-1.7,0.5-2.5,0.6c-1.2,0-2.2-0.3-3-0.9
			c-0.8-0.6-1.2-1.5-1.3-2.5c0-0.6,0.2-1.3,0.7-2c0.5-0.7,1.1-1.4,1.7-2c0.7-0.7,1.4-1.2,2.1-1.7c0.7-0.5,1.3-0.9,1.7-1.2
			c-0.4-1.9-0.7-3.7-1.1-5.3c-0.3-1.7-0.5-3.3-0.6-4.9c-1.2,1.3-2.4,2.6-3.6,4C384.1,220,383.1,221.4,382.3,223z"/>
		<path class="st40" d="M417.6,213.6c-0.5,1.1-1,2.2-1.6,3.4c-0.6,1.1-1.2,2.2-1.9,3.1c-0.7,1-1.5,1.8-2.4,2.6
			c-0.9,0.7-1.9,1.3-3.1,1.6c0,1.1,0.2,2.2,0.6,3.3c0.4,1.1,1,1.6,2,1.5c0.3,0,0.5,0,0.8-0.1c0.3-0.1,0.6-0.2,1-0.5
			c0.3-0.2,0.8-0.5,1.3-0.9c0.6-0.4,1.2-0.9,1.9-1.5c0.7-0.6,1.3-1.2,2-1.9c0.6-0.7,1.1-1.4,1.4-2.1c0.1-0.4,0.4-0.6,0.7-0.6
			c0.4,0,0.7,0.1,1,0.4c0.3,0.3,0.5,0.7,0.5,1.1c0,0.4-0.3,1-0.9,1.8c-0.6,0.8-1.3,1.6-2.1,2.5c-0.8,0.9-1.6,1.7-2.4,2.4
			c-0.8,0.8-1.5,1.3-2,1.5c-0.2,0.1-0.6,0.3-1.4,0.8c-0.7,0.4-1.4,0.7-1.9,0.7c-1.2,0-2.2-0.2-3-0.6c-0.9-0.4-1.6-1-2.2-1.8
			s-1-1.7-1.3-2.7c-0.3-1-0.5-2.1-0.5-3.2c-0.3-0.1-0.5-0.4-0.5-0.8c0-0.4,0.1-0.7,0.4-1c0-0.6,0-1.3,0-1.9c0-0.7,0.1-1.3,0.3-2
			c0.3-1.1,0.7-2.4,1.2-4c0.5-1.5,1.1-3,1.9-4.4c0.8-1.4,1.7-2.6,2.9-3.6c1.1-1,2.4-1.5,3.9-1.6c1.5-0.1,2.5,0.4,3,1.4
			c0.6,1,0.9,2.1,0.9,3.3c0,0.7,0,1.5-0.1,2.2C418.1,212.6,417.9,213.1,417.6,213.6z M413.7,210.4c-0.5,0.4-1,1.1-1.5,1.9
			c-0.5,0.8-0.9,1.7-1.3,2.7c-0.4,1-0.7,1.9-1.1,3c-0.3,1-0.6,1.9-0.8,2.8c0.6-0.6,1.4-1.7,2.2-3.4c0.2-0.4,0.4-0.8,0.7-1.4
			c0.3-0.6,0.6-1.2,0.8-1.8c0.2-0.7,0.5-1.3,0.6-2S413.8,210.9,413.7,210.4z"/>
	</g>
	<g>
		<path class="st40" d="M399.2,269.6c0-0.4,0.1-0.7,0.4-0.9c0.2-0.2,0.5-0.3,0.8-0.3c0.4,0,0.7,0.3,0.8,0.8l0.1,2c0.8-1,1.7-2,2.5-3
			c0.9-1,1.8-1.9,2.8-2.7c1-0.8,2-1.4,3.1-2c1.1-0.5,2.1-0.8,3.3-0.8c0.7,0,1.4,0.1,2.1,0.4c2.4,0.8,4,2,5,3.6
			c0.9,1.6,1.4,3.3,1.4,5.2c0,1.5-0.2,3.1-0.7,4.6s-1,3-1.7,4.4c-0.7,1.4-1.4,2.6-2.2,3.7c-0.8,1.1-1.5,1.9-2.1,2.5
			c-0.8,0.6-1.7,1.2-2.9,1.7c-1.2,0.5-2.4,0.8-3.6,0.8c-0.8,0-1.6-0.2-2.4-0.5c-0.8-0.3-1.5-0.8-2.1-1.6c0-0.4,0.2-0.7,0.4-0.9
			c0.2-0.2,0.4-0.4,0.7-0.4c0.3,0,0.6,0.2,0.8,0.5c0.4,0.1,0.8,0.2,1.1,0.3c0.4,0.1,0.7,0.1,1.1,0.1c1.2,0,2.2-0.3,3.3-1
			c1-0.7,1.9-1.5,2.8-2.5c0.8-1,1.5-2,2.1-3.1c0.6-1.1,1-2.2,1.4-3.1c0.3-0.8,0.5-1.7,0.6-2.5c0.1-0.8,0.2-1.6,0.2-2.4
			c0-1.8-0.4-3.3-1.1-4.4c-0.7-1.1-1.8-1.7-3.2-1.7c-1.1,0-2.2,0.3-3.3,0.9c-1.1,0.6-2.2,1.4-3.3,2.3s-2,2.1-3,3.3
			c-0.9,1.2-1.8,2.5-2.5,3.7c0.2,1.8,0.4,3.4,0.5,4.9c0.1,1.4,0.2,2.9,0.2,4.4c0,2-0.1,3.9-0.4,5.8c-0.3,1.9-0.7,3.6-1.2,5.1
			c-0.6,1.5-1.3,2.7-2.1,3.6c-0.8,0.9-1.9,1.4-3.1,1.4c-1.6,0-2.7-0.6-3.3-1.9c-0.6-1.3-0.9-3.1-0.9-5.3c0-1.3,0.1-2.5,0.2-3.5
			s0.3-1.9,0.4-2.3c0.4-1.3,0.9-2.6,1.4-3.8s1.1-2.4,1.7-3.6c0.6-1.2,1.2-2.4,1.9-3.6c0.7-1.2,1.4-2.5,2.1-3.8
			c0-0.8-0.1-1.5-0.1-2.2C399.2,271.1,399.2,270.4,399.2,269.6z M399.2,290.4c0-0.8,0.1-1.5,0.1-2.2c0-0.6,0.1-1.2,0.1-1.8
			c0-0.6,0.1-1.2,0.1-1.7c0-0.6,0.1-1.2,0.1-1.9c0-0.3,0-0.6,0-0.8c0-0.3,0-0.6,0-0.9c-0.5,1.2-1.1,2.4-1.6,3.6
			c-0.6,1.2-1.1,2.5-1.6,3.8c-0.5,1.3-0.9,2.6-1.2,3.9c-0.3,1.3-0.5,2.6-0.5,4c0,1,0.1,1.7,0.3,2.1c0.2,0.4,0.4,0.7,0.7,0.7
			c0.3,0,0.6-0.2,1-0.7c0.4-0.5,0.8-1.1,1.1-1.9c0.3-0.8,0.6-1.7,0.9-2.7C399,292.6,399.2,291.5,399.2,290.4z"/>
		<path class="st40" d="M421.3,285.3c0,0,0,0.1,0.1,0.1c1.8-0.8,3.6-1.5,5.5-2c1.9-0.6,3.8-1.1,5.7-1.5c0.8,0,1.1,0.3,1.1,1
			c0,0.4-0.2,0.7-0.6,0.9c-1.3,0.5-2.5,1-3.8,1.6s-2.5,1.1-3.7,1.7c0.4,0.6,0.5,1.3,0.5,2c0,0.6-0.1,1.4-0.4,2.3
			c-0.3,0.9-0.7,1.9-1.2,2.8c-0.5,0.9-1.1,1.8-1.9,2.5c-0.8,0.8-1.6,1.4-2.6,1.7c-0.4,0.2-0.8,0.2-1.3,0.2c-0.5,0-0.9,0-1.4,0.1
			c-0.7-0.1-1.3-0.5-1.9-1.3c-0.6-0.8-0.9-1.7-0.9-2.8c0-0.8,0.2-1.9,0.6-3.1c0.4-1.2,0.8-2.4,1.4-3.5c0.6-1.1,1.1-2.1,1.8-2.9
			c0.6-0.8,1.2-1.2,1.7-1.2c0.4,0,0.7,0.2,0.9,0.5L421.3,285.3L421.3,285.3z M420.8,289c-0.7-0.4-1.1-0.8-1.2-1.4
			c-0.6,1.2-0.9,2.4-1.1,3.7c-0.2,1.3-0.3,2.6-0.3,3.8c0.6-0.1,1.2-0.4,1.7-1c0.5-0.6,1-1.2,1.3-1.9c0.4-0.7,0.6-1.3,0.9-1.9
			c0.2-0.6,0.3-0.9,0.3-1v-0.1c-0.2-0.1-0.5-0.1-0.8-0.1C421.2,289.1,421,289.1,420.8,289z"/>
		<path class="st40" d="M431.8,290.4c0.1-1.3,0.3-2.6,0.4-3.9c0.2-1.3,0.4-2.5,0.7-3.8c-1.4,0.3-2.5,0.6-3.1,0.8
			c-0.6,0.2-1.1,0.4-1.4,0.4c-0.5,0-0.7-0.3-0.7-1c0-0.6,0.4-1.2,1.2-1.7c0.8-0.5,1.7-1,2.7-1.5c0.6-0.6,1.1-1.1,1.5-1.5
			c0.4-0.5,0.7-0.9,0.9-1.4c0.2-0.5,0.4-1.1,0.6-1.7c0.2-0.6,0.4-1.3,0.6-2.2c0.1-0.4,0.3-0.9,0.4-1.8c0.2-0.8,0.4-1.6,0.7-2.5
			c0.3-0.8,0.7-1.6,1.1-2.2c0.4-0.6,1-1,1.6-1s1,0.3,1,0.9c0,0.3-0.1,0.8-0.2,1.4c-0.1,0.6-0.3,1.3-0.5,2.2
			c-0.2,0.9-0.5,2.1-0.8,3.4c-0.3,1.3-0.6,2.9-1,4.8c0.4,0,0.8,0,1.1,0c0.4,0,0.7,0,1.1,0c0.4,0,1,0,1.6,0c0.6,0,1.2,0,1.8,0.1
			c0.6,0.1,1.1,0.2,1.5,0.3c0.4,0.2,0.6,0.4,0.6,0.8s-0.4,0.7-1.1,0.9c-0.7,0.2-1.5,0.5-2.5,0.7c-0.9,0.2-1.9,0.4-2.8,0.6
			c-1,0.2-1.7,0.4-2.2,0.6c-0.4,1.9-0.8,4-1.1,6.1c-0.3,2.2-0.5,4.2-0.5,6.2c0,0.2,0,0.6,0,1c0,0.4,0,0.8,0.1,1.2
			c0,0.4,0.1,0.8,0.1,1.1c0.1,0.3,0.1,0.4,0.3,0.4c0.4,0,1.4-0.6,2.7-1.9s2.8-3.2,4.4-5.6c0.2-0.2,0.4-0.3,0.7-0.3
			c0.3,0,0.5,0.1,0.7,0.3s0.3,0.4,0.3,0.7c0,0.2-0.1,0.4-0.3,0.7c-0.6,1.1-1.2,2.2-2,3.4s-1.6,2.2-2.4,3.1c-0.8,0.9-1.7,1.7-2.5,2.3
			c-0.8,0.6-1.6,0.9-2.3,0.9c-0.7,0-1.2-0.2-1.7-0.7c-0.4-0.5-0.8-1.1-1-1.7c-0.3-0.7-0.4-1.4-0.5-2.2c-0.1-0.8-0.2-1.4-0.2-2
			c0-0.8,0-1.6,0.1-2.3C431.6,291.8,431.7,291,431.8,290.4z"/>
		<path class="st40" d="M445.6,290.4c0.1-1.3,0.3-2.6,0.4-3.9c0.2-1.3,0.4-2.5,0.7-3.8c-1.4,0.3-2.5,0.6-3.1,0.8
			c-0.6,0.2-1.1,0.4-1.4,0.4c-0.5,0-0.7-0.3-0.7-1c0-0.6,0.4-1.2,1.2-1.7c0.8-0.5,1.7-1,2.7-1.5c0.6-0.6,1.1-1.1,1.5-1.5
			c0.4-0.5,0.7-0.9,0.9-1.4c0.2-0.5,0.4-1.1,0.6-1.7c0.2-0.6,0.4-1.3,0.6-2.2c0.1-0.4,0.3-0.9,0.4-1.8c0.2-0.8,0.4-1.6,0.7-2.5
			c0.3-0.8,0.7-1.6,1.1-2.2c0.4-0.6,1-1,1.6-1s1,0.3,1,0.9c0,0.3-0.1,0.8-0.2,1.4c-0.1,0.6-0.3,1.3-0.5,2.2
			c-0.2,0.9-0.5,2.1-0.8,3.4c-0.3,1.3-0.6,2.9-1,4.8c0.4,0,0.8,0,1.1,0c0.4,0,0.7,0,1.1,0c0.4,0,1,0,1.6,0c0.6,0,1.2,0,1.8,0.1
			c0.6,0.1,1.1,0.2,1.5,0.3c0.4,0.2,0.6,0.4,0.6,0.8s-0.4,0.7-1.1,0.9c-0.7,0.2-1.5,0.5-2.5,0.7c-0.9,0.2-1.9,0.4-2.8,0.6
			c-1,0.2-1.7,0.4-2.2,0.6c-0.4,1.9-0.8,4-1.1,6.1c-0.3,2.2-0.5,4.2-0.5,6.2c0,0.2,0,0.6,0,1c0,0.4,0,0.8,0.1,1.2
			c0,0.4,0.1,0.8,0.1,1.1c0.1,0.3,0.1,0.4,0.3,0.4c0.4,0,1.4-0.6,2.7-1.9s2.8-3.2,4.4-5.6c0.2-0.2,0.4-0.3,0.7-0.3
			c0.3,0,0.5,0.1,0.7,0.3s0.3,0.4,0.3,0.7c0,0.2-0.1,0.4-0.3,0.7c-0.6,1.1-1.2,2.2-2,3.4s-1.6,2.2-2.4,3.1c-0.8,0.9-1.7,1.7-2.5,2.3
			c-0.8,0.6-1.6,0.9-2.3,0.9c-0.7,0-1.2-0.2-1.7-0.7c-0.4-0.5-0.8-1.1-1-1.7c-0.3-0.7-0.4-1.4-0.5-2.2c-0.1-0.8-0.2-1.4-0.2-2
			c0-0.8,0-1.6,0.1-2.3C445.5,291.8,445.5,291,445.6,290.4z"/>
		<path class="st40" d="M467,286.2c-0.4,0.8-0.8,1.7-1.3,2.5s-1,1.6-1.6,2.3c-0.6,0.7-1.2,1.4-1.9,1.9c-0.7,0.5-1.5,0.9-2.4,1.2
			c0,0.8,0.1,1.7,0.4,2.5c0.2,0.8,0.7,1.2,1.5,1.2c0.2,0,0.4,0,0.6-0.1c0.2,0,0.5-0.2,0.8-0.4c0.2-0.1,0.6-0.3,1-0.7
			c0.5-0.3,1-0.7,1.5-1.1c0.5-0.4,1.1-0.9,1.6-1.4c0.5-0.5,0.9-1,1.1-1.5c0.1-0.3,0.3-0.4,0.5-0.4c0.3,0,0.5,0.1,0.8,0.4
			s0.4,0.5,0.4,0.8c0,0.3-0.2,0.7-0.7,1.3c-0.5,0.6-1,1.2-1.6,1.9c-0.6,0.6-1.3,1.2-1.9,1.8c-0.7,0.6-1.2,0.9-1.5,1.1
			c-0.1,0-0.5,0.2-1,0.5c-0.6,0.3-1.1,0.5-1.5,0.5c-0.9,0-1.6-0.2-2.3-0.5c-0.6-0.4-1.2-0.8-1.6-1.4c-0.4-0.6-0.7-1.3-0.9-2.1
			s-0.3-1.6-0.3-2.4c-0.2-0.1-0.4-0.3-0.4-0.7c0-0.3,0.1-0.5,0.3-0.7c0-0.5,0-1,0.1-1.5c0-0.5,0.1-1,0.3-1.5c0.2-0.8,0.6-1.8,1-3
			s0.9-2.3,1.6-3.3c0.6-1.1,1.4-2,2.3-2.7c0.9-0.7,1.9-1.1,3-1.1c1.1,0,1.9,0.4,2.3,1.1c0.4,0.7,0.6,1.6,0.6,2.5
			c0,0.6-0.1,1.1-0.2,1.7C467.4,285.5,467.2,285.9,467,286.2z M464.2,283.7c-0.4,0.3-0.8,0.8-1.2,1.4c-0.4,0.6-0.8,1.3-1.1,2
			c-0.3,0.7-0.6,1.5-0.9,2.2c-0.3,0.8-0.5,1.5-0.7,2.1c0.5-0.4,1.1-1.3,1.8-2.5c0.2-0.3,0.4-0.6,0.6-1c0.2-0.4,0.5-0.9,0.7-1.4
			c0.2-0.5,0.4-1,0.5-1.5C464.1,284.5,464.2,284.1,464.2,283.7z"/>
		<path class="st40" d="M468.7,295.6C468.7,295.6,468.6,295.6,468.7,295.6c-0.1,0.1-0.2,0.1-0.2,0.1c-0.3,0-0.6-0.1-0.8-0.3
			c-0.2-0.2-0.3-0.5-0.3-0.8c0-0.4,0.1-0.7,0.4-0.9c0.4-0.6,0.8-1.6,1.4-2.8c0.6-1.2,1.2-2.4,1.8-3.7c0.6-1.3,1.2-2.5,1.7-3.6
			c0.6-1.1,1-2,1.3-2.5c0.3-0.3,0.7-0.5,1.1-0.5c0.4,0,0.8,0.1,1.2,0.4c0.8,1.1,1.5,2,2,2.8c0.6,0.8,1,1.5,1.4,2.2s0.6,1.3,0.8,1.9
			c0.2,0.6,0.2,1.3,0.2,2c0,0.9-0.1,1.9-0.3,2.9c-0.2,1.1-0.5,2.5-0.8,4.1c1-0.2,1.9-0.5,2.8-0.8c0.9-0.4,1.8-0.7,2.8-1.1
			c0.2-0.1,0.3-0.1,0.5-0.1c0.3,0,0.6,0.1,0.7,0.3c0.2,0.2,0.2,0.4,0.2,0.7c0,0.3-0.3,0.7-0.9,1.1s-1.3,0.8-2.1,1.3
			c-0.8,0.4-1.7,0.8-2.5,1.2c-0.9,0.4-1.6,0.7-2.1,0.9h-0.6c-0.7,0-1.3-0.4-1.7-1s-0.6-1.4-0.6-2c0-0.7,0.1-1.4,0.3-2
			c0.2-0.7,0.3-1.4,0.4-2c0.1-0.9,0.2-1.7,0.2-2.4c0-1.1-0.1-2.1-0.4-3c-0.3-0.9-0.8-1.9-1.4-3c-0.2,0.2-0.4,0.7-0.7,1.2
			c-0.3,0.6-0.7,1.3-1,2c-0.4,0.8-0.8,1.6-1.2,2.4c-0.4,0.8-0.9,1.6-1.3,2.3c-0.4,0.7-0.8,1.3-1.2,1.9
			C469.3,295.1,469,295.5,468.7,295.6z"/>
		<path class="st40" d="M485.8,284.6c0-0.3,0.2-0.6,0.4-0.7c0.2-0.2,0.4-0.2,0.6-0.2c0.6,0,1,0.5,1,1.4c0,1.2-0.1,2.3-0.2,3.5
			c-0.2,1.2-0.2,2.4-0.2,3.6c0,0.4,0,0.9,0,1.3c0,0.4,0.1,0.8,0.2,1.3c1-0.8,1.8-1.7,2.4-2.6c0.6-0.9,1.1-1.9,1.5-3
			c0.4-1,0.8-2.1,1-3.2s0.7-2.2,1.1-3.3c0.4-0.7,0.9-1,1.6-1c0.7,0,1.1,0.3,1.3,0.9c0.2,0.6,0.3,1.4,0.3,2.4c0,1.1,0,2.2-0.1,3.2
			c-0.1,1.1-0.1,2.2-0.1,3.2v1.1c1.1-0.6,2.2-1.2,3.5-1.7c1.2-0.5,2.4-0.8,3.5-0.8c0.5,0,0.9,0.1,1.3,0.3c0.4,0.2,0.6,0.5,0.6,1
			c0,0.4-0.1,0.8-0.3,1c-0.2,0.2-0.4,0.3-0.7,0.3c-0.4,0-0.7-0.2-0.8-0.6h-0.4c-1.2,0.3-2.3,0.8-3.4,1.4c-1.1,0.6-2.2,1.2-3.2,1.9
			c0,0.6,0,1.2,0,1.8c0,0.6,0,1.2,0,1.7c0,2.5-0.1,5-0.4,7.4c-0.3,2.4-0.8,4.9-1.6,7.4c-0.3,0.9-0.6,1.8-1.1,2.7
			c-0.4,0.9-1,1.7-1.6,2.5c-0.6,0.7-1.3,1.3-2.1,1.8c-0.8,0.5-1.7,0.7-2.6,0.7c-1,0-1.9-0.2-2.7-0.7c-0.8-0.5-1.5-1.1-2-1.9
			c-0.6-0.8-1-1.6-1.3-2.6c-0.3-1-0.4-1.9-0.4-2.8c0-2.1,0.3-4.1,1-5.9c0.6-1.8,1.5-3.5,2.6-5c1.1-1.5,2.4-2.9,3.8-4.2
			c1.5-1.3,3-2.5,4.7-3.5c0-0.4,0-0.8,0-1.1c0-0.4,0-0.7,0.1-1.1c0,0-0.1,0.1-0.3,0.4c-0.2,0.3-0.4,0.6-0.6,0.9
			c-0.2,0.4-0.4,0.7-0.7,1s-0.4,0.5-0.5,0.7l-2.2,1.6c-0.4,0.3-0.8,0.4-1.3,0.4c-0.6,0-1-0.1-1.4-0.4c-0.3-0.3-0.6-0.6-0.8-1
			c-0.2-0.4-0.3-0.9-0.4-1.4c-0.1-0.5-0.1-1-0.1-1.6c0-1.4,0.1-2.8,0.4-4.2C485.6,287.4,485.7,286,485.8,284.6z M492.9,304.4
			c0.1-1.6,0.2-3.1,0.2-4.6v-2c-2.6,2-4.6,4.3-6.1,6.7s-2.3,5.2-2.5,8.1c0,0.4,0,0.8,0.1,1.4c0.1,0.6,0.3,1.1,0.5,1.6
			c0.2,0.5,0.5,0.9,0.8,1.3c0.3,0.4,0.8,0.6,1.3,0.6c0.6,0,1-0.2,1.4-0.6c0.4-0.4,0.8-0.8,1-1.4c0.3-0.5,0.6-1.1,0.8-1.7
			c0.2-0.6,0.4-1.1,0.5-1.5c0.4-1.1,0.8-2.3,1.1-3.7C492.4,307.4,492.7,305.9,492.9,304.4z"/>
	</g>
</g>
<g id="Layer_27">
	<polygon class="st5" points="384.5,345.1 398.5,346.7 398.5,357.8 384.5,356.5 	"/>
	<line class="st5" x1="391.6" y1="345.9" x2="391.6" y2="357.2"/>
	<line class="st5" x1="384.5" y1="350.6" x2="398.5" y2="352.1"/>
</g>
<g id="Layer_30">
</g>
</svg>
