<?xml version="1.0" encoding="utf-8"?>
<!-- Generator: Adobe Illustrator 19.2.1, SVG Export Plug-In . SVG Version: 6.00 Build 0)  -->
<svg version="1.1" xmlns="http://www.w3.org/2000/svg" xmlns:xlink="http://www.w3.org/1999/xlink" x="0px" y="0px"
	 viewBox="0 0 620 300" style="enable-background:new 0 0 620 300;" xml:space="preserve">
<style type="text/css">
	.st0{fill:#265B9B;}
	.st1{fill:none;}
	.st2{fill:#346CC6;}
	.st3{fill:#437DD1;}
	.st4{fill:#EDF2F7;}
	.st5{display:none;}
	.st6{display:inline;fill:#265B9B;}
	.st7{display:inline;fill:#DCE7EF;}
	.st8{display:inline;}
	.st9{display:inline;fill:#346CC6;}
	.st10{display:inline;fill:#437DD1;}
	.st11{fill:#FFFFFF;}
</style>
<g id="back">
	<rect x="0.5" class="st0" width="620" height="300"/>
</g>
<g id="circles">
	<g>
		<path class="st1" d="M64.4,0H1v300h63.4c-26.1-43.8-41.1-95.1-41.1-150S38.3,43.8,64.4,0z"/>
		<path class="st1" d="M556.6,0c26.1,43.8,41.1,95.1,41.1,150s-15,106.2-41.1,150H621V0H556.6z"/>
		<path class="st2" d="M556.6,0H451.5C490.6,37.7,515,91,515,150c0,59-24.4,112.3-63.6,150h105.1c26.1-43.8,41.1-95.1,41.1-150
			S582.7,43.8,556.6,0z"/>
		<path class="st2" d="M106,150c0-59,24.4-112.3,63.6-150H64.4C38.3,43.8,23.3,95.1,23.3,150s15,106.2,41.1,150h105.1
			C130.4,262.3,106,209,106,150z"/>
		<path class="st3" d="M515,150c0-59-24.4-112.3-63.6-150H169.5C130.4,37.7,106,91,106,150c0,59,24.4,112.3,63.6,150h281.9
			C490.6,262.3,515,209,515,150z M310.5,289c-75.9,0-137.4-62.2-137.4-139S234.7,11,310.5,11s137.4,62.2,137.4,139
			S386.4,289,310.5,289z"/>
		<ellipse class="st4" cx="310.5" cy="150" rx="137.4" ry="139"/>
	</g>
</g>
<g id="Layer_3" class="st5">
	<polygon class="st6" points="311.3,91 310.4,91 255.6,139.5 310.4,188 311.3,188 366.1,139.5 	"/>
	<path class="st7" d="M351.1,104.6h-81.2c-3.3,0-6,2.7-6,6v77.7c0,3.3,2.7,6,6,6h81.2c3.3,0,6-2.7,6-6v-77.7
		C357.1,107.3,354.4,104.6,351.1,104.6z"/>
	<g class="st8">
		<path id="path6" class="st2" d="M334.2,123.8c-2.2-12.4-23.5-13.2-37.1-3.7v1c13.7-8,33-7.9,34.8,3.5c0.6,3.8-1.3,7.7-4.6,10v3
			C331.3,135.9,335.4,130.5,334.2,123.8 M309.3,145.6c-9.4,1-19.3-0.6-20.7-8.9c-0.7-4.1,1-8.5,3.2-11.2v-1.5
			c-4,3.9-6.1,8.9-4.9,14.8c1.6,7.6,10,11.8,22.9,10.4c5.1-0.6,11.8-2.4,16.4-5.3v-4.1C322.1,142.6,315.1,144.9,309.3,145.6z"/>
		<path id="path8" class="st2" d="M325.5,122.1h-2.5v12.5c0,1.5,0.6,2.7,2.5,3"/>
		<path id="path10" class="st2" d="M296.1,126.6h-2.5v8.2c0,1.5,0.6,2.7,2.5,3"/>
		<rect id="rect12" x="293.6" y="122.4" class="st2" width="2.5" height="2.7"/>
		<path id="path14" class="st2" d="M310.9,137.6c-2,0-2.9-1.6-2.9-3.1v-10.9h2.4v3h1.9v2.3h-1.9v5.4c0,0.6,0.3,1,0.9,1h1v2.3H310.9"
			/>
		<path id="path16" class="st2" d="M317.4,128.7c-0.8,0-1.5,0.5-1.8,1.2c-0.2,0.4-0.2,0.7-0.2,1.2h3.8
			C319.1,129.9,318.7,128.7,317.4,128.7 M315.4,133c0,1.4,0.8,2.5,2.2,2.5c1.1,0,1.6-0.3,2.3-1l1.5,1.6c-1,1.1-2,1.7-3.8,1.7
			c-2.3,0-4.6-1.5-4.6-5.7c0-3.6,2-5.7,4.5-5.7c2.6,0,4.1,2.4,4.1,5.5v1L315.4,133"/>
		<path id="path18" class="st2" d="M302.7,128.9c0.7,0,1,0.4,1,1.1v7.7h2.5v-7.7c0-1.6-0.7-3.3-2.9-3.3h-5.1v11h2.4v-8.8"/>
	</g>
	<path class="st9" d="M363.6,201H257.5c-2.3,0-3.1-3.1-1-4.2l109.3-57.4v59.3C365.8,200,364.8,201,363.6,201z"/>
	<path class="st10" d="M257.5,201h106.1c2.3,0,3.1-3.1,1-4.2l-109.3-57.4v59.3C255.3,200,256.2,201,257.5,201z"/>
</g>
<g id="Layer_3_copy">
	<polygon class="st0" points="296,101.4 295.3,101.6 259.6,154.1 315.9,183.2 316.7,183 352.4,130.6 	"/>
	<path class="st11" d="M332.5,104.4l-68.3,17.3c-2.8,0.7-4.5,3.5-3.8,6.3l16.6,65.3c0.7,2.8,3.5,4.5,6.3,3.8l68.3-17.3
		c2.8-0.7,4.5-3.5,3.8-6.3l-16.6-65.3C338.1,105.4,335.3,103.7,332.5,104.4z"/>
	<g>
		<path id="path6_1_" class="st2" d="M322.4,124.2c-4.5-9.9-22.5-6.1-32,4.8l0.2,0.9c9.8-9.6,26.1-13.7,30-4.5
			c1.3,3.1,0.6,6.8-1.8,9.4l0.6,2.5C322.5,134.9,324.8,129.5,322.4,124.2 M306.1,147.7c-7.7,2.8-16.3,3.6-19.3-3.1
			c-1.5-3.3-1-7.4,0.3-10.1l-0.3-1.2c-2.5,4.2-3.2,8.8-0.9,13.5c2.9,6,11,7.8,21.5,3.9c4.2-1.6,9.4-4.5,12.7-8l-0.9-3.5
			C316.2,142.5,310.9,146,306.1,147.7z"/>
		<path id="path8_1_" class="st2" d="M314.7,124.5l-2.1,0.5l2.7,10.5c0.3,1.2,1.1,2.2,2.7,2"/>
		<path id="path10_1_" class="st2" d="M290.9,134.6l-2.1,0.5l1.7,6.9c0.3,1.2,1.1,2.2,2.7,2"/>
		
			<rect id="rect12_1_" x="288.2" y="131.3" transform="matrix(0.9693 -0.2457 0.2457 0.9693 -23.6873 75.1523)" class="st2" width="2.1" height="2.3"/>
		<path id="path14_1_" class="st2" d="M305.7,140.7c-1.7,0.4-2.7-0.7-3.1-2l-2.3-9.1l2.1-0.5l0.6,2.5l1.6-0.4l0.5,1.9l-1.6,0.4
			l1.2,4.6c0.1,0.5,0.4,0.8,0.9,0.6l0.8-0.2l0.5,2L305.7,140.7"/>
		<path id="path16_1_" class="st2" d="M309.3,131.9c-0.7,0.2-1.1,0.7-1.2,1.3c-0.1,0.4,0,0.6,0.1,1.1l3.2-0.8
			C311,132.5,310.4,131.6,309.3,131.9 M308.5,135.9c0.3,1.2,1.2,1.9,2.4,1.6c0.9-0.2,1.3-0.6,1.7-1.4l1.6,1.1
			c-0.6,1.1-1.3,1.9-2.8,2.3c-2,0.5-4.2-0.2-5.1-3.8c-0.8-3,0.4-5.2,2.6-5.7c2.2-0.6,4,1.1,4.6,3.8l0.2,0.8L308.5,135.9"/>
		<path id="path18_1_" class="st2" d="M297,135.1c0.6-0.2,0.9,0.1,1.1,0.7l1.6,6.5l2.1-0.5l-1.6-6.5c-0.3-1.3-1.3-2.6-3.1-2.2
			l-4.3,1.1l2.3,9.3l2.1-0.5l-1.9-7.4"/>
	</g>
	<path class="st2" d="M363.5,182.8l-89.2,22.6c-2,0.5-3.3-2-1.8-3.3l79.7-71.5l12.6,49.9C365.2,181.5,364.6,182.5,363.5,182.8z"/>
	<path class="st3" d="M274.3,205.4l89.2-22.6c2-0.5,1.9-3.3,0-3.8l-104.2-24.9L272,204C272.2,205,273.3,205.7,274.3,205.4z"/>
	<g>
		<path class="st2" d="M373.1,229.1v8.1c0,0.6-0.5,1.2-1.2,1.2l0,0c-0.6,0-1.2-0.5-1.2-1.2v-8.1c0-0.6,0.5-1.2,1.2-1.2l0,0
			C372.5,227.9,373.1,228.4,373.1,229.1z"/>
		<path class="st2" d="M376,234.3h-8.1c-0.6,0-1.2-0.5-1.2-1.2v0c0-0.6,0.5-1.2,1.2-1.2h8.1c0.6,0,1.2,0.5,1.2,1.2v0
			C377.1,233.8,376.6,234.3,376,234.3z"/>
	</g>
	<g>
		<path class="st2" d="M203.3,165.2v8.1c0,0.6-0.5,1.2-1.2,1.2l0,0c-0.6,0-1.2-0.5-1.2-1.2v-8.1c0-0.6,0.5-1.2,1.2-1.2l0,0
			C202.8,164.1,203.3,164.6,203.3,165.2z"/>
		<path class="st2" d="M206.2,170.4h-8.1c-0.6,0-1.2-0.5-1.2-1.2l0,0c0-0.6,0.5-1.2,1.2-1.2h8.1c0.6,0,1.2,0.5,1.2,1.2l0,0
			C207.4,169.9,206.8,170.4,206.2,170.4z"/>
	</g>
	<g>
		<path class="st2" d="M311.2,58.9V67c0,0.6-0.5,1.2-1.2,1.2l0,0c-0.6,0-1.2-0.5-1.2-1.2v-8.1c0-0.6,0.5-1.2,1.2-1.2l0,0
			C310.6,57.7,311.2,58.2,311.2,58.9z"/>
		<path class="st2" d="M314.1,64.1h-8.1c-0.6,0-1.2-0.5-1.2-1.2v0c0-0.6,0.5-1.2,1.2-1.2h8.1c0.6,0,1.2,0.5,1.2,1.2v0
			C315.2,63.6,314.7,64.1,314.1,64.1z"/>
	</g>
	<circle class="st2" cx="396.1" cy="108.4" r="3.7"/>
	<circle class="st2" cx="227.3" cy="194.6" r="3.7"/>
	<g>
		<path class="st2" d="M339,256.6c0.9,0,1.7,0.8,1.7,1.7c0,0.9-0.8,1.7-1.7,1.7s-1.7-0.8-1.7-1.7C337.3,257.4,338,256.6,339,256.6
			 M339,254.6c-2,0-3.7,1.7-3.7,3.7c0,2,1.7,3.7,3.7,3.7c2,0,3.7-1.7,3.7-3.7C342.7,256.3,341,254.6,339,254.6L339,254.6z"/>
	</g>
	<g>
		<path class="st2" d="M414.8,138.8c0.9,0,1.7,0.8,1.7,1.7s-0.8,1.7-1.7,1.7s-1.7-0.8-1.7-1.7S413.9,138.8,414.8,138.8 M414.8,136.8
			c-2,0-3.7,1.7-3.7,3.7s1.7,3.7,3.7,3.7c2,0,3.7-1.7,3.7-3.7S416.8,136.8,414.8,136.8L414.8,136.8z"/>
	</g>
	<g>
		<path class="st2" d="M252,61.2c0.9,0,1.7,0.8,1.7,1.7s-0.8,1.7-1.7,1.7s-1.7-0.8-1.7-1.7S251,61.2,252,61.2 M252,59.2
			c-2,0-3.7,1.7-3.7,3.7c0,2,1.7,3.7,3.7,3.7c2,0,3.7-1.7,3.7-3.7C255.7,60.9,254,59.2,252,59.2L252,59.2z"/>
	</g>
</g>
</svg>
