<?xml version="1.0" encoding="utf-8"?>
<!-- Generator: Adobe Illustrator 19.2.1, SVG Export Plug-In . SVG Version: 6.00 Build 0)  -->
<svg version="1.1" id="Layer_2" xmlns="http://www.w3.org/2000/svg" xmlns:xlink="http://www.w3.org/1999/xlink" x="0px" y="0px"
	 viewBox="0 0 620 300" style="enable-background:new 0 0 620 300;" xml:space="preserve">
<style type="text/css">
	.st0{fill:#437DD1;}
	.st1{fill:#265B9B;}
	.st2{fill:#F2F5F9;}
	.st3{font-family:'DIN-Light';}
	.st4{font-size:18px;}
	.st5{font-size:11px;}
</style>
<rect x="17.4" y="220.2" class="st0" width="585.1" height="45.1"/>
<rect x="17.4" y="157" class="st0" width="436.7" height="45.1"/>
<rect x="472.1" y="157.1" class="st0" width="130.9" height="45.1"/>
<rect x="473.1" y="93.8" class="st0" width="130.9" height="45.1"/>
<rect x="359.2" y="94.4" class="st0" width="95.6" height="45.1"/>
<rect x="359.2" y="34.6" class="st0" width="95.5" height="45.1"/>
<rect x="209.2" y="93.8" class="st0" width="136.5" height="45.1"/>
<rect x="209.2" y="34.6" class="st0" width="136.5" height="45.1"/>
<rect x="17.4" y="93.8" class="st0" width="179.3" height="45.1"/>
<rect x="17.4" y="34.6" class="st0" width="179.3" height="45.1"/>
<rect x="473.6" y="34.6" class="st0" width="130.9" height="45.1"/>
<rect x="104.8" y="139" class="st1" width="4.5" height="18.1"/>
<rect x="272.9" y="139" class="st1" width="4.5" height="18.1"/>
<rect x="404.7" y="139" class="st1" width="4.5" height="18.1"/>
<rect x="272.9" y="202.2" class="st1" width="4.5" height="18.1"/>
<rect x="536.8" y="202.2" class="st1" width="4.5" height="18.1"/>
<rect x="460.8" y="170.6" transform="matrix(4.501892e-11 1 -1 4.501892e-11 642.7161 -283.4493)" class="st1" width="4.5" height="18.1"/>
<g>
	<text transform="matrix(1 0 0 1 152.7899 247.7148)" class="st2 st3 st4">Intel Quark MicroController-based system</text>
	<text transform="matrix(1 0 0 1 503.8905 184.8938)" class="st2 st3 st4">OpenOcd</text>
	<text transform="matrix(1 0 0 1 488.6622 121.6125)" class="st2 st3 st4">JTAG &amp; Flash</text>
	<text transform="matrix(1 0 0 1 501.9473 62.4517)" class="st2 st3 st4">Debugger</text>
	<text transform="matrix(1 0 0 1 371.3399 62.4517)" class="st2 st3 st4">Analyser</text>
	<text transform="matrix(1 0 0 1 220.763 62.4518)" class="st2 st3 st4">IDE &amp; Software</text>
	<text transform="matrix(1 0 0 1 39.9788 62.4518)" class="st2 st3 st4">Compilers &amp; Libs.</text>
	<text transform="matrix(1 0 0 1 371.34 120.1823)" class="st2 st3 st5">Power Analysis</text>
	<text transform="matrix(1 0 0 1 22.6491 121.059)" class="st2 st3 st5">C Compilers</text>
	<text transform="matrix(1 0 0 1 87.6942 113.4807)"><tspan x="0" y="0" class="st2 st3 st5">Optimised C, Floating </tspan><tspan x="4.8" y="13.2" class="st2 st3 st5">Point, Crypto &amp; DSP</tspan></text>
	<text transform="matrix(1 0 0 1 223.4508 113.4806)"><tspan x="0" y="0" class="st2 st3 st5">Eclipse, Sample Code, </tspan><tspan x="-6.7" y="13.2" class="st2 st3 st5">HW Abstraction API, BSP </tspan></text>
	<text transform="matrix(1 0 0 1 70.137 184.8715)" class="st2 st3 st4">Code running on Zephyr RTOS or Bare Metal</text>
</g>
</svg>
