<?xml version="1.0" encoding="utf-8"?>
<!-- Generator: Adobe Illustrator 19.2.1, SVG Export Plug-In . SVG Version: 6.00 Build 0)  -->
<svg version="1.1" xmlns="http://www.w3.org/2000/svg" xmlns:xlink="http://www.w3.org/1999/xlink" x="0px" y="0px"
	 viewBox="0 0 620 300" style="enable-background:new 0 0 620 300;" xml:space="preserve">
<style type="text/css">
	.st0{fill:#62D395;}
	.st1{fill:#EFF9F3;}
	.st2{fill:#414147;}
	.st3{fill:#DCDCEA;}
	.st4{fill:#B275C6;}
	.st5{fill:#E8DE2A;}
	.st6{fill:#C9472D;}
	.st7{fill:#59A4D8;}
	.st8{fill:#529AC1;}
	.st9{fill:#F2923B;stroke:#D86D16;stroke-width:2;stroke-miterlimit:10;}
	.st10{fill:#D86D16;}
	.st11{fill:none;}
	.st12{font-family:'BebasNeue';}
	.st13{font-size:18px;}
</style>
<g id="back">
	<rect x="-0.3" y="0" class="st0" width="620" height="300"/>
</g>
<g id="code">
	<circle class="st1" cx="121.4" cy="150" r="69.5"/>
	<circle class="st1" cx="309.7" cy="150" r="69.5"/>
	<circle class="st1" cx="497.3" cy="150" r="69.5"/>
	<path class="st2" d="M92,127v49c0,4.2,3.1,8,7.3,8h45.4c4.2,0,7.3-3.8,7.3-8v-49H92z"/>
	<path class="st3" d="M144.7,114H99.3c-4.2,0-7.3,3.8-7.3,8v5h60v-5C152,117.8,149,114,144.7,114z"/>
	<path class="st4" d="M133,137.7H99.4c-1.1,0-2-0.9-2-2l0,0c0-1.1,0.9-2,2-2H133c1.1,0,2,0.9,2,2l0,0
		C135.1,136.7,134.2,137.7,133,137.7z"/>
	<path class="st5" d="M115,146H99.4c-1.1,0-2-0.9-2-2l0,0c0-1.1,0.9-2,2-2H115c1.1,0,2,0.9,2,2l0,0C117,145.1,116.1,146,115,146z"/>
	<path class="st0" d="M143.5,154.4H99.4c-1.1,0-2-0.9-2-2l0,0c0-1.1,0.9-2,2-2h44.1c1.1,0,2,0.9,2,2l0,0
		C145.5,153.5,144.6,154.4,143.5,154.4z"/>
	<path class="st6" d="M114.1,162.8H99.4c-1.1,0-2-0.9-2-2l0,0c0-1.1,0.9-2,2-2h14.8c1.1,0,2,0.9,2,2l0,0
		C116.2,161.9,115.3,162.8,114.1,162.8z"/>
	<path class="st7" d="M124.2,171.2H99.4c-1.1,0-2-0.9-2-2l0,0c0-1.1,0.9-2,2-2h24.8c1.1,0,2,0.9,2,2l0,0
		C126.2,170.3,125.3,171.2,124.2,171.2z"/>
	<circle class="st1" cx="99" cy="120.7" r="1.6"/>
	<circle class="st1" cx="104.1" cy="120.7" r="1.6"/>
	<circle class="st1" cx="109" cy="120.7" r="1.6"/>
	<polygon class="st8" points="523.8,127.3 512,145 512,172 536,172 536,145 	"/>
	<g>
		
			<rect x="318.9" y="122.1" transform="matrix(0.7071 0.7071 -0.7071 0.7071 193.5156 -187.4651)" class="st3" width="8.2" height="35.6"/>
		
			<rect x="291.4" y="144.4" transform="matrix(0.7071 0.7071 -0.7071 0.7071 201.4409 -167.1765)" class="st9" width="22.3" height="30.3"/>
		
			<rect x="304" y="144.1" transform="matrix(0.7071 0.7071 -0.7071 0.7071 196.1961 -179.8385)" class="st9" width="22.3" height="5.6"/>
		<path class="st9" d="M282.7,179.4c4.4,4.4,11.8,4,16.7-0.9l-15.8-15.8C278.7,167.7,278.3,175.1,282.7,179.4z"/>
		<g>
			
				<rect x="301.1" y="148.8" transform="matrix(0.7071 0.7071 -0.7071 0.7071 201.5132 -167.0022)" class="st10" width="2.5" height="21.8"/>
			
				<rect x="297" y="144.7" transform="matrix(0.7071 0.7071 -0.7071 0.7071 197.4039 -165.3)" class="st10" width="2.5" height="21.8"/>
			
				<rect x="305.2" y="152.9" transform="matrix(0.7071 0.7071 -0.7071 0.7071 205.6224 -168.7043)" class="st10" width="2.5" height="21.8"/>
		</g>
		<path class="st3" d="M331.8,118.5h-10.9c-1.5,0-2.2,1.8-1.2,2.8l5,5l12.3,12.3c0.6,0.6,1.7,0.6,2.3,0l5.5-5.5
			c0.6-0.6,0.6-1.7,0-2.3L332.9,119C332.6,118.7,332.2,118.5,331.8,118.5z"/>
		<path class="st3" d="M337.5,142.3l-2-2c-0.7-0.7-0.7-1.9,0-2.7l8.3-8.3c0.7-0.7,1.9-0.7,2.7,0l2,2c0.7,0.7,0.7,1.9,0,2.7l-8.3,8.3
			C339.4,143.1,338.2,143.1,337.5,142.3z"/>
	</g>
	<path class="st3" d="M522.4,139.8h-48.5c-1,0-1.8-0.8-1.8-1.8l0,0c0-1,0.8-1.8,1.8-1.8h48.5c1,0,1.8,0.8,1.8,1.8l0,0
		C524.2,139,523.4,139.8,522.4,139.8z"/>
	<rect x="459" y="145" class="st7" width="76.9" height="27"/>
	<polygon class="st8" points="470.8,127.3 459,145 459,172 483,172 483,145 	"/>
	<path class="st3" d="M471.3,139.8L471.3,139.8c-1,0-1.8-0.8-1.8-1.8l0,0c0-1,0.8-1.8,1.8-1.8l0,0c1,0,1.8,0.8,1.8,1.8l0,0
		C473,139,472.3,139.8,471.3,139.8z"/>
	<rect x="497.5" y="151.6" class="st11" width="24.4" height="14.8"/>
	<text transform="matrix(1 0 0 1 497.498 164.1941)" class="st1 st12 st13">&lt;/&gt;</text>
</g>
</svg>
