<?xml version="1.0" encoding="utf-8"?>
<!-- Generator: Adobe Illustrator 19.2.1, SVG Export Plug-In . SVG Version: 6.00 Build 0)  -->
<svg version="1.1" xmlns="http://www.w3.org/2000/svg" xmlns:xlink="http://www.w3.org/1999/xlink" x="0px" y="0px"
	 viewBox="0 0 620 300" style="enable-background:new 0 0 620 300;" xml:space="preserve">
<style type="text/css">
	.st0{fill:#E9FFFF;}
	.st1{fill:#39515F;}
	.st2{fill:#4D6570;}
	.st3{fill:#F0F4F7;}
	.st4{fill:#E2E091;}
	.st5{fill:#8CCEA5;}
	.st6{fill:#E6EFE6;}
</style>
<g id="Layer_1">
	<rect class="st0" width="620" height="300"/>
</g>
<g id="Layer_2">
	<rect x="203.6" y="94.1" class="st1" width="80.6" height="111.8"/>
	
		<rect x="338.8" y="110.1" transform="matrix(-1 7.942301e-11 -7.942301e-11 -1 752.2391 300)" class="st1" width="74.7" height="79.7"/>
	<rect x="209.8" y="100.9" class="st2" width="68.2" height="98.1"/>
	<g id="g10" transform="matrix(1.3333333,0,0,-1.3333333,0,65.333333)">
		<g id="g12" transform="scale(0.1)">
			<path id="path14" class="st3" d="M1948.8-646.6c8.5-91.6-4.9-187.1-76.5-200.5c-35.3-6.5-72.7,9.6-96,30.9h-12.4
				c33.7-38.4,76.3-59.2,126.7-47.2c64.6,15.3,101.2,97.3,89,222.4c-4.8,49.5-20.7,114.3-45.5,159.3h-35.1
				C1923.4-522.6,1943.6-590.3,1948.8-646.6z M1763.1-405.2c-106.1-21.7-112.8-227.8-32-360.6h8.9c-68.2,132.6-67.8,320.8,30,337.9
				c32.3,5.8,66-12.5,85.4-45h25.4C1866.4-433.7,1819.9-393.5,1763.1-405.2"/>
			<path id="path16" class="st3" d="M1747.6-489.2v-24h107c12.5,0,23.4,6.1,25.2,24H1747.6"/>
			<path id="path18" class="st3" d="M1786.7-775.2v-24.1l69.9,0c12.6,0,23.5,6.1,25.2,24.1H1786.7"/>
			<path id="path20" class="st3" d="M1773.6-799.3v24h-22.8v-24H1773.6z"/>
			<path id="path22" class="st3" d="M1880.7-631.3c0-19.4-13.5-27.7-26.8-27.7H1761v23.8h25.7v17.9h19.2v-17.9h46.5
				c5.4,0,8.5,2.6,8.5,8.2v9.7h19.8V-631.3"/>
			<path id="path24" class="st3" d="M1841.1-587.5c12.2,0,21.1,7.6,21.1,21.1c0,10.6-2.9,15.8-9,21.9l14,14.7
				c9.3-9.4,15-19.3,15-36.8c0-22.8-12.4-44.6-48.7-44.6c-31,0-48.5,19.1-48.5,44.1c0,25.4,20.5,40,47.4,40h8.6V-587.5
				 M1804.8-568.2c0-8.2,4.2-14.4,9.9-17.1c3.4-1.5,6.1-2.1,10.2-2.3v36.7C1814.6-551.3,1804.8-555.9,1804.8-568.2"/>
			<path id="path26" class="st3" d="M1805.9-710.5c0,7,3.4,9.9,9.1,9.9h65.8v23.8h-66c-13.4,0-28.1-7.1-28.1-28.1l0-49.2h94.1v23.8
				h-74.9V-710.5"/>
			<path id="path28" class="st3" d="M1766.7-463.3c0-5.3-4.3-9.5-9.6-9.5c-5.3,0-9.6,4.2-9.6,9.5c0,5.3,4.3,9.6,9.6,9.6
				C1762.5-453.7,1766.7-458,1766.7-463.3z M1749.2-463.3c0-4.4,3.6-7.9,8-7.9c4.4,0,7.9,3.5,7.9,7.9c0,4.4-3.5,8-7.9,8
				C1752.8-455.3,1749.2-459,1749.2-463.3z M1762.9-459.1v-1.8c0-0.1-0.1-0.3-0.2-0.4l-4.1-2.4c-0.1-0.1-0.2-0.3-0.2-0.3
				c0,0,0-0.4,0-0.7c0-0.2,0-0.3,0-0.4h4.1c0.2,0,0.4-0.1,0.4-0.4v-1.6c0-0.2-0.2-0.4-0.4-0.4h-10.3c-0.6,0-0.9,0.2-0.9,0.7
				c-0.1,0.6-0.1,2.1-0.1,2.9c0,3,0.9,4.7,3.6,4.7h0.2c1.7,0,2.6-0.9,3-2.2l4.3,2.5c0.1,0.1,0.2,0.1,0.3,0.1
				C1762.7-458.7,1762.9-458.8,1762.9-459.1z M1754.7-461.4c-1.2,0-1.5-0.7-1.5-2.2c0-0.2,0-0.7,0-1.1c0-0.2,0-0.3,0-0.4h3.3
				c0,0.3,0.1,1.3,0.1,1.5c0,1.5-0.5,2.2-1.6,2.2L1754.7-461.4"/>
		</g>
	</g>
	
		<rect x="298.9" y="147.1" transform="matrix(1.113818e-10 1 -1 1.113818e-10 488.7827 -188.7827)" class="st4" width="79.7" height="5.9"/>
	
		<rect x="373.6" y="147.1" transform="matrix(1.114040e-10 1 -1 1.114040e-10 563.4563 -263.4563)" class="st4" width="79.7" height="5.9"/>
	<rect x="335.8" y="94.1" class="st5" width="80.6" height="16"/>
	<circle class="st6" cx="351.5" cy="102.1" r="2.9"/>
	<circle class="st6" cx="368.1" cy="102.1" r="2.9"/>
	<circle class="st6" cx="384.6" cy="102.1" r="2.9"/>
	<circle class="st6" cx="401.2" cy="102.1" r="2.9"/>
	<rect x="335.8" y="189.9" class="st5" width="80.6" height="16"/>
	<circle class="st6" cx="351.5" cy="197.9" r="2.9"/>
	<circle class="st6" cx="368.1" cy="197.9" r="2.9"/>
	<circle class="st6" cx="384.6" cy="197.9" r="2.9"/>
	<circle class="st6" cx="401.2" cy="197.9" r="2.9"/>
</g>
</svg>
