<?xml version="1.0" encoding="utf-8"?>
<!-- Generator: Adobe Illustrator 19.2.1, SVG Export Plug-In . SVG Version: 6.00 Build 0)  -->
<svg version="1.1" id="Layer_2" xmlns="http://www.w3.org/2000/svg" xmlns:xlink="http://www.w3.org/1999/xlink" x="0px" y="0px"
	 viewBox="0 0 620 300" style="enable-background:new 0 0 620 300;" xml:space="preserve">
<style type="text/css">
	.st0{fill:#265B9B;}
	.st1{fill:#437DD1;}
	.st2{fill:#F2F5F9;}
	.st3{font-family:'DIN-Light';}
	.st4{font-size:14px;}
	.st5{font-size:12px;}
</style>
<rect x="308.9" y="53.5" class="st0" width="4.5" height="34.8"/>
<rect x="196" y="119.3" class="st0" width="4.5" height="27.1"/>
<rect x="196" y="68.3" class="st0" width="4.5" height="20"/>
<rect x="421.8" y="68.3" class="st0" width="4.5" height="20"/>
<rect x="197.5" y="68.3" class="st0" width="226.5" height="4.5"/>
<rect x="141.7" y="201.8" class="st0" width="4.5" height="17.3"/>
<rect x="85.2" y="216.6" class="st0" width="4.5" height="24.6"/>
<rect x="308.5" y="216.6" class="st0" width="4.5" height="24.9"/>
<rect x="195.3" y="216.6" class="st0" width="4.5" height="24.6"/>
<rect x="87.4" y="216.6" class="st0" width="225.6" height="4.5"/>
<rect x="419.8" y="216.6" class="st0" width="112.8" height="4.5"/>
<rect x="313.7" y="144.1" class="st0" width="164.6" height="4.5"/>
<rect x="141.7" y="144.1" class="st0" width="58.8" height="4.5"/>
<rect x="421.8" y="125.9" class="st0" width="4.5" height="21.7"/>
<rect x="417.5" y="216.6" class="st0" width="4.5" height="24.6"/>
<rect x="311.5" y="144.1" class="st0" width="4.5" height="21.7"/>
<rect x="141.7" y="144.1" class="st0" width="4.5" height="21.7"/>
<rect x="476" y="144.1" class="st0" width="4.5" height="21.7"/>
<rect x="476" y="202.4" class="st0" width="4.5" height="18.6"/>
<rect x="530.3" y="216.4" class="st0" width="4.5" height="24.9"/>
<g>
	<rect x="264.6" y="16" class="st1" width="93.1" height="37.6"/>
	<text transform="matrix(1 0 0 1 271.3483 39.086)" class="st2 st3 st4">ISSM Eclipse</text>
</g>
<g>
	<rect x="151.7" y="88.3" class="st1" width="93.1" height="37.6"/>
	<text transform="matrix(1 0 0 1 168.5378 111.4201)" class="st2 st3 st4">Firmware</text>
</g>
<g>
	<rect x="97.4" y="165" class="st1" width="93.1" height="37.6"/>
	<text transform="matrix(1 0 0 1 130.7077 188.1557)" class="st2 st3 st4">BSP</text>
</g>
<g>
	<rect x="151" y="241.3" class="st1" width="93.1" height="37.6"/>
	<text transform="matrix(1 0 0 1 169.7345 264.4266)" class="st2 st3 st4">MakeFile</text>
</g>
<g>
	<rect x="262.7" y="241.5" class="st1" width="93.1" height="37.6"/>
	<text transform="matrix(1 0 0 1 272.2799 263.9621)" class="st2 st3 st5">Linker Scripts</text>
</g>
<g>
	<rect x="39.3" y="241.4" class="st1" width="93.1" height="37.6"/>
	<text transform="matrix(1 0 0 1 63.6866 264.5042)" class="st2 st3 st4">Drivers</text>
</g>
<g>
	<rect x="264.6" y="164.9" class="st1" width="93.1" height="37.6"/>
	<text transform="matrix(1 0 0 1 270.2314 188.0009)" class="st2 st3 st5">Complier (GCC)</text>
</g>
<g>
	<rect x="431.7" y="165.2" class="st1" width="93.1" height="37.6"/>
	<text transform="matrix(1 0 0 1 452.4261 187.6908)" class="st2 st3 st5">Debugger</text>
</g>
<g>
	<rect x="374.4" y="241.2" class="st1" width="93.1" height="37.6"/>
	<text transform="matrix(1 0 0 1 395.0377 263.7292)" class="st2 st3 st5">OpenOCD</text>
</g>
<g>
	<rect x="486" y="241.2" class="st1" width="93.1" height="37.6"/>
	<text transform="matrix(1 0 0 1 520.5924 263.6522)" class="st2 st3 st5">GDB</text>
</g>
<g>
	<rect x="264.6" y="88.3" class="st1" width="93.1" height="37.6"/>
	<text transform="matrix(1 0 0 1 281.4275 111.4202)" class="st2 st3 st4">ISSM ENV</text>
</g>
<g>
	<rect x="377.5" y="88.3" class="st1" width="93.1" height="37.6"/>
	<text transform="matrix(1 0 0 1 407.9604 111.42)" class="st2 st3 st4">Tools</text>
</g>
</svg>
