<?xml version="1.0" encoding="utf-8"?>
<!-- Generator: Adobe Illustrator 19.2.1, SVG Export Plug-In . SVG Version: 6.00 Build 0)  -->
<svg version="1.1" xmlns="http://www.w3.org/2000/svg" xmlns:xlink="http://www.w3.org/1999/xlink" x="0px" y="0px"
	 viewBox="0 0 620 300" style="enable-background:new 0 0 620 300;" xml:space="preserve">
<style type="text/css">
	.st0{fill:#E9FFFF;}
	.st1{fill:#39515F;}
	.st2{fill:#4D6570;}
	.st3{fill:#F0F4F7;}
	.st4{fill:none;}
	.st5{font-family:'DINAlternate-Bold';}
	.st6{font-size:14px;}
</style>
<g id="Layer_1">
	<rect class="st0" width="620" height="300"/>
</g>
<g id="front_x5F_sqr">
	<rect x="245.9" y="77.3" class="st1" width="145.5" height="145.5"/>
	<rect x="254.1" y="85.5" class="st2" width="129" height="129"/>
</g>
<g id="logo">
	<g id="g10" transform="matrix(1.3333333,0,0,-1.3333333,0,65.333333)">
		<g id="g12" transform="scale(0.1)">
			<path id="path14" class="st3" d="M2378.2-689.7c-91.6-8.5-187.1,4.9-200.5,76.5c-6.5,35.3,9.6,72.7,30.9,96v12.4
				c-38.4-33.7-59.2-76.3-47.2-126.7c15.3-64.6,97.3-101.2,222.4-89c49.5,4.8,114.3,20.7,159.3,45.5v35.1
				C2502.1-664.4,2434.5-684.5,2378.2-689.7z M2619.5-504c-21.7,106.1-227.8,112.8-360.6,32v-8.9c132.6,68.2,320.8,67.8,337.9-30
				c5.8-32.3-12.5-66-45-85.4v-25.4C2591-607.3,2631.2-560.9,2619.5-504"/>
			<path id="path16" class="st3" d="M2535.6-488.6h-24v-107c0-12.5,6.1-23.4,24-25.2V-488.6"/>
			<path id="path18" class="st3" d="M2249.5-527.6h-24.1l0-69.9c0-12.6,6.1-23.5,24.1-25.2V-527.6"/>
			<path id="path20" class="st3" d="M2225.5-514.6h24v22.8h-24V-514.6z"/>
			<path id="path22" class="st3" d="M2393.4-621.6c-19.4,0-27.7,13.5-27.7,26.8v92.8h23.8v-25.7h17.9v-19.2h-17.9v-46.5
				c0-5.4,2.6-8.5,8.2-8.5h9.7v-19.8H2393.4"/>
			<path id="path24" class="st3" d="M2437.2-582.1c0-12.2,7.6-21.1,21.1-21.1c10.6,0,15.8,2.9,21.9,9l14.7-14
				c-9.4-9.3-19.3-15-36.8-15c-22.8,0-44.6,12.4-44.6,48.7c0,31,19.1,48.5,44.1,48.5c25.4,0,40-20.5,40-47.4v-8.6H2437.2
				 M2456.6-545.7c-8.1,0-14.4-4.2-17.1-9.9c-1.5-3.4-2.1-6.1-2.3-10.2h36.7C2473.5-555.6,2468.8-545.7,2456.6-545.7"/>
			<path id="path26" class="st3" d="M2314.2-546.9c7,0,9.9-3.4,9.9-9.1v-65.8h23.8v66c0,13.4-7.1,28.1-28.1,28.1l-49.2,0v-94.1h23.8
				v74.9H2314.2"/>
			<path id="path28" class="st3" d="M2561.4-507.7c-5.3,0-9.5,4.3-9.5,9.6c0,5.3,4.2,9.6,9.5,9.6c5.3,0,9.6-4.3,9.6-9.6
				C2571-503.4,2566.7-507.7,2561.4-507.7z M2561.4-490.2c-4.4,0-7.9-3.6-7.9-8c0-4.4,3.5-7.9,7.9-7.9c4.4,0,8,3.5,8,7.9
				C2569.4-493.8,2565.8-490.2,2561.4-490.2z M2565.7-503.8h-1.8c-0.1,0-0.3,0.1-0.4,0.2l-2.4,4.1c-0.1,0.1-0.3,0.2-0.3,0.2
				c0,0-0.4,0-0.7,0c-0.2,0-0.3,0-0.4,0v-4.1c0-0.2-0.1-0.4-0.4-0.4h-1.6c-0.2,0-0.4,0.2-0.4,0.4v10.3c0,0.6,0.2,0.9,0.7,0.9
				c0.6,0.1,2.1,0.1,2.9,0.1c3,0,4.7-0.9,4.7-3.6v-0.2c0-1.7-0.9-2.6-2.2-3l2.5-4.3c0.1-0.1,0.1-0.2,0.1-0.3
				C2566.1-503.7,2566-503.8,2565.7-503.8z M2563.3-495.7c0,1.2-0.7,1.5-2.2,1.5c-0.2,0-0.7,0-1.1,0c-0.2,0-0.3,0-0.4,0v-3.3
				c0.3,0,1.3-0.1,1.5-0.1c1.5,0,2.2,0.5,2.2,1.6L2563.3-495.7"/>
		</g>
	</g>
</g>
<g id="text">
	<rect x="272.3" y="193.9" class="st4" width="92.6" height="15.3"/>
	<text transform="matrix(1 0 0 1 277.4799 203.834)" class="st3 st5 st6">QUARK D2000</text>
</g>
</svg>
