<?xml version="1.0" encoding="utf-8"?>
<!-- Generator: Adobe Illustrator 19.2.1, SVG Export Plug-In . SVG Version: 6.00 Build 0)  -->
<svg version="1.1" xmlns="http://www.w3.org/2000/svg" xmlns:xlink="http://www.w3.org/1999/xlink" x="0px" y="0px"
	 viewBox="0 0 620 300" style="enable-background:new 0 0 620 300;" xml:space="preserve">
<style type="text/css">
	.st0{fill:#E9FFFF;}
	.st1{fill:#B4E3B1;}
	.st2{fill:#8CCEA5;}
	.st3{fill:#E2E091;}
	.st4{fill:#E6EFE6;}
	.st5{fill:#39515F;}
</style>
<g id="Layer_1">
	<rect class="st0" width="620" height="300"/>
</g>
<g id="Layer_2">
	<rect x="245.9" y="77.3" class="st1" width="145.5" height="145.5"/>
	<rect x="254.1" y="85.5" class="st2" width="129" height="129"/>
	<polygon class="st3" points="277,91 260,91 260,108 260,108 	"/>
	<circle class="st3" cx="373" cy="95.2" r="4.2"/>
	<path class="st4" d="M337.7,176.8h-38.2c-4.2,0-7.7-3.4-7.7-7.7v-38.2c0-4.2,3.4-7.7,7.7-7.7h38.2c4.2,0,7.7,3.4,7.7,7.7v38.2
		C345.4,173.3,342,176.8,337.7,176.8z"/>
	<path class="st5" d="M334.9,172.8h-32.5c-3.6,0-6.5-2.9-6.5-6.5v-32.5c0-3.6,2.9-6.5,6.5-6.5h32.5c3.6,0,6.5,2.9,6.5,6.5v32.5
		C341.4,169.9,338.5,172.8,334.9,172.8z"/>
	<rect x="260" y="197.5" class="st1" width="31.9" height="7.3"/>
</g>
</svg>
