<?xml version="1.0" encoding="utf-8"?>
<!-- Generator: Adobe Illustrator 19.2.1, SVG Export Plug-In . SVG Version: 6.00 Build 0)  -->
<svg version="1.1" xmlns="http://www.w3.org/2000/svg" xmlns:xlink="http://www.w3.org/1999/xlink" x="0px" y="0px"
	 viewBox="0 0 620 300" style="enable-background:new 0 0 620 300;" xml:space="preserve">
<style type="text/css">
	.st0{fill:#F9F0C7;}
	.st1{fill:#ED6B51;stroke:#4B4C4B;stroke-width:4;stroke-miterlimit:10;}
	.st2{fill:#3F62BA;stroke:#4B4C4B;stroke-width:4;stroke-miterlimit:10;}
	.st3{fill:#75D8A2;stroke:#4B4C4B;stroke-width:4;stroke-miterlimit:10;}
	.st4{fill:none;stroke:#4B4C4B;stroke-width:4;stroke-miterlimit:10;}
	.st5{fill:#4B4C4B;}
	.st6{fill:none;stroke:#4B4C4B;stroke-width:4;stroke-linecap:round;stroke-linejoin:round;stroke-miterlimit:10;}
</style>
<g id="Layer_1">
	<rect class="st0" width="620" height="300"/>
</g>
<g id="Layer_3">
	<path class="st1" d="M255,135.9c4,18.4,20,32.2,40,32.4V85.6c-20,0.2-36,14-40,32.4V135.9z"/>
	<path class="st2" d="M336,135.9c-4,18.4-20,32.2-40,32.4V85.6c20,0.2,36,14,40,32.4V135.9z"/>
</g>
<g id="Layer_2">
	<g>
		<path class="st3" d="M305,142.3v17c0,1-0.3,2.7-1.3,2.7h-17c-1,0-1.7-1.7-1.7-2.7v-17c0-1,0.6-2.3,1.7-2.3h17
			C304.7,140,305,141.3,305,142.3z"/>
		<g>
			<path class="st1" d="M295,193.9l0.1-0.1l-27.6,33.1c7.8,5.4,17.5,8.6,27.5,8.6V193.9z"/>
			<path class="st2" d="M295,235.4c11,0,19.9-3.1,27.6-8.3L295,193.9V235.4z"/>
			<path class="st1" d="M341,107v87.1c0,13.5-7.2,25.5-18.3,33L295,193.9V160h8.9c1,0,1.1-0.4,1.1-1.4v-15.3c0-0.9-0.1-2.4-1.1-2.4
				H295v-34H341z"/>
			<path class="st2" d="M295,107v34h-8c-1,0-2,1.4-2,2.4v15.3c0,0.9,1,1.4,2,1.4h8v33.9l-27.2,33l-0.4,0.2
				c-11.1-7.5-18.4-19.5-18.4-33V107H295z"/>
		</g>
		<path class="st4" d="M320,134.2c0-0.3-0.4-0.3-0.5-0.6c-0.5-4-4.3-6.7-8.4-6.7h-31.8c-4,0-7,2.6-7.6,6.5c-0.1,0.4,0.3,0.4,0.3,0.8
			V166c0,0.4-0.3,1.3-0.3,1.6c0.6,3.9,3.6,7.3,7.6,7.3h31.8c4.1,0,7.9-3.6,8.4-7.5c0-0.3,0.5-1.1,0.5-1.4V134.2z"/>
		<g>
			<path class="st5" d="M270.6,137.3h-4.1c-1.2,0-2.2-1-2.2-2.2l0,0c0-1.2,1-2.2,2.2-2.2h4.1c1.2,0,2.2,1,2.2,2.2l0,0
				C272.9,136.3,271.9,137.3,270.6,137.3z"/>
			<path class="st5" d="M270.6,147.4h-4.1c-1.2,0-2.2-1-2.2-2.2l0,0c0-1.2,1-2.2,2.2-2.2h4.1c1.2,0,2.2,1,2.2,2.2l0,0
				C272.9,146.4,271.9,147.4,270.6,147.4z"/>
			<path class="st5" d="M270.6,157.4h-4.1c-1.2,0-2.2-1-2.2-2.2l0,0c0-1.2,1-2.2,2.2-2.2h4.1c1.2,0,2.2,1,2.2,2.2l0,0
				C272.9,156.4,271.9,157.4,270.6,157.4z"/>
			<path class="st5" d="M270.6,167.4h-4.1c-1.2,0-2.2-1-2.2-2.2l0,0c0-1.2,1-2.2,2.2-2.2h4.1c1.2,0,2.2,1,2.2,2.2l0,0
				C272.9,166.4,271.9,167.4,270.6,167.4z"/>
		</g>
		<g>
			<path class="st5" d="M324.6,137.3h-4.1c-1.2,0-2.2-1-2.2-2.2l0,0c0-1.2,1-2.2,2.2-2.2h4.1c1.2,0,2.2,1,2.2,2.2l0,0
				C326.8,136.3,325.8,137.3,324.6,137.3z"/>
			<path class="st5" d="M324.6,147.4h-4.1c-1.2,0-2.2-1-2.2-2.2l0,0c0-1.2,1-2.2,2.2-2.2h4.1c1.2,0,2.2,1,2.2,2.2l0,0
				C326.8,146.4,325.8,147.4,324.6,147.4z"/>
			<path class="st5" d="M324.6,157.4h-4.1c-1.2,0-2.2-1-2.2-2.2l0,0c0-1.2,1-2.2,2.2-2.2h4.1c1.2,0,2.2,1,2.2,2.2l0,0
				C326.8,156.4,325.8,157.4,324.6,157.4z"/>
			<path class="st5" d="M324.6,167.4h-4.1c-1.2,0-2.2-1-2.2-2.2l0,0c0-1.2,1-2.2,2.2-2.2h4.1c1.2,0,2.2,1,2.2,2.2l0,0
				C326.8,166.4,325.8,167.4,324.6,167.4z"/>
		</g>
	</g>
	<path class="st5" d="M308.2,88.7L308.2,88.7c-0.7-0.7-0.7-1.8,0-2.5l20.5-20.5c0.7-0.7,1.8-0.7,2.5,0h0c0.7,0.7,0.7,1.8,0,2.5
		l-20.5,20.5C310,89.3,308.9,89.3,308.2,88.7z"/>
	<path class="st5" d="M283.7,88.7L283.7,88.7c0.7-0.7,0.7-1.8,0-2.5l-20.5-20.5c-0.7-0.7-1.8-0.7-2.5,0l0,0c-0.7,0.7-0.7,1.8,0,2.5
		l20.5,20.5C281.9,89.3,283,89.3,283.7,88.7z"/>
	<g>
		<polyline class="st6" points="341,163 350.2,163 365,211.4 		"/>
		<polyline class="st6" points="249,163 240.3,163 225.3,211.4 		"/>
		<polyline class="st6" points="341,147 361.2,147 378.2,163.1 		"/>
		<polyline class="st6" points="249,147 229,147 211.8,163.1 		"/>
		<polyline class="st6" points="341,132 359.5,132 378.2,107.4 		"/>
		<polyline class="st6" points="249,132 230.7,132 211.8,107.4 		"/>
	</g>
</g>
</svg>
