<svg xmlns="http://www.w3.org/2000/svg" viewBox="0 0 620 300"><style>.st0{fill:#d32a43}.st1,.st2,.st3{fill:#41c2ba;stroke:#0b0f1c;stroke-width:3;stroke-linecap:round;stroke-linejoin:round;stroke-miterlimit:10}.st2,.st3{fill:#dadce0}.st3{fill:#2a2a2b}.st4{fill:#239e92}.st5{fill:#fff}.st6{stroke-dasharray:10}.st6,.st7{fill:none;stroke:#fff;stroke-width:2;stroke-miterlimit:10}.st8{fill-rule:evenodd;clip-rule:evenodd;fill:#fff}.st9{stroke:#fff;stroke-width:2;stroke-linecap:round;stroke-linejoin:round;stroke-miterlimit:10}.st10,.st9{fill:none}</style><path class="st0" d="M0 0h620v300H0z" id="Layer_1"/><g id="Layer_2"><path class="st1" d="M246 101.9h138.7v89H246z"/><path class="st2" d="M312.8 120.9h62.1V162h-62.1zM376 111.5h-63M297 111.5h-42M376 180.5h-63M235.5 120.9h29.4v23.8h-29.4z"/><path transform="rotate(90 247.408 175.132)" class="st2" d="M241.4 163.2h12V187h-12z"/><path class="st3" d="M275.4 154.9h14.2v14.2h-14.2z"/><path class="st4" d="M319.5 127.5h28v28h-28z"/></g><g id="Layer_3"><path class="st5" d="M517.5 27l-5.7 21.5c-.2.9 0 1.8.5 2.5.6.7 1.4 1.1 2.3 1.1h5.4l-26.3 33.1 5.6-21c.2-.9.1-1.8-.5-2.5s-1.4-1.1-2.3-1.1h-5.3L517.5 27m2.4-5.9c-.2 0-.5.1-.7.4l-31 39.6c-.5.6 0 1.5.7 1.5h7.5c.6 0 1 .6.9 1.1l-7 26.1c-.2.6.3 1.1.9 1.1.2 0 .5-.1.7-.3l31-39c.5-.6 0-1.5-.7-1.5h-7.7c-.6 0-1-.6-.9-1.1l7.1-26.7c.3-.7-.2-1.2-.8-1.2zM537.2 108.1c1.6 0 3.1.8 4 2.1l38 56.8c1.5 2.2.9 5.2-1.3 6.7L546 195.1c-.8.5-1.7.8-2.7.8-1.6 0-3.1-.8-4-2.1l-38-56.8c-1.5-2.2-.9-5.2 1.3-6.7l31.9-21.4c.8-.5 1.7-.8 2.7-.8m0-2c-1.3 0-2.6.4-3.8 1.2l-31.9 21.4c-3.1 2.1-4 6.3-1.9 9.5l38 56.8c1.3 2 3.5 3 5.7 3 1.3 0 2.6-.4 3.8-1.2l31.9-21.4c3.1-2.1 4-6.3 1.9-9.5l-38-56.8c-1.3-1.9-3.5-3-5.7-3z"/><path class="st5" d="M536.5 115.7l31.1 46.4-28.8 19.3-31-46.4 28.7-19.3m.6-2.8L505 134.4l33.3 49.8 32.1-21.5-33.3-49.8zM558.1 176.9c.7 0 1.4.4 1.8.9.3.5.4 1 .3 1.6-.1.6-.4 1-.9 1.4-.4.2-.8.4-1.2.4-.7 0-1.4-.4-1.8-.9-.7-1-.4-2.3.6-3 .4-.3.8-.4 1.2-.4m0-2c-.8 0-1.6.2-2.3.7-1.9 1.3-2.4 3.8-1.1 5.7.8 1.2 2.1 1.8 3.4 1.8.8 0 1.6-.2 2.3-.7 1.9-1.3 2.4-3.8 1.1-5.7-.8-1.2-2.1-1.8-3.4-1.8z"/><path class="st6" d="M100.6 151.1c35.5 0 64.3 28.8 64.3 64.3s-28.8 64.3-64.3 64.3-64.3-28.8-64.3-64.3"/><path class="st5" d="M51.3 172.5c1.3 2.2 3.5 10.4 1.2 16.6-3.4 9-6.1 12.3-7 13.2h-1.1c-1.1 0-2.7-.1-4.1-.7-1.9-.7-3.6-2.3-4.3-3-.1-1.3 0-5.7 3.5-14.7 2.2-6.1 9.3-10.6 11.8-11.4m-4 15.1c2 0 3.8-1.2 4.5-3.1.5-1.2.4-2.5-.1-3.7-.5-1.2-1.5-2.1-2.7-2.5-.5-.2-1.1-.3-1.7-.3-2 0-3.8 1.2-4.5 3.1-.5 1.2-.4 2.5.1 3.7.5 1.2 1.5 2.1 2.7 2.5.5.2 1.1.3 1.7.3m-15.1.6c-.6 1.9-1 3.7-1.3 5.4-.7.1-1.5.3-2.2.6 1-2.3 2.2-4.7 3.5-6m22 10.2c-.2 1.5-.7 3.3-1.3 4.9-.2-.4-.5-.8-.8-1.2.8-1.1 1.5-2.4 2.1-3.7m-2.4-28c-2.3 0-11.5 5.3-14.3 12.9-4.6 12.1-3.5 16.3-3.5 16.3s2.4 2.8 5.5 4c1.7.6 3.5.8 4.8.8 1.2 0 1.9-.1 1.9-.1s3.4-2.3 8-14.4c3-7.9-.6-18.8-2.2-19.4 0-.1-.1-.1-.2-.1zm-4.5 15.2c-.3 0-.7-.1-1-.2-1.4-.5-2.2-2.2-1.6-3.6.4-1.1 1.5-1.8 2.6-1.8.3 0 .7.1 1 .2 1.4.5 2.2 2.2 1.6 3.6-.4 1.2-1.5 1.8-2.6 1.8zm-11.8-1.2zm0 0c-1.4.2-3.1.8-4.7 2.3-3.3 3.2-5.5 11.2-5.5 11.2s3.9-2.4 6.6-2.5h.7c.4-2.4 1.2-6 2.9-11zm19.3 7.8c-2 4.8-3.7 8-5.1 10.1 1.9 1.9 3.2 6.2 3.2 6.2s3.6-7.4 3.3-12c0-1.9-.6-3.3-1.4-4.3zm-19 10.9l.9 6.8 5-4.4c-.9-.1-1.8-.4-2.7-.7-1.2-.4-2.3-1-3.2-1.7z"/><path class="st5" d="M113.2 198.3c-.8 1-1.9 1.7-2.4 1.9-.9.5-2.1.8-3.2.8h-.1c.7-.8 1.6-1.5 2.5-2 1-.4 2.1-.7 3.2-.7m-17.9 2.5c1 0 1.9.2 2.7.5 1.2.5 2.1 1.3 3 2.2 1 .9 2 1.9 3.5 2.5 1.4.6 2.7.7 3.9.7 1.3.1 2.4.1 4 .8 1.5.7 2.8 2 3.6 3.6-3.1 1-5.6 3.4-6.8 6.7-1.2 3.5-.7 7.1 1.3 10-.9.7-1.6 1.2-2.7 2-1.8 1.2-4.2 2.6-6 2.6-.4 0-.7-.1-1-.2-.7-.3-1.1-.7-1.7-1.4-.8-.9-1.8-2.1-4.1-3-1.9-.8-3.3-.9-4.6-.9h-.7c-.8 0-1.3 0-1.9-.3-1.9-.8-2.6-3.9-3.1-6.5-1.4-8.4 1.6-15.4 5.2-17.8 1.7-.9 3.6-1.5 5.4-1.5m18.3-4.5c-1.5 0-3.1.3-4.4 1-1.9 1-3.9 2.8-4.5 5.1.9.4 1.9.6 2.9.6 1.4 0 2.9-.4 4.1-1 1.9-1 3.8-2.9 4.5-5.3-.7-.3-1.7-.4-2.6-.4zm-18.3 2.5c-2.1 0-4.4.7-6.4 2-4.6 3-7.5 11.1-6.1 19.8.5 3.1 1.5 6.7 4.2 8 1 .5 1.8.5 2.7.5h.7c1 0 2.2.1 3.8.8 3.3 1.4 3.3 3.3 5.7 4.4.6.2 1.2.4 1.8.4 2.4 0 5-1.6 7.1-2.9 1.9-1.2 2.7-1.9 4.4-3.5-5.3-5.2-2.4-14.7 5.4-15.4-.9-3.3-3-5.8-5.5-6.9-3.4-1.5-5.5-.5-7.9-1.5-2.4-1.1-3.6-3.5-6.5-4.7-1-.7-2.2-1-3.4-1z" id="apple"/><path class="st5" d="M164.2 83.5c1.5 0 2.8.2 3.8.7 2 .9 3.6 2.3 4.1 3.9 1.1 3 .7 5.2.4 7l-.1.5c-.8 4.9-.8 8.3.1 10.5l.2.4-8.1 3.2-.2-.4c-.9-2.2-3.2-4.7-7.1-7.7l-.4-.3c-1.4-1.1-3.2-2.4-4.5-5.4-.7-1.6-.5-3.7.4-5.7.9-2.1 3.5-4.5 6.3-5.7l.1-.1.1-.1c1.6-.6 3.3-.8 4.9-.8m0-2c-1.8 0-3.7.3-5.4.9-.1 0-.2.1-.2.1-.1 0-.2.1-.2.1-3.3 1.5-6.3 4.2-7.4 6.7-1.2 2.6-1.2 5.3-.4 7.3 1.6 3.8 4 5.3 5.5 6.5 2.6 2 5.6 4.6 6.5 6.9l.9 2.2 11.8-4.6-.9-2.2c-.9-2.2-.5-6.1 0-9.4.3-1.9 1-4.7-.4-8.5-.7-2-2.6-3.9-5.2-5.1-1.3-.7-2.9-.9-4.6-.9zM175.1 109.5l-10.2 4c-.6.2-.9.9-.6 1.5.2.5.8.8 1.4.7-.2.3-.3.8-.1 1.2.2.6.9 1 1.4.8l.2-.1c-.1.2-.1.5 0 .8.2.5.7.7 1.2.6l.3-.1 3.1 2.5 3.8-1.5.6-3.9.3-.1c.5-.2.7-.7.5-1.2-.1-.3-.3-.5-.5-.6l.2-.1c.5-.2.8-.9.5-1.5-.2-.4-.5-.7-.9-.8.5-.3.8-.9.5-1.4-.5-.8-1.2-1.1-1.7-.8z"/><path class="st7" d="M155.4 74.4l-2.7-6.8M142.7 92.6l-7.3-.3M177 79.1l5.1-5.2M145.7 81.6l-6-4.3M167.3 73.1l1.4-7.2"/><path class="st5" d="M73.4 27.1c.3.1 1.2.5 1.8.8l.4.2 1.2.6c0 .3-.1.9-.8 2.3L63.8 54.4c-.2.5-.3 1-.1 1.5.2.5.5.9 1 1.2l.7.3c.3.2.6.2.9.2.7 0 1.4-.4 1.8-1.1l4.2-8.1c.4-.7 1.1-1.2 1.9-1.2.4 0 .7.1 1 .2.5.3.9.7 1.1 1.3.2.6.1 1.1-.1 1.6L72 58.4c-.2.5-.3 1-.1 1.5.2.5.5.9 1 1.2l.7.4c.3.2.6.2.9.2.7 0 1.4-.4 1.8-1.1l2.8-5.3c.4-.7 1.1-1.2 1.9-1.2.4 0 .7.1 1 .2 1.1.6 1.5 1.9.9 2.9l-2.8 5.3c-.2.5-.3 1-.1 1.5.2.5.5.9 1 1.2l.7.4c.3.2.6.2.9.2.7 0 1.4-.4 1.8-1.1l.2-.3.8-1.6c.3-.5.7-.9 1.3-1.1.2-.1.4-.1.6-.1.3 0 .7.1 1 .3.5.3.9.7 1.1 1.3.2.6.1 1.1-.1 1.7l-.8 1.6-3 5.8-4.6 8.9-1.8 3.4-4.1 7.7c-.7 1.3-2.1 2.2-3.6 2.3-.7 0-1.4.4-1.7 1.1l-2.5 4.7h-.1c-.1 0-.1 0-.2-.1L46.2 89.5c-.2-.1-.2-.2-.2-.2l2.2-4.2c.4-.8.2-1.8-.4-2.4-1.1-1-1.6-2.5-1.3-3.9v-.4l-.2-23.9a2.732 2.732 0 0 1 2.7-2.7c.5 0 .9.1 1.3.3.9.5 1.5 1.4 1.5 2.4v5.3c0 .9.6 1.7 1.5 1.9.2 0 .3.1.5.1.7 0 1.4-.4 1.8-1.1L72.1 29c.7-1.4 1.2-1.8 1.3-1.9m-.1-2c-1 0-1.9.8-3 3L53.9 59.8v-5.3c0-1.8-1-3.4-2.6-4.2-.7-.4-1.5-.5-2.2-.5-1.3 0-2.5.5-3.4 1.4-.9.9-1.4 2.1-1.4 3.4l.2 23.9c-.4 2.2.4 4.4 2 5.8l-2.2 4.2c-.5 1 0 2.3 1.1 2.9L66 102.1c.4.2.8.3 1.2.3.8 0 1.5-.4 1.8-1.1l2.5-4.8c2.2-.1 4.2-1.3 5.3-3.3l3.9-7.4 1.8-3.4 4.6-8.9 3-5.8.8-1.6c.5-1 .6-2.1.3-3.2s-1.1-1.9-2.1-2.4c-.6-.3-1.3-.5-1.9-.5-.4 0-.8.1-1.2.2-1.1.3-1.9 1.1-2.5 2.1l-.8 1.6-.2.3-.7-.4 2.8-5.3c1.1-2 .3-4.6-1.8-5.6-.6-.3-1.3-.5-1.9-.5-1.5 0-3 .8-3.7 2.2l-2.8 5.3-.7-.4 4.2-8.1c1.1-2 .3-4.6-1.8-5.6-.6-.3-1.3-.5-1.9-.5-1.5 0-3 .8-3.7 2.2l-4.2 8.1-.7-.3L77.7 32c1.4-2.6 1.4-4.2.1-4.9l-1.3-.7c-1.4-.7-2.3-1.3-3.2-1.3zM442.7 203.1c.3 0 .7.1 1 .2l64.1 24.6c.6.2 1.2.7 1.5 1.3.3.6.3 1.2.1 1.8l-16.6 43.3-68.9-26.5 16.6-43.3c.3-.8 1.2-1.4 2.2-1.4m0-2c-1.8 0-3.5 1-4.1 2.8L421.3 249l72.6 27.9 17.3-45.2c.9-2.2-.3-4.8-2.7-5.7l-64.1-24.6c-.5-.2-1.1-.3-1.7-.3z"/><path class="st5" d="M445.2 209.2l57.4 22.1-14.6 38.2-57.4-22.1 14.6-38.2m-1.1-2.5L428 248.6l61.2 23.5 16.1-41.9-61.2-23.5z"/><path class="st5" d="M459.2 221.5l24.7 9.5-1.9 4.9-24.7-9.5 1.9-4.9M458 219l-3.3 8.6 28.4 10.9 3.3-8.6L458 219zM453.5 230.9l28.3 10.9-2.3 6-28.3-10.9 2.3-6m-1.1-2.6l-3.7 9.7 32 12.3 3.7-9.7-32-12.3zM451.1 242.7l24.7 9.5-1.9 4.9-24.7-9.5 1.9-4.9m-1.2-2.6l-3.3 8.6 28.4 10.9 3.3-8.6-28.4-10.9z"/><g><path class="st5" d="M413.2 247.1l87.9 33.8-.8 2.2-87.9-33.8.8-2.2m-1.1-2.6l-2.3 5.9 91.6 35.2 2.3-5.9-91.6-35.2z"/></g><path class="st8" d="M451.2 144.8c-1.3 0-2.5.5-3.4 1.4l-12.9-7c.1-.3.1-.7.1-1.1 0-.4 0-.7-.1-1.1l12.9-7c.9.9 2.1 1.4 3.4 1.4 2.6 0 4.8-2.1 4.8-4.8 0-2.6-2.1-4.8-4.8-4.8-2.6 0-4.8 2.1-4.8 4.8 0 .4.1.7.1 1.1l-12.9 7c-.9-.9-2.1-1.4-3.4-1.4-2.6 0-4.8 2.1-4.8 4.8 0 2.6 2.1 4.8 4.8 4.8 1.3 0 2.5-.5 3.4-1.4l12.9 7c-.1.3-.1.7-.1 1 0 2.6 2.1 4.7 4.7 4.7s4.7-2.1 4.7-4.7c.1-2.6-2-4.7-4.6-4.7z"/><g><path class="st5" d="M222.4 222.9l28 28c3.3 3.3 0 6.6 0 6.6l-13.2 13.2c-1.1 1.1-2.2 1.5-3.2 1.5-2 0-3.4-1.5-3.4-1.5l-28-28v-19.8h19.8m-9.8 14.5c1.2 0 2.4-.5 3.3-1.4 1.8-1.8 1.8-4.8 0-6.6-.9-.9-2.1-1.4-3.3-1.4-1.2 0-2.4.5-3.3 1.4-1.8 1.8-1.8 4.8 0 6.6.9 1 2.1 1.4 3.3 1.4m9.8-16.5h-19.8c-1.1 0-2 .9-2 2v19.8c0 .5.2 1 .6 1.4l28 28c.2.2 2.1 2 4.8 2 1.7 0 3.2-.7 4.6-2l13.2-13.2c.1-.1 1.2-1.2 1.7-2.8.8-2.3.2-4.7-1.7-6.6l-28-28c-.3-.4-.8-.6-1.4-.6zm-9.8 14.5a2.732 2.732 0 0 1-2.7-2.7 2.732 2.732 0 0 1 2.7-2.7 2.732 2.732 0 0 1 2.7 2.7c0 .7-.3 1.4-.8 1.9-.6.6-1.2.8-1.9.8z"/></g><path class="st5" d="M364.9 233.4s-13.9 2.9-16.9 4.2c-6.2 2.9-10.3 6.8-11.2 11.3-.8.1-2.3.4-4.6 1.3-2.7 1-4.2 1.7-5 2.2-3.6-2.8-9.3-3.3-15.9-1.5-3.2.8-15.7 7.5-15.7 7.5l2 5.3 2.8 1.2c.1 1.5.5 3.1 1.1 4.7 2.9 8.1 10.8 11.9 19.4 7.9 8.1-3.7 11.7-10.9 10.1-18.6-.2-.8-.4-1.6-.7-2.3.6-.6 1.5-1.3 3.1-1.9 1.5-.5 2.6-.7 3.5-.7.2.8.6 1.5 1 2.3 3.7 7 11.1 10.2 19.7 7.8 9.1-2.5 12.8-10.5 9.8-18.5-.6-1.6-1.3-3.1-2.2-4.3l1.4-2.7-1.7-5.2zm-35.1 26.2c1.4 6.9-1.9 13.7-9.2 17-7.7 3.5-15.4 0-17.9-7.2-2.8-7.8.6-14.7 9.2-17 9-2.4 16.3-.3 17.9 7.2zm27.5 3.7c-7.7 2.1-14.6-.9-17.9-7.2-3.6-6.8.7-13 9.2-17 8-3.8 15.1-.7 17.9 7.2 2.6 7.2-1.1 14.7-9.2 17z"/><g><path class="st5" d="M567.7 54v2c3.7 0 7.1 1.4 9.7 4 5.3 5.3 5.3 14.1 0 19.4-2.6 2.6-6 4-9.7 4-3.7 0-7.1-1.4-9.7-4-5.3-5.3-5.3-14.1 0-19.4 2.6-2.6 6-4 9.7-4v-2m13.2 28.9l3.6 3.6 1.4 1.4 1.4-1.4 7.7 7.7-2.8 2.8-7.7-7.7 1.4-1.4-1.4-1.4-3.6-3.6m-13.2-31.1c-4.6 0-9.1 1.7-12.6 5.2-7 7-7 18.3 0 25.2 3.5 3.5 8 5.2 12.6 5.2 3.9 0 7.9-1.3 11.1-3.9l4.3 4.3-.9.9c-.3.3-.3.7 0 .9l9.6 9.6c.1.1.3.2.5.2s.3-.1.5-.2l4.7-4.7c.3-.3.3-.7 0-.9l-9.6-9.6c-.1-.1-.3-.2-.5-.2s-.3.1-.5.2l-.9.9-4.3-4.3c5.6-7 5.2-17.3-1.3-23.8-3.5-3.2-8.1-5-12.7-5zm0 34.6c-4.3 0-8.5-1.6-11.8-4.9-6.5-6.5-6.5-17.1 0-23.6 3.3-3.3 7.5-4.9 11.8-4.9 4.3 0 8.5 1.6 11.8 4.9 6.5 6.5 6.5 17.1 0 23.6-3.2 3.2-7.5 4.9-11.8 4.9zm0-32.4c-4 0-8 1.5-11.1 4.6-6.1 6.1-6.1 16.1 0 22.2 3.1 3.1 7.1 4.6 11.1 4.6s8-1.5 11.1-4.6c6.1-6.1 6.1-16.1 0-22.2-3-3.1-7.1-4.6-11.1-4.6z"/></g><g><path class="st9" d="M572.1 227.6c-1.9 4.3-.9 7.9 2.7 10.7M564.6 241c1.5-4.2.6-7.8-2.7-10.7l-.3-.3c-3.5-2.7-4.4-6.3-2.7-10.7M554.5 248.5l35.5-9.1.2.9 6.4 24.9c.7 2.9-.3 4.6-3.2 5.4l-27 6.9c-2.9.7-4.6-.3-5.4-3.2l-6.5-25.8 1.2 4.9c-.2 0-1 .2-1.2.3-2.6.6-4.6 2.1-6 4.4-1.4 2.3-1.7 4.8-1 7.4.7 2.6 2.1 4.6 4.5 6 2.3 1.4 4.8 1.7 7.4 1 .2-.1.4-.1.6-.2M600.3 274.1l-37.7 9.7"/></g><g><path class="st5" d="M445.5 21.1c-.9 0-1.8.3-2.4.8-.1.1-.2.1-.2.2l-27.2 27.2c-.4.4-.6.8-.7 1.2l3.7.1 29.1-29.1c-.9-.2-1.6-.4-2.3-.4zM450.7 25.6c.1.1.2.1.2.2 2.8 2.6 3.6 5.4 2.9 6.3l-.1.1c-.1.1-.2.2-.2.3l-.1.1L428.9 57v-.9c0-.5-.2-1-.6-1.4-.4-.4-.9-.6-1.4-.6h-4v-.7l27.8-27.8m-.2-2.7l-29.6 29.6-.1 3.6h6.1l-.1 5.6c.2-.1.5-.3.7-.5L454.8 34c.1-.1.2-.2.3-.4.1 0 .1-.1.2-.1 1.8-1.9.4-6-3-9.1-.6-.6-1.2-1-1.8-1.5zM413.4 57.1l-1.7 7.8 7.7-1.5c-1.2-4.9-6-6.3-6-6.3z"/></g><g><path class="st5" d="M219.4 57.9c-10.4-5.3-14.5-18.1-9.2-28.4 5.3-10.4 18.1-14.5 28.4-9.2 10.4 5.3 14.5 18.1 9.2 28.4-5.3 10.4-18 14.5-28.4 9.2zm18-35.2c-9-4.6-20.1-1-24.7 8-4.6 9-1 20.1 8 24.7 9 4.6 20.1 1 24.7-8 4.6-9 1-20-8-24.7z"/><path class="st10" d="M210.9 36.7c-1 7.5 2.7 15.1 9.8 18.7a18.3 18.3 0 0 0 20.9-3c-4.9-2.1-10.2-4.6-15.6-7.4-5.4-2.7-10.6-5.6-15.1-8.3zM246.2 51.4c8.3 3.3 13.9 4.8 15.7 4.6-.7-1.2-3.8-4.4-12.9-10.1-.3 1-.7 1.9-1.2 2.9-.4.8-1 1.7-1.6 2.6zM237.4 22.7c-9-4.6-20.1-1-24.7 8-.5 1-.9 2.1-1.2 3.1 4.4 2.7 9.7 5.7 15.8 8.8 6.1 3.1 11.6 5.7 16.3 7.7.7-.9 1.3-1.8 1.8-2.8 4.6-9.1 1-20.1-8-24.8zM211.9 26.8c-10-4-14.4-4.7-15.7-4.5.9 1.6 5.3 5.3 12.9 10.1.3-1 .7-1.9 1.2-2.9.4-1 1-1.9 1.6-2.7z"/><path class="st5" d="M196.1 22.3c1.4-.1 5.8.5 15.7 4.5.6-.8 1.2-1.5 1.8-2.2-18.3-7.5-19.7-4.7-20.2-3.7-.8 1.5-.3 3.9 8.8 10.3 1.8 1.3 3.9 2.6 6.1 4 .2-.9.4-1.9.7-2.8-7.5-4.9-12-8.5-12.9-10.1zM211.5 33.8c-.3.9-.5 1.9-.6 2.9 4.6 2.7 9.7 5.6 15.1 8.4 5.4 2.8 10.7 5.3 15.6 7.4.7-.7 1.4-1.4 2-2.2-4.8-2-10.3-4.5-16.3-7.7-6.1-3.1-11.4-6.1-15.8-8.8zM249.8 43c-.2.9-.4 1.9-.7 2.8 9.1 5.7 12.2 8.9 12.9 10.1-1.8.2-7.4-1.2-15.7-4.6-.6.8-1.2 1.5-1.8 2.2 2.4 1 4.7 1.9 6.8 2.6 10.5 3.7 12.7 2.6 13.5 1.1.4-1 1.8-3.7-15-14.2z"/></g><path class="st9" d="M365.4 60.4c.6.1 1.2.1 1.9.1s1.4 0 2.1-.1c2.6-.4 4.8-1.5 6.7-3.4 2.4-2.3 3.7-5.1 3.7-8.4 0-3.3-1.2-6.1-3.7-8.5-2.4-2.3-5.3-3.4-8.7-3.4h-1.3v-.5c0-3.2-1.2-5.9-3.5-8.1-.2-.2-.5-.5-.8-.7-2.1-1.7-4.6-2.6-7.5-2.6-3.3 0-6.1 1.1-8.4 3.3-.6.6-1.1 1.2-1.6 1.8-.8 1.2-1.4 2.5-1.6 4-.9-.3-1.9-.4-2.9-.4-2.7 0-5 .9-6.9 2.6-1.5 1.5-2.4 3.3-2.6 5.3h-.7c-1.8 0-3.4.4-4.9 1.2-.8.4-1.5 1-2.1 1.6-1.9 1.9-2.8 4.1-2.8 6.7 0 2.6 1 4.9 2.8 6.7 1.9 1.9 4.3 2.8 7 2.8h35.8z"/></g></svg>