<?xml version="1.0" encoding="utf-8"?>
<!-- Generator: Adobe Illustrator 20.1.0, SVG Export Plug-In . SVG Version: 6.00 Build 0)  -->
<svg version="1.1" id="Layer_1" xmlns="http://www.w3.org/2000/svg" xmlns:xlink="http://www.w3.org/1999/xlink" x="0px" y="0px"
	 viewBox="0 0 620 300" style="enable-background:new 0 0 620 300;" xml:space="preserve">
<path style="fill:#DAE2EE;" d="M548.4,234.5H450c-11.9,0-21.5-9.6-21.5-21.5v-84.6c0-11.9,9.6-21.5,21.5-21.5h98.4
	c11.9,0,21.5,9.6,21.5,21.5V213C569.9,224.9,560.2,234.5,548.4,234.5z"/>
<path style="fill:#F0F3F7;" d="M513.7,234.5H408.9c-9.8,0-17.7-7.9-17.7-17.7v-92.1c0-9.8,7.9-17.7,17.7-17.7h104.7
	c9.8,0,17.7,7.9,17.7,17.7v92.1C531.4,226.6,523.5,234.5,513.7,234.5z"/>
<path style="fill:#97B0F1;" d="M485.5,202.9h-69.1c-6.4,0-11.5-5.2-11.5-11.5v-58.8c0-6.4,5.2-11.5,11.5-11.5h69.1
	c6.4,0,11.5,5.2,11.5,11.5v58.8C497,197.7,491.9,202.9,485.5,202.9z"/>
<g>
	<path style="fill:#F0F3F7;" d="M540.9,284.7H390c-5.6,0-10.2-4.6-10.2-10.2v-21.4c0-5.6,4.6-10.2,10.2-10.2h151
		c5.6,0,10.2,4.6,10.2,10.2v21.4C551.1,280.2,546.6,284.7,540.9,284.7z"/>
	<path style="fill:#DAE2EE;" d="M398.3,261.4H391c-0.9,0-1.6-0.7-1.6-1.6v-6.3c0-0.9,0.7-1.6,1.6-1.6h7.3c0.9,0,1.6,0.7,1.6,1.6v6.3
		C399.9,260.7,399.2,261.4,398.3,261.4z"/>
	<path style="fill:#DAE2EE;" d="M413.5,261.4h-7.3c-0.9,0-1.6-0.7-1.6-1.6v-6.3c0-0.9,0.7-1.6,1.6-1.6h7.3c0.9,0,1.6,0.7,1.6,1.6
		v6.3C415.1,260.7,414.4,261.4,413.5,261.4z"/>
	<path style="fill:#DAE2EE;" d="M428.8,261.4h-7.3c-0.9,0-1.6-0.7-1.6-1.6v-6.3c0-0.9,0.7-1.6,1.6-1.6h7.3c0.9,0,1.6,0.7,1.6,1.6
		v6.3C430.4,260.7,429.7,261.4,428.8,261.4z"/>
	<path style="fill:#DAE2EE;" d="M444,261.4h-7.3c-0.9,0-1.6-0.7-1.6-1.6v-6.3c0-0.9,0.7-1.6,1.6-1.6h7.3c0.9,0,1.6,0.7,1.6,1.6v6.3
		C445.6,260.7,444.9,261.4,444,261.4z"/>
	<path style="fill:#DAE2EE;" d="M459.3,261.4H452c-0.9,0-1.6-0.7-1.6-1.6v-6.3c0-0.9,0.7-1.6,1.6-1.6h7.3c0.9,0,1.6,0.7,1.6,1.6v6.3
		C460.9,260.7,460.2,261.4,459.3,261.4z"/>
	<path style="fill:#DAE2EE;" d="M474.5,261.4h-7.3c-0.9,0-1.6-0.7-1.6-1.6v-6.3c0-0.9,0.7-1.6,1.6-1.6h7.3c0.9,0,1.6,0.7,1.6,1.6
		v6.3C476.1,260.7,475.4,261.4,474.5,261.4z"/>
	<path style="fill:#DAE2EE;" d="M474.5,276.5h-7.3c-0.9,0-1.6-0.7-1.6-1.6v-6.3c0-0.9,0.7-1.6,1.6-1.6h7.3c0.9,0,1.6,0.7,1.6,1.6
		v6.3C476.1,275.8,475.4,276.5,474.5,276.5z"/>
	<path style="fill:#DAE2EE;" d="M520.3,276.5H513c-0.9,0-1.6-0.7-1.6-1.6v-6.3c0-0.9,0.7-1.6,1.6-1.6h7.3c0.9,0,1.6,0.7,1.6,1.6v6.3
		C521.9,275.8,521.2,276.5,520.3,276.5z"/>
	<path style="fill:#DAE2EE;" d="M535.1,276.5h-7.3c-0.9,0-1.6-0.7-1.6-1.6v-6.3c0-0.9,0.7-1.6,1.6-1.6h7.3c0.9,0,1.6,0.7,1.6,1.6
		v6.3C536.7,275.8,535.9,276.5,535.1,276.5z"/>
	<path style="fill:#DAE2EE;" d="M489.8,261.4h-7.3c-0.9,0-1.6-0.7-1.6-1.6v-6.3c0-0.9,0.7-1.6,1.6-1.6h7.3c0.9,0,1.6,0.7,1.6,1.6
		v6.3C491.4,260.7,490.7,261.4,489.8,261.4z"/>
	<path style="fill:#DAE2EE;" d="M505,261.4h-7.3c-0.9,0-1.6-0.7-1.6-1.6v-6.3c0-0.9,0.7-1.6,1.6-1.6h7.3c0.9,0,1.6,0.7,1.6,1.6v6.3
		C506.6,260.7,505.9,261.4,505,261.4z"/>
	<path style="fill:#DAE2EE;" d="M520.3,261.4H513c-0.9,0-1.6-0.7-1.6-1.6v-6.3c0-0.9,0.7-1.6,1.6-1.6h7.3c0.9,0,1.6,0.7,1.6,1.6v6.3
		C521.9,260.7,521.2,261.4,520.3,261.4z"/>
	<path style="fill:#DAE2EE;" d="M535.1,261.4h-7.3c-0.9,0-1.6-0.7-1.6-1.6v-6.3c0-0.9,0.7-1.6,1.6-1.6h7.3c0.9,0,1.6,0.7,1.6,1.6
		v6.3C536.7,260.7,535.9,261.4,535.1,261.4z"/>
	<path style="fill:#DAE2EE;" d="M398.3,276.5H391c-0.9,0-1.6-0.7-1.6-1.6v-6.3c0-0.9,0.7-1.6,1.6-1.6h7.3c0.9,0,1.6,0.7,1.6,1.6v6.3
		C399.9,275.8,399.2,276.5,398.3,276.5z"/>
	<path style="fill:#DAE2EE;" d="M457.3,276.5H407c-1.2,0-2.2-1-2.2-2.2v-5c0-1.2,1-2.2,2.2-2.2h50.3c1.2,0,2.2,1,2.2,2.2v5
		C459.5,275.5,458.5,276.5,457.3,276.5z"/>
	<path style="fill:#DAE2EE;" d="M504.5,276.5h-20.9c-1.4,0-2.5-1.1-2.5-2.5v-4.4c0-1.4,1.1-2.5,2.5-2.5h20.9c1.4,0,2.5,1.1,2.5,2.5
		v4.4C507,275.4,505.9,276.5,504.5,276.5z"/>
</g>
<path style="fill:#577DE0;" d="M504.5,202.9h-78.1c-6.7,0-12.1-5.4-12.1-12.1v-57.5c0-6.7,5.4-12.1,12.1-12.1h78.1
	c6.7,0,12.1,5.4,12.1,12.1v57.5C516.6,197.5,511.2,202.9,504.5,202.9z"/>
<g>
	<circle style="fill:#CC4E44;" cx="558.4" cy="230.5" r="36.5"/>
	<g>
		<path style="fill:#F0F3F7;" d="M554.9,233.7l-1-15.4c-0.2-3-0.3-5.1-0.3-6.4c0-1.8,0.5-3.2,1.4-4.2c0.9-1,2.2-1.5,3.7-1.5
			c1.8,0,3.1,0.6,3.7,1.9c0.6,1.3,0.9,3.1,0.9,5.5c0,1.4-0.1,2.8-0.2,4.3l-1.4,15.8c-0.2,1.9-0.5,3.3-1,4.3c-0.5,1-1.3,1.5-2.4,1.5
			c-1.2,0-2-0.5-2.4-1.5C555.4,237.1,555.1,235.6,554.9,233.7z M558.4,254.8c-1.3,0-2.4-0.4-3.4-1.3c-1-0.8-1.5-2-1.5-3.5
			c0-1.3,0.5-2.5,1.4-3.4c0.9-0.9,2.1-1.4,3.4-1.4c1.3,0,2.5,0.5,3.4,1.4c1,0.9,1.4,2.1,1.4,3.4c0,1.5-0.5,2.7-1.4,3.5
			C560.9,254.3,559.7,254.8,558.4,254.8z"/>
	</g>
</g>
<circle style="fill:#DAE2EE;" cx="410.1" cy="220.1" r="5.2"/>
<path style="fill:none;stroke:#F0F3F7;stroke-width:5;stroke-linecap:round;stroke-linejoin:round;stroke-miterlimit:10;" d="
	M443,176.2c2.7-1.8,9.2-5.7,18.1-5.8c9.3-0.1,16,3.9,18.7,5.8"/>
<g>
	<circle style="fill:#F0F3F7;" cx="473.7" cy="153.7" r="5.3"/>
	<circle style="fill:#F0F3F7;" cx="449.1" cy="153.7" r="5.3"/>
</g>
<path style="fill:none;stroke:#CFD8E5;stroke-width:5;stroke-linecap:round;stroke-linejoin:round;stroke-miterlimit:10;" d="
	M444,93.5c5.4-8,5.8-13.8,5-17.7c-1.2-6.6-5.9-9.3-7-16.9c-0.7-5.3,0.7-9.9,2-12.9"/>
<path style="fill:none;stroke:#CFD8E5;stroke-width:5;stroke-linecap:round;stroke-linejoin:round;stroke-miterlimit:10;" d="
	M461.6,93.5c5.4-8,5.8-13.8,5-17.7c-1.2-6.6-5.9-9.3-7-16.9c-0.7-5.3,0.7-9.9,2-12.9"/>
<path style="fill:none;stroke:#CFD8E5;stroke-width:5;stroke-linecap:round;stroke-linejoin:round;stroke-miterlimit:10;" d="
	M478.2,93.5c5.4-8,5.8-13.8,5-17.7c-1.2-6.6-5.9-9.3-7-16.9c-0.7-5.3,0.7-9.9,2-12.9"/>
<g>
	<path style="fill:#D2D7DB;" d="M33.6,133.9L33.6,133.9c0-9,6.8-16.4,16.5-16.4c9.7,0,16.4,7.3,16.4,16.2v0.1
		c0,8.9-6.8,16.3-16.5,16.3C40.4,150.1,33.6,142.8,33.6,133.9z M60.7,133.9L60.7,133.9c0-6.2-4.5-11.3-10.7-11.3
		c-6.3,0-10.6,5-10.6,11.1v0.1c0,6.1,4.5,11.2,10.7,11.2C56.4,145,60.7,140,60.7,133.9z"/>
	<path style="fill:#D2D7DB;" d="M72.6,119.2c0-1.5,1.2-2.7,2.7-2.7c1.5,0,2.7,1.2,2.7,2.7v10.3c1.5-2.2,3.7-4.1,7.4-4.1
		c5.4,0,8.5,3.6,8.5,9.1v12.7c0,1.5-1.2,2.7-2.7,2.7c-1.5,0-2.7-1.2-2.7-2.7v-11c0-3.7-1.8-5.8-5.1-5.8c-3.1,0-5.4,2.2-5.4,5.9v10.9
		c0,1.5-1.2,2.7-2.7,2.7c-1.5,0-2.7-1.2-2.7-2.7V119.2z"/>
	<path style="fill:#D2D7DB;" d="M114,128.3c0-1.5,1.2-2.7,2.7-2.7c1.5,0,2.7,1.2,2.7,2.7v1.2c1.5-2.2,3.7-4.1,7.4-4.1
		c5.4,0,8.5,3.6,8.5,9.1v12.7c0,1.5-1.2,2.7-2.7,2.7c-1.5,0-2.7-1.2-2.7-2.7v-11c0-3.7-1.8-5.8-5.1-5.8c-3.1,0-5.4,2.2-5.4,5.9v10.9
		c0,1.5-1.2,2.7-2.7,2.7c-1.5,0-2.7-1.2-2.7-2.7V128.3z"/>
	<path style="fill:#D2D7DB;" d="M140.6,137.8L140.6,137.8c0-6.9,5.4-12.5,12.7-12.5c7.3,0,12.6,5.5,12.6,12.3v0.1
		c0,6.7-5.4,12.4-12.7,12.4C146,150.1,140.6,144.6,140.6,137.8z M160.5,137.8L160.5,137.8c0-4.3-3-7.7-7.3-7.7
		c-4.4,0-7.2,3.4-7.2,7.6v0.1c0,4.1,3,7.6,7.2,7.6C157.7,145.3,160.5,141.9,160.5,137.8z"/>
	<path style="fill:#D2D7DB;" d="M171.7,119.9c-0.1-1.1,0.5-1.9,1.6-1.9h3.2c1,0,1.7,0.9,1.6,1.9l-1.6,18.4c-0.1,1-0.8,1.6-1.7,1.6
		c-0.9,0-1.5-0.6-1.6-1.6L171.7,119.9z M174.8,143.1c1.8,0,3.2,1.3,3.2,3.1v0.5c0,1.8-1.4,3.1-3.2,3.1c-1.8,0-3.2-1.4-3.2-3.1v-0.5
		C171.7,144.5,173,143.1,174.8,143.1z"/>
</g>
<g>
	<path style="fill:#D2D7DB;" d="M33.3,184.2c0-0.8,0.7-1.5,1.5-1.5c0.8,0,1.5,0.7,1.5,1.5v14.2c0,0.8-0.7,1.5-1.5,1.5
		c-0.8,0-1.5-0.7-1.5-1.5V184.2z"/>
	<path style="fill:#D2D7DB;" d="M41.1,196.2v-6.7h-0.5c-0.7,0-1.3-0.6-1.3-1.3s0.6-1.3,1.3-1.3h0.5v-2.2c0-0.8,0.7-1.5,1.5-1.5
		c0.8,0,1.5,0.7,1.5,1.5v2.2h2.3c0.7,0,1.3,0.6,1.3,1.3s-0.6,1.3-1.3,1.3H44v6.3c0,1.1,0.6,1.6,1.6,1.6c0.3,0,0.6-0.1,0.7-0.1
		c0.7,0,1.2,0.5,1.2,1.2c0,0.5-0.4,1-0.8,1.1c-0.6,0.2-1.2,0.3-2,0.3C42.6,200,41.1,199,41.1,196.2z"/>
	<path style="fill:#D2D7DB;" d="M57.8,183.4c0-0.8,0.6-1.5,1.5-1.5c0.8,0,1.5,0.7,1.5,1.5v15c0,0.8-0.7,1.5-1.5,1.5
		c-0.8,0-1.5-0.6-1.5-1.5V183.4z"/>
	<path style="fill:#D2D7DB;" d="M63.9,193.4L63.9,193.4c0-3.7,2.9-6.7,6.8-6.7s6.8,3,6.8,6.6v0c0,3.6-2.9,6.7-6.8,6.7
		C66.8,200,63.9,197.1,63.9,193.4z M74.6,193.4L74.6,193.4c0-2.3-1.6-4.2-3.9-4.2c-2.3,0-3.8,1.8-3.8,4.1v0c0,2.2,1.6,4.1,3.9,4.1
		C73.1,197.5,74.6,195.6,74.6,193.4z"/>
	<path style="fill:#D2D7DB;" d="M79.8,193.4L79.8,193.4c0-3.7,2.9-6.7,6.8-6.7s6.8,3,6.8,6.6v0c0,3.6-2.9,6.7-6.8,6.7
		C82.7,200,79.8,197.1,79.8,193.4z M90.5,193.4L90.5,193.4c0-2.3-1.6-4.2-3.9-4.2c-2.3,0-3.8,1.8-3.8,4.1v0c0,2.2,1.6,4.1,3.9,4.1
		C89,197.5,90.5,195.6,90.5,193.4z"/>
	<path style="fill:#D2D7DB;" d="M96.4,183.4c0-0.8,0.6-1.5,1.5-1.5c0.8,0,1.5,0.7,1.5,1.5v9.4l5.5-5.4c0.4-0.4,0.8-0.6,1.3-0.6
		c0.8,0,1.3,0.6,1.3,1.3c0,0.5-0.2,0.8-0.7,1.2l-3.4,3.1l3.9,5.1c0.3,0.4,0.4,0.6,0.4,1c0,0.8-0.6,1.3-1.4,1.3
		c-0.6,0-0.9-0.2-1.3-0.7l-3.7-4.9l-1.9,1.8v2.2c0,0.8-0.7,1.5-1.5,1.5c-0.8,0-1.5-0.6-1.5-1.5V183.4z"/>
	<path style="fill:#D2D7DB;" d="M110,198.5c-0.3-0.2-0.6-0.5-0.6-1c0-0.7,0.5-1.2,1.2-1.2c0.2,0,0.5,0.1,0.6,0.2
		c1.2,0.8,2.5,1.2,3.7,1.2c1.3,0,2-0.5,2-1.4v0c0-1-1.4-1.3-2.9-1.8c-1.9-0.5-4-1.3-4-3.8v0c0-2.4,2-3.9,4.5-3.9c1.4,0,2.8,0.4,4,1
		c0.4,0.2,0.7,0.6,0.7,1.1c0,0.7-0.5,1.2-1.2,1.2c-0.2,0-0.4,0-0.6-0.1c-1-0.5-2.1-0.9-3-0.9c-1.1,0-1.8,0.5-1.8,1.3v0
		c0,0.9,1.4,1.3,2.9,1.8c1.9,0.6,4,1.4,4,3.7v0c0,2.7-2.1,4-4.7,4C113.2,200,111.4,199.5,110,198.5z"/>
	<path style="fill:#D2D7DB;" d="M130,183.4c0-0.8,0.6-1.5,1.5-1.5c0.8,0,1.5,0.7,1.5,1.5v15c0,0.8-0.7,1.5-1.5,1.5
		c-0.8,0-1.5-0.6-1.5-1.5V183.4z"/>
	<path style="fill:#D2D7DB;" d="M136.7,183.5c0-0.9,0.7-1.4,1.7-1.4s1.7,0.6,1.7,1.4v0.1c0,0.9-0.7,1.5-1.7,1.5s-1.7-0.6-1.7-1.5
		V183.5z M136.9,188.3c0-0.8,0.6-1.5,1.5-1.5c0.8,0,1.5,0.7,1.5,1.5v10.1c0,0.8-0.7,1.5-1.5,1.5c-0.8,0-1.5-0.6-1.5-1.5V188.3z"/>
	<path style="fill:#D2D7DB;" d="M143.7,183.4c0-0.8,0.6-1.5,1.5-1.5c0.8,0,1.5,0.7,1.5,1.5v9.4l5.5-5.4c0.4-0.4,0.8-0.6,1.3-0.6
		c0.8,0,1.3,0.6,1.3,1.3c0,0.5-0.2,0.8-0.7,1.2l-3.4,3.1l3.9,5.1c0.3,0.4,0.4,0.6,0.4,1c0,0.8-0.6,1.3-1.4,1.3
		c-0.6,0-0.9-0.2-1.3-0.7l-3.7-4.9l-1.9,1.8v2.2c0,0.8-0.7,1.5-1.5,1.5c-0.8,0-1.5-0.6-1.5-1.5V183.4z"/>
	<path style="fill:#D2D7DB;" d="M163.2,200c-3.7,0-6.6-2.7-6.6-6.6v0c0-3.7,2.6-6.7,6.2-6.7c4.1,0,6.1,3.3,6.1,6.3
		c0,0.8-0.6,1.4-1.4,1.4h-8c0.3,2.1,1.8,3.2,3.7,3.2c1.2,0,2.2-0.4,3-1.1c0.2-0.2,0.4-0.3,0.8-0.3c0.7,0,1.2,0.5,1.2,1.2
		c0,0.4-0.2,0.7-0.4,0.9C166.6,199.4,165.2,200,163.2,200z M166.1,192.5c-0.2-1.9-1.3-3.4-3.2-3.4c-1.8,0-3,1.4-3.3,3.4H166.1z"/>
	<path style="fill:#D2D7DB;" d="M179.8,196.2v-6.7h-0.5c-0.7,0-1.3-0.6-1.3-1.3s0.6-1.3,1.3-1.3h0.5v-2.2c0-0.8,0.7-1.5,1.5-1.5
		c0.8,0,1.5,0.7,1.5,1.5v2.2h2.3c0.7,0,1.3,0.6,1.3,1.3s-0.6,1.3-1.3,1.3h-2.3v6.3c0,1.1,0.6,1.6,1.6,1.6c0.3,0,0.6-0.1,0.7-0.1
		c0.7,0,1.2,0.5,1.2,1.2c0,0.5-0.4,1-0.8,1.1c-0.6,0.2-1.2,0.3-2,0.3C181.4,200,179.8,199,179.8,196.2z"/>
	<path style="fill:#D2D7DB;" d="M189.2,183.4c0-0.8,0.6-1.5,1.5-1.5c0.8,0,1.5,0.7,1.5,1.5v5.5c0.8-1.2,2-2.2,4-2.2
		c2.9,0,4.5,1.9,4.5,4.9v6.8c0,0.8-0.6,1.5-1.5,1.5s-1.5-0.6-1.5-1.5v-5.9c0-2-1-3.1-2.7-3.1c-1.7,0-2.9,1.2-2.9,3.2v5.9
		c0,0.8-0.7,1.5-1.5,1.5c-0.8,0-1.5-0.6-1.5-1.5V183.4z"/>
	<path style="fill:#D2D7DB;" d="M204.1,183.5c0-0.9,0.7-1.4,1.7-1.4c0.9,0,1.7,0.6,1.7,1.4v0.1c0,0.9-0.7,1.5-1.7,1.5
		c-0.9,0-1.7-0.6-1.7-1.5V183.5z M204.4,188.3c0-0.8,0.6-1.5,1.5-1.5c0.8,0,1.5,0.7,1.5,1.5v10.1c0,0.8-0.7,1.5-1.5,1.5
		c-0.8,0-1.5-0.6-1.5-1.5V188.3z"/>
	<path style="fill:#D2D7DB;" d="M210.6,198.5c-0.3-0.2-0.6-0.5-0.6-1c0-0.7,0.5-1.2,1.2-1.2c0.2,0,0.5,0.1,0.6,0.2
		c1.2,0.8,2.5,1.2,3.7,1.2c1.3,0,2-0.5,2-1.4v0c0-1-1.4-1.3-2.9-1.8c-1.9-0.5-4-1.3-4-3.8v0c0-2.4,2-3.9,4.5-3.9c1.4,0,2.8,0.4,4,1
		c0.4,0.2,0.7,0.6,0.7,1.1c0,0.7-0.5,1.2-1.2,1.2c-0.2,0-0.4,0-0.6-0.1c-1-0.5-2.1-0.9-3-0.9c-1.1,0-1.8,0.5-1.8,1.3v0
		c0,0.9,1.4,1.3,2.9,1.8c1.9,0.6,4,1.4,4,3.7v0c0,2.7-2.1,4-4.7,4C213.9,200,212.1,199.5,210.6,198.5z"/>
	<path style="fill:#D2D7DB;" d="M230.5,188.3c0-0.8,0.6-1.5,1.5-1.5c0.8,0,1.5,0.7,1.5,1.5v0.8c0.9-1.3,2.3-2.4,4.4-2.4
		c3,0,5.9,2.4,5.9,6.6v0c0,4.2-2.9,6.6-5.9,6.6c-2.1,0-3.5-1.1-4.4-2.3v4.5c0,0.8-0.7,1.5-1.5,1.5c-0.8,0-1.5-0.6-1.5-1.5V188.3z
		 M240.7,193.4L240.7,193.4c0-2.5-1.7-4.1-3.7-4.1s-3.7,1.6-3.7,4.1v0c0,2.4,1.7,4.1,3.7,4.1C239.1,197.5,240.7,195.9,240.7,193.4z"
		/>
	<path style="fill:#D2D7DB;" d="M245.9,196.1L245.9,196.1c0-2.8,2.2-4.2,5.3-4.2c1.4,0,2.4,0.2,3.4,0.5v-0.3c0-1.8-1.1-2.8-3.2-2.8
		c-1.1,0-2,0.2-2.8,0.5c-0.2,0-0.3,0.1-0.5,0.1c-0.7,0-1.2-0.5-1.2-1.2c0-0.5,0.4-1,0.8-1.2c1.2-0.5,2.4-0.8,4.1-0.8
		c1.9,0,3.3,0.5,4.2,1.4c0.9,0.9,1.4,2.3,1.4,3.9v6.3c0,0.8-0.6,1.4-1.4,1.4c-0.8,0-1.4-0.6-1.4-1.2v-0.5c-0.9,1-2.2,1.9-4.2,1.9
		C248,200,245.9,198.6,245.9,196.1z M254.7,195.1v-0.9c-0.8-0.3-1.7-0.5-2.9-0.5c-1.9,0-3,0.8-3,2.1v0c0,1.2,1.1,1.9,2.5,1.9
		C253.2,197.9,254.7,196.8,254.7,195.1z"/>
	<path style="fill:#D2D7DB;" d="M261.7,202.5c-0.5-0.2-0.8-0.6-0.8-1.2c0-0.7,0.6-1.2,1.2-1.2c0.2,0,0.4,0,0.5,0.1
		c1.2,0.7,2.4,1,3.9,1c2.6,0,4-1.4,4-3.9v-1c-1.1,1.4-2.4,2.3-4.5,2.3c-3,0-5.8-2.2-5.8-6v0c0-3.8,2.8-6,5.8-6c2.2,0,3.5,1,4.5,2.2
		v-0.6c0-0.8,0.7-1.5,1.5-1.5c0.8,0,1.5,0.7,1.5,1.5v8.8c0,2.2-0.6,3.8-1.6,4.8c-1.2,1.2-3,1.7-5.3,1.7
		C264.8,203.7,263.2,203.3,261.7,202.5z M270.6,192.7L270.6,192.7c0-2.1-1.7-3.6-3.8-3.6c-2,0-3.6,1.4-3.6,3.5v0
		c0,2.1,1.6,3.5,3.6,3.5C268.9,196.2,270.6,194.8,270.6,192.7z"/>
	<path style="fill:#D2D7DB;" d="M283,200c-3.7,0-6.6-2.7-6.6-6.6v0c0-3.7,2.6-6.7,6.2-6.7c4.1,0,6.1,3.3,6.1,6.3
		c0,0.8-0.6,1.4-1.4,1.4h-8c0.3,2.1,1.8,3.2,3.7,3.2c1.2,0,2.2-0.4,3-1.1c0.2-0.2,0.4-0.3,0.8-0.3c0.7,0,1.2,0.5,1.2,1.2
		c0,0.4-0.2,0.7-0.4,0.9C286.5,199.4,285,200,283,200z M286,192.5c-0.2-1.9-1.3-3.4-3.2-3.4c-1.8,0-3,1.4-3.3,3.4H286z"/>
	<path style="fill:#D2D7DB;" d="M32.8,217.3c0-0.8,0.6-1.5,1.5-1.5c0.8,0,1.5,0.7,1.5,1.5v0.6c0.8-1.2,2-2.2,4-2.2
		c2.9,0,4.5,1.9,4.5,4.9v6.8c0,0.8-0.6,1.5-1.5,1.5c-0.8,0-1.5-0.6-1.5-1.5v-5.9c0-2-1-3.1-2.7-3.1c-1.7,0-2.9,1.2-2.9,3.2v5.9
		c0,0.8-0.7,1.5-1.5,1.5c-0.8,0-1.5-0.6-1.5-1.5V217.3z"/>
	<path style="fill:#D2D7DB;" d="M47.1,222.5L47.1,222.5c0-3.7,2.9-6.7,6.8-6.7s6.8,3,6.8,6.6v0c0,3.6-2.9,6.7-6.8,6.7
		C50,229.1,47.1,226.1,47.1,222.5z M57.8,222.5L57.8,222.5c0-2.3-1.6-4.2-3.9-4.2c-2.3,0-3.8,1.8-3.8,4.1v0c0,2.2,1.6,4.1,3.9,4.1
		C56.3,226.5,57.8,224.7,57.8,222.5z"/>
	<path style="fill:#D2D7DB;" d="M71.1,212.5c0-0.8,0.6-1.5,1.5-1.5c0.8,0,1.5,0.7,1.5,1.5v15c0,0.8-0.7,1.5-1.5,1.5
		c-0.8,0-1.5-0.6-1.5-1.5V212.5z"/>
	<path style="fill:#D2D7DB;" d="M77.2,222.5L77.2,222.5c0-3.7,2.9-6.7,6.8-6.7s6.8,3,6.8,6.6v0c0,3.6-2.9,6.7-6.8,6.7
		C80.1,229.1,77.2,226.1,77.2,222.5z M87.9,222.5L87.9,222.5c0-2.3-1.6-4.2-3.9-4.2c-2.3,0-3.8,1.8-3.8,4.1v0c0,2.2,1.6,4.1,3.9,4.1
		C86.4,226.5,87.9,224.7,87.9,222.5z"/>
	<path style="fill:#D2D7DB;" d="M93.8,217.3c0-0.8,0.6-1.5,1.5-1.5c0.8,0,1.5,0.7,1.5,1.5v0.6c0.8-1.2,2-2.2,4-2.2
		c2.9,0,4.5,1.9,4.5,4.9v6.8c0,0.8-0.6,1.5-1.5,1.5c-0.8,0-1.5-0.6-1.5-1.5v-5.9c0-2-1-3.1-2.7-3.1c-1.7,0-2.9,1.2-2.9,3.2v5.9
		c0,0.8-0.7,1.5-1.5,1.5c-0.8,0-1.5-0.6-1.5-1.5V217.3z"/>
	<path style="fill:#D2D7DB;" d="M109.5,231.6c-0.5-0.2-0.8-0.6-0.8-1.2c0-0.7,0.6-1.2,1.2-1.2c0.2,0,0.4,0,0.5,0.1
		c1.2,0.7,2.4,1,3.9,1c2.6,0,4-1.4,4-3.9v-1c-1.1,1.4-2.4,2.3-4.5,2.3c-3,0-5.8-2.2-5.8-6v0c0-3.8,2.8-6,5.8-6c2.2,0,3.5,1,4.5,2.2
		v-0.6c0-0.8,0.7-1.5,1.5-1.5c0.8,0,1.5,0.7,1.5,1.5v8.8c0,2.2-0.6,3.8-1.6,4.8c-1.2,1.2-3,1.7-5.3,1.7
		C112.7,232.7,111.1,232.3,109.5,231.6z M118.5,221.8L118.5,221.8c0-2.1-1.7-3.6-3.8-3.6c-2,0-3.6,1.4-3.6,3.5v0
		c0,2.1,1.6,3.5,3.6,3.5C116.8,225.3,118.5,223.9,118.5,221.8z"/>
	<path style="fill:#D2D7DB;" d="M130.9,229.1c-3.7,0-6.6-2.7-6.6-6.6v0c0-3.7,2.6-6.7,6.2-6.7c4.1,0,6.1,3.3,6.1,6.3
		c0,0.8-0.6,1.4-1.4,1.4h-8c0.3,2.1,1.8,3.2,3.7,3.2c1.2,0,2.2-0.4,3-1.1c0.2-0.2,0.4-0.3,0.8-0.3c0.7,0,1.2,0.5,1.2,1.2
		c0,0.4-0.2,0.7-0.4,0.9C134.3,228.4,132.9,229.1,130.9,229.1z M133.8,221.5c-0.2-1.9-1.3-3.4-3.2-3.4c-1.8,0-3,1.4-3.3,3.4H133.8z"
		/>
	<path style="fill:#D2D7DB;" d="M139.7,217.3c0-0.8,0.6-1.5,1.5-1.5c0.8,0,1.5,0.7,1.5,1.5v1.3c0.7-1.6,1.9-2.8,3.2-2.8
		c0.9,0,1.5,0.6,1.5,1.5c0,0.8-0.5,1.3-1.2,1.4c-2.1,0.4-3.5,2-3.5,5v3.8c0,0.8-0.7,1.5-1.5,1.5c-0.8,0-1.5-0.6-1.5-1.5V217.3z"/>
	<path style="fill:#D2D7DB;" d="M162.8,229.1c-3.7,0-6.6-2.7-6.6-6.6v0c0-3.7,2.6-6.7,6.2-6.7c4.1,0,6.1,3.3,6.1,6.3
		c0,0.8-0.6,1.4-1.4,1.4h-8c0.3,2.1,1.8,3.2,3.7,3.2c1.2,0,2.2-0.4,3-1.1c0.2-0.2,0.4-0.3,0.8-0.3c0.7,0,1.2,0.5,1.2,1.2
		c0,0.4-0.2,0.7-0.4,0.9C166.2,228.4,164.8,229.1,162.8,229.1z M165.7,221.5c-0.2-1.9-1.3-3.4-3.2-3.4c-1.8,0-3,1.4-3.3,3.4H165.7z"
		/>
	<path style="fill:#D2D7DB;" d="M170.8,226.7l3.6-4.4l-3.4-4c-0.3-0.4-0.5-0.7-0.5-1.1c0-0.8,0.6-1.4,1.4-1.4c0.6,0,1,0.3,1.4,0.7
		l2.9,3.8l2.9-3.8c0.3-0.4,0.8-0.8,1.3-0.8c0.8,0,1.4,0.6,1.4,1.3c0,0.4-0.2,0.7-0.4,1l-3.5,4.1l3.6,4.2c0.3,0.4,0.5,0.7,0.5,1.1
		c0,0.8-0.6,1.4-1.4,1.4c-0.6,0-1-0.3-1.4-0.8l-3.1-4l-3.1,4c-0.3,0.4-0.8,0.8-1.3,0.8c-0.8,0-1.4-0.6-1.4-1.3
		C170.4,227.3,170.5,227,170.8,226.7z"/>
	<path style="fill:#D2D7DB;" d="M184.9,212.6c0-0.9,0.7-1.4,1.7-1.4c0.9,0,1.7,0.6,1.7,1.4v0.1c0,0.9-0.7,1.5-1.7,1.5
		c-0.9,0-1.7-0.6-1.7-1.5V212.6z M185.1,217.3c0-0.8,0.6-1.5,1.5-1.5c0.8,0,1.5,0.7,1.5,1.5v10.1c0,0.8-0.7,1.5-1.5,1.5
		c-0.8,0-1.5-0.6-1.5-1.5V217.3z"/>
	<path style="fill:#D2D7DB;" d="M191.4,227.5c-0.3-0.2-0.6-0.5-0.6-1c0-0.7,0.5-1.2,1.2-1.2c0.2,0,0.5,0.1,0.6,0.2
		c1.2,0.8,2.5,1.2,3.7,1.2c1.3,0,2-0.5,2-1.4v0c0-1-1.4-1.3-2.9-1.8c-1.9-0.5-4-1.3-4-3.8v0c0-2.4,2-3.9,4.5-3.9c1.4,0,2.8,0.4,4,1
		c0.4,0.2,0.7,0.6,0.7,1.1c0,0.7-0.5,1.2-1.2,1.2c-0.2,0-0.4,0-0.6-0.1c-1-0.5-2.1-0.9-3-0.9c-1.1,0-1.8,0.5-1.8,1.3v0
		c0,0.9,1.4,1.3,2.9,1.8c1.9,0.6,4,1.4,4,3.7v0c0,2.7-2.1,4-4.7,4C194.6,229,192.8,228.5,191.4,227.5z"/>
	<path style="fill:#D2D7DB;" d="M204.3,225.3v-6.7h-0.5c-0.7,0-1.3-0.6-1.3-1.3s0.6-1.3,1.3-1.3h0.5v-2.2c0-0.8,0.7-1.5,1.5-1.5
		c0.8,0,1.5,0.7,1.5,1.5v2.2h2.3c0.7,0,1.3,0.6,1.3,1.3s-0.6,1.3-1.3,1.3h-2.3v6.3c0,1.1,0.6,1.6,1.6,1.6c0.3,0,0.6-0.1,0.7-0.1
		c0.7,0,1.2,0.5,1.2,1.2c0,0.5-0.4,1-0.8,1.1c-0.6,0.2-1.2,0.3-2,0.3C205.9,229,204.3,228.1,204.3,225.3z"/>
	<path style="fill:#D2D7DB;" d="M213.2,227.5c-0.3-0.2-0.6-0.5-0.6-1c0-0.7,0.5-1.2,1.2-1.2c0.2,0,0.5,0.1,0.6,0.2
		c1.2,0.8,2.5,1.2,3.7,1.2c1.3,0,2-0.5,2-1.4v0c0-1-1.4-1.3-2.9-1.8c-1.9-0.5-4-1.3-4-3.8v0c0-2.4,2-3.9,4.5-3.9c1.4,0,2.8,0.4,4,1
		c0.4,0.2,0.7,0.6,0.7,1.1c0,0.7-0.5,1.2-1.2,1.2c-0.2,0-0.4,0-0.6-0.1c-1-0.5-2.1-0.9-3-0.9c-1.1,0-1.8,0.5-1.8,1.3v0
		c0,0.9,1.4,1.3,2.9,1.8c1.9,0.6,4,1.4,4,3.7v0c0,2.7-2.1,4-4.7,4C216.4,229,214.7,228.5,213.2,227.5z"/>
</g>
</svg>
